<svg width="40" height="40" viewBox="0 0 40 40" fill="none" xmlns="http://www.w3.org/2000/svg">
<g clip-path="url(#clip0_1350_8604)">
<path d="M20 40C31.0457 40 40 31.0457 40 20C40 8.9543 31.0457 0 20 0C8.9543 0 0 8.9543 0 20C0 31.0457 8.9543 40 20 40Z" fill="#F0F0F0"/>
<path d="M33.9941 5.71437C30.3869 2.18 25.448 0 19.999 0C18.2598 0 13.1713 2.18 9.56421 5.71437H33.9941Z" fill="#6DA544"/>
<path d="M20 17.143H39.796C39.5074 15.1254 38.9181 13.2051 38.0742 11.4287H19.1305L20 17.143Z" fill="#6DA544"/>
<path d="M1.92541 28.5718H38.0737C38.9176 26.7955 39.5069 24.875 39.7955 22.8574H0.203613C0.492285 24.8751 1.08143 26.7955 1.92541 28.5718Z" fill="#6DA544"/>
<path d="M6.00439 34.2861C9.61166 37.8205 14.5506 40.0005 19.9996 40.0005C25.4485 40.0005 30.3874 37.8205 33.9947 34.2861H6.00439Z" fill="#6DA544"/>
<path d="M19.9996 0C9.92408 0 1.59018 7.45086 0.203613 17.1429H19.9996V0Z" fill="#D80027"/>
<path d="M9.9999 15.3334L9.13037 13.5944V10.1161L11.3043 8.37695L13.4782 10.1161V12.7248L14.3477 11.8552V13.5944L12.6086 15.3334H9.9999Z" fill="#F0F0F0"/>
<path d="M5.32252 10L5.55276 10.7086H6.29776L5.69502 11.1466L5.92534 11.8552L5.32252 11.4172L4.71971 11.8552L4.95002 11.1466L4.34729 10.7086H5.09229L5.32252 10Z" fill="#F0F0F0"/>
<path d="M7.06215 8.26074L7.29238 8.96934H8.03746L7.43465 9.40738L7.66488 10.1159L7.06215 9.67801L6.45941 10.1159L6.68973 9.40738L6.08691 8.96934H6.83184L7.06215 8.26074Z" fill="#F0F0F0"/>
<path d="M8.80018 6.52246L9.03042 7.23105H9.77534L9.17269 7.6691L9.40284 8.37762L8.80018 7.93973L8.19737 8.37762L8.42761 7.6691L7.82495 7.23105H8.56987L8.80018 6.52246Z" fill="#F0F0F0"/>
<path d="M17.2851 10L17.0549 10.7086H16.3099L16.9126 11.1466L16.6824 11.8552L17.2851 11.4172L17.8879 11.8552L17.6577 11.1466L18.2603 10.7086H17.5154L17.2851 10Z" fill="#F0F0F0"/>
<path d="M15.5455 8.26074L15.3152 8.96934H14.5703L15.173 9.40738L14.9427 10.1159L15.5455 9.67801L16.1483 10.1159L15.918 9.40738L16.5207 8.96934H15.7758L15.5455 8.26074Z" fill="#F0F0F0"/>
<path d="M13.8075 6.52246L13.5772 7.23105H12.8323L13.4349 7.6691L13.2047 8.37762L13.8075 7.93973L14.4102 8.37762L14.18 7.6691L14.7827 7.23105H14.0377L13.8075 6.52246Z" fill="#F0F0F0"/>
<path d="M11.3043 5.65234L11.074 6.36094H10.3291L10.9318 6.79891L10.7015 7.50742L11.3043 7.06953L11.9071 7.50742L11.6768 6.79891L12.2795 6.36094H11.5346L11.3043 5.65234Z" fill="#F0F0F0"/>
</g>
<defs>
<clipPath id="clip0_1350_8604">
<rect width="40" height="40" fill="white"/>
</clipPath>
</defs>
</svg>
