<svg width="40" height="40" viewBox="0 0 40 40" fill="none" xmlns="http://www.w3.org/2000/svg">
<g clip-path="url(#clip0_1350_8621)">
<path d="M28.6961 1.98453C26.0668 0.713125 23.1169 0 20.0005 0C16.8841 0 13.9343 0.713125 11.3049 1.98453L9.56573 20L11.3049 38.0155C13.9343 39.2869 16.8841 40 20.0005 40C23.1169 40 26.0668 39.2869 28.6961 38.0155L30.4353 20L28.6961 1.98453Z" fill="#D80027"/>
<path d="M11.3044 1.98535C4.61453 5.22027 0 12.071 0 20.0001C0 27.9293 4.61453 34.78 11.3044 38.0149V1.98535Z" fill="black"/>
<path d="M28.6962 1.98535V38.0149C35.386 34.78 40.0005 27.9293 40.0005 20.0001C40.0005 12.071 35.386 5.22027 28.6962 1.98535Z" fill="#496E2D"/>
<path d="M19.9999 13.043C16.1578 13.043 13.0434 16.1575 13.0434 19.9995C13.0434 23.8414 16.1579 26.9559 19.9999 26.9559C23.8418 26.9559 26.9564 23.8414 26.9564 19.9995C26.9564 16.1575 23.8419 13.043 19.9999 13.043ZM19.9999 24.3473C17.5986 24.3473 15.6521 22.4006 15.6521 19.9995C15.6521 17.5983 17.5987 15.6516 19.9999 15.6516C22.4011 15.6516 24.3477 17.5983 24.3477 19.9995C24.3477 22.4006 22.4011 24.3473 19.9999 24.3473Z" fill="#FFDA44"/>
<path d="M19.9995 17.3906C19.039 17.3906 18.2604 18.1692 18.2604 19.1298V21.7385H21.7387V19.1298C21.7387 18.1692 20.9601 17.3906 19.9995 17.3906Z" fill="#FFDA44"/>
</g>
<defs>
<clipPath id="clip0_1350_8621">
<rect width="40" height="40" fill="white"/>
</clipPath>
</defs>
</svg>
