<svg width="40" height="40" viewBox="0 0 40 40" fill="none" xmlns="http://www.w3.org/2000/svg">
<g clip-path="url(#clip0_1350_8636)">
<path d="M20 40C31.0457 40 40 31.0457 40 20C40 8.9543 31.0457 0 20 0C8.9543 0 0 8.9543 0 20C0 31.0457 8.9543 40 20 40Z" fill="#D80027"/>
<path d="M31.3049 14.8442H24.0607C24.5079 14.3759 24.7831 13.7419 24.7831 13.0432C24.7831 11.6025 23.6151 10.4346 22.1744 10.4346C21.2668 10.4346 20.4678 10.8983 20.0005 11.6015C19.5333 10.8983 18.7342 10.4346 17.8266 10.4346C16.3859 10.4346 15.2179 11.6025 15.2179 13.0432C15.2179 13.7419 15.4932 14.376 15.9404 14.8442H8.69623C8.69623 16.7652 10.3694 18.3224 12.2903 18.3224H12.1744C12.1744 20.2435 13.7316 21.8007 15.6527 21.8007C15.6527 22.4229 15.8167 23.0062 16.1029 23.5112L13.2178 26.3964L15.4314 28.6099L18.5714 25.47C18.6944 25.515 18.8216 25.5512 18.953 25.5758L17.0556 29.8598L20.0005 33.0432L22.9454 29.8597L21.048 25.5757C21.1795 25.5511 21.3067 25.515 21.4297 25.4698L24.5697 28.6097L26.7833 26.3962L23.898 23.511C24.1844 23.0061 24.3483 22.4227 24.3483 21.8005C26.2694 21.8005 27.8266 20.2433 27.8266 18.3221H27.7108C29.6316 18.3223 31.3049 16.7652 31.3049 14.8442Z" fill="black"/>
</g>
<defs>
<clipPath id="clip0_1350_8636">
<rect width="40" height="40" fill="white"/>
</clipPath>
</defs>
</svg>
