<svg width="40" height="40" viewBox="0 0 40 40" fill="none" xmlns="http://www.w3.org/2000/svg">
<g clip-path="url(#clip0_1350_8639)">
<path d="M19.9995 0C31.0452 0 39.9995 8.95437 39.9995 20C39.9995 31.0456 31.0452 40 19.9995 40C19.9995 39.1305 17.3909 20 17.3909 20L19.9995 0Z" fill="#F0F0F0"/>
<path d="M20 40C8.95437 40 0 31.0456 0 20C0 8.95437 8.95437 0 20 0" fill="#496E2D"/>
<path d="M24.2967 16.1631L22.6558 18.4244L19.9982 17.5625L21.6418 19.8219L20.001 22.0832L22.6576 21.2183L24.3012 23.4776L24.2995 20.6838L26.9561 19.8188L24.2986 18.9571L24.2967 16.1631Z" fill="#D80027"/>
<path d="M21.6592 25.6517C18.5376 25.6517 16.007 23.1211 16.007 19.9995C16.007 16.878 18.5376 14.3473 21.6592 14.3473C22.6325 14.3473 23.5484 14.5934 24.3479 15.0267C23.0935 13.8001 21.3782 13.043 19.4853 13.043C15.6433 13.043 12.5288 16.1575 12.5288 19.9995C12.5288 23.8414 15.6433 26.9559 19.4853 26.9559C21.3783 26.9559 23.0936 26.1988 24.3479 24.9722C23.5484 25.4056 22.6325 25.6517 21.6592 25.6517Z" fill="#D80027"/>
</g>
<defs>
<clipPath id="clip0_1350_8639">
<rect width="40" height="40" fill="white"/>
</clipPath>
</defs>
</svg>
