<svg width="40" height="40" viewBox="0 0 40 40" fill="none" xmlns="http://www.w3.org/2000/svg">
<g clip-path="url(#clip0_1350_18676)">
<mask id="mask0_1350_18676" style="mask-type:luminance" maskUnits="userSpaceOnUse" x="0" y="0" width="40" height="40">
<path d="M19.9941 39.9879C31.032 39.9879 39.98 31.0399 39.98 20.002C39.98 8.96411 31.032 0.0161133 19.9941 0.0161133C8.95617 0.0161133 0.00817871 8.96411 0.00817871 20.002C0.00817871 31.0399 8.95617 39.9879 19.9941 39.9879Z" fill="white"/>
</mask>
<g mask="url(#mask0_1350_18676)">
<path d="M-14.0084 20.016V-0.36454C-13.9588 -0.391319 -13.905 -0.37807 -13.8534 -0.37807C8.69883 -0.37807 31.2511 -0.37807 53.8033 -0.37807C54.0006 -0.37807 53.9809 -0.398366 53.9809 -0.202736C53.9809 6.48517 53.9809 13.1728 53.9809 19.8601C53.9809 19.9199 54.0045 19.9867 53.9493 20.038C53.9129 20.0615 53.8698 20.0722 53.8267 20.0684C53.6739 20.0481 53.5205 20.0594 53.3675 20.0594C46.1917 20.0594 39.016 20.0594 31.8402 20.0594C31.7494 20.0557 31.6584 20.0583 31.5679 20.0673C31.5036 20.0763 31.4413 20.0693 31.4202 19.9901C31.4611 19.9643 31.5097 19.9533 31.5577 19.9588C31.8678 19.9678 32.1799 19.943 32.4911 19.9433C39.5195 19.9444 46.5485 19.9444 53.578 19.9433C53.6344 19.9433 53.6928 19.9636 53.7415 19.9247C53.6871 19.9064 53.6341 19.9159 53.582 19.9159C46.4801 19.9159 39.3781 19.9179 32.276 19.9219C32.0169 19.9219 31.7548 19.9585 31.4935 19.9605C31.4693 19.9621 31.4464 19.9721 31.4286 19.9887C31.3554 20.0078 31.3314 19.9529 31.3012 19.9041C31.2364 19.8012 31.1755 19.6958 31.1039 19.5968C30.2388 18.2114 29.3844 16.82 28.5224 15.4319C27.5551 13.8742 26.5892 12.3155 25.6246 10.7557C24.6532 9.18745 23.6823 7.6192 22.7121 6.05096C21.8472 4.65392 20.9785 3.26027 20.1187 1.859C19.9795 1.63349 19.9778 1.63349 19.8368 1.859C18.5946 3.87225 17.3504 5.88427 16.104 7.89508C14.9836 9.70819 13.8612 11.5205 12.7369 13.3319C11.599 15.1679 10.4611 17.0041 9.32322 18.8405C9.29785 18.8814 9.27276 18.922 9.24513 18.9609C9.21478 18.9934 9.19028 19.0309 9.17269 19.0717C9.1642 19.088 9.15409 19.1034 9.14253 19.1176C9.12036 19.1467 9.10145 19.178 9.08615 19.2112C9.07262 19.2338 9.05937 19.256 9.04499 19.278C8.91589 19.4942 8.77494 19.7003 8.64837 19.9171C8.61032 19.9827 8.55676 20.009 8.48291 19.9734H5.44274C6.41995 19.9734 7.39717 19.9734 8.37438 19.9734C8.42625 19.9734 8.4798 19.9622 8.53026 19.9856C8.5235 20.0727 8.45613 20.0574 8.40229 20.0583C8.26811 20.0605 8.13421 20.0583 8.00003 20.0583C6.86007 20.0583 5.72012 20.0518 4.58016 20.0583C-1.50723 20.0989 -7.59461 20.0639 -13.6817 20.0741C-13.7914 20.0763 -13.9134 20.1127 -14.0084 20.016Z" fill="#1B2E4C"/>
<path d="M53.938 20.0185C53.9859 19.9818 53.9634 19.9294 53.9634 19.8852C53.9645 13.1788 53.966 6.47252 53.9679 -0.233799C53.9679 -0.365159 53.9115 -0.36375 53.8159 -0.36375C38.4195 -0.362247 23.0232 -0.361777 7.62678 -0.362341H-13.9377C-13.9617 -0.362341 -13.9856 -0.362341 -14.0096 -0.362341C-14.0034 -0.371079 -14.0242 -0.392221 -13.9952 -0.390529C-13.9569 -0.390529 -13.9185 -0.390529 -13.8802 -0.390529C8.70134 -0.390529 31.2831 -0.391375 53.865 -0.393066C53.9727 -0.393066 53.9972 -0.368824 53.9969 -0.261143C53.9941 13.2487 53.9941 26.7584 53.9969 40.2682C53.9969 40.3759 53.9729 40.4002 53.865 40.4002C31.24 40.3974 8.61518 40.3965 -14.0096 40.3976V38.4718C-13.9675 38.3805 -13.908 38.2984 -13.8345 38.2299C-7.89946 32.2982 -1.9657 26.3661 3.96674 20.4334C4.07949 20.3207 4.18633 20.2384 4.36561 20.2697C4.51022 20.2947 4.66357 20.3049 4.78055 20.1535C4.8468 20.0689 5.06526 20.1064 5.14701 20.1904C5.26681 20.3142 5.53348 20.3128 5.65441 20.1882C5.75786 20.083 5.96448 20.085 6.06709 20.1921C6.17985 20.3102 6.45638 20.3128 6.56688 20.1972C6.59539 20.1689 6.62928 20.1466 6.66656 20.1316C6.70384 20.1167 6.74375 20.1093 6.78391 20.1101C6.82408 20.1108 6.86369 20.1196 6.90039 20.1359C6.9371 20.1522 6.97016 20.1758 6.99761 20.2051C7.09345 20.3057 7.38436 20.3071 7.47935 20.2074C7.50725 20.1768 7.54121 20.1524 7.57907 20.1357C7.61692 20.119 7.65785 20.1103 7.69923 20.1103C7.74061 20.1103 7.78153 20.119 7.81939 20.1357C7.85724 20.1524 7.8912 20.1768 7.9191 20.2074C7.99183 20.2835 8.08823 20.2976 8.14292 20.2386C8.15401 20.2293 8.16266 20.2175 8.16812 20.2041C8.17357 20.1906 8.17566 20.1761 8.17421 20.1617C8.16547 20.1253 8.12939 20.1312 8.10261 20.1335C7.96364 20.1403 7.82523 20.1104 7.68682 20.12C7.22312 20.1521 6.75885 20.127 6.29542 20.1262C5.86526 20.1262 5.43453 20.1544 5.00437 20.1194C4.86089 20.1076 4.71797 20.1414 4.57421 20.1307C4.51389 20.1262 4.44961 20.1276 4.41692 20.0582C4.4623 20.0154 4.51219 20.034 4.55786 20.0337C5.78502 20.0313 7.01217 20.03 8.23932 20.03C8.39887 20.03 8.55279 20.0526 8.6599 20.1921C8.68054 20.2126 8.69551 20.238 8.70331 20.266C8.68246 20.4238 8.81184 20.54 8.82283 20.6933C8.82734 20.7556 8.92262 20.6809 8.96914 20.7173C8.99238 20.7308 9.0111 20.7509 9.02297 20.7751C9.03256 20.8264 9.06554 20.865 9.09401 20.9064C9.09638 20.9195 9.09531 20.9329 9.09091 20.9453C9.02016 21.0973 9.02692 21.1207 9.16448 21.2041C9.18111 21.214 9.20254 21.2219 9.21015 21.2379C9.28992 21.413 9.47597 21.5091 9.5456 21.6923C9.57914 21.78 9.65497 21.8417 9.66286 21.9525C9.66765 22.0176 9.77139 22.0766 9.84919 22.116C9.88083 22.1443 9.90347 22.1813 9.91431 22.2223C9.90529 22.3305 9.97069 22.4244 9.97069 22.5355C9.97069 22.6043 10.0696 22.5397 10.1195 22.5637C10.1442 22.5768 10.164 22.5975 10.1759 22.6229C10.2161 22.7413 10.2191 22.8691 10.1846 22.9893C10.1658 23.0558 10.1846 23.084 10.2537 23.0553C10.3495 23.0152 10.4192 23.0578 10.4826 23.1238C10.5083 23.1546 10.5285 23.1896 10.5424 23.2272C10.5539 23.2684 10.548 23.3172 10.5934 23.3434C10.6086 23.3557 10.6191 23.3729 10.623 23.3921C10.6134 23.4216 10.6115 23.453 10.6175 23.4834C10.6234 23.5138 10.6371 23.5421 10.6571 23.5658C10.7417 23.6805 10.7958 23.8178 10.9139 23.9063C10.9703 23.9491 10.957 24.0191 10.9815 24.0732C11.0266 24.1744 11.1312 24.2437 11.1318 24.3711C11.1318 24.4117 11.1882 24.3911 11.2183 24.3971C11.2318 24.3989 11.2447 24.4037 11.2561 24.4112C11.3449 24.5273 11.3643 24.6775 11.4481 24.7982C11.4782 24.8419 11.5002 24.8847 11.551 24.9053C11.5612 24.9143 11.5696 24.9252 11.5758 24.9374C11.5686 24.982 11.5744 25.0277 11.5926 25.0691C11.6107 25.1104 11.6404 25.1457 11.6781 25.1706C11.7269 25.2058 11.7446 25.2506 11.7627 25.3095C11.7908 25.4079 11.8438 25.5012 11.9549 25.5373C11.9644 25.547 11.9716 25.5586 11.976 25.5714C12.0133 25.716 12.0273 25.8713 12.1691 25.9661C12.2278 26.005 12.2145 26.1053 12.3002 26.1225C12.31 26.1317 12.317 26.1434 12.3205 26.1563C12.3298 26.1882 12.2923 26.2347 12.3267 26.2505C12.4829 26.3243 12.5077 26.4901 12.5923 26.6133C12.6035 26.6288 12.618 26.6417 12.6348 26.6511C12.6443 26.6586 12.6525 26.6675 12.6593 26.6775C12.6708 26.6982 12.685 26.7171 12.7016 26.7339C12.7291 26.7596 12.7486 26.7925 12.758 26.8289C12.7484 26.8907 12.8042 26.9135 12.8333 26.9501C12.8405 26.9612 12.8458 26.9734 12.8491 26.9862C12.8364 27.0933 12.8178 27.2038 12.9784 27.2117C12.9904 27.2164 13.0011 27.2237 13.0097 27.2332C13.0262 27.2587 13.0451 27.2827 13.0661 27.3048C13.0818 27.3227 13.0935 27.3437 13.1005 27.3665C13.1042 27.3941 13.1184 27.4191 13.1402 27.4364C13.1493 27.4443 13.1574 27.4533 13.1642 27.4632C13.1808 27.4973 13.1977 27.5308 13.2138 27.5652C13.2174 27.578 13.2187 27.5914 13.2178 27.6047C13.2088 27.6413 13.1943 27.6763 13.1746 27.7084C13.1464 27.7738 13.145 27.8657 13.1972 27.8902C13.3415 27.9576 13.4176 28.1126 13.5712 28.1614C13.5889 28.1705 13.6039 28.184 13.6149 28.2006C13.6372 28.2434 13.6355 28.3004 13.6882 28.3258C13.6979 28.3346 13.7061 28.3449 13.7128 28.3562C13.7409 28.4377 13.7201 28.549 13.8433 28.5738C13.8639 28.5922 13.8796 28.6155 13.8889 28.6415C13.9011 28.8549 14.0242 29.0243 14.1144 29.2078C14.1214 29.2202 14.1314 29.2307 14.1436 29.2383C14.1557 29.2458 14.1695 29.2502 14.1838 29.2509C14.2551 29.2627 14.2996 29.3124 14.3459 29.3603C14.3875 29.4055 14.4166 29.4608 14.4304 29.5207C14.4237 29.6171 14.4493 29.6966 14.546 29.738C14.5556 29.7473 14.5629 29.7587 14.5674 29.7713C14.5542 29.9156 14.6591 29.9847 14.7529 30.0605C14.7633 30.0691 14.772 30.0794 14.7789 30.0909C14.7878 30.1176 14.7927 30.1454 14.7932 30.1735C14.8099 30.2759 14.8124 30.392 14.9672 30.3771C14.9879 30.3955 15.0038 30.4187 15.0134 30.4447C15.0241 30.5194 15.0452 30.5924 15.0548 30.6674C15.0593 30.7007 15.0582 30.7401 15.096 30.752C15.2276 30.7883 15.251 30.9104 15.2933 31.0096C15.3242 31.0888 15.3827 31.154 15.4579 31.1934C15.4679 31.2015 15.4766 31.211 15.4839 31.2216C15.4955 31.2503 15.5119 31.2769 15.5323 31.3002C15.5397 31.3108 15.5449 31.3226 15.5476 31.3352C15.5112 31.442 15.6025 31.4601 15.6623 31.4998C15.6811 31.5189 15.6962 31.5412 15.7068 31.5658C15.719 31.6064 15.7395 31.6464 15.7305 31.6901C15.7147 31.7668 15.7674 31.7747 15.8207 31.7851C15.8686 31.8131 15.9064 31.8555 15.9287 31.9063C15.9569 31.9813 15.9501 32.0627 15.9786 32.1386C16.0003 32.1969 16.031 32.2367 16.0953 32.244C16.1074 32.25 16.1183 32.2583 16.1271 32.2685C16.1889 32.3813 16.1889 32.5045 16.1835 32.6274C16.1804 32.686 16.19 32.7204 16.2591 32.708C16.3374 32.6942 16.3946 32.7362 16.4496 32.7844C16.458 32.7951 16.4638 32.8075 16.4668 32.8207C16.4104 33.0068 16.4082 33.0285 16.5796 33.1286C16.6805 33.1875 16.7163 33.2977 16.8071 33.3583C16.8389 33.3848 16.8624 33.4199 16.8747 33.4595C16.8595 33.5494 16.9311 33.5827 16.9852 33.6286C16.9943 33.6389 17.0008 33.6512 17.0042 33.6645C17.0076 33.6778 17.0079 33.6916 17.0049 33.705C16.9615 33.7876 16.9218 33.8674 17.0743 33.8694C17.1104 33.8694 17.1307 33.8976 17.147 33.93C17.222 34.0808 17.3347 34.2119 17.3863 34.3742C17.4168 34.4694 17.4826 34.5493 17.5701 34.5975C17.5787 34.6082 17.5846 34.6207 17.5876 34.6341C17.551 34.7283 17.6014 34.7942 17.6722 34.8354C17.7125 34.8565 17.7451 34.8898 17.7653 34.9306C17.7856 34.9713 17.7924 35.0174 17.7849 35.0623C17.7722 35.1892 17.8382 35.2664 17.9402 35.3056C18.0288 35.3397 18.04 35.3955 18.0347 35.4722C18.0271 35.5824 18.0065 35.6946 18.1689 35.7214C18.2289 35.7312 18.2534 35.795 18.2405 35.8595C18.2233 35.939 18.25 35.9864 18.3307 36.0078C18.4409 36.036 18.5178 36.1028 18.5302 36.2226C18.5364 36.2809 18.5911 36.2753 18.6204 36.3024C18.631 36.3105 18.6404 36.32 18.6486 36.3305C18.6669 36.3633 18.6884 36.3942 18.7129 36.4227C18.7271 36.4442 18.7375 36.4679 18.7436 36.4929C18.7631 36.5775 18.8386 36.6277 18.8761 36.7015C18.8811 36.7141 18.8838 36.7274 18.8843 36.741C18.8761 36.8805 18.9576 37.0305 19.0746 37.0871C19.1129 37.1046 19.1468 37.1306 19.1735 37.1632C19.1894 37.1861 19.1981 37.2132 19.1986 37.241C19.2003 37.2799 19.1456 37.336 19.2341 37.3482C19.2575 37.3515 19.2843 37.3721 19.2829 37.3947C19.275 37.5122 19.3748 37.5497 19.439 37.614C19.4473 37.6245 19.4533 37.6367 19.4565 37.6498C19.4235 37.7439 19.4678 37.7978 19.5521 37.8305C19.564 37.8355 19.5749 37.8429 19.5839 37.8522C19.6592 37.9948 19.7105 38.1479 19.7751 38.2953C19.8295 38.4196 19.9135 38.4749 20.0428 38.4582C20.155 38.4412 20.2697 38.4583 20.3721 38.5073C20.3112 38.374 20.3439 38.2818 20.413 38.1868C20.455 38.1304 20.4547 38.0526 20.444 37.9793C20.4223 37.8282 20.477 37.7673 20.6283 37.7685C20.6379 37.7685 20.6475 37.7685 20.6565 37.7704C20.7129 37.7758 20.7794 37.7899 20.8076 37.7248C20.8327 37.6684 20.7932 37.6148 20.7656 37.5649C20.738 37.515 20.6782 37.49 20.6579 37.433C20.643 37.3634 20.663 37.3095 20.7287 37.2763C20.7851 37.2704 20.8008 37.2317 20.8158 37.1821C20.8333 37.1232 20.8648 37.0609 20.9376 37.0584C21.0103 37.0558 21.0374 37.1181 21.0593 37.1909C21.1056 37.0516 21.1388 36.9205 21.1197 36.7813C21.1149 36.746 21.1146 36.7086 21.1456 36.6908C21.2406 36.6367 21.2369 36.5434 21.2476 36.4546C21.252 36.4413 21.259 36.429 21.2682 36.4185C21.3347 36.368 21.3486 36.4233 21.3674 36.4681C21.3776 36.4839 21.3848 36.5014 21.3889 36.5197C21.3872 36.4892 21.3607 36.4681 21.359 36.4371C21.3779 36.3725 21.4309 36.3649 21.4844 36.3672C21.5557 36.37 21.6273 36.3607 21.6984 36.3714C21.781 36.3838 21.8261 36.3522 21.823 36.2629C21.8155 36.1153 21.8325 35.9675 21.8732 35.8254C21.9036 35.7245 21.8063 35.6368 21.8289 35.5336C21.8332 35.5202 21.8402 35.5078 21.8495 35.4973C22.1009 35.3611 22.2001 35.1342 22.2264 34.8639C22.2318 34.8512 22.2397 34.8397 22.2495 34.8301C22.3022 34.7909 22.3498 34.814 22.3946 34.845C22.4815 34.9056 22.5672 34.8915 22.6498 34.8405C22.7323 34.7895 22.7515 34.7094 22.7343 34.615C22.7104 34.474 22.7625 34.3404 22.789 34.2048C22.8062 34.1143 22.882 34.0963 22.9655 34.0921C23.0999 34.0836 23.1216 34.0357 23.05 33.9229C23.0306 33.8956 23.0136 33.8667 22.9993 33.8364C22.95 33.7163 22.9914 33.6458 23.1185 33.6303C23.151 33.6264 23.1865 33.6303 23.2195 33.5942C23.1704 33.5097 23.1498 33.4251 23.2006 33.318C23.2631 33.1847 23.3471 33.1345 23.4825 33.1655C23.609 33.1937 23.6575 33.1353 23.6713 33.0206C23.6805 32.9642 23.6839 32.9069 23.6815 32.8498C23.6671 32.6705 23.7336 32.6175 23.9146 32.6539C23.971 32.6651 24.024 32.6905 24.0837 32.6866C24.0888 32.6864 24.0937 32.6845 24.0976 32.6812C24.1016 32.678 24.1043 32.6735 24.1054 32.6685C24.0806 32.6262 24.0366 32.6508 24.0025 32.6403C23.9684 32.6299 23.9309 32.6192 23.9273 32.584C23.9152 32.4661 23.8799 32.3469 23.9177 32.2293C23.9524 32.1217 24.0223 32.1146 24.1331 32.2012C24.1652 32.142 24.1514 32.0797 24.1471 32.0185C24.1359 31.8561 24.1562 31.8299 24.3126 31.8246C24.3509 31.8264 24.389 31.8183 24.4231 31.8009C24.4589 31.7794 24.4908 31.7527 24.4431 31.7135C24.3264 31.6174 24.3422 31.4964 24.376 31.3716C24.3818 31.3591 24.39 31.3479 24.4 31.3386C24.4564 31.3062 24.5221 31.3414 24.5784 31.3141C24.5832 31.2859 24.5604 31.2706 24.5522 31.2498C24.5139 31.1497 24.5463 31.1063 24.652 31.1204C24.7127 31.1328 24.7755 31.1302 24.835 31.1128C24.9376 31.0759 24.9612 31.0133 24.8865 30.9324C24.8593 30.9029 24.8386 30.868 24.8259 30.83C24.8132 30.7919 24.8088 30.7516 24.813 30.7117C24.8159 30.699 24.8208 30.6869 24.8276 30.6759C24.8587 30.6465 24.8786 30.6072 24.884 30.5648C24.8908 30.5532 24.8997 30.543 24.9102 30.5346C24.9703 30.4994 25.0303 30.4751 25.0641 30.3988C25.1115 30.2914 25.2276 30.2691 25.3314 30.264C25.4568 30.2578 25.4974 30.191 25.5005 30.083C25.5036 29.9751 25.518 29.8736 25.5022 29.7699C25.4883 29.6705 25.5082 29.5694 25.5586 29.4826C25.5679 29.4723 25.5792 29.4639 25.5918 29.4581C25.8337 29.4581 25.8337 29.4581 25.7892 29.2024C25.7823 29.1741 25.7852 29.1443 25.7973 29.1179C25.8045 29.1058 25.815 29.096 25.8275 29.0897C25.9121 29.0919 25.9625 29.0615 25.9639 28.967C25.964 28.9238 25.9752 28.8812 25.9966 28.8436C26.0378 28.774 26.0925 28.7514 26.1601 28.8117C26.203 28.8497 26.2409 28.893 26.2729 28.9405C26.3574 29.0688 26.3574 29.0685 26.5147 28.9842C26.5147 28.949 26.4832 28.9394 26.4603 28.9245C26.2551 28.7917 26.2297 28.6299 26.3935 28.4489C26.4335 28.4047 26.424 28.3644 26.418 28.3173C26.3989 28.1701 26.4093 28.1558 26.5536 28.1253C26.5862 28.1181 26.6193 28.1133 26.6526 28.111C26.813 28.1002 26.833 28.0568 26.7512 27.9136C26.7202 27.8589 26.6534 27.835 26.6362 27.7704C26.6252 27.698 26.6475 27.6433 26.7191 27.6151C26.7958 27.6058 26.8702 27.6306 26.9466 27.6317C27.2079 27.6357 27.3094 27.4671 27.182 27.2346C27.1582 27.1989 27.1363 27.1619 27.1166 27.1238C27.1006 27.0835 27.0981 27.0391 27.1095 26.9972C27.1139 26.9841 27.1201 26.9717 27.1278 26.9603C27.2124 26.8647 27.2124 26.8647 27.3302 26.8856C27.3082 26.6883 27.3187 26.6792 27.5253 26.7038C27.8072 26.7376 27.8072 26.7376 27.8072 26.4472C27.8072 26.3565 27.7993 26.2632 27.8303 26.1769C27.8466 26.1347 27.8516 26.0889 27.8449 26.0441C27.8382 25.9994 27.8199 25.9571 27.792 25.9215C27.7887 25.9082 27.7882 25.8944 27.7903 25.8809C27.8044 25.8502 27.8208 25.8205 27.8393 25.7921C27.848 25.7816 27.8585 25.7728 27.8703 25.7659C27.923 25.7589 27.9721 25.7721 27.9777 25.6794C27.9842 25.5754 28.0507 25.4798 28.0888 25.3797C28.0972 25.3689 28.1078 25.36 28.1198 25.3535C28.1528 25.3469 28.1871 25.3511 28.2176 25.3654C28.2311 25.3707 28.2456 25.3733 28.2601 25.3729C28.2747 25.3725 28.289 25.3692 28.3022 25.3631C28.314 25.3572 28.5277 25.0082 28.5192 25.0012C28.4316 24.9166 28.5139 24.8205 28.4995 24.7311C28.5023 24.7178 28.5078 24.7051 28.5156 24.6939C28.5251 24.6833 28.5369 24.675 28.5502 24.6699C28.7512 24.6037 28.7512 24.6037 28.6932 24.4064C28.6908 24.381 28.6967 24.3555 28.71 24.3336C28.7232 24.3118 28.7431 24.2948 28.7667 24.2852C28.8753 24.2891 28.9796 24.3317 29.092 24.3077C29.1541 24.2945 29.1865 24.273 29.1884 24.2082C29.1907 24.1236 29.2116 24.0348 29.1755 23.9528C29.1363 23.8632 29.1577 23.7744 29.1653 23.6847C29.1671 23.6712 29.1712 23.658 29.1775 23.6458C29.2536 23.4916 29.403 23.4268 29.5487 23.3814C29.6499 23.3499 29.6896 23.3005 29.7046 23.2086C29.7077 23.1706 29.7173 23.1333 29.7328 23.0984C29.7779 23.0138 29.841 22.9648 29.9417 23.0068C29.9896 23.0265 30.0358 23.0527 30.0877 23.0105C30.0541 22.9639 30.0102 22.9854 29.9704 22.9871C29.8424 22.9927 29.8128 22.9628 29.8125 22.8315C29.8125 22.7649 29.8351 22.6995 29.821 22.6324C29.8214 22.6188 29.8243 22.6053 29.8297 22.5927C29.8667 22.5341 29.9126 22.5265 29.9707 22.5741C29.8701 22.4117 30.0316 22.3274 30.071 22.2076C30.0844 22.1986 30.099 22.1917 30.1144 22.1871C30.1765 22.1042 30.2362 22.0382 30.3555 22.111C30.4087 22.1431 30.4606 22.0957 30.4564 22.0309C30.4512 21.925 30.4809 21.8203 30.5409 21.7329C30.5691 21.689 30.5607 21.6425 30.5562 21.594C30.5395 21.4192 30.561 21.3992 30.7315 21.4164C30.7507 21.4184 30.7267 21.4164 30.7459 21.4184C30.9697 21.4392 31.0244 21.3961 31.0185 21.1709C31.0148 21.0299 31.05 20.8969 31.0582 20.7587C31.0655 20.6381 31.1879 20.6045 31.2854 20.6C31.4264 20.5935 31.4957 20.5518 31.494 20.4002C31.494 20.3114 31.5597 20.2336 31.5727 20.1417C31.58 20.0901 31.6271 20.0661 31.6801 20.0633C31.7232 20.0611 31.7663 20.0633 31.8094 20.0633C39.0782 20.0633 46.347 20.0622 53.6158 20.0599C53.7192 20.056 53.8416 20.1284 53.938 20.0185Z" fill="#FEFEFE"/>
<path d="M8.64467 20.2176C8.54037 20.1959 8.48765 20.0801 8.36898 20.0736C8.32782 20.0713 8.28103 20.0454 8.23283 20.0454H4.51021C4.49668 20.0454 4.48202 20.0496 4.46849 20.0736H4.61112C5.7804 20.0736 6.94948 20.0741 8.11838 20.0753C8.17476 20.0753 8.28188 20.0457 8.2768 20.1094C8.27315 20.1519 8.26011 20.1931 8.23861 20.2299C8.21711 20.2668 8.1877 20.2984 8.15249 20.3225C8.06792 20.3727 7.91655 20.3242 7.87596 20.2337C7.83536 20.1432 7.76151 20.1621 7.69301 20.1604C7.62451 20.1587 7.55207 20.1477 7.52782 20.2362C7.50584 20.3166 7.45087 20.3363 7.37532 20.3329C7.28906 20.3292 7.20252 20.3292 7.11655 20.3329C7.03677 20.3363 6.98632 20.3152 6.94967 20.2331C6.89949 20.1204 6.66158 20.1252 6.60915 20.2396C6.57448 20.3152 6.52684 20.3352 6.45242 20.3326C6.35658 20.3292 6.26074 20.3326 6.16489 20.3326C6.14126 20.335 6.11744 20.3304 6.0964 20.3194C6.07536 20.3083 6.05801 20.2914 6.0465 20.2706C5.95038 20.1113 5.77025 20.1108 5.67553 20.2686C5.66634 20.288 5.65173 20.3043 5.63347 20.3156C5.61521 20.3268 5.59409 20.3326 5.57265 20.3321H5.22789C5.20648 20.3322 5.18546 20.3263 5.16729 20.315C5.14912 20.3037 5.13455 20.2874 5.12529 20.2681C5.03142 20.1105 4.85242 20.1125 4.75404 20.2709C4.73205 20.3064 4.70725 20.3318 4.6644 20.3309C4.52571 20.3287 4.38589 20.3354 4.24946 20.3174C4.20013 20.3106 4.17138 20.3078 4.13952 20.3425C4.11359 20.3707 4.0854 20.3969 4.05834 20.424L-13.8608 38.3357C-13.9078 38.3828 -13.9597 38.4254 -14.009 38.4702V20.0163C-13.832 20.0163 -13.6547 20.0132 -13.4774 20.0132C-6.1885 20.0132 1.10029 20.0132 8.38899 20.0132C8.43804 20.0132 8.49414 20.0386 8.53727 19.991L9.02409 19.2409C9.06102 19.2364 9.06665 19.2127 9.05679 19.1845L9.11063 19.0999C9.11441 19.0994 9.11803 19.098 9.12123 19.0959C9.12443 19.0938 9.12713 19.091 9.12914 19.0878C9.13116 19.0845 9.13243 19.0809 9.13289 19.0771C9.13334 19.0733 9.13296 19.0695 9.13177 19.0658C9.14237 19.0243 9.16538 18.987 9.19773 18.959C9.35333 19.0498 9.34544 19.2152 9.36687 19.3598C9.37927 19.4421 9.2885 19.461 9.22338 19.4664C9.11965 19.4746 9.03057 19.4887 8.98688 19.6037C8.96856 19.6521 8.89977 19.66 8.862 19.6942C8.83799 19.7174 8.81916 19.7455 8.80677 19.7765C8.79438 19.8076 8.78871 19.8409 8.79012 19.8743C8.79012 19.9473 8.75094 20.0099 8.72303 20.0753C8.66215 20.1032 8.67539 20.1711 8.64467 20.2176Z" fill="#FDFDFD"/>
<path d="M8.70643 20.0768C8.70389 20.0204 8.6664 19.973 8.73124 19.9099C8.75717 19.8848 8.74815 19.767 8.78282 19.6985C8.80368 19.6565 8.81101 19.5998 8.89191 19.6139C8.94829 19.6238 8.98804 19.5671 8.98127 19.5102C8.96915 19.4087 9.03201 19.4084 9.09657 19.4174C9.14296 19.4236 9.19007 19.4217 9.23582 19.4118C9.32828 19.394 9.34575 19.3799 9.30657 19.2762C9.26739 19.1725 9.2361 19.0631 9.19776 18.9588C9.57324 18.3477 9.94702 17.7354 10.3253 17.1265C13.1254 12.6007 15.9264 8.07593 18.7284 3.55218L19.9219 1.62265C19.9366 1.59926 19.9529 1.57699 19.9783 1.53809C20.1824 1.86592 20.3792 2.18051 20.5745 2.49651C22.4846 5.58037 24.3943 8.66404 26.3036 11.7475C27.901 14.3268 29.4978 16.9063 31.094 19.4859C31.1115 19.5141 31.1253 19.5446 31.1408 19.5742C31.1451 19.6498 31.179 19.7207 31.2353 19.7715C31.3427 19.882 31.3272 19.9688 31.1961 20.0472C31.1293 20.0878 31.0743 20.154 30.9818 20.1478C30.9584 20.1478 30.994 20.1859 30.979 20.2056C30.9381 20.2885 30.8536 20.3043 30.7794 20.3341C28.1075 21.4053 25.4346 22.4743 22.7608 23.5412C21.9115 23.8811 21.0605 24.2177 20.2134 24.5628C20.1396 24.5953 20.0598 24.6121 19.9792 24.6121C19.8985 24.6121 19.8187 24.5953 19.7449 24.5628C16.1439 23.1195 12.5421 21.6777 8.93955 20.2375C8.85301 20.2028 8.73462 20.2014 8.70643 20.0768Z" fill="#FEFEFE"/>
<path d="M30.9641 20.1916C30.9466 20.1233 30.8795 20.1552 30.8333 20.1183C30.9773 20.1355 31.087 20.0782 31.1935 19.9956C31.2409 19.9587 31.2716 19.9201 31.2649 19.8694C31.2598 19.8319 31.2291 19.8082 31.1775 19.787C31.1056 19.7589 31.0512 19.663 31.1408 19.5742L31.4199 19.9906C31.4588 20.0345 31.5098 20.0117 31.5544 20.0117C38.9398 20.0128 46.3247 20.0128 53.7088 20.0117C53.7852 20.0117 53.8619 20.0154 53.9383 20.0176C53.937 20.0605 53.9332 20.1032 53.927 20.1456C53.9129 20.2189 53.8642 20.2398 53.8238 20.1758C53.7748 20.0985 53.7111 20.1014 53.6375 20.1014C46.346 20.1014 39.0534 20.1014 31.7599 20.1014C31.6649 20.1014 31.6189 20.1014 31.6116 20.233C31.6043 20.3429 31.5324 20.4503 31.5504 20.5783C31.5586 20.6375 31.4859 20.6474 31.4298 20.6493C31.3545 20.6519 31.2761 20.6321 31.2043 20.6775C31.1479 20.7136 31.0106 20.7122 31.1428 20.8264C31.1467 20.8321 31.149 20.8388 31.1495 20.8457C31.1501 20.8526 31.1488 20.8595 31.1459 20.8658C31.0303 20.9932 31.0799 21.1477 31.0811 21.292C31.0811 21.4192 31.0213 21.4671 30.9133 21.4767C30.8054 21.4863 30.7025 21.4967 30.5706 21.4096C30.6216 21.5074 30.5869 21.581 30.6526 21.6385C30.6943 21.6751 30.643 21.7011 30.6202 21.7301C30.5497 21.8203 30.4702 21.9066 30.5249 22.0402C30.5458 22.0915 30.5249 22.1428 30.4685 22.1732C30.4121 22.2037 30.3668 22.2296 30.3121 22.1783C30.2839 22.1529 30.254 22.1304 30.2188 22.1016C30.1988 22.1828 30.1584 22.2398 30.0643 22.222C30.0243 22.1352 30.0877 22.0757 30.1249 22.0134C30.4837 21.4141 30.8615 20.8264 31.2243 20.2305C31.2439 20.2029 31.2609 20.1735 31.275 20.1428C31.1679 20.1465 31.0799 20.2598 30.9641 20.1916Z" fill="#FDFDFD"/>
<path d="M31.4523 19.9582V19.9173C31.7133 19.957 31.9698 19.8781 32.2263 19.8778C39.3617 19.8709 46.4973 19.8692 53.6332 19.8728C53.7156 19.8728 53.8125 19.8446 53.8517 19.9573C53.8021 19.9855 53.7483 19.9711 53.6967 19.9711C46.3335 19.9711 38.9703 19.9711 31.607 19.9711C31.5554 19.9737 31.5016 19.9864 31.4523 19.9582Z" fill="#1E2F51"/>
<path d="M8.5379 19.9892C8.4181 19.9892 8.29829 19.9864 8.17849 19.9864H-13.9402C-13.9007 19.9396 -13.8587 19.9582 -13.8238 19.9582C-6.42475 19.9571 0.974074 19.9571 8.37271 19.9582C8.42909 19.9582 8.48913 19.9436 8.53733 19.989L8.5379 19.9892Z" fill="#142841"/>
<path d="M31.4523 19.958H53.8517C53.8611 19.9578 53.8706 19.9586 53.8799 19.9603C53.8945 19.9645 53.9053 19.9798 53.8847 19.9823C53.837 19.9862 53.789 19.9872 53.7412 19.9854H31.6924C31.6014 19.9854 31.5106 19.9879 31.4196 19.9893L31.4523 19.958Z" fill="#152440"/>
<path d="M9.13174 19.0649C9.16951 19.0728 9.19685 19.0878 9.17458 19.1329C9.16641 19.1501 9.15457 19.1718 9.13287 19.1611C9.11116 19.1504 9.11229 19.1213 9.1106 19.0982L9.13174 19.0649Z" fill="#FEFEFE"/>
<path d="M9.05675 19.1846C9.06673 19.1885 9.0755 19.1949 9.08217 19.2033C9.08884 19.2117 9.09317 19.2217 9.09472 19.2323C9.09626 19.2429 9.09497 19.2537 9.09098 19.2636C9.08698 19.2736 9.08042 19.2823 9.07197 19.2889C9.04378 19.3128 9.04068 19.2607 9.02405 19.2424L9.05675 19.1846Z" fill="#FEFEFE"/>
<path d="M30.9641 20.1915L31.41 20.0283L30.0657 22.2225C30.013 22.3615 29.9344 22.4892 29.834 22.5989C29.8283 22.6651 29.8063 22.7289 29.77 22.7846C29.6508 22.9845 29.5262 23.181 29.4035 23.3786C29.3393 23.4826 29.2491 23.5677 29.1738 23.6638C29.1228 23.8936 28.968 24.0669 28.8479 24.2595C28.8321 24.2848 28.8003 24.2877 28.7741 24.2992C28.7418 24.3251 28.7204 24.3623 28.7143 24.4032C28.713 24.4655 28.6949 24.5263 28.6618 24.5791C28.6288 24.6319 28.582 24.6748 28.5266 24.7032L28.5139 24.7314C28.431 24.9729 28.3211 25.1976 28.1193 25.3659C28.1174 25.3661 28.1157 25.3667 28.1142 25.3678C28.1127 25.3688 28.1115 25.3702 28.1106 25.3718C28.1097 25.3734 28.1093 25.3752 28.1093 25.377C28.1093 25.3788 28.1097 25.3806 28.1105 25.3822C28.0378 25.528 27.9859 25.6864 27.8543 25.7955C27.8447 25.8304 27.836 25.866 27.7979 25.8834C27.7911 25.9398 27.7872 25.9962 27.7528 26.0447C27.6048 26.2595 27.4833 26.4909 27.33 26.704C27.2651 26.7945 27.2 26.8833 27.1278 26.9676L27.1346 26.9749L27.1281 26.9673C27.0765 27.2004 26.9125 27.3732 26.8006 27.5742C26.7792 27.6058 26.7467 27.6283 26.7095 27.6371C26.6667 27.6652 26.6568 27.7101 26.6469 27.7552C26.645 27.8124 26.626 27.8677 26.5925 27.9142C26.3828 28.1997 26.2427 28.5301 26.0175 28.8061C25.9746 28.8585 25.9673 28.9284 25.931 28.9851C25.8994 29.0341 25.865 29.0781 25.8072 29.0978C25.766 29.245 25.7181 29.3882 25.5752 29.4724L25.5766 29.4707C25.4464 29.8304 25.2085 30.1287 25.0171 30.4537C24.9889 30.503 24.9356 30.5318 24.8944 30.5707V30.5732C24.8663 30.6056 24.8823 30.6634 24.8296 30.6806C24.7921 30.8428 24.707 30.99 24.5852 31.1034C24.551 31.1372 24.5286 31.1811 24.5215 31.2286C24.5162 31.2567 24.503 31.2828 24.4836 31.3038C24.4642 31.3249 24.4392 31.34 24.4116 31.3476C24.4073 31.3493 24.4039 31.3525 24.4019 31.3566C24.3999 31.3607 24.3995 31.3654 24.4009 31.3698C24.3324 31.6185 24.1753 31.8209 24.0417 32.0328C23.8531 32.3311 23.6722 32.6341 23.4895 32.9349C23.4145 33.0583 23.3043 33.1528 23.2358 33.2788C22.9928 33.7298 22.7219 34.1659 22.4513 34.6017C22.3932 34.6953 22.3363 34.7877 22.2436 34.8514C22.1694 35.1009 22.031 35.3266 21.8422 35.5057C21.8275 35.6393 21.7514 35.745 21.6787 35.8502C21.5448 36.045 21.4571 36.273 21.2694 36.4292C21.2079 36.6504 21.0734 36.8345 20.9415 37.0141C20.873 37.1074 20.8352 37.2272 20.7315 37.2943C20.6881 37.3225 20.6777 37.3676 20.6684 37.4135C20.6656 37.4708 20.6469 37.5262 20.6142 37.5734C20.4451 37.8327 20.2906 38.1016 20.1252 38.3626C20.0214 38.5264 19.9329 38.5267 19.8292 38.3626C19.7251 38.1924 19.6328 38.0153 19.5529 37.8324L19.5476 37.8386L19.5535 37.833C19.4689 37.7958 19.4453 37.7202 19.4317 37.6382C19.304 37.5305 19.2547 37.3724 19.1721 37.2359L19.1414 37.1796C19.0568 37.0829 18.966 36.9938 18.9085 36.8757C18.8806 36.8268 18.864 36.7723 18.8598 36.7161C18.7971 36.6504 18.7467 36.5741 18.7109 36.4906L18.6782 36.4323C18.6424 36.4128 18.6343 36.3781 18.6283 36.3423V36.344C18.4894 36.2059 18.3904 36.0365 18.2901 35.873C18.1897 35.7095 18.1023 35.5212 17.9927 35.3732C17.8591 35.1931 17.7993 34.9707 17.6395 34.8137C17.5831 34.7573 17.58 34.6871 17.5603 34.6203C17.4534 34.5538 17.4148 34.4402 17.3559 34.3384C17.2508 34.156 17.1586 33.964 17.0134 33.8073C17.0014 33.7924 16.9929 33.7749 16.9888 33.7561C16.9846 33.7374 16.9849 33.718 16.9894 33.6994L16.9508 33.643C16.8949 33.6007 16.8557 33.54 16.8403 33.4716L16.787 33.3842C16.6619 33.1976 16.477 33.0476 16.4386 32.808C16.263 32.6626 16.1714 32.465 16.097 32.2569C15.9524 32.1941 15.9507 32.0421 15.8901 31.9266L15.8072 31.8014C15.6998 31.7608 15.724 31.6373 15.6603 31.5691L15.6305 31.5144C15.5741 31.4581 15.5104 31.4076 15.5149 31.3171V31.3154C15.4796 31.2968 15.4701 31.2624 15.4602 31.228C15.3799 31.1676 15.3173 31.0867 15.2789 30.9938C15.1913 30.8058 15.0298 30.6592 14.9717 30.4537C14.9607 30.434 14.95 30.4139 14.9393 30.3942C14.8361 30.3157 14.7669 30.2007 14.7459 30.0729C14.6402 29.9914 14.5629 29.8924 14.5486 29.7546C14.5054 29.7344 14.469 29.702 14.444 29.6615C14.419 29.6209 14.4063 29.5739 14.4076 29.5263L14.3115 29.3876C14.1417 29.1947 14.0008 28.9782 13.8932 28.7449C13.878 28.7105 13.8763 28.6699 13.8492 28.6406L13.8171 28.5828C13.7114 28.5408 13.724 28.428 13.6781 28.3502C13.6549 28.3344 13.635 28.314 13.6197 28.2904C13.6044 28.2668 13.594 28.2404 13.589 28.2127C13.5806 28.2014 13.5724 28.1898 13.5642 28.1786C13.3948 28.0075 13.2643 27.8101 13.2006 27.57C13.1541 27.5488 13.16 27.4953 13.1341 27.4614C13.1187 27.4527 13.1056 27.4406 13.0958 27.4259C13.086 27.4112 13.0798 27.3944 13.0777 27.3769L13.0455 27.3163C13.008 27.2996 13.0111 27.2579 12.9923 27.2297C12.8727 27.1812 12.8513 27.0719 12.8262 26.9639L12.8282 26.9662C12.8038 26.9507 12.7827 26.9305 12.7664 26.9066C12.7501 26.8828 12.7388 26.8558 12.7332 26.8275L12.6788 26.7409C12.6506 26.7291 12.6613 26.6998 12.6506 26.6798C12.5133 26.5106 12.3865 26.3347 12.3092 26.1284C12.2055 26.1098 12.2058 26.0018 12.1548 25.9392C12.0612 25.8296 11.9937 25.7002 11.9574 25.5607C11.7823 25.3775 11.6472 25.1599 11.5608 24.9216C11.4241 24.8489 11.4095 24.6916 11.3277 24.5805C11.2921 24.5254 11.2631 24.4662 11.2412 24.4044C11.1143 24.3663 11.0898 24.2335 11.0438 24.1447C10.935 23.939 10.7769 23.7681 10.6689 23.564C10.6379 23.5049 10.6052 23.4482 10.6035 23.3794L10.579 23.3456C10.5395 23.3205 10.5305 23.2779 10.517 23.2382C10.4967 23.2069 10.4767 23.1756 10.4564 23.1446C10.3115 23.0032 10.2041 22.828 10.1441 22.6347L10.1097 22.571C9.96365 22.5025 9.95153 22.3471 9.88557 22.2268L9.82919 22.1388C9.69614 22.0261 9.63807 21.8614 9.55181 21.7185C9.42665 21.5105 9.26626 21.3267 9.15237 21.1122C9.12165 21.0538 9.07232 21.0017 9.09205 20.927L9.07542 20.9027C9.02524 20.8813 9.02186 20.8261 8.99367 20.79C8.98296 20.7705 8.97225 20.7511 8.96182 20.7314C8.81552 20.6115 8.73095 20.4528 8.67683 20.2753L8.64328 20.2141L8.55872 20.045C8.61509 20.0221 8.65428 20.0808 8.70389 20.0731C9.25273 20.2953 9.801 20.5194 10.3507 20.7392C12.6319 21.6524 14.9134 22.5646 17.1952 23.4758C18.0875 23.8329 18.9793 24.1905 19.8706 24.5487C19.9552 24.5834 20.0231 24.5695 20.1012 24.5385C22.642 23.5249 25.1815 22.5106 27.7198 21.4958C28.7677 21.0771 29.8154 20.6585 30.8629 20.24C30.8975 20.2273 30.9314 20.2082 30.9641 20.1915Z" fill="#1B2F4D"/>
<path d="M22.2491 34.8471C22.533 34.3829 22.8157 33.9169 23.1013 33.4546C23.5076 32.7969 23.9151 32.1391 24.3238 31.4814C24.3487 31.4411 24.3783 31.4039 24.4056 31.3652C24.4056 31.4853 24.3413 31.6229 24.5209 31.6883C24.573 31.7072 24.5587 31.7841 24.5062 31.8191C24.4386 31.8642 24.3692 31.9036 24.2787 31.8712C24.2021 31.843 24.166 31.8839 24.1888 31.9609C24.2079 32.0401 24.2128 32.1221 24.2032 32.203C24.1981 32.2783 24.1443 32.2963 24.0797 32.2876C23.9983 32.2746 24.0172 32.2222 24.0623 32.1537C23.9453 32.1878 23.9456 32.2583 23.9495 32.329C23.9534 32.3998 23.9892 32.466 23.9602 32.5404C23.943 32.5847 23.9754 32.5985 24.018 32.5892C24.0412 32.5837 24.0649 32.5806 24.0888 32.5802C24.1451 32.5802 24.2015 32.5861 24.1981 32.6602C24.1947 32.7344 24.1417 32.7606 24.0769 32.7493C24.0077 32.7357 23.9392 32.7186 23.8717 32.698C23.7434 32.6625 23.7071 32.6963 23.7308 32.8299C23.7399 32.8668 23.7438 32.9047 23.7423 32.9427C23.7116 33.2127 23.693 33.2277 23.4266 33.2108C23.366 33.2071 23.2947 33.1826 23.2755 33.2702C23.2563 33.3579 23.1326 33.4447 23.2603 33.5448C23.2885 33.5665 23.3336 33.5927 23.3192 33.6347C23.3014 33.6855 23.2459 33.6663 23.2064 33.6725C23.1971 33.6742 23.1825 33.6725 23.1783 33.677C23.1391 33.7334 23.0568 33.6296 23.028 33.717C22.9993 33.8044 23.0765 33.856 23.1148 33.9144C23.1388 33.9516 23.2276 33.9578 23.1712 34.0271C23.1261 34.081 23.1024 34.183 23.0007 34.15C22.867 34.1069 22.8355 34.1602 22.825 34.2856C22.8138 34.4215 22.7709 34.5517 22.7969 34.6938C22.818 34.8113 22.723 34.8883 22.6277 34.912C22.5432 34.9331 22.4259 35.0146 22.3554 34.8688C22.3315 34.8291 22.2878 34.8316 22.2491 34.8471Z" fill="#FDFDFD"/>
<path d="M25.8109 29.0945C26.0815 28.6412 26.3465 28.1849 26.6507 27.7524C26.7606 27.8023 26.8119 27.8973 26.8505 28.0044C26.8891 28.1116 26.833 28.2018 26.7256 28.1657C26.6318 28.135 26.5607 28.199 26.4742 28.1888C26.4178 28.1823 26.446 28.2376 26.4539 28.2635C26.4877 28.3692 26.5447 28.469 26.3713 28.5197C26.2983 28.5412 26.3431 28.805 26.4215 28.8419C26.4588 28.8626 26.497 28.8815 26.5362 28.8983C26.5892 28.9172 26.5926 28.9564 26.5903 29.0015C26.5861 29.0579 26.5466 29.0728 26.4998 29.0694C26.4226 29.0635 26.3606 29.081 26.3378 29.1853C26.2645 29.059 26.2346 28.9347 26.13 28.8586C26.1094 28.8436 26.1075 28.7988 26.0691 28.8129C26.0558 28.8187 26.0444 28.8281 26.0361 28.84C26.0278 28.8518 26.0229 28.8658 26.022 28.8803C26.0121 28.9266 26.0084 28.974 26.0111 29.0212C26.0229 29.0982 25.9696 29.1213 25.9217 29.1512C25.854 29.1937 25.8492 29.1111 25.8109 29.0945Z" fill="#FDFDFD"/>
<path d="M19.5546 37.8295L19.9791 38.4911C20.0676 38.3502 20.1483 38.2185 20.2328 38.0894C20.3811 37.8639 20.4998 37.6209 20.6706 37.4106C20.7605 37.46 20.8271 37.5234 20.8581 37.63C20.897 37.7641 20.8338 37.8493 20.6915 37.8295C20.6502 37.8193 20.608 37.8135 20.5655 37.8123C20.5023 37.8174 20.4527 37.8543 20.4781 37.9251C20.5291 38.066 20.504 38.1875 20.398 38.2915C20.3718 38.3172 20.34 38.3561 20.3698 38.3727C20.5153 38.4508 20.376 38.5286 20.3794 38.6123C20.3118 38.5227 20.2303 38.4959 20.1235 38.4979C19.7852 38.5044 19.7469 38.4807 19.6538 38.1619C19.622 38.0497 19.5431 37.9527 19.5546 37.8295Z" fill="#FDFDFD"/>
<path d="M27.1315 26.9645C27.3398 26.5938 27.5676 26.2356 27.8007 25.8804C27.9162 25.9604 27.9281 26.0574 27.8793 26.1888C27.8258 26.3336 27.8596 26.4921 27.8602 26.6443C27.8602 26.7489 27.8148 26.7886 27.722 26.7686C27.6293 26.7486 27.5315 26.7858 27.4427 26.7367C27.4187 26.7235 27.3863 26.7024 27.3666 26.7317C27.3561 26.7579 27.3561 26.7872 27.3666 26.8134C27.3806 26.8436 27.3968 26.8727 27.415 26.9005C27.4231 26.9126 27.4268 26.9271 27.4257 26.9415C27.4245 26.956 27.4185 26.9697 27.4086 26.9803C27.3824 27.0054 27.3556 26.9904 27.3313 26.9733C27.2834 26.9389 27.2293 26.8306 27.1991 26.9854L27.1315 26.9645Z" fill="#FDFDFD"/>
<path d="M21.2699 36.4279C21.4496 36.1129 21.6405 35.8051 21.8427 35.5044C22.0262 35.7863 21.8261 36.0794 21.8709 36.3661C21.8808 36.4293 21.8114 36.4301 21.7635 36.4284C21.6645 36.4248 21.5662 36.4222 21.4669 36.4104C21.4162 36.4045 21.3824 36.4152 21.3593 36.458C21.3336 36.436 21.3108 36.4056 21.2699 36.4279Z" fill="#FDFDFD"/>
<path d="M29.1749 23.6626C29.3841 23.301 29.6014 22.9444 29.8351 22.5977C29.8839 22.6766 29.8757 22.762 29.8608 22.8474C29.8475 22.9244 29.8495 22.9807 29.9512 22.9286C29.96 22.9242 29.9697 22.9221 29.9794 22.9224C30.0437 22.9249 30.1164 22.8959 30.1672 22.9576C30.1731 22.9654 30.1773 22.9742 30.1797 22.9836C30.1821 22.9931 30.1826 23.0029 30.1811 23.0125C30.1796 23.0221 30.1761 23.0313 30.171 23.0396C30.1658 23.0478 30.1591 23.0549 30.1511 23.0605C30.0899 23.1144 30.0135 23.1025 29.9484 23.0783C29.8137 23.0278 29.7632 23.0521 29.7587 23.2034C29.7567 23.2764 29.7153 23.3275 29.6936 23.3889C29.6882 23.4047 29.6629 23.4292 29.6578 23.4267C29.5202 23.3599 29.4577 23.5245 29.3429 23.5268C29.2533 23.5285 29.2682 23.6629 29.1749 23.6626Z" fill="#FDFDFD"/>
<path d="M17.5645 34.6172C17.9327 35.1841 18.287 35.7597 18.6323 36.3409C18.5438 36.3288 18.4761 36.3127 18.4733 36.1904C18.4716 36.1202 18.4043 36.0644 18.3132 36.0534C18.1801 36.0373 18.1415 35.9663 18.1903 35.8451C18.2222 35.7664 18.1621 35.7357 18.1173 35.7453C17.9482 35.7814 17.9482 35.6565 17.9744 35.5742C18.0307 35.4068 17.938 35.3383 17.8171 35.2923C17.7325 35.2596 17.7181 35.2013 17.7294 35.1359C17.7514 35.0076 17.7339 34.8979 17.6051 34.8438C17.4656 34.7835 17.494 34.7074 17.5645 34.6172Z" fill="#FDFDFD"/>
<path d="M24.8989 30.5667C25.1154 30.1934 25.3428 29.827 25.5811 29.4673C25.514 29.6409 25.5794 29.8202 25.5588 29.9964C25.5512 30.0624 25.545 30.1286 25.5377 30.1937C25.5273 30.2893 25.4793 30.3065 25.395 30.3087C25.2581 30.3135 25.1174 30.3192 25.0712 30.4959C25.0489 30.5805 24.9528 30.5328 24.8989 30.5667Z" fill="#FDFDFD"/>
<path d="M26.7131 27.6341C26.841 27.4038 26.9808 27.1802 27.1317 26.9644C27.1322 27.0446 27.1612 27.122 27.2135 27.1828C27.3246 27.3136 27.2826 27.4678 27.2473 27.6164C27.2394 27.6491 27.2112 27.6558 27.1822 27.6617C27.0232 27.6928 26.8654 27.7116 26.7131 27.6341Z" fill="#FDFDFD"/>
<path d="M28.7751 24.298L29.1749 23.6626C29.1892 23.6978 29.2775 23.7139 29.2031 23.772C29.1964 23.7773 29.1909 23.7839 29.1869 23.7913C29.1828 23.7988 29.1804 23.8071 29.1797 23.8156C29.179 23.824 29.18 23.8326 29.1827 23.8406C29.1854 23.8487 29.1898 23.8561 29.1954 23.8625C29.2783 23.9862 29.2341 24.1215 29.238 24.2526C29.2403 24.3242 29.2098 24.3586 29.1368 24.3569C29.0145 24.3544 28.8809 24.4088 28.7751 24.298Z" fill="#FDFDFD"/>
<path d="M24.416 31.3426C24.5488 31.1171 24.6793 30.8876 24.8341 30.6748C24.8673 30.7551 24.8341 30.8611 24.9589 30.9076C25.0102 30.9271 24.999 31.0387 24.9708 31.0937C24.9358 31.1619 24.8442 31.1608 24.7763 31.1878C24.7658 31.1921 24.7495 31.1794 24.7354 31.1777C24.681 31.1709 24.5899 31.1441 24.5789 31.1633C24.5324 31.2437 24.637 31.2366 24.6666 31.2761C24.7117 31.3375 24.6759 31.3606 24.6221 31.3767C24.5485 31.3978 24.482 31.3702 24.416 31.3426Z" fill="#FDFDFD"/>
<path d="M9.09339 20.9321C9.33488 21.3183 9.57627 21.7046 9.81757 22.091C9.82473 22.1078 9.82911 22.1257 9.83053 22.144C9.71327 22.16 9.6817 22.0253 9.58529 22.003C9.58022 22.003 9.57317 21.9844 9.57571 21.9779C9.64872 21.7989 9.44519 21.7189 9.43081 21.5712C9.42659 21.5283 9.38289 21.5314 9.35893 21.5111C9.29946 21.4604 9.22109 21.428 9.21376 21.3296C9.21115 21.3027 9.19855 21.2778 9.17845 21.2598C9.15835 21.2418 9.13222 21.232 9.10523 21.2323C9.04688 21.2306 8.98318 21.2487 8.99586 21.1557C9.00685 21.0731 8.94399 20.9547 9.09339 20.9321Z" fill="#FDFDFD"/>
<path d="M20.7332 37.2914C20.9023 36.9977 21.0799 36.7073 21.271 36.4263C21.2837 36.5373 21.3234 36.6574 21.1715 36.7121C21.1605 36.7161 21.1433 36.7369 21.1464 36.7403C21.24 36.9142 21.1264 37.0681 21.099 37.2297C21.0923 37.2702 21.0914 37.3308 21.037 37.3244C20.9908 37.3187 21.0069 37.2652 21.0088 37.2274C21.0097 37.1987 21.0053 37.17 20.9959 37.1428C20.9874 37.1163 20.975 37.0842 20.9426 37.0822C20.9281 37.0832 20.9142 37.0886 20.9029 37.0977C20.8915 37.1069 20.8832 37.1193 20.8792 37.1332C20.8606 37.1768 20.8457 37.2219 20.8346 37.268C20.8155 37.3548 20.7754 37.3241 20.7332 37.2914Z" fill="#FDFDFD"/>
<path d="M28.1212 25.3635C28.2413 25.1451 28.373 24.9333 28.5159 24.729C28.5604 24.7693 28.5497 24.8136 28.5226 24.8567C28.5147 24.8652 28.5101 24.8764 28.5097 24.888C28.5094 24.8997 28.5132 24.9111 28.5207 24.9201C28.6072 25.0329 28.5951 25.087 28.4643 25.1673C28.4389 25.1831 28.4065 25.2006 28.4147 25.2288C28.4429 25.326 28.4096 25.3633 28.3216 25.4213C28.2027 25.4988 28.1892 25.3678 28.1212 25.3635Z" fill="#FDFDFD"/>
<path d="M10.6044 23.3848C10.8353 23.7151 11.0419 24.0613 11.2432 24.4097C11.2051 24.4452 11.1676 24.4895 11.1078 24.4647C11.0481 24.4399 11.0472 24.3621 11.0627 24.3294C11.1129 24.2234 10.9861 24.2375 10.97 24.1681C10.9159 23.9342 10.7214 23.7803 10.5982 23.5843C10.5463 23.5015 10.5477 23.4493 10.6044 23.3848Z" fill="#FDFDFD"/>
<path d="M13.2006 27.5698C13.3356 27.7657 13.4687 27.9628 13.5702 28.179C13.4628 28.2512 13.4236 28.1299 13.3675 28.0922C13.3027 28.0482 13.2776 27.9571 13.1702 27.9602C13.1056 27.9622 13.0755 27.7702 13.1242 27.6893C13.1476 27.6488 13.1747 27.6096 13.2006 27.5698Z" fill="#FDFDFD"/>
<path d="M16.9939 33.6966C17.1963 33.9963 17.3866 34.3034 17.5648 34.6178C17.4044 34.6011 17.3392 34.4656 17.3139 34.35C17.275 34.1744 17.1199 34.0718 17.0884 33.897C16.9872 34.0055 16.9872 34.0055 16.8806 33.7016C16.9161 33.6594 16.959 33.736 16.9939 33.6966Z" fill="#FDFDFD"/>
<path d="M13.8545 28.6401C14.0306 28.8748 14.1853 29.1248 14.3168 29.3871C14.2709 29.3702 14.2571 29.3057 14.2041 29.3048C14.0986 29.3048 14.0039 29.3 14.0499 29.1484C14.0583 29.1202 14.0217 29.1033 14.0014 29.0827C13.9306 29.0063 13.8221 28.9508 13.8886 28.8087C13.9078 28.7644 13.8173 28.7081 13.8545 28.6401Z" fill="#FDFDFD"/>
<path d="M21.8422 35.5055C21.9653 35.2783 22.1012 35.0581 22.2492 34.8462C22.3056 35.1148 22.1429 35.2972 21.9896 35.4785C21.9515 35.5244 21.8935 35.5055 21.8422 35.5055Z" fill="#FDFDFD"/>
<path d="M14.9764 30.4521C15.1636 30.6949 15.3122 30.9621 15.465 31.2265C15.2857 31.202 15.2504 31.0481 15.1938 30.9164C15.1839 30.8941 15.1991 30.8471 15.1698 30.8431C14.9057 30.8093 15.0145 30.5948 14.9764 30.4521Z" fill="#FDFDFD"/>
<path d="M16.1018 32.2554C16.2273 32.4314 16.341 32.6155 16.4423 32.8065C16.3657 32.7904 16.305 32.725 16.207 32.7681C16.1579 32.7898 16.064 32.7771 16.1204 32.6438C16.17 32.5288 16.1159 32.3856 16.1018 32.2554Z" fill="#FDFDFD"/>
<path d="M10.1449 22.6392C10.2658 22.7983 10.3705 22.9691 10.4573 23.1491C10.3891 23.0947 10.3234 23.0409 10.238 23.1277C10.2098 23.1559 10.1672 23.1485 10.1342 23.1206C10.1013 23.0927 10.0866 23.0603 10.1103 23.0208C10.1844 22.8991 10.1627 22.7691 10.1449 22.6392Z" fill="#FDFDFD"/>
<path d="M16.4423 32.8062C16.5697 32.9914 16.696 33.1771 16.7907 33.3823C16.7682 33.377 16.7278 33.3761 16.725 33.3654C16.6867 33.2245 16.5463 33.1895 16.4541 33.1058C16.3242 32.9874 16.3171 32.9124 16.4423 32.8062Z" fill="#FDFDFD"/>
<path d="M25.5797 29.4684C25.6454 29.3366 25.723 29.2112 25.8117 29.0938C25.8024 29.1862 25.8816 29.2533 25.8768 29.3497C25.8678 29.5242 25.8032 29.5701 25.6454 29.4937C25.6242 29.4836 25.6017 29.4766 25.5797 29.4684Z" fill="#FDFDFD"/>
<path d="M11.5611 24.9243C11.7058 25.1293 11.8383 25.3427 11.9577 25.5634C11.9129 25.5259 11.8449 25.6073 11.8311 25.565C11.801 25.4732 11.7026 25.4072 11.7099 25.3153C11.7144 25.2911 11.7099 25.2661 11.6972 25.245C11.6846 25.2239 11.6646 25.2082 11.6411 25.2008C11.4965 25.1386 11.5131 25.0376 11.5611 24.9243Z" fill="#FDFDFD"/>
<path d="M11.9574 25.5625C12.0864 25.7443 12.2041 25.9339 12.3098 26.1302C12.279 26.1485 12.2438 26.1615 12.2204 26.1263C12.1668 26.0459 12.1206 25.9628 12.009 25.947C11.9808 25.943 11.9864 25.8996 11.998 25.8712C12.0219 25.8125 12.0098 25.7553 11.9585 25.7257C11.8565 25.6676 11.8931 25.6172 11.9574 25.5625Z" fill="#FDFDFD"/>
<path d="M8.67825 20.2788C8.79203 20.4183 8.88778 20.5715 8.96324 20.7349C8.92139 20.756 8.87782 20.7736 8.83301 20.7873C8.80133 20.7965 8.76731 20.7929 8.73829 20.7772C8.69855 20.747 8.74365 20.7208 8.75887 20.6957C8.79241 20.6393 8.75464 20.6021 8.73068 20.5548C8.69037 20.4696 8.62976 20.3834 8.67825 20.2788Z" fill="#FDFDFD"/>
<path d="M18.8618 36.7129C18.9717 36.8571 19.0661 37.0124 19.1437 37.1763C19.1008 37.1481 19.0591 37.1171 19.0027 37.1166C18.9786 37.1175 18.955 37.1101 18.9357 37.0956C18.9165 37.0811 18.9028 37.0604 18.897 37.0371C18.8795 36.9655 18.8784 36.8944 18.8167 36.8344C18.7775 36.7958 18.8434 36.7535 18.8618 36.7129Z" fill="#FDFDFD"/>
<path d="M9.88639 22.2314C9.98646 22.3295 10.0417 22.457 10.1105 22.5756C10.0924 22.6042 10.0638 22.6247 10.0308 22.6326C9.99789 22.6405 9.96317 22.6352 9.93403 22.6179C9.85736 22.5784 9.89626 22.5125 9.91909 22.457C9.92924 22.4322 9.93713 22.4057 9.91261 22.3947C9.81592 22.3524 9.87061 22.2895 9.88639 22.2314Z" fill="#FDFDFD"/>
<path d="M12.3101 26.1309C12.4343 26.3082 12.5482 26.4925 12.6515 26.6828C12.5145 26.6755 12.5074 26.5486 12.4626 26.4646C12.4248 26.3947 12.3938 26.3271 12.3124 26.3062C12.2162 26.282 12.1714 26.2526 12.2819 26.1799C12.2957 26.1698 12.3008 26.1472 12.3101 26.1309Z" fill="#FDFDFD"/>
<path d="M28.5277 24.7018L28.7154 24.4019C28.7916 24.4661 28.7932 24.5403 28.7637 24.6316C28.7467 24.6832 28.7405 24.6998 28.6822 24.688C28.6331 24.6812 28.5793 24.6964 28.5277 24.7018Z" fill="#FDFDFD"/>
<path d="M19.1741 37.2339C19.2869 37.3506 19.3568 37.4958 19.4337 37.6361C19.339 37.5781 19.175 37.5733 19.2528 37.3946C19.1987 37.3441 19.1705 37.4901 19.1293 37.4047C19.1011 37.3455 19.122 37.2818 19.1741 37.2339Z" fill="#FDFDFD"/>
<path d="M27.8562 25.7931C27.9288 25.6478 28.0146 25.5095 28.1124 25.3799C28.1079 25.4644 28.0727 25.5358 28.0369 25.6085C28.0183 25.6468 27.9924 25.6854 28.0174 25.7294C28.0391 25.7675 28.0682 25.8027 28.0174 25.8402C27.9546 25.8867 27.9388 25.8281 27.9081 25.7954C27.8999 25.7864 27.874 25.7934 27.8562 25.7931Z" fill="#FDFDFD"/>
<path d="M11.2426 24.4082C11.3614 24.5727 11.4682 24.7456 11.5622 24.9255C11.5058 24.9359 11.4495 24.9218 11.4292 24.8691C11.3683 24.7135 11.2569 24.5804 11.2426 24.4082Z" fill="#FDFDFD"/>
<path d="M14.751 30.0713C14.8293 30.1694 14.8944 30.2775 14.9443 30.3926C14.9266 30.3907 14.8992 30.3805 14.8928 30.3881C14.8364 30.4547 14.8136 30.4558 14.7868 30.3771C14.7503 30.2796 14.738 30.1746 14.751 30.0713Z" fill="#FDFDFD"/>
<path d="M29.834 22.599C29.8997 22.4668 29.9773 22.3409 30.0657 22.2227C30.0705 22.2484 30.0695 22.2749 30.0626 22.3002C30.0558 22.3255 30.0434 22.3489 30.0262 22.3687C29.9803 22.4251 29.9276 22.4733 30.015 22.5434C30.0618 22.5809 30.0068 22.6187 29.9893 22.6539C29.9786 22.6745 29.9653 22.7021 29.9388 22.6943C29.8898 22.6799 29.9228 22.6413 29.9191 22.6119C29.9073 22.5217 29.8616 22.6122 29.834 22.599Z" fill="#FDFDFD"/>
<path d="M12.8259 26.9644C12.8927 27.0453 12.9485 27.1347 12.992 27.2302C12.7729 27.2685 12.7425 27.2197 12.8259 26.9644Z" fill="#FDFDFD"/>
<path d="M15.8958 31.9258C15.9772 32.0276 16.0466 32.1385 16.1027 32.2562C15.9456 32.3001 15.9242 32.2821 15.9031 32.0819C15.8977 32.0304 15.898 31.9782 15.8958 31.9258Z" fill="#FDFDFD"/>
<path d="M14.5537 29.7554C14.6304 29.8542 14.6966 29.9609 14.751 30.0736C14.5706 30.07 14.4823 29.9282 14.5537 29.7554Z" fill="#FDFDFD"/>
<path d="M19.4334 37.6353C19.4848 37.6928 19.526 37.7587 19.5552 37.83C19.4828 37.8723 19.4112 37.8095 19.3771 37.7847C19.2776 37.7125 19.4154 37.6888 19.4334 37.6353Z" fill="#FDFDFD"/>
<path d="M15.666 31.5684C15.7364 31.6299 15.7874 31.7106 15.8129 31.8006C15.7001 31.8525 15.6437 31.826 15.6781 31.6944C15.69 31.649 15.6683 31.6104 15.666 31.5684Z" fill="#FDFDFD"/>
<path d="M14.4127 29.5259C14.4708 29.5945 14.5184 29.6715 14.5537 29.7542C14.4048 29.7376 14.3563 29.6567 14.4127 29.5259Z" fill="#FDFDFD"/>
<path d="M13.6834 28.3496C13.7398 28.4209 13.7962 28.4931 13.8224 28.5822C13.7274 28.5864 13.6558 28.5709 13.6908 28.446C13.6989 28.417 13.6865 28.382 13.6834 28.3496Z" fill="#FDFDFD"/>
<path d="M15.5205 31.3159C15.5704 31.3754 15.6177 31.4363 15.6361 31.5132C15.4802 31.4887 15.472 31.4749 15.5205 31.3159Z" fill="#FDFDFD"/>
<path d="M21.3601 36.4551C21.4258 36.516 21.4647 36.5723 21.428 36.6499C21.426 36.6542 21.423 36.658 21.4191 36.6608C21.4153 36.6636 21.4108 36.6654 21.4061 36.6661C21.4013 36.6667 21.3965 36.6661 21.3921 36.6643C21.3876 36.6626 21.3837 36.6597 21.3807 36.6561C21.3125 36.5969 21.3595 36.525 21.3601 36.4551Z" fill="#FDFDFD"/>
<path d="M18.7137 36.4873C18.787 36.5473 18.8251 36.6305 18.8626 36.7128C18.7814 36.686 18.7636 36.5925 18.6917 36.5521C18.6565 36.5335 18.7027 36.509 18.7137 36.4873Z" fill="#FDFDFD"/>
<path d="M16.8448 33.4697C16.9062 33.5109 16.9344 33.5737 16.9553 33.6411C16.8786 33.6095 16.798 33.5805 16.8448 33.4697Z" fill="#FDFDFD"/>
<path d="M12.7329 26.8286C12.7859 26.8605 12.8062 26.9132 12.8279 26.9673C12.78 26.9323 12.6509 26.9529 12.7329 26.8286Z" fill="#FDFDFD"/>
<path d="M13.5952 28.2134C13.6417 28.2483 13.6626 28.2999 13.6843 28.3509C13.5834 28.3512 13.578 28.2895 13.5952 28.2134Z" fill="#FDFDFD"/>
<path d="M24.833 30.6762C24.8428 30.6345 24.8654 30.5969 24.8978 30.5688C24.9649 30.6571 24.9187 30.6791 24.833 30.6762Z" fill="#FDFDFD"/>
<path d="M10.5179 23.2437C10.5363 23.255 10.5516 23.2708 10.5624 23.2895C10.5733 23.3083 10.5793 23.3294 10.5799 23.3511C10.5151 23.3778 10.5063 23.3629 10.5179 23.2437Z" fill="#FDFDFD"/>
<path d="M13.0774 27.3779C13.1135 27.3943 13.1245 27.4275 13.1338 27.4625C13.1034 27.4591 13.0648 27.4724 13.0447 27.4436C13.0247 27.4149 13.0656 27.3996 13.0774 27.3779Z" fill="#FDFDFD"/>
<path d="M8.99507 20.7935C9.04609 20.8143 9.05624 20.8648 9.07681 20.9062C8.99338 20.9096 8.99366 20.8518 8.99507 20.7935Z" fill="#FDFDFD"/>
<path d="M15.4647 31.2266C15.4926 31.2484 15.512 31.2793 15.5194 31.314C15.4191 31.3362 15.4326 31.2872 15.4647 31.2266Z" fill="#FDFDFD"/>
<path d="M12.992 27.231C13.0197 27.2523 13.0387 27.2831 13.0452 27.3175C12.9319 27.3477 12.992 27.2707 12.992 27.231Z" fill="#FDFDFD"/>
<path d="M13.1349 27.4624C13.1674 27.4911 13.1906 27.5289 13.2014 27.5709C13.1442 27.5563 13.1352 27.512 13.1349 27.4624Z" fill="#FDFDFD"/>
<path d="M12.6508 26.6812C12.6619 26.6865 12.6707 26.6956 12.6758 26.7067C12.681 26.7179 12.6821 26.7304 12.679 26.7423C12.6587 26.748 12.6334 26.7668 12.619 26.744C12.5987 26.7127 12.6421 26.704 12.6508 26.6812Z" fill="#FDFDFD"/>
<path d="M27.8007 25.8804L27.857 25.7925C27.8849 25.8517 27.8556 25.8742 27.8007 25.8804Z" fill="#FDFDFD"/>
<path d="M18.6311 36.3394C18.6457 36.3496 18.6578 36.363 18.6664 36.3786C18.6751 36.3942 18.6801 36.4115 18.681 36.4293C18.6238 36.4217 18.6013 36.3952 18.6311 36.3394Z" fill="#FDFDFD"/>
</g>
</g>
<defs>
<clipPath id="clip0_1350_18676">
<rect width="40" height="40" fill="white"/>
</clipPath>
</defs>
</svg>
