<svg width="40" height="40" viewBox="0 0 40 40" fill="none" xmlns="http://www.w3.org/2000/svg">
<g clip-path="url(#clip0_1350_8691)">
<path d="M20 40C31.0457 40 40 31.0457 40 20C40 8.9543 31.0457 0 20 0C8.9543 0 0 8.9543 0 20C0 31.0457 8.9543 40 20 40Z" fill="#F0F0F0"/>
<path d="M19.9995 0C12.0703 0 5.21901 4.61445 1.98401 11.3044H38.0149C34.7799 4.61445 27.9286 0 19.9995 0Z" fill="#338AF3"/>
<path d="M19.9995 39.9996C27.9286 39.9996 34.7799 35.3852 38.0149 28.6953H1.98401C5.21901 35.3852 12.0703 39.9996 19.9995 39.9996Z" fill="#338AF3"/>
<path d="M25.9773 20L23.5347 21.149L24.8354 23.5145L22.1831 23.0071L21.847 25.6865L19.9996 23.7158L18.1521 25.6865L17.8161 23.0071L15.1637 23.5144L16.4643 21.1489L14.0219 20L16.4644 18.851L15.1637 16.4855L17.816 16.9929L18.1522 14.3135L19.9996 16.2841L21.8471 14.3135L22.1831 16.9929L24.8355 16.4855L23.5348 18.8511L25.9773 20Z" fill="#FFDA44"/>
</g>
<defs>
<clipPath id="clip0_1350_8691">
<rect width="40" height="40" fill="white"/>
</clipPath>
</defs>
</svg>
