<svg width="40" height="40" viewBox="0 0 40 40" fill="none" xmlns="http://www.w3.org/2000/svg">
<g clip-path="url(#clip0_1350_8709)">
<path d="M40 20C40 31.0456 31.0456 40 20 40C8.95437 40 0 31.0456 0 20C0 20.0047 20 0.00226562 20 0C31.0456 0 40 8.95437 40 20Z" fill="#0052B4"/>
<path d="M19.946 19.9998H19.9995C19.9995 19.9817 19.9995 19.9643 19.9995 19.9463C19.9817 19.9642 19.9639 19.982 19.946 19.9998Z" fill="#F0F0F0"/>
<path d="M20 10.4357C20 6.9166 20 4.61058 20 0.000976562H19.9966C8.9525 0.00277344 0 8.95628 0 20.0009H10.4348V14.125L16.3107 20.0009H19.9466C19.9645 19.9831 19.9823 19.9653 20.0001 19.9474C20.0001 18.6 20.0001 17.3977 20.0001 16.3118L14.1241 10.4357H20Z" fill="#F0F0F0"/>
<path d="M10.1188 2.6084C6.99077 4.38957 4.3903 6.99004 2.60913 10.1181V19.9997H7.82655V7.8259V7.82582H20.0005C20.0005 6.18027 20.0005 4.61262 20.0005 2.6084H10.1188Z" fill="#D80027"/>
<path d="M20.001 17.5402L12.8953 10.4346H10.4359C10.4359 10.4345 10.4359 10.4346 10.4359 10.4346L20.0009 19.9997H20.001C20.001 19.9997 20.001 18.304 20.001 17.5402Z" fill="#D80027"/>
<path d="M12.0626 23.4785L13.1602 25.7737L15.6389 25.2008L14.5289 27.49L16.5222 29.0707L14.0404 29.6301L14.0473 32.1741L12.0626 30.5825L10.0779 32.1741L10.0848 29.6301L7.60297 29.0707L9.59633 27.49L8.48617 25.2008L10.965 25.7737L12.0626 23.4785Z" fill="#F0F0F0"/>
<path d="M29.9451 27.8252L30.4939 28.9728L31.7333 28.6863L31.1782 29.8309L32.1749 30.6213L30.934 30.901L30.9374 32.173L29.9451 31.3771L28.9528 32.173L28.9562 30.901L27.7153 30.6213L28.712 29.8309L28.157 28.6863L29.3963 28.9728L29.9451 27.8252Z" fill="#F0F0F0"/>
<path d="M24.8389 15.6523L25.3876 16.8L26.627 16.5134L26.072 17.6581L27.0686 18.4485L25.8278 18.7281L25.8311 20.0002L24.8389 19.2043L23.8465 20.0002L23.8499 18.7281L22.609 18.4485L23.6057 17.6581L23.0507 16.5134L24.29 16.8L24.8389 15.6523Z" fill="#F0F0F0"/>
<path d="M29.9451 8.69531L30.4939 9.84297L31.7333 9.55648L31.1783 10.7011L32.1749 11.4914L30.934 11.7712L30.9374 13.0432L29.9451 12.2473L28.9528 13.0432L28.9562 11.7712L27.7153 11.4914L28.7119 10.7011L28.157 9.55648L29.3963 9.84297L29.9451 8.69531Z" fill="#F0F0F0"/>
<path d="M34.4047 13.9121L34.9534 15.0598L36.1928 14.7732L35.6378 15.9178L36.6344 16.7082L35.3935 16.988L35.3969 18.2599L34.4047 17.4641L33.4123 18.2599L33.4157 16.988L32.1748 16.7082L33.1714 15.9178L32.6164 14.7732L33.8557 15.0598L34.4047 13.9121Z" fill="#F0F0F0"/>
<path d="M31.2152 20L31.6468 21.3286H33.0439L31.9136 22.1498L32.3454 23.4783L31.2152 22.6572L30.0851 23.4783L30.5167 22.1498L29.3865 21.3286H30.7835L31.2152 20Z" fill="#F0F0F0"/>
</g>
<defs>
<clipPath id="clip0_1350_8709">
<rect width="40" height="40" fill="white"/>
</clipPath>
</defs>
</svg>
