<svg width="40" height="40" viewBox="0 0 40 40" fill="none" xmlns="http://www.w3.org/2000/svg">
<g clip-path="url(#clip0_1350_9142)">
<path d="M20 40C31.0457 40 40 31.0457 40 20C40 8.9543 31.0457 0 20 0C8.9543 0 0 8.9543 0 20C0 31.0457 8.9543 40 20 40Z" fill="#FCFCFC"/>
<path d="M26.9643 16.9402C26.9643 12.7102 23.5352 9.28125 19.3053 9.28125C16.1839 9.28125 13.5005 11.1492 12.3074 13.8277L11.3628 17.2523L12.2323 18.1218L10.4932 21.6001L12.2323 22.4696L11.3628 23.3391V24.2087L12.2323 25.0782V26.8173L13.1019 27.6869L15.7105 26.8173C15.7105 26.8173 15.7105 27.6869 16.5801 28.5565C17.4496 29.426 18.3193 31.1652 18.3193 31.1652C18.3193 31.1652 20.9279 32.0348 22.6671 29.4261C24.4062 26.8174 26.1454 25.9478 26.1454 25.9478L24.4691 22.5952C26.0021 21.1949 26.9643 19.1803 26.9643 16.9402Z" fill="black"/>
<path d="M27.5885 19.8688C31.122 19.2727 31.7106 12.3535 31.7106 12.3535H26.8411C29.3628 18.4405 26.7233 18.8499 26.7233 18.8499C26.3658 18.5839 13.569 12.5217 13.1634 12.3676C13.0657 12.4984 12.7059 12.8419 12.2686 13.9114C11.8311 14.9809 11.7238 15.9431 11.7238 15.9431C11.9286 16.0766 25.5187 20.822 25.8779 20.8616C26.5908 21.3277 27.468 22.7215 26.9778 26.8542L31.6648 25.5332C31.665 25.5332 30.0743 21.3017 27.5885 19.8688Z" fill="#ACABB1"/>
</g>
<defs>
<clipPath id="clip0_1350_9142">
<rect width="40" height="40" fill="white"/>
</clipPath>
</defs>
</svg>
