<svg width="40" height="40" viewBox="0 0 40 40" fill="none" xmlns="http://www.w3.org/2000/svg">
<g clip-path="url(#clip0_1350_9152)">
<path d="M40 19.9999C40 17.5535 39.5599 15.21 38.756 13.0434L20 12.1738L1.24398 13.0434C0.440078 15.21 0 17.5535 0 19.9999C0 22.4463 0.440078 24.7898 1.24398 26.9564L20 27.826L38.756 26.9565C39.5599 24.7898 40 22.4463 40 19.9999Z" fill="#F0F0F0"/>
<path d="M20.0001 40.0006C28.5994 40.0006 35.9302 34.5731 38.7561 26.957H1.24406C4.06992 34.5731 11.4008 40.0006 20.0001 40.0006Z" fill="#0052B4"/>
<path d="M1.24406 13.0435H38.7562C35.9302 5.4275 28.5994 0 20.0001 0C11.4008 0 4.06992 5.4275 1.24406 13.0435Z" fill="#D80027"/>
<path d="M25.2168 13.9132H21.7386L22.3183 9.56531L24.6371 7.82617L26.9559 9.56531V13.0436L25.2168 13.9132Z" fill="#338AF3"/>
<path d="M14.7825 13.9132H18.2607L17.681 9.56531L15.3621 7.82617L13.0434 9.56531V13.0436L14.7825 13.9132Z" fill="#338AF3"/>
<path d="M22.3189 13.9132H17.681V9.56531L19.9999 7.82617L22.3189 9.56531V13.9132Z" fill="#0052B4"/>
<path d="M13.0434 13.0439V22.6091C13.0434 24.8867 14.1435 26.9121 15.8404 28.1819L17.0578 27.8773L18.5941 29.4228C19.0484 29.5163 19.5185 29.5656 20 29.5656C20.4789 29.5656 20.9466 29.517 21.3985 29.4243L23.1521 27.9642L24.1593 28.1791C25.8555 26.9094 26.9564 24.886 26.9564 22.6091V13.0439H13.0434Z" fill="#F0F0F0"/>
<path d="M13.0434 13.043H15.826V15.8256H13.0434V13.043Z" fill="#D80027"/>
<path d="M18.6086 13.043H21.3912V15.8256H18.6086V13.043Z" fill="#D80027"/>
<path d="M24.1741 13.043H26.9567V15.8256H24.1741V13.043Z" fill="#D80027"/>
<path d="M15.8255 15.8252H18.6081V18.6078H15.8255V15.8252Z" fill="#D80027"/>
<path d="M21.3913 15.8252H24.1739V18.6078H21.3913V15.8252Z" fill="#D80027"/>
<path d="M13.0434 18.6074H15.826V21.39H13.0434V18.6074Z" fill="#D80027"/>
<path d="M15.8255 21.3896H18.6081V24.1722H15.8255V21.3896Z" fill="#D80027"/>
<path d="M18.6086 18.6074H21.3912V21.39H18.6086V18.6074Z" fill="#D80027"/>
<path d="M24.1741 18.6074H26.9567V21.39H24.1741V18.6074Z" fill="#D80027"/>
<path d="M21.3913 21.3896H24.1739V24.1722H21.3913V21.3896Z" fill="#D80027"/>
<path d="M18.6086 24.1729H21.3912V26.9554H18.6086V24.1729Z" fill="#D80027"/>
<path d="M15.8261 24.1729H13.223C13.4618 25.2072 13.9311 26.1537 14.5747 26.9554H15.8261V24.1729Z" fill="#D80027"/>
<path d="M24.1741 26.9554H25.4254C26.0691 26.1537 26.5384 25.2071 26.7771 24.1729H24.1741V26.9554Z" fill="#D80027"/>
<path d="M15.8255 26.9551V28.1692C16.6348 28.7782 17.5806 29.2148 18.6081 29.4244V26.9551H15.8255Z" fill="#D80027"/>
<path d="M21.3913 26.9551V29.4244C22.4189 29.215 23.3646 28.7782 24.1739 28.1692V26.9551H21.3913Z" fill="#D80027"/>
</g>
<defs>
<clipPath id="clip0_1350_9152">
<rect width="40" height="40" fill="white"/>
</clipPath>
</defs>
</svg>
