<svg width="40" height="40" viewBox="0 0 40 40" fill="none" xmlns="http://www.w3.org/2000/svg">
<g clip-path="url(#clip0_1350_9177)">
<path d="M19.9999 40.0008C31.0456 40.0008 39.9998 31.0465 39.9998 20.0009C39.9998 8.95525 31.0456 0.000976562 19.9999 0.000976562C8.95427 0.000976562 0 8.95525 0 20.0009C0 31.0465 8.95427 40.0008 19.9999 40.0008Z" fill="#F0F0F0"/>
<path d="M19.9996 0C13.4565 0 7.64761 3.14242 3.99878 8H36.0004C32.3517 3.14234 26.5427 0 19.9996 0Z" fill="#0052B4"/>
<path d="M19.9996 39.9995C26.5428 39.9995 32.3517 36.8571 36.0005 31.9995H3.99878C7.64753 36.8572 13.4565 39.9995 19.9996 39.9995Z" fill="#0052B4"/>
<path d="M0.00012207 20C0.00012207 21.3699 0.138247 22.7076 0.400669 24H39.5996C39.862 22.7076 40.0001 21.3699 40.0001 20C40.0001 18.6301 39.862 17.2924 39.5996 16H0.400669C0.138247 17.2924 0.00012207 18.6301 0.00012207 20Z" fill="#0052B4"/>
<path d="M5.85816 5.85791C-1.95223 13.6683 -1.95223 26.3317 5.85816 34.1422C9.08574 30.9146 12.1898 27.8105 20.0003 20.0001L5.85816 5.85791Z" fill="#D80027"/>
<path d="M8.09524 14.7827L9.39008 18.7683H13.5812L10.1908 21.2317L11.4856 25.2173L8.09524 22.754L4.70469 25.2173L5.99985 21.2317L2.60938 18.7683H6.80016L8.09524 14.7827Z" fill="#F0F0F0"/>
</g>
<defs>
<clipPath id="clip0_1350_9177">
<rect width="40" height="40" fill="white"/>
</clipPath>
</defs>
</svg>
