<svg width="40" height="40" viewBox="0 0 40 40" fill="none" xmlns="http://www.w3.org/2000/svg">
<g clip-path="url(#clip0_1350_9387)">
<path d="M20 40C31.0457 40 40 31.0457 40 20C40 8.9543 31.0457 0 20 0C8.9543 0 0 8.9543 0 20C0 31.0457 8.9543 40 20 40Z" fill="#F0F0F0"/>
<path d="M39.8307 17.3913H22.6088H22.6087V0.169297C21.7548 0.058125 20.8841 0 20 0C19.1159 0 18.2452 0.058125 17.3913 0.169297V17.3912V17.3913H0.169297C0.058125 18.2452 0 19.1159 0 20C0 20.8843 0.058125 21.7548 0.169297 22.6087H17.3912H17.3913V39.8307C18.2452 39.9419 19.1159 40 20 40C20.8841 40 21.7548 39.942 22.6087 39.8307V22.6088V22.6087H39.8307C39.9419 21.7548 40 20.8843 40 20C40 19.1159 39.9419 18.2452 39.8307 17.3913Z" fill="#D80027"/>
<path d="M12.174 9.56529V6.95654H9.56535V9.56529H6.9566V12.174H9.56535V14.7826H12.174V12.174H14.7827V9.56529H12.174Z" fill="#D80027"/>
<path d="M30.4342 9.56529V6.95654H27.8256V9.56529H25.2169V12.174H27.8256V14.7826H30.4342V12.174H33.043V9.56529H30.4342Z" fill="#D80027"/>
<path d="M12.174 27.826V25.2173H9.56535V27.826H6.9566V30.4346H9.56535V33.0434H12.174V30.4346H14.7827V27.826H12.174Z" fill="#D80027"/>
<path d="M30.4342 27.826V25.2173H27.8256V27.826H25.2169V30.4346H27.8256V33.0434H30.4342V30.4346H33.043V27.826H30.4342Z" fill="#D80027"/>
</g>
<defs>
<clipPath id="clip0_1350_9387">
<rect width="40" height="40" fill="white"/>
</clipPath>
</defs>
</svg>
