<svg width="40" height="40" viewBox="0 0 40 40" fill="none" xmlns="http://www.w3.org/2000/svg">
<g clip-path="url(#clip0_1350_9533)">
<path d="M20 40C31.0457 40 40 31.0457 40 20C40 8.9543 31.0457 0 20 0C8.9543 0 0 8.9543 0 20C0 31.0457 8.9543 40 20 40Z" fill="#F0F0F0"/>
<path d="M19.9994 0C12.0702 0 5.21895 4.61445 1.98395 11.3044H38.0148C34.7799 4.61445 27.9286 0 19.9994 0Z" fill="#FF9811"/>
<path d="M19.9994 40.0002C27.9286 40.0002 34.7799 35.3857 38.0149 28.6958H1.98395C5.21895 35.3857 12.0702 40.0002 19.9994 40.0002Z" fill="#6DA544"/>
<path d="M19.9999 26.9564C23.8418 26.9564 26.9564 23.8419 26.9564 19.9999C26.9564 16.158 23.8418 13.0435 19.9999 13.0435C16.1579 13.0435 13.0434 16.158 13.0434 19.9999C13.0434 23.8419 16.1579 26.9564 19.9999 26.9564Z" fill="#0052B4"/>
<path d="M20.0006 24.3479C22.4018 24.3479 24.3484 22.4014 24.3484 20.0001C24.3484 17.5989 22.4018 15.6523 20.0006 15.6523C17.5993 15.6523 15.6528 17.5989 15.6528 20.0001C15.6528 22.4014 17.5993 24.3479 20.0006 24.3479Z" fill="#F0F0F0"/>
<path d="M19.9994 14.6348L21.3408 17.6768L24.6458 17.3173L22.682 19.9999L24.6458 22.6825L21.3408 22.323L19.9994 25.3651L18.6581 22.323L15.3531 22.6824L17.3168 19.9999L15.3531 17.3173L18.6581 17.6768L19.9994 14.6348Z" fill="#0052B4"/>
</g>
<defs>
<clipPath id="clip0_1350_9533">
<rect width="40" height="40" fill="white"/>
</clipPath>
</defs>
</svg>
