<svg width="40" height="40" viewBox="0 0 40 40" fill="none" xmlns="http://www.w3.org/2000/svg">
<g clip-path="url(#clip0_1350_9543)">
<path d="M20 40C31.0457 40 40 31.0457 40 20C40 8.9543 31.0457 0 20 0C8.9543 0 0 8.9543 0 20C0 31.0457 8.9543 40 20 40Z" fill="#F0F0F0"/>
<path d="M26.4958 14.7828H23.8791C23.9007 15.0704 23.913 15.3605 23.913 15.6523C23.913 17.587 23.4294 19.4622 22.5863 20.7971C22.3263 21.2088 21.8892 21.7902 21.3042 22.1824V14.7827H18.6956V22.1824C18.1106 21.7902 17.6735 21.2089 17.4135 20.7971C16.5703 19.4622 16.0868 17.587 16.0868 15.6523C16.0868 15.3605 16.0992 15.0703 16.1207 14.7828H13.504C13.4872 15.069 13.4781 15.3588 13.4781 15.6523C13.4781 21.0161 16.3428 25.2176 19.9998 25.2176C23.6568 25.2176 26.5215 21.0161 26.5215 15.6523C26.5217 15.3588 26.5125 15.069 26.4958 14.7828Z" fill="#D80027"/>
<path d="M8.26087 9.56523H10.8695V11.3044H13.4782V9.56523H16.0869V11.3044H18.6956V9.56523H21.3042V11.3044H23.9129V9.56523H26.5216V11.3044H29.1302V9.56523H31.7389V11.3044H38.0152C34.7805 4.61445 27.9291 0 20 0C12.0709 0 5.21954 4.61445 1.98454 11.3044H8.26087V9.56523Z" fill="#6DA544"/>
<path d="M31.7391 28.6958V30.4349H29.1305V28.6958H26.5218V30.4349H23.9131V28.6958H21.3045V30.4349H18.6958V28.6958H16.0871V30.4349H13.4784V28.6958H10.8695V30.4349H8.26087V28.6958H1.98454C5.21954 35.3857 12.0708 40.0002 20 40.0002C27.9292 40.0002 34.7805 35.3857 38.0155 28.6958H31.7391Z" fill="#D80027"/>
</g>
<defs>
<clipPath id="clip0_1350_9543">
<rect width="40" height="40" fill="white"/>
</clipPath>
</defs>
</svg>
