<svg width="40" height="40" viewBox="0 0 40 40" fill="none" xmlns="http://www.w3.org/2000/svg">
<g clip-path="url(#clip0_1350_9577)">
<path d="M20 40C31.0457 40 40 31.0457 40 20C40 8.9543 31.0457 0 20 0C8.9543 0 0 8.9543 0 20C0 31.0457 8.9543 40 20 40Z" fill="#FFDA44"/>
<path d="M32.1769 4.13437C28.8045 1.54211 24.583 0 20.0007 0C15.4183 0 11.1968 1.54219 7.82434 4.13437L20.0007 16.3106L32.1769 4.13437Z" fill="#6DA544"/>
<path d="M4.1343 7.82373C1.54219 11.1962 0 15.4176 0 20C0 24.5823 1.54219 28.8039 4.13438 32.1764L16.3107 20L4.1343 7.82373Z" fill="black"/>
<path d="M7.82434 35.8657C11.1968 38.458 15.4183 40.0001 20.0007 40.0001C24.583 40.0001 28.8045 38.4579 32.177 35.8657L20.0007 23.6895L7.82434 35.8657Z" fill="#6DA544"/>
<path d="M35.8663 32.1762C38.4585 28.8038 40.0006 24.5823 40.0006 20C40.0006 15.4176 38.4585 11.1962 35.8663 7.82373L23.69 20L35.8663 32.1762Z" fill="black"/>
</g>
<defs>
<clipPath id="clip0_1350_9577">
<rect width="40" height="40" fill="white"/>
</clipPath>
</defs>
</svg>
