<svg width="40" height="40" viewBox="0 0 40 40" fill="none" xmlns="http://www.w3.org/2000/svg">
<g clip-path="url(#clip0_1350_10024)">
<path d="M20 40C31.0457 40 40 31.0457 40 20C40 8.9543 31.0457 0 20 0C8.9543 0 0 8.9543 0 20C0 31.0457 8.9543 40 20 40Z" fill="#F0F0F0"/>
<path d="M0 19.9998C0 27.5807 4.21789 34.1759 10.4348 37.568V2.43164C4.21789 5.82375 0 12.419 0 19.9998Z" fill="#F0F0F0"/>
<path d="M20 0C16.5351 0 13.2762 0.881484 10.4348 2.4318V37.5681C13.2762 39.1185 16.5351 40 20 40C31.0456 40 40 31.0456 40 20C40 8.95437 31.0456 0 20 0Z" fill="#496E2D"/>
<path d="M28.5512 23.3077C26.021 25.1359 22.4877 24.5669 20.6596 22.0367C18.8313 19.5064 19.4004 15.9732 21.9307 14.1451C22.7196 13.5751 23.606 13.2382 24.5078 13.121C22.7729 12.8616 20.9389 13.2525 19.4047 14.361C16.2907 16.6112 15.5901 20.9597 17.8402 24.0739C20.0903 27.1879 24.4389 27.8885 27.5531 25.6382C29.0874 24.5297 30.0344 22.9115 30.3326 21.1827C29.9384 22.0019 29.3402 22.7377 28.5512 23.3077Z" fill="#F0F0F0"/>
<path d="M28.4429 13.0439L29.8682 14.58L31.7694 13.6993L30.7489 15.5293L32.1741 17.0655L30.1182 16.6604L29.0977 18.4906L28.8476 16.4101L26.7917 16.005L28.693 15.1244L28.4429 13.0439Z" fill="#F0F0F0"/>
</g>
<defs>
<clipPath id="clip0_1350_10024">
<rect width="40" height="40" fill="white"/>
</clipPath>
</defs>
</svg>
