<svg width="40" height="40" viewBox="0 0 40 40" fill="none" xmlns="http://www.w3.org/2000/svg">
<g clip-path="url(#clip0_1350_10558)">
<path d="M40 20C40 31.0456 31.0456 40 20.0001 40C8.95438 40 0 31.0456 0 20C0 20.0048 20.0001 0.0021875 20.0001 0C31.0456 0 40 8.95437 40 20Z" fill="#338AF3"/>
<path d="M9.56525 19.9999H16.3107L10.4348 13.0435L9.56525 15.6521V19.9999Z" fill="#0052B4"/>
<path d="M20 16.3105L13.0435 9.56494H19.9999L20 16.3105Z" fill="#0052B4"/>
<path d="M19.9465 20.0003H20C20 19.9823 20 19.9648 20 19.9468C19.9822 19.9647 19.9644 19.9825 19.9465 20.0003Z" fill="#F0F0F0"/>
<path d="M20.0001 10.4348C20.0001 6.91563 20.0001 4.60969 20.0001 0H19.9967C8.9525 0.001875 0 8.95539 0 20H10.4348V14.1241L16.3107 20H19.9466C19.9645 19.9822 19.9823 19.9644 20.0002 19.9465C20.0002 18.5991 20.0002 17.3968 20.0002 16.3108L14.1241 10.4348H20.0001Z" fill="#F0F0F0"/>
<path d="M10.1183 2.6084C6.99022 4.38957 4.38975 6.99004 2.60858 10.1181V19.9997H7.826V7.82598V7.82582H19.9999C19.9999 6.18027 19.9999 4.61262 19.9999 2.6084H10.1183Z" fill="#D80027"/>
<path d="M19.9998 17.5403L12.894 10.4346H10.4346V10.4347L19.9997 19.9997H19.9998C19.9998 19.9997 19.9998 18.3038 19.9998 17.5403Z" fill="#D80027"/>
<path d="M21.8286 33.0435L22.2603 34.3721H23.6573L22.5272 35.1931L22.9589 36.5217L21.8286 35.7006L20.6985 36.5217L21.1302 35.1931L20 34.3721H21.3969L21.8286 33.0435Z" fill="#FFDA44"/>
<path d="M32.9539 24.3477L33.3855 25.6762H34.7825L33.6524 26.4974L34.0842 27.8259L32.9539 27.0049L31.8238 27.8259L32.2555 26.4974L31.1252 25.6762H32.5221L32.9539 24.3477Z" fill="#FFDA44"/>
<path d="M35.7418 11.3042L36.1735 12.6328H37.5705L36.4404 13.4539L36.872 14.7824L35.7418 13.9614L34.6117 14.7824L35.0434 13.4539L33.9132 12.6328H35.3102L35.7418 11.3042Z" fill="#FFDA44"/>
<path d="M36.4321 20.8691L36.8637 22.1978H38.2607L37.1306 23.0189L37.5623 24.3474L36.4321 23.5264L35.302 24.3474L35.7337 23.0189L34.6034 22.1978H36.0003L36.4321 20.8691Z" fill="#FFDA44"/>
<path d="M23.8316 29.9184L25.0766 30.5527L26.0643 29.5649L25.8459 30.9446L27.0905 31.5788L25.7106 31.7974L25.4921 33.1771L24.8581 31.9324L23.4782 32.151L24.4659 31.1633L23.8316 29.9184Z" fill="#FFDA44"/>
<path d="M23.8316 24.7012L25.0766 25.3354L26.0643 24.3477L25.8459 25.7273L27.0905 26.3615L25.7106 26.5801L25.4921 27.9598L24.8581 26.7152L23.4782 26.9337L24.4659 25.946L23.8316 24.7012Z" fill="#FFDA44"/>
<path d="M28.1794 28.0453L29.4243 28.6796L30.412 27.6919L30.1936 29.0715L31.4382 29.7057L30.0584 29.9243L29.8398 31.3041L29.2058 30.0592L27.8259 30.278L28.8137 29.2903L28.1794 28.0453Z" fill="#FFDA44"/>
<path d="M28.1794 16.875L29.4243 17.5092L30.412 16.5215L30.1936 17.9012L31.4382 18.5353L30.0584 18.7539L29.8398 20.1337L29.2058 18.889L27.8259 19.1076L28.8137 18.1198L28.1794 16.875Z" fill="#FFDA44"/>
<path d="M32.3932 16.7412L33.6381 17.3754L34.6258 16.3877L34.4073 17.7674L35.652 18.4015L34.2722 18.6201L34.0536 19.9999L33.4196 18.7552L32.0397 18.9738L33.0275 17.9861L32.3932 16.7412Z" fill="#FFDA44"/>
</g>
<defs>
<clipPath id="clip0_1350_10558">
<rect width="40" height="40" fill="white"/>
</clipPath>
</defs>
</svg>
