<svg width="40" height="40" viewBox="0 0 40 40" fill="none" xmlns="http://www.w3.org/2000/svg">
<g clip-path="url(#clip0_1350_10112)">
<path d="M20 40C31.0457 40 40 31.0457 40 20C40 8.9543 31.0457 0 20 0C8.9543 0 0 8.9543 0 20C0 31.0457 8.9543 40 20 40Z" fill="#FFDA44"/>
<path d="M23.0416 39.7701C26.2944 39.2738 29.2886 37.9929 31.8272 36.128L20 20L23.0416 39.7701Z" fill="#D80027"/>
<path d="M16.9584 0.22998C13.7056 0.726231 10.7114 2.00717 8.17266 3.87193L20 20.0001L16.9584 0.22998Z" fill="#D80027"/>
<path d="M8.17266 36.128C10.7113 37.9928 13.7055 39.2738 16.9582 39.7702L20 20L8.17266 36.128Z" fill="#D80027"/>
<path d="M3.87183 8.17285C2.00698 10.7116 0.726202 13.7057 0.229874 16.9586L20 20.0002L3.87183 8.17285Z" fill="#D80027"/>
<path d="M0.229874 23.0416C0.726124 26.2944 2.00706 29.2886 3.87191 31.8272L20 20L0.229874 23.0416Z" fill="#D80027"/>
<path d="M39.7701 16.9585C39.2738 13.7057 37.9929 10.7115 36.128 8.17285L20 20.0001L39.7701 16.9585Z" fill="#D80027"/>
<path d="M31.8272 3.87186C29.2885 2.00709 26.2944 0.726231 23.0416 0.22998L20 20.0001L31.8272 3.87186Z" fill="#D80027"/>
<path d="M36.1282 31.8273C37.993 29.2886 39.2738 26.2943 39.7702 23.0416L20 20L36.1282 31.8273Z" fill="#D80027"/>
<path d="M19.9999 26.9564C23.8419 26.9564 26.9564 23.8419 26.9564 19.9999C26.9564 16.158 23.8419 13.0435 19.9999 13.0435C16.1579 13.0435 13.0434 16.158 13.0434 19.9999C13.0434 23.8419 16.1579 26.9564 19.9999 26.9564Z" fill="#D80027"/>
<path d="M20.0005 25.2176C22.882 25.2176 25.218 22.8817 25.218 20.0001C25.218 17.1186 22.882 14.7827 20.0005 14.7827C17.119 14.7827 14.7831 17.1186 14.7831 20.0001C14.7831 22.8817 17.119 25.2176 20.0005 25.2176Z" fill="#FFDA44"/>
</g>
<defs>
<clipPath id="clip0_1350_10112">
<rect width="40" height="40" fill="white"/>
</clipPath>
</defs>
</svg>
