<svg width="40" height="40" viewBox="0 0 40 40" fill="none" xmlns="http://www.w3.org/2000/svg">
<g clip-path="url(#clip0_1350_8791)">
<path d="M20 40C31.0457 40 40 31.0457 40 20C40 8.9543 31.0457 0 20 0C8.9543 0 0 8.9543 0 20C0 31.0457 8.9543 40 20 40Z" fill="#FCFCFC"/>
<path d="M8.26069 18.5507L6.08679 14.6067L8.26069 10.7246L10.4346 14.6067L8.26069 18.5507Z" fill="#A2001D"/>
<path d="M3.91347 18.5507L1.73956 14.6067L3.91347 10.7246L6.08737 14.6067L3.91347 18.5507Z" fill="#A2001D"/>
<path d="M8.26069 29.2753L6.08679 25.3313L8.26069 21.4492L10.4346 25.3313L8.26069 29.2753Z" fill="#A2001D"/>
<path d="M3.91347 29.2753L1.73956 25.3313L3.91347 21.4492L6.08737 25.3313L3.91347 29.2753Z" fill="#A2001D"/>
<path d="M10.4351 3.88227L9.8196 2.7832C8.71569 3.43727 7.6803 4.19453 6.72632 5.04172L8.26116 7.82617L10.4351 3.88227Z" fill="#A2001D"/>
<path d="M8.26129 32.1738L6.71021 34.9438C7.66333 35.7921 8.69801 36.5505 9.80144 37.2059L10.4353 36.056L8.26129 32.1738Z" fill="#A2001D"/>
<path d="M12.1733 25.2168V38.4092C14.5772 39.4324 17.2219 39.9993 19.9994 39.9993C28.5987 39.9993 35.9296 34.5718 38.7554 26.9559L12.1733 25.2168Z" fill="#6DA544"/>
<path d="M38.7554 26.9565C39.5594 24.7898 39.9994 22.4464 39.9994 20C39.9994 8.95438 31.0451 0 19.9994 0C17.2222 0 14.5772 0.566641 12.1733 1.58969V26.9566H38.7554V26.9565Z" fill="#A2001D"/>
</g>
<defs>
<clipPath id="clip0_1350_8791">
<rect width="40" height="40" fill="white"/>
</clipPath>
</defs>
</svg>
