<svg width="40" height="40" viewBox="0 0 40 40" fill="none" xmlns="http://www.w3.org/2000/svg">
<g clip-path="url(#clip0_1350_9521)">
<path d="M1.24398 13.0433C0.440078 15.2101 0 17.5534 0 19.9998C0 22.4462 0.440078 24.7898 1.24398 26.9563L20 28.6955L38.756 26.9563C39.5599 24.7898 40 22.4462 40 19.9998C40 17.5534 39.5599 15.2101 38.756 13.0433L20 11.3042L1.24398 13.0433Z" fill="#F0F0F0"/>
<path d="M20.0006 0C11.4014 0 4.07044 5.4275 1.24466 13.0435H38.7568C35.9307 5.4275 28.6 0 20.0006 0Z" fill="#D80027"/>
<path d="M20.0006 40.0001C28.6 40.0001 35.9307 34.5726 38.7567 26.9565H1.24466C4.07044 34.5726 11.4014 40.0001 20.0006 40.0001Z" fill="#6DA544"/>
</g>
<defs>
<clipPath id="clip0_1350_9521">
<rect width="40" height="40" fill="white"/>
</clipPath>
</defs>
</svg>
