<svg width="40" height="40" viewBox="0 0 40 40" fill="none" xmlns="http://www.w3.org/2000/svg">
<g clip-path="url(#clip0_1350_9457)">
<path d="M20 40C31.0457 40 40 31.0457 40 20C40 8.9543 31.0457 0 20 0C8.9543 0 0 8.9543 0 20C0 31.0457 8.9543 40 20 40Z" fill="#F0F0F0"/>
<path d="M40.0005 20.0003C40.0005 12.0711 35.3861 5.21986 28.6962 1.98486V38.0157C35.3861 34.7808 40.0005 27.9295 40.0005 20.0003Z" fill="#338AF3"/>
<path d="M0 20.0003C0 27.9295 4.61445 34.7808 11.3044 38.0158V1.98486C4.61445 5.21986 0 12.0711 0 20.0003Z" fill="#338AF3"/>
<path d="M25.2271 23.3819L21.8453 20.0002L25.0643 16.7811L24.9185 15.0809L23.9969 14.1592L20.0006 18.1554L16.0044 14.1592L15.0828 15.0809L14.937 16.7811L18.1559 20.0002L14.7741 23.3819L16.6188 25.2264L20.0006 21.8448L23.3824 25.2264L25.2271 23.3819Z" fill="#ACABB1"/>
<path d="M24.9189 15.0811L23.0743 16.9257C23.8611 17.7125 24.3478 18.7994 24.3478 20C24.3478 22.4013 22.4011 24.3479 20 24.3479C17.5988 24.3479 15.6521 22.4013 15.6521 20C15.6521 18.7994 16.1388 17.7125 16.9256 16.9257L15.081 15.0811C13.822 16.3398 13.0434 18.079 13.0434 20C13.0434 23.8421 16.1579 26.9565 19.9999 26.9565C23.8418 26.9565 26.9564 23.842 26.9564 20C26.9564 18.079 26.1778 16.3399 24.9189 15.0811Z" fill="#6DA544"/>
</g>
<defs>
<clipPath id="clip0_1350_9457">
<rect width="40" height="40" fill="white"/>
</clipPath>
</defs>
</svg>
