<svg width="40" height="40" viewBox="0 0 40 40" fill="none" xmlns="http://www.w3.org/2000/svg">
<g clip-path="url(#clip0_1350_10092)">
<path d="M0 20.0002C0 28.5994 5.4275 35.9302 13.0434 38.7561L14.7826 20.0001L13.0434 1.24414C5.4275 4.07008 0 11.4009 0 20.0002Z" fill="#6DA544"/>
<path d="M40 20C40 8.95437 31.0457 0 20 0C17.5536 0 15.2101 0.440078 13.0434 1.24398V38.756C15.2101 39.56 17.5536 40 20 40C31.0457 40 40 31.0456 40 20Z" fill="#D80027"/>
<path d="M13.0433 26.9559C16.8853 26.9559 19.9998 23.8414 19.9998 19.9995C19.9998 16.1575 16.8853 13.043 13.0433 13.043C9.20138 13.043 6.08685 16.1575 6.08685 19.9995C6.08685 23.8414 9.20138 26.9559 13.0433 26.9559Z" fill="#FFDA44"/>
<path d="M9.13062 16.5215V20.8693C9.13062 23.0304 10.8825 24.7823 13.0437 24.7823C15.2048 24.7823 16.9567 23.0305 16.9567 20.8693V16.5215H9.13062Z" fill="#D80027"/>
<path d="M13.0437 22.1743C12.3245 22.1743 11.7393 21.5891 11.7393 20.8699V19.1309H14.348V20.87C14.348 21.5891 13.7628 22.1743 13.0437 22.1743Z" fill="#F0F0F0"/>
</g>
<defs>
<clipPath id="clip0_1350_10092">
<rect width="40" height="40" fill="white"/>
</clipPath>
</defs>
</svg>
