<svg width="40" height="40" viewBox="0 0 40 40" fill="none" xmlns="http://www.w3.org/2000/svg">
<g clip-path="url(#clip0_1350_9641)">
<path d="M20 40C31.0457 40 40 31.0457 40 20C40 8.9543 31.0457 0 20 0C8.9543 0 0 8.9543 0 20C0 31.0457 8.9543 40 20 40Z" fill="#D80027"/>
<path d="M29.7816 20.0002L25.7851 21.88L27.9133 25.7509L23.5732 24.9205L23.0235 29.3045L20.0005 26.0803L16.9777 29.3045L16.4278 24.9205L12.0881 25.7507L14.2162 21.8798L10.2195 20.0002L14.2162 18.1204L12.0881 14.2495L16.4276 15.0799L16.9778 10.6958L20.0005 13.9201L23.0237 10.6958L23.5732 15.0799L27.9135 14.2495L25.7852 18.1206L29.7816 20.0002Z" fill="#FFDA44"/>
<path d="M20.0002 26.087C23.3619 26.087 26.0871 23.3618 26.0871 20C26.0871 16.6383 23.3619 13.9131 20.0002 13.9131C16.6384 13.9131 13.9132 16.6383 13.9132 20C13.9132 23.3618 16.6384 26.087 20.0002 26.087Z" fill="#D80027"/>
<path d="M16.956 20C16.8094 20 16.6646 20.0075 16.5217 20.0217C16.527 20.8648 16.832 21.6364 17.3357 22.2359C17.6045 21.5127 18.0057 20.8532 18.5117 20.2888C18.0284 20.103 17.5041 20 16.956 20Z" fill="#FFDA44"/>
<path d="M18.8297 23.2758C19.1953 23.4064 19.589 23.4781 19.9996 23.4781C20.4102 23.4781 20.8039 23.4064 21.1695 23.2758C20.9702 22.4936 20.5587 21.7953 19.9996 21.2466C19.4405 21.7953 19.029 22.4936 18.8297 23.2758Z" fill="#FFDA44"/>
<path d="M23.0118 18.2612C22.4104 17.2216 21.2872 16.5215 19.9997 16.5215C18.7122 16.5215 17.589 17.2216 16.9876 18.2612C18.084 18.2667 19.1121 18.5648 19.9997 19.0796C20.8873 18.5648 21.9153 18.2667 23.0118 18.2612Z" fill="#FFDA44"/>
<path d="M21.4877 20.2888C21.9937 20.8531 22.395 21.5126 22.6637 22.2359C23.1675 21.6364 23.4725 20.8648 23.4777 20.0217C23.3347 20.0074 23.19 20 23.0434 20C22.4954 19.9999 21.9711 20.1029 21.4877 20.2888Z" fill="#FFDA44"/>
</g>
<defs>
<clipPath id="clip0_1350_9641">
<rect width="40" height="40" fill="white"/>
</clipPath>
</defs>
</svg>
