<svg width="40" height="40" viewBox="0 0 40 40" fill="none" xmlns="http://www.w3.org/2000/svg">
<g clip-path="url(#clip0_1350_8725)">
<path d="M38.756 26.9568C39.56 24.7903 40 22.4467 40 20.0003C40 17.5539 39.56 15.2106 38.756 13.0438L20 11.3047L1.24398 13.0438C0.440078 15.2106 0 17.5539 0 20.0003C0 22.4467 0.440078 24.7903 1.24398 26.9568L20 28.696L38.756 26.9568Z" fill="#F0F0F0"/>
<path d="M20.0001 40.0006C28.5993 40.0006 35.9303 34.5731 38.756 26.957H1.24402C4.06996 34.5731 11.4007 40.0006 20.0001 40.0006Z" fill="#D80027"/>
<path d="M20.0001 0C11.4007 0 4.06996 5.4275 1.24402 13.0435H38.7561C35.9303 5.4275 28.5993 0 20.0001 0Z" fill="#D80027"/>
</g>
<defs>
<clipPath id="clip0_1350_8725">
<rect width="40" height="40" fill="white"/>
</clipPath>
</defs>
</svg>
