<svg width="40" height="40" viewBox="0 0 40 40" fill="none" xmlns="http://www.w3.org/2000/svg">
<g clip-path="url(#clip0_1350_9591)">
<path d="M20 40C31.0457 40 40 31.0457 40 20C40 8.9543 31.0457 0 20 0C8.9543 0 0 8.9543 0 20C0 31.0457 8.9543 40 20 40Z" fill="#F0F0F0"/>
<path d="M12.1745 13.0435H38.7565C35.9307 5.4275 28.5998 0 20.0006 0C14.4776 0 9.47814 2.23898 5.85908 5.85852L12.1745 13.0435Z" fill="black"/>
<path d="M12.1745 26.9565H38.7565C35.9307 34.5726 28.5998 40.0001 20.0006 40.0001C14.4776 40.0001 9.47814 37.7611 5.85908 34.1415L12.1745 26.9565Z" fill="#6DA544"/>
<path d="M5.85782 5.85791C-1.95265 13.6684 -1.95265 26.3317 5.85782 34.1423C9.0854 30.9147 12.1895 27.8106 20 20.0001L5.85782 5.85791Z" fill="#D80027"/>
<path d="M7.93782 15.6523L9.0354 17.9476L11.5142 17.3747L10.4041 19.6638L12.3974 21.2446L9.91564 21.8039L9.92251 24.3479L7.93782 22.7563L5.95306 24.3479L5.96001 21.8039L3.47821 21.2446L5.47149 19.6638L4.36149 17.3747L6.84017 17.9476L7.93782 15.6523Z" fill="#F0F0F0"/>
</g>
<defs>
<clipPath id="clip0_1350_9591">
<rect width="40" height="40" fill="white"/>
</clipPath>
</defs>
</svg>
