<svg width="40" height="40" viewBox="0 0 40 40" fill="none" xmlns="http://www.w3.org/2000/svg">
<g clip-path="url(#clip0_1350_10383)">
<path d="M1.98453 11.3046C0.713125 13.9339 0 16.8837 0 20.0002C0 23.1167 0.713125 26.0664 1.98453 28.6958L20 30.435L38.0155 28.6958C39.2869 26.0664 40 23.1167 40 20.0002C40 16.8837 39.2869 13.9339 38.0155 11.3046L20 9.56543L1.98453 11.3046Z" fill="#F0F0F0"/>
<path d="M1.9856 28.6958C5.22044 35.3857 12.0711 40.0002 20.0004 40.0002C27.9296 40.0002 34.7803 35.3857 38.0151 28.6958H1.9856Z" fill="black"/>
<path d="M1.9856 11.3044H38.0151C34.7803 4.61445 27.9296 0 20.0004 0C12.0711 0 5.22044 4.61445 1.9856 11.3044Z" fill="#D80027"/>
<path d="M5.85785 5.85791C-1.95262 13.6684 -1.95262 26.3317 5.85785 34.1423C9.08543 30.9147 12.1896 27.8106 20 20.0001L5.85785 5.85791Z" fill="#496E2D"/>
</g>
<defs>
<clipPath id="clip0_1350_10383">
<rect width="40" height="40" fill="white"/>
</clipPath>
</defs>
</svg>
