<svg width="40" height="40" viewBox="0 0 40 40" fill="none" xmlns="http://www.w3.org/2000/svg">
<g clip-path="url(#clip0_1350_9724)">
<path d="M28.6957 1.98453C26.0663 0.713125 23.1166 0 20.0001 0C16.8836 0 13.9338 0.713125 11.3044 1.98453L9.56531 20L11.3044 38.0155C13.9338 39.2869 16.8836 40 20.0001 40C23.1166 40 26.0663 39.2869 28.6957 38.0155L30.4348 20L28.6957 1.98453Z" fill="#FFDA44"/>
<path d="M11.3044 1.98535C4.61445 5.22027 0 12.071 0 20.0001C0 27.9293 4.61445 34.78 11.3044 38.0149V1.98535Z" fill="#0052B4"/>
<path d="M28.6959 1.98535V38.0149C35.3858 34.78 40.0003 27.9293 40.0003 20.0001C40.0003 12.071 35.3858 5.22027 28.6959 1.98535Z" fill="#0052B4"/>
<path d="M25.6522 21.7386L26.9565 23.4777V16.5212L25.6522 18.2603H21.7391V14.3473L23.4783 13.043H16.5217L18.2609 14.3473V18.2603H14.3478L13.0435 16.5212V23.4777L14.3478 21.7386H18.2609V25.6516L16.5217 26.9559H23.4783L21.7391 25.6516V21.7386H25.6522Z" fill="#D80027"/>
<path d="M25.2172 19.1311H20.8693V14.7832H19.1302V19.1311H14.7823V20.8702H19.1302V25.2181H20.8693V20.8702H25.2172V19.1311Z" fill="#F0F0F0"/>
</g>
<defs>
<clipPath id="clip0_1350_9724">
<rect width="40" height="40" fill="white"/>
</clipPath>
</defs>
</svg>
