<svg width="40" height="40" viewBox="0 0 40 40" fill="none" xmlns="http://www.w3.org/2000/svg">
<g clip-path="url(#clip0_1350_10481)">
<path d="M20 40C31.0457 40 40 31.0457 40 20C40 8.9543 31.0457 0 20 0C8.9543 0 0 8.9543 0 20C0 31.0457 8.9543 40 20 40Z" fill="#FFDA44"/>
<path d="M32.1739 9.56523C31.9945 10.4273 31.913 11.3455 31.913 12.2609C31.913 17.537 35.0583 22.1034 39.5657 24.1591C39.8495 22.8173 40 21.4263 40 20C40 8.95437 31.0456 0 20 0C8.95437 0 0 8.95437 0 20C0 31.0456 8.95437 40 20 40C26.8502 40 32.8952 36.5553 36.4997 31.3044H11.3044V28.6957H38.0155C38.2888 28.1304 38.5358 27.55 38.7561 26.9566H11.3044L32.1739 9.56523Z" fill="#0052B4"/>
<path d="M14.6931 10.4341L15.1248 11.7627H16.5216L15.3916 12.5838L15.8233 13.9124L14.6931 13.0913L13.563 13.9124L13.9946 12.5838L12.8644 11.7627H14.2613L14.6931 10.4341Z" fill="#F0F0F0"/>
<path d="M9.01837 20L9.55806 21.6609H11.3042L9.89142 22.687L10.4311 24.3478L9.01837 23.3214L7.60571 24.3478L8.14532 22.687L6.73267 21.6609H8.47876L9.01837 20Z" fill="#F0F0F0"/>
<path d="M9.01837 6.08643L9.55806 7.74728H11.3042L9.89142 8.77345L10.4311 10.4342L9.01837 9.40782L7.60571 10.4342L8.14532 8.77345L6.73267 7.74728H8.47876L9.01837 6.08643Z" fill="#F0F0F0"/>
<path d="M4.67053 13.9126L5.21022 15.5735H6.95623L5.54358 16.5996L6.08326 18.2604L4.67053 17.234L3.25787 18.2604L3.79748 16.5996L2.38483 15.5735H4.13084L4.67053 13.9126Z" fill="#F0F0F0"/>
</g>
<defs>
<clipPath id="clip0_1350_10481">
<rect width="40" height="40" fill="white"/>
</clipPath>
</defs>
</svg>
