<svg width="40" height="40" viewBox="0 0 40 40" fill="none" xmlns="http://www.w3.org/2000/svg">
<g clip-path="url(#clip0_1350_10137)">
<path d="M0 19.9999C0 23.4647 0.881484 26.7236 2.4318 29.5651L20 31.3042L37.5682 29.5651C39.1185 26.7236 40 23.4647 40 19.9999L20 18.2607L0 19.9999Z" fill="#FFDA44"/>
<path d="M37.5682 10.4348C34.1761 4.21789 27.5809 0 20 0C12.4191 0 5.82391 4.21789 2.4318 10.4348C0.881484 13.2762 0 16.5352 0 20H40C40 16.5352 39.1185 13.2762 37.5682 10.4348Z" fill="#338AF3"/>
<path d="M20 40.0002C27.5808 40.0002 34.1761 35.7823 37.5682 29.5654H2.43176C5.82387 35.7823 12.4191 40.0002 20 40.0002Z" fill="#496E2D"/>
<path d="M22.6086 11.7045L25.0512 12.8535L23.7505 15.2191L26.4029 14.7117L26.739 17.391L28.5863 15.4204L30.4338 17.391L30.7698 14.7117L33.4222 15.2189L32.1216 12.8534L34.5641 11.7045L32.1215 10.5556L33.4222 8.19002L30.7699 8.69736L30.4337 6.01807L28.5863 7.98869L26.7389 6.01807L26.4029 8.69736L23.7505 8.19002L25.0512 10.5557L22.6086 11.7045Z" fill="#FFDA44"/>
</g>
<defs>
<clipPath id="clip0_1350_10137">
<rect width="40" height="40" fill="white"/>
</clipPath>
</defs>
</svg>
