<svg width="40" height="40" viewBox="0 0 40 40" fill="none" xmlns="http://www.w3.org/2000/svg">
<g clip-path="url(#clip0_1350_9898)">
<path d="M20 40C31.0457 40 40 31.0457 40 20C40 8.9543 31.0457 0 20 0C8.9543 0 0 8.9543 0 20C0 31.0457 8.9543 40 20 40Z" fill="#0052B4"/>
<path d="M20 40C31.0457 40 40 31.0457 40 20C40 8.9543 31.0457 0 20 0C8.9543 0 0 8.9543 0 20C0 31.0457 8.9543 40 20 40Z" fill="#FFDA44"/>
<path d="M19.9998 0C9.54016 0 0.957503 8.02976 0.0760193 18.2609H39.9237C39.0422 8.02976 30.4595 0 19.9998 0Z" fill="#0052B4"/>
<path d="M19.9998 40.0001C30.4595 40.0001 39.0422 31.9704 39.9237 21.7393H0.0760193C0.957503 31.9704 9.54016 40.0001 19.9998 40.0001Z" fill="#0052B4"/>
<path d="M16.5222 26.9566L14.2811 28.0108L15.4745 30.1812L13.041 29.7157L12.7326 32.174L11.0375 30.366L9.34254 32.174L9.03418 29.7157L6.60059 30.1811L7.79403 28.0107L5.55293 26.9566L7.79411 25.9025L6.60059 23.7321L9.0341 24.1976L9.34262 21.7393L11.0375 23.5473L12.7327 21.7393L13.041 24.1976L15.4746 23.7321L14.2812 25.9025L16.5222 26.9566Z" fill="#F0F0F0"/>
</g>
<defs>
<clipPath id="clip0_1350_9898">
<rect width="40" height="40" fill="white"/>
</clipPath>
</defs>
</svg>
