<svg width="40" height="40" viewBox="0 0 40 40" fill="none" xmlns="http://www.w3.org/2000/svg">
<g clip-path="url(#clip0_1350_9186)">
<path d="M20 40C31.0457 40 40 31.0457 40 20C40 8.9543 31.0457 0 20 0C8.9543 0 0 8.9543 0 20C0 31.0457 8.9543 40 20 40Z" fill="#FFDA44"/>
<path d="M19.9994 39.9999C26.5619 39.9999 32.386 36.8391 36.0329 31.957H3.96588C7.61276 36.8391 13.4369 39.9999 19.9994 39.9999Z" fill="#0052B4"/>
<path d="M40 20C40 8.95437 31.0456 0 20 0C8.95437 0 0 8.95437 0 20C0 22.3651 0.411641 24.6338 1.16531 26.7398H38.8346C39.5884 24.6338 40 22.3651 40 20Z" fill="#0052B4"/>
<path d="M13.6893 12.8267L14.7685 16.1479H18.261L15.4356 18.2009L16.5147 21.5223L13.6893 19.4695L10.864 21.5223L11.9432 18.2009L9.11786 16.1479H12.6102L13.6893 12.8267Z" fill="#F0F0F0"/>
<path d="M7.69234 9.34814L8.33984 11.341H10.4354L8.74016 12.5727L9.38766 14.5656L7.69234 13.3338L5.9971 14.5656L6.64468 12.5727L4.94952 11.341H7.045L7.69234 9.34814Z" fill="#F0F0F0"/>
</g>
<defs>
<clipPath id="clip0_1350_9186">
<rect width="40" height="40" fill="white"/>
</clipPath>
</defs>
</svg>
