<svg width="40" height="40" viewBox="0 0 40 40" fill="none" xmlns="http://www.w3.org/2000/svg">
<g clip-path="url(#clip0_1350_10473)">
<path d="M20 40C31.0457 40 40 31.0457 40 20C40 8.9543 31.0457 0 20 0C8.9543 0 0 8.9543 0 20C0 31.0457 8.9543 40 20 40Z" fill="#FFDA44"/>
<path d="M20.0002 0C19.9857 0.00015625 19.1307 8 19.1307 8H36.0011C32.3523 3.14242 26.5433 0 20.0002 0Z" fill="#496E2D"/>
<path d="M20 39.9995C26.5431 39.9995 32.3521 36.8571 36.0009 31.9995H3.99915C7.6479 36.8571 13.4569 39.9995 20 39.9995Z" fill="#496E2D"/>
<path d="M39.5997 16H19.1307L20.0002 24H39.5997C39.8622 22.7076 40.0002 21.3699 40.0002 20C40.0002 18.6301 39.8621 17.2924 39.5997 16Z" fill="#496E2D"/>
<path d="M20 24C20 19.8261 20 4.69562 20 0C8.95437 0 0 8.95437 0 20C0 21.3699 0.138125 22.7076 0.400469 24H20Z" fill="#D80027"/>
<path d="M11.0355 9.56543L12.3305 13.551H16.5215L13.1311 16.0145L14.426 20.0002L11.0355 17.5369L7.64506 20.0002L8.94013 16.0145L5.54974 13.551H9.7406L11.0355 9.56543Z" fill="#F0F0F0"/>
</g>
<defs>
<clipPath id="clip0_1350_10473">
<rect width="40" height="40" fill="white"/>
</clipPath>
</defs>
</svg>
