<svg width="40" height="40" viewBox="0 0 40 40" fill="none" xmlns="http://www.w3.org/2000/svg">
<g clip-path="url(#clip0_1350_9932)">
<path d="M20 40C31.0457 40 40 31.0457 40 20C40 8.9543 31.0457 0 20 0C8.9543 0 0 8.9543 0 20C0 31.0457 8.9543 40 20 40Z" fill="#F0F0F0"/>
<path d="M19.9999 0C12.0707 0 5.21944 4.61445 1.98444 11.3044H38.0153C34.7804 4.61445 27.929 0 19.9999 0Z" fill="#338AF3"/>
<path d="M19.9999 39.9997C27.929 39.9997 34.7804 35.3852 38.0154 28.6953H1.98444C5.21944 35.3852 12.0707 39.9997 19.9999 39.9997Z" fill="#338AF3"/>
<path d="M20.0002 13.9131C16.6384 13.9131 13.9132 16.6383 13.9132 20C13.9132 23.3618 16.6384 26.087 20.0002 26.087C23.3619 26.087 26.0871 23.3618 26.0871 20C26.0871 16.6383 23.3619 13.9131 20.0002 13.9131ZM20.0002 23.4783C18.0792 23.4783 16.5219 21.9211 16.5219 20C16.5219 18.0789 18.0791 16.5218 20.0002 16.5218C21.9212 16.5218 23.4784 18.0789 23.4784 20C23.4784 21.9211 21.9211 23.4783 20.0002 23.4783Z" fill="#FFDA44"/>
<path d="M23.0122 20.8695L19.9999 20L16.9875 20.8695L15.9835 22.6087H24.0162L23.0122 20.8695Z" fill="#0052B4"/>
<path d="M20.0001 15.6523L17.9919 19.1306L20.0001 20.0002L22.0083 19.1306L20.0001 15.6523Z" fill="#338AF3"/>
<path d="M16.9876 20.8689H23.0123L22.0081 19.1299H17.9917L16.9876 20.8689Z" fill="#6DA544"/>
</g>
<defs>
<clipPath id="clip0_1350_9932">
<rect width="40" height="40" fill="white"/>
</clipPath>
</defs>
</svg>
