<svg width="40" height="40" viewBox="0 0 40 40" fill="none" xmlns="http://www.w3.org/2000/svg">
<g clip-path="url(#clip0_1350_10657)">
<path d="M39.9999 20.0001C39.9999 19.1159 39.9419 18.2453 39.8306 17.3914H17.3911C13.3051 13.3056 5.8575 5.85854 5.85781 5.85791C-1.95264 13.6684 -1.95264 26.3316 5.85781 34.1422L17.3913 22.6088H39.8306C39.9418 21.7548 39.9999 20.8842 39.9999 20.0001Z" fill="black"/>
<path d="M39.9944 20.4546C39.9935 20.4932 39.9927 20.5319 39.9916 20.5705C39.9925 20.5318 39.9934 20.4932 39.9944 20.4546Z" fill="#F0F0F0"/>
<path d="M39.9754 21.0005C39.9736 21.0387 39.9709 21.0767 39.9689 21.1149C39.9709 21.0768 39.9734 21.0387 39.9754 21.0005Z" fill="#F0F0F0"/>
<path d="M39.9478 21.4375C39.9438 21.4937 39.9399 21.5498 39.9354 21.6059C39.9399 21.5498 39.9437 21.4937 39.9478 21.4375Z" fill="#F0F0F0"/>
<path d="M39.8813 17.8198C39.8886 17.8867 39.896 17.9535 39.9026 18.0205C39.896 17.9534 39.8886 17.8867 39.8813 17.8198Z" fill="#F0F0F0"/>
<path d="M39.9688 18.8838C39.9709 18.9219 39.9735 18.96 39.9753 18.9982C39.9734 18.96 39.9709 18.9218 39.9688 18.8838Z" fill="#F0F0F0"/>
<path d="M39.9915 19.4287C39.9926 19.4673 39.9934 19.5061 39.9943 19.5446C39.9935 19.5059 39.9925 19.4673 39.9915 19.4287Z" fill="#F0F0F0"/>
<path d="M39.9354 18.3936C39.9399 18.4496 39.9438 18.5057 39.9478 18.5619C39.9437 18.5057 39.9399 18.4496 39.9354 18.3936Z" fill="#F0F0F0"/>
<path d="M39.8307 17.3912C39.8397 17.4597 39.8477 17.5286 39.8559 17.5973C38.6688 7.68467 30.2324 0 20 0C14.4771 0 9.47702 2.23867 5.85773 5.85811L17.3908 17.3913H39.8307V17.3912Z" fill="#D80027"/>
<path d="M39.8307 22.6089H17.3908L5.85773 34.1421C9.47702 37.7615 14.4771 40.0003 20 40.0003C30.2324 40.0003 38.6689 32.3156 39.8559 22.4028C39.8477 22.4715 39.8395 22.5404 39.8307 22.6089Z" fill="#6DA544"/>
<path d="M39.9026 21.979C39.896 22.046 39.8886 22.1128 39.8813 22.1797C39.8886 22.1128 39.8961 22.0461 39.9026 21.979Z" fill="#F0F0F0"/>
<path d="M39.948 18.5625C39.9556 18.6695 39.9625 18.7766 39.9683 18.8841C39.9624 18.7766 39.9556 18.6695 39.948 18.5625Z" fill="black"/>
<path d="M39.8556 17.5972C39.8646 17.6713 39.8731 17.7456 39.8811 17.82C39.8729 17.7456 39.8644 17.6714 39.8556 17.5972Z" fill="black"/>
<path d="M39.9025 18.021C39.9147 18.1451 39.9257 18.2696 39.9356 18.3945C39.9257 18.2696 39.9147 18.1451 39.9025 18.021Z" fill="black"/>
<path d="M39.9998 20C39.9998 20.1521 39.9974 20.3036 39.9941 20.4548C39.9974 20.3035 39.9998 20.152 39.9998 20Z" fill="black"/>
<path d="M39.9686 21.1152C39.9627 21.2227 39.9558 21.3298 39.9483 21.4368C39.9558 21.3298 39.9626 21.2227 39.9686 21.1152Z" fill="black"/>
<path d="M39.9356 21.6055C39.9257 21.7302 39.9147 21.8548 39.9025 21.9788C39.9147 21.8548 39.9257 21.7302 39.9356 21.6055Z" fill="black"/>
<path d="M39.8811 22.1802C39.8731 22.2546 39.8646 22.3288 39.8556 22.403C39.8644 22.3288 39.8729 22.2546 39.8811 22.1802Z" fill="black"/>
<path d="M39.9941 19.5449C39.9974 19.6962 39.9998 19.8477 39.9998 19.9997C39.9998 19.8477 39.9974 19.6962 39.9941 19.5449Z" fill="black"/>
<path d="M39.9753 18.9985C39.9824 19.1417 39.9877 19.2853 39.9918 19.4292C39.9877 19.2853 39.9825 19.1417 39.9753 18.9985Z" fill="black"/>
<path d="M39.9916 20.5708C39.9876 20.7147 39.9823 20.8584 39.9752 21.0015C39.9824 20.8583 39.9876 20.7147 39.9916 20.5708Z" fill="black"/>
<path d="M39.9806 19.1232H16.656L4.67503 7.14404C4.28777 7.55248 3.868 8.12279 3.60839 8.52896L15.0661 19.9927L3.59879 31.4602C3.82582 31.8642 4.32042 32.462 4.66769 32.8509L16.6563 20.8624H39.9834C39.9958 20.5739 39.9997 20.2843 39.9997 19.9928C39.9996 19.6024 39.9889 19.3145 39.9806 19.1232Z" fill="#FFDA44"/>
<path d="M4.85826 24.264V22.5888C6.52998 22.5888 7.8899 21.2287 7.8899 19.5571C7.8899 18.3744 6.92763 17.4122 5.74498 17.4122C4.93928 17.4122 4.28373 18.0677 4.28373 18.8735C4.28373 19.3888 4.70287 19.808 5.21818 19.808C5.50943 19.808 5.74638 19.5709 5.74638 19.2796H7.42154C7.42154 20.4947 6.4331 21.4832 5.21826 21.4832C3.77928 21.4832 2.60873 20.3125 2.60873 18.8737C2.60873 17.1443 4.01576 15.7373 5.74506 15.7373C7.85146 15.7373 9.56521 17.4511 9.56521 19.5574C9.56513 22.1525 7.45365 24.264 4.85826 24.264Z" fill="#FFDA44"/>
</g>
<defs>
<clipPath id="clip0_1350_10657">
<rect width="40" height="40" fill="white"/>
</clipPath>
</defs>
</svg>
