<svg width="40" height="40" viewBox="0 0 40 40" fill="none" xmlns="http://www.w3.org/2000/svg">
<g clip-path="url(#clip0_1350_9661)">
<path d="M20 40C31.0457 40 40 31.0457 40 20C40 8.9543 31.0457 0 20 0C8.9543 0 0 8.9543 0 20C0 31.0457 8.9543 40 20 40Z" fill="#F0F0F0"/>
<path d="M19.9994 0C12.0702 0 5.21895 4.61445 1.98395 11.3044H38.0148C34.7799 4.61445 27.9286 0 19.9994 0Z" fill="#D80027"/>
<path d="M19.9994 39.9996C27.9286 39.9996 34.7799 35.3852 38.0149 28.6953H1.98395C5.21895 35.3852 12.0702 39.9996 19.9994 39.9996Z" fill="#D80027"/>
<path d="M25.218 23.4783L20.0005 13.9131L14.7831 23.4783H18.6961V26.087H21.3049V23.4783H25.218Z" fill="#6DA544"/>
</g>
<defs>
<clipPath id="clip0_1350_9661">
<rect width="40" height="40" fill="white"/>
</clipPath>
</defs>
</svg>
