<svg width="40" height="40" viewBox="0 0 40 40" fill="none" xmlns="http://www.w3.org/2000/svg">
<g clip-path="url(#clip0_1350_10516)">
<path d="M20.0004 0C18.5071 0 17.0525 0.165078 15.6527 0.475391L14.7831 19.9999L15.6527 39.5245C17.0526 39.8348 18.5072 40 20.0004 40C31.0461 40 40.0004 31.0456 40.0004 19.9999C40.0003 8.9543 31.0461 0 20.0004 0V0Z" fill="#496E2D"/>
<path d="M5.2174 6.52881C1.97647 10.0832 6.10352e-05 14.8105 6.10352e-05 19.9997C6.10352e-05 25.189 1.97655 29.9163 5.21748 33.4708L6.08701 19.9997L5.2174 6.52881Z" fill="#496E2D"/>
<path d="M29.2513 15.0852C30.2353 12.3425 29.1298 9.35965 26.7574 7.87402C27.1841 7.92957 27.6113 8.03004 28.0329 8.18121C31.1972 9.31652 32.842 12.8018 31.7067 15.9661C30.5714 19.1305 27.0861 20.7752 23.9218 19.6399C23.5001 19.4886 23.1065 19.2945 22.7419 19.0661C25.5176 19.4276 28.2673 17.8279 29.2513 15.0852Z" fill="#F0F0F0"/>
<path d="M23.7937 7.12256L22.9386 8.2274L21.6239 7.7556L22.4103 8.91013L21.5554 10.0148L22.8964 9.62372L23.6829 10.7781L23.7251 9.38185L25.0662 8.99068L23.7515 8.51904L23.7937 7.12256Z" fill="#F0F0F0"/>
<path d="M26.103 10.7222L25.2479 11.8269L23.9331 11.3551L24.7196 12.5097L23.8646 13.6144L25.2056 13.2231L25.9922 14.3777L26.0345 12.9814L27.3755 12.5901L26.0607 12.1184L26.103 10.7222Z" fill="#F0F0F0"/>
<path d="M19.723 8.43359L18.8679 9.53828L17.5531 9.06664L18.3396 10.2211L17.4846 11.3259L18.8256 10.9347L19.6121 12.0891L19.6545 10.6929L20.9955 10.3017L19.6807 9.82992L19.723 8.43359Z" fill="#F0F0F0"/>
<path d="M19.6298 12.5571L18.7748 13.6619L17.46 13.1902L18.2465 14.3447L17.3914 15.4494L18.7325 15.0583L19.519 16.2127L19.5613 14.8164L20.9024 14.4253L19.5874 13.9535L19.6298 12.5571Z" fill="#F0F0F0"/>
<path d="M23.5536 13.9653L22.6985 15.07L21.3837 14.5983L22.1703 15.7528L21.3151 16.8574L22.6563 16.4663L23.4428 17.6209L23.485 16.2245L24.8261 15.8334L23.5112 15.3617L23.5536 13.9653Z" fill="#F0F0F0"/>
<path d="M5.21692 6.52918V33.4711C7.94192 36.4597 11.5615 38.6179 15.6517 39.5247V0.475586C11.5614 1.3823 7.942 3.54051 5.21692 6.52918Z" fill="#D80027"/>
<path d="M9.19934 10.53L7.45239 9.22862V7.38824L9.19934 6.08691H11.67L13.417 7.38824V9.22862L11.67 10.53H9.19934Z" fill="#F0F0F0"/>
<path d="M10.4347 6.08691H9.19934L7.45239 7.38824V8.28801H10.4347V6.08691Z" fill="#FF9811"/>
<path d="M10.4353 10.5298H11.6706L13.4176 9.22838V8.28955H10.4353V10.5298Z" fill="#FF9811"/>
<path d="M9.19934 33.9128L7.45239 32.6114V30.7711L9.19934 29.4697H11.67L13.417 30.7711V32.6114L11.67 33.9128H9.19934Z" fill="#F0F0F0"/>
<path d="M10.4347 29.4697H9.19934L7.45239 30.7711V31.6709H10.4347V29.4697Z" fill="#FF9811"/>
<path d="M10.4353 33.913H11.6706L13.4176 32.6116V31.6729H10.4353V33.913Z" fill="#FF9811"/>
<path d="M9.19913 22.2214L7.45218 20.92V19.0797L9.19913 17.7783H11.6698L13.4168 19.0797V20.92L11.6698 22.2214H9.19913Z" fill="#496E2D"/>
<path d="M13.4784 25.0843H12.7174V24.3234H11.3803L10.4348 23.3779L9.48945 24.3234H8.15234V25.0843H7.39148V26.606H8.15234V27.3668H9.48937L10.4349 28.3124L11.3803 27.3668H12.7174V26.606H13.4784V25.0843Z" fill="#496E2D"/>
<path d="M13.4784 13.3929H12.7174V12.632H11.3803L10.4348 11.6865L9.48945 12.632H8.15234V13.3929H7.39148V14.9146H8.15234V15.6755H9.48937L10.4349 16.6211L11.3803 15.6755H12.7174V14.9146H13.4784V13.3929Z" fill="#496E2D"/>
<path d="M9.56519 19.1299H11.3043V20.869H9.56519V19.1299Z" fill="#D80027"/>
<path d="M10.4347 15.0232C10.9149 15.0232 11.3042 14.6339 11.3042 14.1537C11.3042 13.6735 10.9149 13.2842 10.4347 13.2842C9.95448 13.2842 9.56519 13.6735 9.56519 14.1537C9.56519 14.6339 9.95448 15.0232 10.4347 15.0232Z" fill="#D80027"/>
<path d="M10.4347 26.7156C10.9149 26.7156 11.3042 26.3263 11.3042 25.8461C11.3042 25.3659 10.9149 24.9766 10.4347 24.9766C9.95448 24.9766 9.56519 25.3659 9.56519 25.8461C9.56519 26.3263 9.95448 26.7156 10.4347 26.7156Z" fill="#D80027"/>
</g>
<defs>
<clipPath id="clip0_1350_10516">
<rect width="40" height="40" fill="white"/>
</clipPath>
</defs>
</svg>
