<svg width="40" height="40" viewBox="0 0 40 40" fill="none" xmlns="http://www.w3.org/2000/svg">
<g clip-path="url(#clip0_1350_10361)">
<path d="M20 40C31.0457 40 40 31.0457 40 20C40 8.9543 31.0457 0 20 0C8.9543 0 0 8.9543 0 20C0 31.0457 8.9543 40 20 40Z" fill="#F0F0F0"/>
<path d="M35.7097 16.087H29.13C29.13 14.8864 28.1567 13.9131 26.9561 13.9131L25.217 17.3913C25.217 17.3913 27.0721 22.6087 27.0141 22.6087H29.188C30.3886 22.6087 31.3619 21.6355 31.3619 20.4348C32.5625 20.4348 33.5358 19.4616 33.5358 18.2609H33.4634C34.6639 18.2609 35.7097 17.2876 35.7097 16.087Z" fill="#ACABB1"/>
<path d="M4.28925 16.087H10.8689C10.8689 14.8864 11.8422 13.9131 13.0428 13.9131L14.782 17.3913C14.782 17.3913 12.9269 22.6087 12.9849 22.6087H10.811C9.61033 22.6087 8.63711 21.6355 8.63711 20.4348C7.43644 20.4348 6.46322 19.4616 6.46322 18.2609H6.53562C5.33495 18.2609 4.28925 17.2876 4.28925 16.087Z" fill="#ACABB1"/>
<path d="M26.9566 27.8257V28.6952H13.0436V27.8257H9.56531V31.3039H13.0436V32.1735H26.9566V31.3039H30.4348V27.8257H26.9566Z" fill="#FFDA44"/>
<path d="M13.0436 13.913V22.6086C13.0436 27.9335 20.0001 29.5651 20.0001 29.5651C20.0001 29.5651 26.9566 27.9335 26.9566 22.6086V13.913L20.0001 13.0435L13.0436 13.913Z" fill="#0052B4"/>
<path d="M13.0437 17.3916H26.9567V22.609H13.0437V17.3916Z" fill="#D80027"/>
<path d="M23.4783 9.56533V10.8697L22.6088 11.3045L21.7392 10.4349V7.82617H18.261V10.4349L17.3915 11.3045L16.5218 10.8697V9.56533H13.0436V13.9131H26.9567V9.56533H23.4783Z" fill="#FFDA44"/>
</g>
<defs>
<clipPath id="clip0_1350_10361">
<rect width="40" height="40" fill="white"/>
</clipPath>
</defs>
</svg>
