<svg width="40" height="40" viewBox="0 0 40 40" fill="none" xmlns="http://www.w3.org/2000/svg">
<g clip-path="url(#clip0_1350_10725)">
<path d="M20 40C31.0457 40 40 31.0457 40 20C40 8.9543 31.0457 0 20 0C8.9543 0 0 8.9543 0 20C0 31.0457 8.9543 40 20 40Z" fill="#496E2D"/>
<path d="M27.8261 20H20V40C22.3378 40 24.5813 39.5976 26.6666 38.8605L27.8261 20Z" fill="#D80027"/>
<path d="M33.3334 34.9057C37.4246 31.2437 40.0001 25.9229 40.0001 20H32.174L33.3334 34.9057Z" fill="#FF9811"/>
<path d="M26.6666 20V38.8605C29.1508 37.9823 31.4097 36.6277 33.3333 34.9058V20H26.6666Z" fill="black"/>
<path d="M36.9565 13.0433H31.739C31.739 12.0829 30.9604 11.3042 29.9999 11.3042C29.0394 11.3042 28.2608 12.0829 28.2608 13.0433H23.0433C23.0433 14.0039 23.88 14.7825 24.8404 14.7825H24.7825C24.7825 15.743 25.561 16.5216 26.5216 16.5216C26.5216 17.4822 27.3001 18.2608 28.2608 18.2608H31.739C32.6995 18.2608 33.4782 17.4822 33.4782 16.5216C34.4386 16.5216 35.2173 15.743 35.2173 14.7825H35.1594C36.1199 14.7824 36.9565 14.0038 36.9565 13.0433Z" fill="#FF9811"/>
</g>
<defs>
<clipPath id="clip0_1350_10725">
<rect width="40" height="40" fill="white"/>
</clipPath>
</defs>
</svg>
