<svg width="40" height="40" viewBox="0 0 40 40" fill="none" xmlns="http://www.w3.org/2000/svg">
<g clip-path="url(#clip0_1350_8737)">
<path d="M20 40C31.0457 40 40 31.0457 40 20C40 8.9543 31.0457 0 20 0C8.9543 0 0 8.9543 0 20C0 31.0457 8.9543 40 20 40Z" fill="#F0F0F0"/>
<path d="M0 19.9998C0 27.5807 4.21797 34.176 10.4348 37.568V2.43164C4.21797 5.82367 0 12.419 0 19.9998Z" fill="#D80027"/>
<path d="M0 20.0005C0 29.241 6.26727 37.0165 14.7826 39.3115V0.689453C6.26727 2.98445 0 10.7599 0 20.0005Z" fill="#0052B4"/>
<path d="M7.17331 6.95703V10.2179C7.17331 11.8388 8.48721 13.1527 10.1081 13.1527C11.7289 13.1527 13.0428 11.8388 13.0428 10.2179V6.95703H7.17331Z" fill="#D80027"/>
<path d="M10.1088 11.4126C9.44953 11.4126 8.91321 10.8763 8.91321 10.217V8.69531H11.3045V10.217C11.3045 10.8763 10.7681 11.4126 10.1088 11.4126Z" fill="#F0F0F0"/>
<path d="M21.7391 20.87H16.5217C16.5217 19.9095 15.743 19.1309 14.7825 19.1309C13.8221 19.1309 13.0434 19.9095 13.0434 20.87H7.82596C7.82596 21.8305 8.6626 22.6091 9.62299 22.6091H9.5651C9.5651 23.5697 10.3436 24.3483 11.3042 24.3483C11.3042 25.3088 12.0828 26.0874 13.0434 26.0874H16.5217C17.4821 26.0874 18.2608 25.3088 18.2608 24.3483C19.2213 24.3483 19.9999 23.5697 19.9999 22.6091H19.9421C20.9024 22.6091 21.7391 21.8305 21.7391 20.87Z" fill="#FFDA44"/>
<path d="M22.4539 18.0873L21.9974 18.8184L22.5512 19.4784L21.7149 19.2702L21.2583 20.0009L21.1981 19.1411L20.3618 18.9326L21.1611 18.6098L21.101 17.75L21.6549 18.4103L22.4539 18.0873Z" fill="#FFDA44"/>
<path d="M19.7895 15.8516L19.6105 16.6946L20.3569 17.1255L19.4997 17.2159L19.3205 18.0587L18.9699 17.2714L18.1128 17.3614L18.7533 16.7847L18.4029 15.9975L19.1491 16.4284L19.7895 15.8516Z" fill="#FFDA44"/>
<path d="M16.5204 14.6621L16.6403 15.5156L17.489 15.6652L16.7145 16.043L16.8344 16.8966L16.2358 16.2766L15.4611 16.6544L15.8657 15.8934L15.2671 15.2735L16.1159 15.423L16.5204 14.6621Z" fill="#FFDA44"/>
<path d="M13.0426 14.6621L13.4473 15.423L14.296 15.2734L13.6973 15.8935L14.1019 16.6545L13.3274 16.2766L12.7286 16.8964L12.8486 16.043L12.074 15.6653L12.9227 15.5156L13.0426 14.6621Z" fill="#FFDA44"/>
<path d="M9.7753 15.8516L10.4158 16.4284L11.162 15.9975L10.8117 16.785L11.4519 17.3615L10.595 17.2714L10.2443 18.0587L10.0654 17.2158L9.20819 17.1258L9.95444 16.6947L9.7753 15.8516Z" fill="#FFDA44"/>
<path d="M7.1109 18.0873L7.9102 18.4102L8.46387 17.75L8.40403 18.6099L9.20301 18.9328L8.36668 19.1411L8.30637 20.0008L7.85004 19.2701L7.01379 19.4784L7.56778 18.8183L7.1109 18.0873Z" fill="#FFDA44"/>
</g>
<defs>
<clipPath id="clip0_1350_8737">
<rect width="40" height="40" fill="white"/>
</clipPath>
</defs>
</svg>
