<svg width="40" height="40" viewBox="0 0 40 40" fill="none" xmlns="http://www.w3.org/2000/svg">
<g clip-path="url(#clip0_1350_8995)">
<path d="M20 40C31.0457 40 40 31.0457 40 20C40 8.9543 31.0457 0 20 0C8.9543 0 0 8.9543 0 20C0 31.0457 8.9543 40 20 40Z" fill="#F0F0F0"/>
<path d="M40.0005 19.9998C40.0005 12.0706 35.3861 5.21938 28.6962 1.98438V38.0152C35.3861 34.7803 40.0005 27.9291 40.0005 19.9998Z" fill="#D80027"/>
<path d="M0 19.9998C0 27.9291 4.61445 34.7803 11.3044 38.0153V1.98438C4.61445 5.21937 0 12.0706 0 19.9998Z" fill="#D80027"/>
<path d="M23.4782 22.6087L26.9564 20.8696L25.2173 20V18.2609L21.739 20L23.4782 16.5218H21.739L19.9999 13.9131L18.2607 16.5218H16.5216L18.2607 20L14.7825 18.2609V20L13.0434 20.8696L16.5216 22.6087L15.6521 24.3479H19.1303V26.9565H20.8694V24.3479H24.3477L23.4782 22.6087Z" fill="#D80027"/>
</g>
<defs>
<clipPath id="clip0_1350_8995">
<rect width="40" height="40" fill="white"/>
</clipPath>
</defs>
</svg>
