<svg width="40" height="40" viewBox="0 0 40 40" fill="none" xmlns="http://www.w3.org/2000/svg">
<g clip-path="url(#clip0_1350_8990)">
<path d="M28.6961 1.98453C26.0668 0.713125 23.1169 0 20.0005 0C16.8841 0 13.9343 0.713125 11.3049 1.98453L9.56573 20L11.3049 38.0155C13.9343 39.2869 16.8841 40 20.0005 40C23.1169 40 26.0668 39.2869 28.6961 38.0155L30.4353 20L28.6961 1.98453Z" fill="#D80027"/>
<path d="M19.9999 13.043L21.7264 18.357H27.3146L22.7939 21.6416L24.5206 26.9559L19.9999 23.6715L15.4792 26.9559L17.2061 21.6416L12.6855 18.357H18.2732L19.9999 13.043Z" fill="#FFDA44"/>
<path d="M11.3044 1.98535C4.61453 5.2202 0 12.0709 0 20.0001C0 27.9293 4.61453 34.78 11.3044 38.0149V1.98535Z" fill="#496E2D"/>
<path d="M28.6962 1.98535V38.0149C35.386 34.78 40.0005 27.9293 40.0005 20.0001C40.0005 12.071 35.386 5.2202 28.6962 1.98535Z" fill="#FFDA44"/>
</g>
<defs>
<clipPath id="clip0_1350_8990">
<rect width="40" height="40" fill="white"/>
</clipPath>
</defs>
</svg>
