<svg width="40" height="40" viewBox="0 0 40 40" fill="none" xmlns="http://www.w3.org/2000/svg">
<g clip-path="url(#clip0_1350_9990)">
<path d="M20 40C31.0457 40 40 31.0457 40 20C40 8.9543 31.0457 0 20 0C8.9543 0 0 8.9543 0 20C0 31.0457 8.9543 40 20 40Z" fill="#338AF3"/>
<path d="M19.3693 32.5928C18.8301 32.5667 18.384 32.2163 18.2093 31.7406C17.9006 32.1432 17.3701 32.3458 16.8476 32.2111C16.324 32.0763 15.958 31.6432 15.8823 31.1406C15.4979 31.4727 14.9379 31.5631 14.4537 31.3258C13.9684 31.0875 13.6972 30.5892 13.725 30.0822C13.2824 30.3309 12.7154 30.3066 12.2885 29.9761C11.8624 29.6457 11.6963 29.1039 11.825 28.6126C11.3415 28.7674 10.7919 28.63 10.4397 28.2204C10.0876 27.8118 10.0336 27.2474 10.258 26.7926C9.75365 26.8464 9.2424 26.6013 8.97975 26.13C8.71623 25.6587 8.77717 25.0944 9.08928 24.6934C8.58404 24.6447 8.13185 24.3012 7.97014 23.7864C7.80756 23.2717 7.98146 22.7308 8.36842 22.4012C7.88318 22.2515 7.51099 21.8237 7.45623 21.2873C7.40146 20.7508 7.67974 20.2578 8.12404 20.0125C7.67967 19.769 7.39967 19.2761 7.45271 18.7404H7.45357C7.50662 18.2029 7.87881 17.7743 8.3631 17.6229C7.97615 17.2943 7.80053 16.7543 7.96139 16.2394C8.12224 15.7238 8.57349 15.3794 9.07881 15.3289C8.76662 14.9289 8.70404 14.3645 8.96576 13.8925C9.22748 13.4211 9.73881 13.175 10.244 13.2281C10.0179 12.7733 10.071 12.2089 10.4223 11.7986C10.7728 11.389 11.3223 11.2507 11.8067 11.4038C11.6762 10.9133 11.8415 10.3707 12.2676 10.0395C12.6928 9.70809 13.2597 9.68285 13.7023 9.92981C13.6737 9.42293 13.944 8.92457 14.4284 8.68543C14.9119 8.44715 15.4728 8.5359 15.8579 8.86801C15.9319 8.36551 16.2979 7.93074 16.8205 7.79496C17.3422 7.65934 17.8727 7.8602 18.1822 8.26192C18.357 7.78629 18.8022 7.43496 19.3414 7.40801C19.8797 7.38028 20.3579 7.68278 20.5805 8.1377C20.8466 7.70637 21.3527 7.45074 21.8858 7.5316C22.4197 7.6116 22.8293 8.00457 22.9562 8.49598C23.304 8.12543 23.8519 7.97856 24.358 8.16457C24.8649 8.35153 25.1866 8.81934 25.211 9.32715C25.6258 9.03504 26.1927 9.00106 26.651 9.28629C27.1093 9.57067 27.3293 10.0932 27.251 10.595C27.7162 10.3924 28.278 10.4732 28.6693 10.8436C29.0606 11.215 29.1719 11.7706 28.9945 12.2462C29.491 12.141 30.025 12.3323 30.3345 12.7749C30.644 13.2166 30.6415 13.7836 30.3728 14.214C30.8797 14.2105 31.3641 14.5062 31.5789 15.001C31.7928 15.4966 31.6754 16.0523 31.325 16.4201C31.8233 16.5193 32.238 16.9062 32.3476 17.4349C32.4562 17.9636 32.2293 18.4827 31.8128 18.7723C32.2789 18.9698 32.6076 19.4314 32.6084 19.9706V19.988V19.9993C32.6084 20.5384 32.2815 21.0011 31.8154 21.2002C32.2328 21.4881 32.4615 22.0071 32.3528 22.5358C32.245 23.0645 31.8311 23.4524 31.3328 23.5532C31.6841 23.9202 31.8033 24.475 31.5902 24.9715C31.3772 25.4671 30.8928 25.7637 30.385 25.7611C30.6545 26.1915 30.6589 26.7585 30.3502 27.2011C30.0415 27.6438 29.5085 27.8368 29.0119 27.7324C29.1902 28.2071 29.0797 28.7637 28.6894 29.1359C28.298 29.5073 27.7372 29.5889 27.2719 29.3881C27.3511 29.8889 27.1319 30.4125 26.6745 30.6986C26.2171 30.9846 25.6501 30.9515 25.2345 30.6603C25.211 31.1681 24.891 31.6368 24.385 31.8246C23.879 32.0125 24.385 31.8246 24.3841 31.8246C23.878 32.0116 23.3302 31.8656 22.9815 31.4961C22.8563 31.9882 22.4476 32.3821 21.9137 32.4639C21.3807 32.5447 20.8737 32.2908 20.6068 31.8595C20.3946 32.2969 19.9459 32.5943 19.4346 32.5943C19.4128 32.5946 19.3911 32.5937 19.3693 32.5928Z" fill="#F3F3F3"/>
<path d="M20.0005 28.696C24.8029 28.696 28.6961 24.8028 28.6961 20.0003C28.6961 15.1979 24.8029 11.3047 20.0005 11.3047C15.198 11.3047 11.3048 15.1979 11.3048 20.0003C11.3048 24.8028 15.198 28.696 20.0005 28.696Z" fill="#338AF3"/>
<path d="M21.9034 17.0478C22.3306 16.7309 22.6087 16.2245 22.6087 15.6516V14.7821C22.6087 13.8216 21.8301 13.043 20.8696 13.043H19.1305C18.17 13.043 17.3914 13.8216 17.3914 14.7821V15.6516C17.3914 16.2245 17.6695 16.7309 18.0967 17.0478L16.5219 33.0429C16.5219 33.0429 17.3914 33.9126 20.0001 33.9126C22.6089 33.9126 23.4784 33.0429 23.4784 33.0429L21.9034 17.0478Z" fill="#BDBCC1"/>
<path d="M19.9998 13.043L21.5106 17.6928H26.4001L22.4446 20.5669L23.9553 25.2169L19.9998 22.343L16.0442 25.2169L17.5552 20.5669L13.5997 17.6928H18.489L19.9998 13.043Z" fill="#F0F0F0"/>
</g>
<defs>
<clipPath id="clip0_1350_9990">
<rect width="40" height="40" fill="white"/>
</clipPath>
</defs>
</svg>
