<svg width="40" height="40" viewBox="0 0 40 40" fill="none" xmlns="http://www.w3.org/2000/svg">
<g clip-path="url(#clip0_1350_8778)">
<path d="M20 40C31.0457 40 40 31.0457 40 20C40 8.9543 31.0457 0 20 0C8.9543 0 0 8.9543 0 20C0 31.0457 8.9543 40 20 40Z" fill="#F0F0F0"/>
<path d="M0.169495 22.6084C0.634807 26.1797 2.04278 29.4543 4.13473 32.1759L14.7827 22.6084H0.169495Z" fill="#D80027"/>
<path d="M17.3921 39.8301V25.2168L7.82458 35.8648C10.5462 37.9568 13.8208 39.3648 17.3921 39.8301Z" fill="#D80027"/>
<path d="M17.3921 0.168945C13.8208 0.634258 10.5462 2.04223 7.82458 4.13418L17.3921 14.7823V0.168945Z" fill="#D80027"/>
<path d="M0.169495 17.3907H14.7827L4.13465 7.82324C2.0427 10.5448 0.634729 13.8194 0.169495 17.3907Z" fill="#D80027"/>
<path d="M22.6094 0.168945V14.7822L32.177 4.13418C29.4554 2.04238 26.1808 0.63418 22.6094 0.168945Z" fill="#D80027"/>
<path d="M39.8304 17.3908C39.3651 13.8195 37.9571 10.5449 35.8651 7.82324L25.2171 17.3908H39.8304Z" fill="#D80027"/>
<path d="M25.2171 22.6084L35.8652 32.176C37.9571 29.4543 39.3651 26.1797 39.8305 22.6084H25.2171Z" fill="#D80027"/>
<path d="M22.6094 39.8301C26.1807 39.3648 29.4554 37.9568 32.177 35.8648L22.6094 25.2168V39.8301Z" fill="#D80027"/>
<path d="M35.8664 32.1777L23.6888 19.9999L23.6887 19.9998L35.8664 7.82203C35.3413 7.13953 34.7668 6.48297 34.1416 5.85766C33.5164 5.2325 32.8598 4.65789 32.1772 4.13281L19.9995 16.3105H19.9994L7.82168 4.13281C7.13918 4.65797 6.48254 5.23242 5.85723 5.85766C5.23207 6.48297 4.65746 7.13953 4.13239 7.82211L16.3101 19.9998L16.3102 19.9998L4.13246 32.1777C4.65762 32.8601 5.23215 33.5167 5.85731 34.142C6.48254 34.7672 7.13918 35.3418 7.82176 35.8669L19.9994 23.6891L32.1772 35.8669C32.8596 35.3417 33.5163 34.7672 34.1416 34.142C34.7668 33.5167 35.3413 32.8601 35.8664 32.1777Z" fill="#496E2D"/>
<path d="M22.6087 39.8307V22.6089V22.6087H39.8307C39.942 21.7548 40 20.8841 40 20C40 19.1159 39.942 18.2453 39.8307 17.3914H22.6088L22.6087 17.3913V0.169375C21.7548 0.0582031 20.8843 0 20 0C19.1159 7.8125e-05 18.2452 0.0582031 17.3913 0.169375L17.3914 17.3912V17.3913H0.169375C0.058125 18.2452 0 19.1159 0 20C7.8125e-05 20.8843 0.058125 21.7548 0.169375 22.6087H17.3913L17.3913 39.8307C18.2453 39.9419 19.1157 40 20 40C20.8843 40 21.7548 39.9419 22.6087 39.8307Z" fill="#F0F0F0"/>
</g>
<defs>
<clipPath id="clip0_1350_8778">
<rect width="40" height="40" fill="white"/>
</clipPath>
</defs>
</svg>
