<svg width="40" height="40" viewBox="0 0 40 40" fill="none" xmlns="http://www.w3.org/2000/svg">
<g clip-path="url(#clip0_1350_10494)">
<path d="M39.3109 14.7826C37.0159 6.26727 29.2404 0 19.9999 0C10.7593 0 2.98384 6.26727 0.688843 14.7826L19.9999 15.6522L39.3109 14.7826Z" fill="#A2001D"/>
<path d="M0.688843 25.2173C2.98384 33.7325 10.7593 39.9998 19.9999 39.9998C29.2404 39.9998 37.0159 33.7325 39.3109 25.2173L19.9999 24.3477L0.688843 25.2173Z" fill="#A2001D"/>
<path d="M39.311 14.7827H0.688984C0.240625 16.4462 0 18.1949 0 20.0001C0 21.8054 0.240625 23.5541 0.688984 25.2176H39.3111C39.7594 23.5541 40 21.8054 40 20.0001C40 18.1949 39.7594 16.4462 39.311 14.7827Z" fill="#6DA544"/>
</g>
<defs>
<clipPath id="clip0_1350_10494">
<rect width="40" height="40" fill="white"/>
</clipPath>
</defs>
</svg>
