<svg width="40" height="40" viewBox="0 0 40 40" fill="none" xmlns="http://www.w3.org/2000/svg">
<g clip-path="url(#clip0_1350_8950)">
<path d="M19.9989 39.9961C31.043 39.9961 39.996 31.0431 39.996 19.999C39.996 8.95495 31.043 0.00195312 19.9989 0.00195312C8.95483 0.00195312 0.00183105 8.95495 0.00183105 19.999C0.00183105 31.0431 8.95483 39.9961 19.9989 39.9961Z" fill="#F0F0F0"/>
<path d="M2.68199 10.001C1.77939 11.5641 1.1136 13.1984 0.670227 14.863L34.113 34.1713C35.3329 32.955 36.4154 31.5611 37.3178 29.998L2.68199 10.001Z" fill="black"/>
<path d="M29.9974 2.68201C21.996 -1.93755 12.1302 -0.397903 5.88573 5.82817L39.3285 25.1363C41.5983 16.6157 37.9987 7.30164 29.9974 2.68201Z" fill="#FFDA44"/>
<path d="M10.0007 37.3177C18.002 41.9372 27.8681 40.3976 34.1124 34.1716L0.669533 14.8633C-1.60013 23.3841 1.99933 32.6982 10.0007 37.3177Z" fill="#FFDA44"/>
<path d="M25.6518 17.826C25.6518 20.9471 23.1216 23.4774 20.0005 23.4774C16.8793 23.4774 14.3491 20.9472 14.3491 17.826C14.3491 16.8529 14.5951 15.9372 15.0284 15.1377C13.802 16.3919 13.0449 18.1069 13.0449 19.9996C13.0449 23.841 16.159 26.9551 20.0005 26.9551C23.8419 26.9551 26.956 23.8411 26.956 19.9996C26.956 18.1069 26.1989 16.3919 24.9725 15.1377C25.4058 15.9373 25.6518 16.8529 25.6518 17.826Z" fill="#D80027"/>
<path d="M18.6964 11.3057H21.3048V24.3472H18.6964V11.3057Z" fill="#D80027"/>
<path d="M24.3481 13.9141H15.6538C15.6538 14.5143 16.1767 15.0009 16.7769 15.0009H16.7406C16.7406 15.6011 17.2273 16.0877 17.8274 16.0877C17.8274 16.6879 18.3141 17.1745 18.9143 17.1745H21.0878C21.6881 17.1745 22.1746 16.6879 22.1746 16.0877C22.7749 16.0877 23.2615 15.6011 23.2615 15.0009H23.2253C23.8253 15.0008 24.3481 14.5144 24.3481 13.9141Z" fill="#D80027"/>
<path d="M13.915 25.2168H26.0872V27.8251H13.915V25.2168Z" fill="#D80027"/>
<path d="M22.6089 26.0859H27.8255V28.6943H22.6089V26.0859Z" fill="#D80027"/>
<path d="M12.1757 26.0859H17.3923V28.6943H12.1757V26.0859Z" fill="#D80027"/>
</g>
<defs>
<clipPath id="clip0_1350_8950">
<rect width="40" height="40" fill="white"/>
</clipPath>
</defs>
</svg>
