<svg width="40" height="40" viewBox="0 0 40 40" fill="none" xmlns="http://www.w3.org/2000/svg">
<g clip-path="url(#clip0_1350_9216)">
<path d="M18.2603 21.7391C18.2603 21.7391 5.86899 5.85508 5.85727 5.85789C9.47648 2.23859 14.4766 0 19.9994 0C31.045 0 39.9994 8.95437 39.9994 20L18.2603 21.7391Z" fill="#338AF3"/>
<path d="M18.2603 20C18.2603 20 5.86899 34.1449 5.85727 34.1421C9.47648 37.7614 14.4766 40 19.9994 40C31.045 40 39.9994 31.0456 39.9994 20H18.2603Z" fill="#6DA544"/>
<path d="M5.85828 5.85791C-1.95219 13.6684 -1.95219 26.3317 5.85828 34.1423C9.08586 30.9147 12.19 27.8106 20.0005 20.0001L5.85828 5.85791Z" fill="#F0F0F0"/>
<path d="M8.09499 14.7827L9.38991 18.7683H13.581L10.1905 21.2318L11.4854 25.2176L8.09499 22.7542L4.70444 25.2176L5.9996 21.2318L2.60913 18.7683H6.79991L8.09499 14.7827Z" fill="#D80027"/>
</g>
<defs>
<clipPath id="clip0_1350_9216">
<rect width="40" height="40" fill="white"/>
</clipPath>
</defs>
</svg>
