<svg width="40" height="40" viewBox="0 0 40 40" fill="none" xmlns="http://www.w3.org/2000/svg">
<g clip-path="url(#clip0_1350_9586)">
<path d="M20 40C31.0457 40 40 31.0457 40 20C40 8.9543 31.0457 0 20 0C8.9543 0 0 8.9543 0 20C0 31.0457 8.9543 40 20 40Z" fill="#F0F0F0"/>
<path d="M35.8664 32.1776L23.6887 19.9999H23.6886L35.8664 7.82203C35.3412 7.13953 34.7667 6.48289 34.1416 5.85766C33.5164 5.2325 32.8598 4.65789 32.1772 4.13281L19.9995 16.3105L19.9994 16.3106L7.82168 4.13281C7.13926 4.65797 6.48254 5.23242 5.85731 5.85766C5.23207 6.48289 4.65754 7.13953 4.13246 7.82203L16.3102 19.9997L16.3103 19.9998L4.13239 32.1777C4.65762 32.8602 5.23215 33.5168 5.85723 34.142C6.48246 34.7672 7.13903 35.3418 7.8216 35.8669L19.9994 23.6891L19.9995 23.6891L32.1772 35.8668C32.8596 35.3416 33.5164 34.7671 34.1416 34.142C34.7668 33.5167 35.3413 32.8601 35.8664 32.1776Z" fill="#D80027"/>
<path d="M16.5223 6.08707L20.0006 6.9566L23.4789 6.08707V3.13059L22.0876 3.82621L20.0006 1.73926L17.9137 3.82621L16.5223 3.13059V6.08707Z" fill="#FFDA44"/>
<path d="M16.5223 6.08691V8.26097C16.5223 10.9235 20.0006 11.7392 20.0006 11.7392C20.0006 11.7392 23.4789 10.9234 23.4789 8.26097V6.08691H16.5223Z" fill="#D80027"/>
</g>
<defs>
<clipPath id="clip0_1350_9586">
<rect width="40" height="40" fill="white"/>
</clipPath>
</defs>
</svg>
