<svg width="40" height="40" viewBox="0 0 40 40" fill="none" xmlns="http://www.w3.org/2000/svg">
<g clip-path="url(#clip0_1350_10266)">
<path d="M18.2609 21.7391C18.2609 21.7391 5.86958 5.85508 5.85786 5.85789C9.47708 2.23859 14.4772 0 20.0001 0C31.0457 0 40.0001 8.95437 40.0001 20L18.2609 21.7391Z" fill="#D80027"/>
<path d="M18.2609 20C18.2609 20 5.86958 34.1449 5.85786 34.1421C9.47708 37.7614 14.4772 40 20.0001 40C31.0457 40 40.0001 31.0456 40.0001 20H18.2609Z" fill="#0052B4"/>
<path d="M5.85782 5.85791C-1.95265 13.6684 -1.95265 26.3317 5.85782 34.1423C9.0854 30.9147 12.1895 27.8106 20 20.0001L5.85782 5.85791Z" fill="#F0F0F0"/>
<path d="M2.19168 20C2.18075 20.1436 2.17332 20.2883 2.17332 20.4347C2.17332 23.5562 4.70395 26.0869 7.82551 26.0869C10.9471 26.0869 13.4777 23.5562 13.4777 20.4347C13.4777 20.2883 13.4703 20.1435 13.4593 20H2.19168Z" fill="#FFDA44"/>
<path d="M7.82567 17.3914C8.78617 17.3914 9.56481 16.6127 9.56481 15.6522C9.56481 14.6917 8.78617 13.9131 7.82567 13.9131C6.86517 13.9131 6.08653 14.6917 6.08653 15.6522C6.08653 16.6127 6.86517 17.3914 7.82567 17.3914Z" fill="#FFDA44"/>
<path d="M3.9132 15.2173V20.8695C3.9132 23.8648 7.82625 24.7825 7.82625 24.7825C7.82625 24.7825 11.7393 23.8648 11.7393 20.8695V15.2173H3.9132Z" fill="#D80027"/>
<path d="M7.82745 22.9626C7.10151 22.7013 5.65159 22.0337 5.65159 20.8696V16.9565H9.99948V20.8696C9.99948 22.0375 8.54971 22.7035 7.82745 22.9626Z" fill="#338AF3"/>
<path d="M8.69569 19.1305V18.2609L7.82616 17.8262L6.95655 18.2609V19.1305L6.52178 19.5653V21.3044H9.13053V19.5653L8.69569 19.1305Z" fill="#F3F3F3"/>
</g>
<defs>
<clipPath id="clip0_1350_10266">
<rect width="40" height="40" fill="white"/>
</clipPath>
</defs>
</svg>
