<svg width="40" height="40" viewBox="0 0 40 40" fill="none" xmlns="http://www.w3.org/2000/svg">
<g clip-path="url(#clip0_1350_10276)">
<path d="M20 40C31.0457 40 40 31.0457 40 20C40 8.9543 31.0457 0 20 0C8.9543 0 0 8.9543 0 20C0 31.0457 8.9543 40 20 40Z" fill="#F0F0F0"/>
<path d="M20 40C31.0456 40 40 31.0456 40 20C40 17.5535 39.56 15.21 38.756 13.0435H1.24398C0.440078 15.21 0 17.5535 0 20C0 31.0456 8.95437 40 20 40Z" fill="#0052B4"/>
<path d="M20.0001 40.0001C28.5994 40.0001 35.9302 34.5726 38.7561 26.9565H1.24406C4.06992 34.5726 11.4008 40.0001 20.0001 40.0001Z" fill="#D80027"/>
<path d="M5.17116 11.3042V21.2812C5.17116 26.9565 12.5853 28.6955 12.5853 28.6955C12.5853 28.6955 19.9994 26.9565 19.9994 21.2812V11.3042H5.17116Z" fill="#F0F0F0"/>
<path d="M6.9108 11.3042V21.2813C6.9108 21.9475 7.05877 22.5767 7.35189 23.1667H17.8196C18.1128 22.5768 18.2607 21.9475 18.2607 21.2813V11.3042H6.9108Z" fill="#D80027"/>
<path d="M16.064 18.2608H13.4554V16.5217H15.1945V14.7825H13.4554V13.0435H11.7163V14.7825H9.9772V16.5217H11.7163V18.2608H9.10751V19.9999H11.7163V21.7391H13.4554V19.9999H16.064V18.2608Z" fill="#F0F0F0"/>
<path d="M9.72439 25.5945C10.8451 26.2988 11.9965 26.7077 12.5859 26.8896C13.1754 26.7078 14.3268 26.2988 15.4475 25.5945C16.5777 24.8842 17.3699 24.0719 17.8198 23.1668C17.3236 22.8158 16.7182 22.6088 16.0642 22.6088C15.8261 22.6088 15.5948 22.637 15.3724 22.6888C14.901 21.6178 13.8311 20.8696 12.586 20.8696C11.341 20.8696 10.271 21.6178 9.7997 22.6888C9.57728 22.637 9.34587 22.6088 9.10783 22.6088C8.45384 22.6088 7.84845 22.8158 7.35228 23.1668C7.80189 24.0718 8.59415 24.8842 9.72439 25.5945Z" fill="#0052B4"/>
</g>
<defs>
<clipPath id="clip0_1350_10276">
<rect width="40" height="40" fill="white"/>
</clipPath>
</defs>
</svg>
