<svg width="40" height="40" viewBox="0 0 40 40" fill="none" xmlns="http://www.w3.org/2000/svg">
<g clip-path="url(#clip0_1350_10208)">
<path d="M20 40C31.0457 40 40 31.0457 40 20C40 8.9543 31.0457 0 20 0C8.9543 0 0 8.9543 0 20C0 31.0457 8.9543 40 20 40Z" fill="#F0F0F0"/>
<path d="M32.1762 4.13437C28.8037 1.54211 24.5822 0 19.9999 0C15.4176 0 11.196 1.54219 7.82358 4.13437L19.9999 16.3106L32.1762 4.13437Z" fill="#0052B4"/>
<path d="M4.1343 7.82373C1.54219 11.1962 0 15.4176 0 20C0 24.5823 1.54219 28.8039 4.13438 32.1764L16.3107 20L4.1343 7.82373Z" fill="#0052B4"/>
<path d="M7.82358 35.8657C11.1961 38.458 15.4176 40.0001 19.9999 40.0001C24.5822 40.0001 28.8037 38.4579 32.1762 35.8657L19.9999 23.6895L7.82358 35.8657Z" fill="#0052B4"/>
<path d="M35.8656 32.1763C38.4579 28.8038 40 24.5823 40 20C40 15.4176 38.4579 11.1962 35.8656 7.82373L23.6894 20L35.8656 32.1763Z" fill="#0052B4"/>
</g>
<defs>
<clipPath id="clip0_1350_10208">
<rect width="40" height="40" fill="white"/>
</clipPath>
</defs>
</svg>
