<svg width="40" height="40" viewBox="0 0 40 40" fill="none" xmlns="http://www.w3.org/2000/svg">
<g clip-path="url(#clip0_1350_8668)">
<path d="M40 20C40 31.0456 31.0456 40 20 40C8.95437 40 0 31.0456 0 20C0 20.0048 20 0.0021875 20 0C31.0456 0 40 8.95437 40 20Z" fill="#0052B4"/>
<path d="M19.946 19.9998H19.9995C19.9995 19.9818 19.9995 19.9643 19.9995 19.9463C19.9817 19.9642 19.9639 19.982 19.946 19.9998Z" fill="#F0F0F0"/>
<path d="M20 10.4348C20 6.91563 20 4.60977 20 0H19.9966C8.95242 0.001875 0 8.95539 0 20H10.4348V14.1241L16.3106 20H19.9466C19.9644 19.9822 19.9822 19.9644 20.0001 19.9465C20.0001 18.5991 20.0001 17.3968 20.0001 16.3108L14.1241 10.4348H20Z" fill="#F0F0F0"/>
<path d="M10.1188 2.6084C6.99076 4.38957 4.39021 6.99004 2.60912 10.1181V19.9997H7.82654V7.82598V7.82582H20.0004C20.0004 6.18027 20.0004 4.61262 20.0004 2.6084H10.1188Z" fill="#D80027"/>
<path d="M20.001 17.5403L12.8952 10.4346H10.4358V10.4347L20.0009 19.9997H20.001C20.001 19.9997 20.001 18.3039 20.001 17.5403Z" fill="#D80027"/>
<path d="M33.8238 22.9283C34.3989 22.1371 34.783 21.1708 34.783 20.0006V11.305C34.0563 11.8509 33.1532 12.1745 32.1743 12.1745C30.752 12.1745 29.4893 11.4915 28.6961 10.4355C27.9028 11.4915 26.6401 12.1745 25.2178 12.1745C24.2389 12.1745 23.3358 11.8509 22.6091 11.3052V20.0006C22.6091 21.1708 22.9933 22.1371 23.5683 22.9283H33.8238Z" fill="#F3F3F3"/>
<path d="M32.015 18.3862C32.2919 17.7107 32.5072 16.7234 32.5072 16.2321C32.5072 15.4427 31.4779 14.8027 31.4779 14.8027C31.4779 14.8027 30.4487 15.4427 30.4487 16.2321C30.4487 16.7235 30.6641 17.7108 30.9408 18.3862L30.3467 19.7277C30.6959 19.8697 31.0776 19.9486 31.478 19.9486C31.8784 19.9486 32.2601 19.8696 32.6094 19.7277L32.015 18.3862Z" fill="#FF9811"/>
<path d="M27.9924 14.0427C27.2692 14.1406 26.3065 14.448 25.881 14.6937C25.1974 15.0884 25.1577 16.2996 25.1577 16.2996C25.1577 16.2996 26.2266 16.8709 26.9102 16.4762C27.3358 16.2305 28.083 15.5505 28.5293 14.973L29.9884 14.8168C29.9367 14.4435 29.8139 14.0734 29.614 13.7268C29.4137 13.3802 29.1547 13.0889 28.857 12.8574L27.9924 14.0427Z" fill="#FF9811"/>
<path d="M26.2421 19.6987C26.6884 20.2759 27.4358 20.9558 27.8615 21.2016C28.5451 21.5963 29.614 21.0251 29.614 21.0251C29.614 21.0251 29.5741 19.8138 28.8906 19.419C28.4649 19.1733 27.5023 18.8662 26.779 18.7684L25.9144 17.583C25.6168 17.8144 25.3578 18.1058 25.1575 18.4521C24.9575 18.7989 24.835 19.1689 24.7831 19.5424L26.2421 19.6987Z" fill="#FF9811"/>
<path d="M23.3529 22.6084C24.9769 25.2143 28.6958 26.0865 28.6958 26.0865C28.6958 26.0865 32.4145 25.2143 34.0386 22.6084H23.3529Z" fill="#338AF3"/>
</g>
<defs>
<clipPath id="clip0_1350_8668">
<rect width="40" height="40" fill="white"/>
</clipPath>
</defs>
</svg>
