<svg width="40" height="40" viewBox="0 0 40 40" fill="none" xmlns="http://www.w3.org/2000/svg">
<g clip-path="url(#clip0_1350_9975)">
<path d="M20 40C31.0457 40 40 31.0457 40 20C40 8.9543 31.0457 0 20 0C8.9543 0 0 8.9543 0 20C0 31.0457 8.9543 40 20 40Z" fill="#F0F0F0"/>
<path d="M20 0C13.9382 0 8.50672 2.69719 4.83899 6.95648H35.1609C31.4933 2.69719 26.0618 0 20 0Z" fill="#0052B4"/>
<path d="M35.161 33.043H4.83899C8.50672 37.3023 13.9382 39.9995 20 39.9995C26.0618 39.9995 31.4933 37.3023 35.161 33.043Z" fill="#0052B4"/>
<path d="M37.0645 9.56543H2.93547C1.07383 12.6033 0 16.1762 0 20.0002C0 23.8242 1.07383 27.3972 2.93547 30.435H37.0645C38.9262 27.3972 40 23.8242 40 20.0002C40 16.1762 38.9262 12.6033 37.0645 9.56543Z" fill="#D80027"/>
<path d="M12.3046 27.695C16.5548 27.695 20.0003 24.2495 20.0003 19.9993C20.0003 15.7492 16.5548 12.3037 12.3046 12.3037C8.05446 12.3037 4.60901 15.7492 4.60901 19.9993C4.60901 24.2495 8.05446 27.695 12.3046 27.695Z" fill="#F0F0F0"/>
<path d="M12.3045 12.3037L14.0312 17.6179H19.6279L15.0984 20.9024L16.8386 26.2324L12.3045 22.9322L7.77734 26.2262L9.51062 20.9024L4.98523 17.6179H10.5778L12.3045 12.3037Z" fill="#D80027"/>
</g>
<defs>
<clipPath id="clip0_1350_9975">
<rect width="40" height="40" fill="white"/>
</clipPath>
</defs>
</svg>
