<svg width="40" height="40" viewBox="0 0 40 40" fill="none" xmlns="http://www.w3.org/2000/svg">
<g clip-path="url(#clip0_1350_10636)">
<path d="M0.944375 13.9131C0.331719 15.8324 -7.81112e-05 17.8772 1.37933e-08 19.9998C-7.81112e-05 22.1224 0.331797 24.1674 0.944453 26.0867L20 26.9564L39.0555 26.0869C39.6681 24.1674 40.0001 22.1224 40.0001 19.9999C40 17.8773 39.6682 15.8324 39.0555 13.913L20 13.0435L0.944375 13.9131Z" fill="#F0F0F0"/>
<path d="M39.0554 13.913L19.9998 13.0435L0.944217 13.913C0.762655 14.4821 0.606327 15.0623 0.475311 15.6521H39.5241C39.3932 15.0622 39.2369 14.4819 39.0554 13.913Z" fill="#D80027"/>
<path d="M0.475525 24.3477C0.606384 24.9375 0.762713 25.5177 0.944275 26.0867L0.94615 26.0868L19.9997 26.9563L39.0553 26.0868C39.2369 25.5177 39.3932 24.9375 39.5241 24.3477H0.475525Z" fill="#D80027"/>
<path d="M19.9999 40C28.9231 40 36.4801 34.156 39.0555 26.0869H0.944458C3.51985 34.1559 11.077 40 19.9999 40Z" fill="#6DA544"/>
<path d="M20.0001 7.83288e-10C11.0771 7.81258e-05 3.52007 5.84406 0.944519 13.913L39.0555 13.9131C36.4803 5.84398 28.9232 -7.81242e-05 20.0001 7.83288e-10Z" fill="#338AF3"/>
<path d="M9.13949 8.26111C9.13949 6.38791 10.456 4.82307 12.214 4.43916C11.9439 4.3801 11.6635 4.34814 11.3755 4.34814C9.21441 4.34814 7.46246 6.10002 7.46246 8.26118C7.46246 10.4224 9.21425 12.1742 11.3755 12.1742C11.6635 12.1742 11.9438 12.1422 12.214 12.0832C10.456 11.6991 9.13949 10.1343 9.13949 8.26111Z" fill="#F0F0F0"/>
<path d="M14.5269 10.04L14.7917 10.8553H15.6489L14.9554 11.3592L15.2203 12.1744L14.5269 11.6706L13.8333 12.1744L14.0982 11.3592L13.4047 10.8553H14.2619L14.5269 10.04Z" fill="#F0F0F0"/>
<path d="M17.2627 10.04L17.5276 10.8553H18.3848L17.6912 11.3592L17.9562 12.1744L17.2627 11.6706L16.5691 12.1744L16.8341 11.3592L16.1406 10.8553H16.9977L17.2627 10.04Z" fill="#F0F0F0"/>
<path d="M19.9986 10.04L20.2635 10.8553H21.1208L20.4272 11.3592L20.6921 12.1744L19.9986 11.6706L19.3051 12.1744L19.5701 11.3592L18.8765 10.8553H19.7337L19.9986 10.04Z" fill="#F0F0F0"/>
<path d="M22.7348 10.04L22.9997 10.8553H23.8569L23.1634 11.3592L23.4283 12.1744L22.7348 11.6706L22.0412 12.1744L22.3062 11.3592L21.6126 10.8553H22.4698L22.7348 10.04Z" fill="#F0F0F0"/>
<path d="M25.4706 10.04L25.7356 10.8553H26.5928L25.8993 11.3592L26.1642 12.1744L25.4706 11.6706L24.7771 12.1744L25.042 11.3592L24.3486 10.8553H25.2057L25.4706 10.04Z" fill="#F0F0F0"/>
<path d="M17.2627 7.19385L17.5276 8.009H18.3848L17.6912 8.51299L17.9562 9.32814L17.2627 8.82432L16.5691 9.32814L16.8341 8.51299L16.1406 8.009H16.9977L17.2627 7.19385Z" fill="#F0F0F0"/>
<path d="M19.9986 7.19385L20.2635 8.009H21.1208L20.4272 8.51299L20.6921 9.32814L19.9986 8.82432L19.3051 9.32814L19.5701 8.51299L18.8765 8.009H19.7337L19.9986 7.19385Z" fill="#F0F0F0"/>
<path d="M22.7348 7.19385L22.9997 8.009H23.8569L23.1634 8.51299L23.4283 9.32814L22.7348 8.82432L22.0412 9.32814L22.3062 8.51299L21.6126 8.009H22.4698L22.7348 7.19385Z" fill="#F0F0F0"/>
<path d="M25.4706 7.19385L25.7356 8.009H26.5928L25.8993 8.51299L26.1642 9.32814L25.4706 8.82432L24.7771 9.32814L25.042 8.51299L24.3486 8.009H25.2057L25.4706 7.19385Z" fill="#F0F0F0"/>
<path d="M19.9986 4.34814L20.2635 5.16346H21.1208L20.4272 5.66729L20.6921 6.4826L19.9986 5.97877L19.3051 6.4826L19.5701 5.66729L18.8765 5.16346H19.7337L19.9986 4.34814Z" fill="#F0F0F0"/>
<path d="M22.7348 4.34814L22.9997 5.16346H23.8569L23.1634 5.66729L23.4283 6.4826L22.7348 5.97877L22.0412 6.4826L22.3062 5.66729L21.6126 5.16346H22.4698L22.7348 4.34814Z" fill="#F0F0F0"/>
<path d="M25.4706 4.34814L25.7356 5.16346H26.5928L25.8993 5.66729L26.1642 6.4826L25.4706 5.97877L24.7771 6.4826L25.042 5.66729L24.3486 5.16346H25.2057L25.4706 4.34814Z" fill="#F0F0F0"/>
</g>
<defs>
<clipPath id="clip0_1350_10636">
<rect width="40" height="40" fill="white"/>
</clipPath>
</defs>
</svg>
