<svg width="40" height="40" viewBox="0 0 40 40" fill="none" xmlns="http://www.w3.org/2000/svg">
<g clip-path="url(#clip0_1350_10313)">
<path d="M20 40C31.0457 40 40 31.0457 40 20C40 8.9543 31.0457 0 20 0C8.9543 0 0 8.9543 0 20C0 31.0457 8.9543 40 20 40Z" fill="#F0F0F0"/>
<path d="M5.85785 34.1423C-1.95262 26.3317 -1.95262 13.6685 5.85785 5.85791C5.8573 5.85877 17.3914 20.0001 17.3914 20.0001L5.85785 34.1423Z" fill="black"/>
<path d="M17.3914 20L2.65264 10.04C2.19569 10.8343 1.79272 11.6634 1.44647 12.5215L8.90811 20L1.44671 27.4789C1.79264 28.3364 2.19522 29.165 2.65186 29.9587L17.3914 20Z" fill="#FFDA44"/>
<path d="M39.8305 17.3911H17.3906L5.85747 5.85791C4.61466 7.10072 3.53489 8.50627 2.65239 10.0399L12.5929 19.9998L2.65161 29.9584C3.53411 31.4924 4.61434 32.8985 5.85747 34.1416L17.3906 22.6085H39.8305C39.9417 21.7546 39.9998 20.8839 39.9998 19.9998C39.9998 19.1156 39.9417 18.245 39.8305 17.3911Z" fill="#6DA544"/>
<path d="M7.82343 35.8653C11.196 38.4576 15.4176 39.9999 20.0001 39.9999C29.2407 39.9999 37.0162 33.7326 39.3112 25.2173H18.4715L7.82343 35.8653Z" fill="#0052B4"/>
<path d="M39.3112 14.7826C37.0162 6.26727 29.2407 0 20.0001 0C15.4176 0 11.196 1.54227 7.82343 4.13461L18.4714 14.7826H39.3112Z" fill="#D80027"/>
</g>
<defs>
<clipPath id="clip0_1350_10313">
<rect width="40" height="40" fill="white"/>
</clipPath>
</defs>
</svg>
