<svg width="40" height="40" viewBox="0 0 40 40" fill="none" xmlns="http://www.w3.org/2000/svg">
<g clip-path="url(#clip0_1350_8701)">
<path d="M20 40C31.0457 40 40 31.0457 40 20C40 8.9543 31.0457 0 20 0C8.9543 0 0 8.9543 0 20C0 31.0457 8.9543 40 20 40Z" fill="#FFDA44"/>
<path d="M19.9995 39.9995C26.0613 39.9995 31.4928 37.3023 35.1605 33.043H4.8385C8.50623 37.3023 13.9377 39.9995 19.9995 39.9995Z" fill="#338AF3"/>
<path d="M40 20C40 8.95437 31.0456 0 20 0C8.95437 0 0 8.95437 0 20C0 21.8052 0.240625 23.5538 0.688984 25.2174H39.3111C39.7594 23.5538 40 21.8052 40 20Z" fill="#338AF3"/>
<path d="M1.59039 27.8262C1.97594 28.7321 2.42664 29.6034 2.9361 30.4348H37.0652C37.5746 29.6033 38.0253 28.732 38.411 27.8262H1.59039Z" fill="#338AF3"/>
<path d="M9.16598 12.6143L5.25848 10.8898L9.16598 9.16524L10.8904 5.25781L12.6149 9.16524L16.5223 10.8898L12.6149 12.6143L10.8904 16.5217L9.16598 12.6143Z" fill="#F0F0F0"/>
<path d="M10.8899 7.41113L11.9548 9.82434L14.3681 10.8894L11.9548 11.9544L10.8899 14.3676L9.82483 11.9544L7.41162 10.8894L9.82483 9.82434L10.8899 7.41113Z" fill="#D80027"/>
</g>
<defs>
<clipPath id="clip0_1350_8701">
<rect width="40" height="40" fill="white"/>
</clipPath>
</defs>
</svg>
