<svg width="40" height="40" viewBox="0 0 40 40" fill="none" xmlns="http://www.w3.org/2000/svg">
<g clip-path="url(#clip0_1350_10375)">
<path d="M29.5655 2.4318C26.724 0.881484 23.4651 0 20.0003 0C16.5355 0 13.2765 0.881484 10.4351 2.4318L8.69592 20L10.4351 37.5682C13.2765 39.1185 16.5355 40 20.0003 40C23.4651 40 26.724 39.1185 29.5655 37.5682L31.3047 20L29.5655 2.4318Z" fill="#FFDA44"/>
<path d="M10.4348 37.568V2.43164C4.21789 5.82383 0 12.4191 0 19.9999C0 27.5808 4.21789 34.176 10.4348 37.568Z" fill="#338AF3"/>
<path d="M40 19.9999C40 12.4191 35.7821 5.82383 29.5652 2.43164V37.568C35.7821 34.176 40 27.5808 40 19.9999Z" fill="#6DA544"/>
<path d="M15.6524 25.2176L12.174 20.0001L15.6523 14.7827L19.1307 20.0001L15.6524 25.2176Z" fill="#6DA544"/>
<path d="M24.3483 25.2176L20.87 20.0001L24.3483 14.7827L27.8266 20.0001L24.3483 25.2176Z" fill="#6DA544"/>
<path d="M20.0001 32.1735L16.5218 26.9561L20.0001 21.7388L23.4783 26.9561L20.0001 32.1735Z" fill="#6DA544"/>
</g>
<defs>
<clipPath id="clip0_1350_10375">
<rect width="40" height="40" fill="white"/>
</clipPath>
</defs>
</svg>
