<svg width="40" height="40" viewBox="0 0 40 40" fill="none" xmlns="http://www.w3.org/2000/svg">
<g clip-path="url(#clip0_1350_10159)">
<path d="M40 20C40 31.0456 31.0456 40 20 40C8.95437 40 0 31.0456 0 20C6.86953 13.1305 12.6956 7.30438 20 0C31.0456 0 40 8.95437 40 20Z" fill="#D80027"/>
<path d="M20 20C20 8.95437 20 7.65219 20 0C8.95437 0 0 8.95437 0 20H20Z" fill="#0052B4"/>
<path d="M16.0199 13.0435L16.3438 14.0399H17.3914L16.5438 14.6556L16.8676 15.6521L16.0199 15.0363L15.1723 15.6521L15.4961 14.6556L14.6484 14.0399H15.6961L16.0199 13.0435Z" fill="#F0F0F0"/>
<path d="M10.7577 5.21729L11.2973 6.87814H13.0436L11.6308 7.90432L12.1705 9.5651L10.7577 8.53861L9.34497 9.5651L9.88466 7.90432L8.47192 6.87814H10.218L10.7577 5.21729Z" fill="#F0F0F0"/>
<path d="M15.9755 6.95654L16.5151 8.61748H18.2613L16.8485 9.64365L17.3881 11.3044L15.9755 10.2779L14.5627 11.3044L15.1024 9.64365L13.6897 8.61748H15.4358L15.9755 6.95654Z" fill="#F0F0F0"/>
<path d="M11.8511 13.9131L12.3908 15.5739H14.1369L12.7241 16.6001L13.2638 18.2609L11.8511 17.2345L10.4384 18.2609L10.978 16.6001L9.56531 15.5739H11.3115L11.8511 13.9131Z" fill="#F0F0F0"/>
<path d="M7.27948 9.56543L7.81917 11.2263H9.56534L8.15252 12.2525L8.69221 13.9132L7.27948 12.8868L5.86682 13.9132L6.40643 12.2525L4.99377 11.2263H6.73987L7.27948 9.56543Z" fill="#F0F0F0"/>
</g>
<defs>
<clipPath id="clip0_1350_10159">
<rect width="40" height="40" fill="white"/>
</clipPath>
</defs>
</svg>
