<svg width="40" height="40" viewBox="0 0 40 40" fill="none" xmlns="http://www.w3.org/2000/svg">
<g clip-path="url(#clip0_1350_9672)">
<path d="M20 40C31.0457 40 40 31.0457 40 20C40 8.9543 31.0457 0 20 0C8.9543 0 0 8.9543 0 20C0 31.0457 8.9543 40 20 40Z" fill="#F0F0F0"/>
<path d="M4.57147 7.27305H35.4283C34.2887 5.89297 32.9668 4.66914 31.5005 3.63672H8.49936C7.03303 4.66899 5.71124 5.89289 4.57147 7.27305Z" fill="#F0F0F0"/>
<path d="M0 19.9998C0 20.6128 0.0291406 21.2189 0.083125 21.818H39.9169C39.9709 21.2189 40 20.6128 40 19.9998C40 19.3867 39.9709 18.7806 39.9169 18.1816H0.083125C0.0291406 18.7806 0 19.3867 0 19.9998H0Z" fill="#F0F0F0"/>
<path d="M2.18086 29.0913H37.819C38.4079 27.9393 38.8882 26.7228 39.2468 25.4551H0.753044C1.11156 26.7228 1.59203 27.9394 2.18086 29.0913Z" fill="#F0F0F0"/>
<path d="M8.49936 36.3639H31.5004C32.9667 35.3314 34.2886 34.1076 35.4283 32.7275H4.57147C5.71124 34.1075 7.03303 35.3314 8.49936 36.3639Z" fill="#F0F0F0"/>
<path d="M0.752975 14.5455H39.2469C38.8883 13.2777 38.4079 12.0611 37.819 10.9092H2.18087C1.59204 12.0611 1.11157 13.2777 0.752975 14.5455Z" fill="#F0F0F0"/>
<path d="M9.56525 3.63633H31.5006C28.2474 1.34586 24.281 0 20 0C17.3913 0 12.8184 1.34586 9.56525 3.63633Z" fill="#D80027"/>
<path d="M19.1305 10.9098H37.8191C37.154 9.60876 36.3508 8.39008 35.4285 7.27344H19.1305V10.9098Z" fill="#D80027"/>
<path d="M19.1305 18.1813H39.9169C39.8044 16.9327 39.5783 15.7167 39.247 14.5449H19.1305V18.1813Z" fill="#D80027"/>
<path d="M0.753115 25.4547H39.2469C39.5783 24.283 39.8044 23.067 39.9169 21.8184H0.0831146C0.195615 23.067 0.421708 24.2829 0.753115 25.4547Z" fill="#D80027"/>
<path d="M4.57163 32.7271H35.4285C36.3508 31.6103 37.1541 30.3918 37.8191 29.0908H2.18101C2.84609 30.3918 3.64937 31.6105 4.57163 32.7271Z" fill="#D80027"/>
<path d="M20 39.9996C24.2811 39.9996 28.2475 38.6537 31.5006 36.3633H8.4995C11.7526 38.6537 15.719 39.9996 20 39.9996Z" fill="#D80027"/>
<path d="M0.753036 14.5455C0.42163 15.7173 0.195615 16.9332 0.0831146 18.1818H20V0C10.8453 0 3.12741 6.15094 0.753036 14.5455Z" fill="#0052B4"/>
<path d="M11.9054 5.2168L13.2003 9.20234H17.3914L14.001 11.6658L15.2958 15.6516L11.9054 13.1883L8.51487 15.6516L9.81002 11.6658L6.41956 9.20234H10.6104L11.9054 5.2168Z" fill="#F0F0F0"/>
</g>
<defs>
<clipPath id="clip0_1350_9672">
<rect width="40" height="40" fill="white"/>
</clipPath>
</defs>
</svg>
