<svg width="40" height="40" viewBox="0 0 40 40" fill="none" xmlns="http://www.w3.org/2000/svg">
<g clip-path="url(#clip0_1350_9850)">
<path d="M40 20C40 31.0456 31.0456 40 20 40C8.95437 40 0 31.0456 0 20C0 20.0048 20 0.0021875 20 0C31.0456 0 40 8.95437 40 20Z" fill="#0052B4"/>
<path d="M19.9465 19.9998H20C20 19.9818 20 19.9643 20 19.9463C19.9822 19.9642 19.9644 19.982 19.9465 19.9998Z" fill="#F0F0F0"/>
<path d="M20 10.4348C20 6.91563 20 4.60977 20 0H19.9966C8.95242 0.001875 0 8.95539 0 20H10.4348V14.1241L16.3106 20H19.9466C19.9644 19.9822 19.9822 19.9644 20.0001 19.9465C20.0001 18.5991 20.0001 17.3968 20.0001 16.3108L14.1241 10.4348H20Z" fill="#F0F0F0"/>
<path d="M10.1183 2.6084C6.99022 4.38957 4.38968 6.99004 2.60858 10.1181V19.9997H7.826V7.82598V7.82582H19.9999C19.9999 6.18027 19.9999 4.61262 19.9999 2.6084H10.1183Z" fill="#D80027"/>
<path d="M19.9997 17.5403L12.8939 10.4346H10.4345V10.4347L19.9996 19.9997H19.9997C19.9997 19.9997 19.9997 18.3039 19.9997 17.5403Z" fill="#D80027"/>
<path d="M22.6086 10.4346V19.9997C22.6086 24.6591 28.6955 26.0868 28.6955 26.0868C28.6955 26.0868 34.7825 24.6591 34.7825 19.9997V10.4346H22.6086Z" fill="#338AF3"/>
<path d="M22.6086 20C22.6086 24.6594 28.6955 26.087 28.6955 26.087C28.6955 26.087 34.7825 24.6594 34.7825 20H22.6086Z" fill="#A2001D"/>
<path d="M31.3042 14.7822H29.565V13.043H27.8259V14.7822H26.0868V16.5213H27.8259V21.7386H29.565V16.5213H31.3042V14.7822Z" fill="black"/>
</g>
<defs>
<clipPath id="clip0_1350_9850">
<rect width="40" height="40" fill="white"/>
</clipPath>
</defs>
</svg>
