<svg width="40" height="40" viewBox="0 0 40 40" fill="none" xmlns="http://www.w3.org/2000/svg">
<g clip-path="url(#clip0_1350_9251)">
<path d="M20 40C31.0457 40 40 31.0457 40 20C40 8.9543 31.0457 0 20 0C8.9543 0 0 8.9543 0 20C0 31.0457 8.9543 40 20 40Z" fill="#F0F0F0"/>
<path d="M0.688461 25.2173C2.53518 32.0691 7.93026 37.4642 14.7821 39.311V25.2173H0.688461Z" fill="#D80027"/>
<path d="M14.7821 0.688965C7.93026 2.5356 2.5351 7.93076 0.688461 14.7826H14.7821V0.688965H14.7821Z" fill="#0052B4"/>
<path d="M39.3105 14.7826C37.4639 7.93076 32.0687 2.53561 25.2169 0.688965V14.7826H39.3105V14.7826Z" fill="#D80027"/>
<path d="M25.2169 39.311C32.0687 37.4642 37.4639 32.0692 39.3106 25.2173H25.2169V39.311Z" fill="#0052B4"/>
<path d="M25.218 20.0001C25.218 22.8817 22.8821 25.2176 20.0005 25.2176C17.119 25.2176 14.7831 22.8817 14.7831 20.0001C14.7831 17.1186 20.0005 14.7827 20.0005 14.7827C20.0005 14.7827 25.218 17.1186 25.218 20.0001Z" fill="#496E2D"/>
<path d="M14.7831 20.0001C14.7831 17.1186 17.119 14.7827 20.0005 14.7827C22.8821 14.7827 25.218 17.1186 25.218 20.0001" fill="#0052B4"/>
<path d="M17.0657 17.3911V20.652C17.0657 22.2728 18.3796 23.5867 20.0005 23.5867C21.6213 23.5867 22.9353 22.2728 22.9353 20.652V17.3911H17.0657Z" fill="#D80027"/>
</g>
<defs>
<clipPath id="clip0_1350_9251">
<rect width="40" height="40" fill="white"/>
</clipPath>
</defs>
</svg>
