<svg width="40" height="40" viewBox="0 0 40 40" fill="none" xmlns="http://www.w3.org/2000/svg">
<g clip-path="url(#clip0_1350_10129)">
<path d="M26.9569 1.24391C24.7902 0.440078 22.4469 1.03982e-08 20.0004 1.03982e-08C17.554 -7.81146e-05 15.2106 0.440078 13.044 1.24391L11.3048 19.9999L13.044 38.7559C15.2105 39.56 17.554 40 20.0004 40C22.4468 40 24.7903 39.56 26.9569 38.7559L28.696 20L26.9569 1.24391Z" fill="#FFDA44"/>
<path d="M40.0001 20.0002C40.0001 11.4009 34.5726 4.06992 26.9566 1.24414V38.7563C34.5726 35.9302 40 28.5995 40.0001 20.0002Z" fill="#D80027"/>
<path d="M0 20C0 28.5995 5.4275 35.9302 13.0434 38.7562L13.0434 1.24414C5.4275 4.06992 0 11.4007 0 20H0Z" fill="#0052B4"/>
</g>
<defs>
<clipPath id="clip0_1350_10129">
<rect width="40" height="40" fill="white"/>
</clipPath>
</defs>
</svg>
