<svg width="40" height="40" viewBox="0 0 40 40" fill="none" xmlns="http://www.w3.org/2000/svg">
<g clip-path="url(#clip0_1350_9288)">
<path d="M20 40C31.0457 40 40 31.0457 40 20C40 8.9543 31.0457 0 20 0C8.9543 0 0 8.9543 0 20C0 31.0457 8.9543 40 20 40Z" fill="#F0F0F0"/>
<path d="M12.1735 13.0435H38.7555C35.9297 5.4275 28.5988 0 19.9996 0C14.4766 0 9.47716 2.23898 5.85809 5.85852L12.1735 13.0435Z" fill="#6DA544"/>
<path d="M12.1735 26.9565H38.7555C35.9297 34.5726 28.5988 40.0001 19.9996 40.0001C14.4766 40.0001 9.47716 37.7611 5.85809 34.1415L12.1735 26.9565Z" fill="#D80027"/>
<path d="M5.85828 5.85791C-1.95219 13.6684 -1.95219 26.3317 5.85828 34.1423C9.08586 30.9147 12.19 27.8106 20.0005 20.0001L5.85828 5.85791Z" fill="#0052B4"/>
<path d="M23.4777 16.5215V20.8693C23.4777 23.5318 26.9559 24.3477 26.9559 24.3477C26.9559 24.3477 30.4342 23.5318 30.4342 20.8693V16.5215H23.4777Z" fill="#DEDDE0"/>
<path d="M26.0868 20.0869H27.8259V22.6086H26.0868V20.0869Z" fill="#786145"/>
<path d="M28.695 19.1303C28.695 18.1697 27.9164 17.3911 26.9559 17.3911C25.9954 17.3911 25.2168 18.1697 25.2168 19.1303C24.7365 19.1303 24.3472 19.5196 24.3472 19.9998C24.3472 20.48 24.7365 20.8693 25.2168 20.8693H28.695C29.1753 20.8693 29.5646 20.48 29.5646 19.9998C29.5646 19.5196 29.1754 19.1303 28.695 19.1303Z" fill="#6DA544"/>
</g>
<defs>
<clipPath id="clip0_1350_9288">
<rect width="40" height="40" fill="white"/>
</clipPath>
</defs>
</svg>
