<svg width="40" height="40" viewBox="0 0 40 40" fill="none" xmlns="http://www.w3.org/2000/svg">
<g clip-path="url(#clip0_1350_9363)">
<path d="M20 40C31.0457 40 40 31.0457 40 20C40 8.9543 31.0457 0 20 0C8.9543 0 0 8.9543 0 20C0 31.0457 8.9543 40 20 40Z" fill="#F0F0F0"/>
<path d="M2.43176 10.4348H37.5681C34.1761 4.21789 27.5808 0 20 0C12.4191 0 5.82387 4.21789 2.43176 10.4348Z" fill="#D80027"/>
<path d="M20 40.0002C27.5808 40.0002 34.1761 35.7823 37.5682 29.5654H2.43176C5.82387 35.7823 12.4191 40.0002 20 40.0002Z" fill="#D80027"/>
<path d="M26.9564 19.9999C26.9564 23.842 23.8418 26.0869 19.9999 26.0869C16.1579 26.0869 13.0434 23.842 13.0434 19.9999C13.0434 16.1579 16.1579 13.0435 19.9999 13.0435C23.8418 13.0435 26.9564 16.1579 26.9564 19.9999Z" fill="#FFDA44"/>
<path d="M26.9564 20C26.9564 23.842 23.8418 26.9565 19.9999 26.9565C16.1579 26.9565 13.0434 23.842 13.0434 20" fill="#0052B4"/>
<path d="M15.6528 18.2607H17.3919V21.739H15.6528V18.2607Z" fill="#D80027"/>
<path d="M22.6093 18.2607H24.3484V21.739H22.6093V18.2607Z" fill="#D80027"/>
<path d="M19.1304 15.6519H20.8696V21.7388H19.1304V15.6519Z" fill="#D80027"/>
</g>
<defs>
<clipPath id="clip0_1350_9363">
<rect width="40" height="40" fill="white"/>
</clipPath>
</defs>
</svg>
