<svg width="40" height="40" viewBox="0 0 40 40" fill="none" xmlns="http://www.w3.org/2000/svg">
<g clip-path="url(#clip0_1350_9569)">
<path d="M20 40C31.0457 40 40 31.0457 40 20C40 8.9543 31.0457 0 20 0C8.9543 0 0 8.9543 0 20C0 31.0457 8.9543 40 20 40Z" fill="#F0F0F0"/>
<path d="M40.0001 19.9997C40.0001 11.4004 34.5726 4.06951 26.9566 1.24365V38.7558C34.5726 35.9298 40.0001 28.599 40.0001 19.9997Z" fill="#D80027"/>
<path d="M0 19.9997C0 28.599 5.4275 35.9298 13.0435 38.7557V1.24365C5.4275 4.06951 0 11.4004 0 19.9997Z" fill="#6DA544"/>
</g>
<defs>
<clipPath id="clip0_1350_9569">
<rect width="40" height="40" fill="white"/>
</clipPath>
</defs>
</svg>
