<svg width="40" height="40" viewBox="0 0 40 40" fill="none" xmlns="http://www.w3.org/2000/svg">
<g clip-path="url(#clip0_1350_9751)">
<path d="M26.957 1.24398C24.7903 0.440078 22.4469 0 20.0005 0C17.5541 0 15.2106 0.440078 13.044 1.24398L11.3048 20L13.044 38.756C15.2106 39.56 17.5541 40 20.0005 40C22.4469 40 24.7903 39.56 26.957 38.756L28.6961 20L26.957 1.24398Z" fill="#FFDA44"/>
<path d="M40.0001 20.0001C40.0001 11.4009 34.5726 4.06992 26.9566 1.24414V38.7562C34.5726 35.9302 40.0001 28.5995 40.0001 20.0001Z" fill="#D80027"/>
<path d="M0 20.0001C0 28.5995 5.4275 35.9302 13.0435 38.7562V1.24414C5.4275 4.06992 0 11.4009 0 20.0001Z" fill="#6DA544"/>
</g>
<defs>
<clipPath id="clip0_1350_9751">
<rect width="40" height="40" fill="white"/>
</clipPath>
</defs>
</svg>
