<svg width="41" height="40" viewBox="0 0 41 40" fill="none" xmlns="http://www.w3.org/2000/svg">
<g clip-path="url(#clip0_1350_10745)">
<mask id="mask0_1350_10745" style="mask-type:luminance" maskUnits="userSpaceOnUse" x="0" y="0" width="40" height="40">
<path d="M19.9376 39.9998C30.94 39.9998 39.8592 31.0807 39.8592 20.0783C39.8592 9.07592 30.94 0.156738 19.9376 0.156738C8.93524 0.156738 0.0160522 9.07592 0.0160522 20.0783C0.0160522 31.0807 8.93524 39.9998 19.9376 39.9998Z" fill="white"/>
</mask>
<g mask="url(#mask0_1350_10745)">
<path d="M49.9927 -10.877H-8.11652V43.4312H49.9927V-10.877Z" fill="white"/>
</g>
<mask id="mask1_1350_10745" style="mask-type:luminance" maskUnits="userSpaceOnUse" x="0" y="0" width="40" height="40">
<path d="M19.9376 39.9998C30.94 39.9998 39.8592 31.0807 39.8592 20.0783C39.8592 9.07592 30.94 0.156738 19.9376 0.156738C8.93524 0.156738 0.0160522 9.07592 0.0160522 20.0783C0.0160522 31.0807 8.93524 39.9998 19.9376 39.9998Z" fill="white"/>
</mask>
<g mask="url(#mask1_1350_10745)">
<path d="M26.8005 -1.90869H13.3801V42.073H26.8005V-1.90869Z" fill="#DC171D"/>
</g>
<mask id="mask2_1350_10745" style="mask-type:luminance" maskUnits="userSpaceOnUse" x="0" y="0" width="41" height="40">
<path d="M0.170509 19.9216C0.170509 30.9239 9.08969 39.8431 20.0921 39.8431C31.0944 39.8431 40.0136 30.9239 40.0136 19.9216C40.0136 8.91918 31.0944 0 20.0921 0C9.08969 0 0.170509 8.91918 0.170509 19.9216Z" fill="white"/>
</mask>
<g mask="url(#mask2_1350_10745)">
<path d="M42.0789 26.7846V13.3643L-1.90279 13.3643V26.7846L42.0789 26.7846Z" fill="#012A87"/>
</g>
<mask id="mask3_1350_10745" style="mask-type:luminance" maskUnits="userSpaceOnUse" x="0" y="0" width="40" height="40">
<path d="M19.9376 39.9998C30.94 39.9998 39.8592 31.0807 39.8592 20.0783C39.8592 9.07592 30.94 0.156738 19.9376 0.156738C8.93524 0.156738 0.0160522 9.07592 0.0160522 20.0783C0.0160522 31.0807 8.93524 39.9998 19.9376 39.9998Z" fill="white"/>
</mask>
<g mask="url(#mask3_1350_10745)">
<path d="M16.7955 14.1157L17.3259 15.1845L18.5152 15.3613L17.6554 16.1971L17.8563 17.3704L16.7955 16.8159L15.7428 17.3704L15.9437 16.1971L15.0838 15.3613L16.2731 15.1845L16.7955 14.1157Z" fill="white"/>
</g>
<mask id="mask4_1350_10745" style="mask-type:luminance" maskUnits="userSpaceOnUse" x="0" y="0" width="40" height="40">
<path d="M19.9376 39.9998C30.94 39.9998 39.8592 31.0807 39.8592 20.0783C39.8592 9.07592 30.94 0.156738 19.9376 0.156738C8.93524 0.156738 0.0160522 9.07592 0.0160522 20.0783C0.0160522 31.0807 8.93524 39.9998 19.9376 39.9998Z" fill="white"/>
</mask>
<g mask="url(#mask4_1350_10745)">
<path d="M11.3148 18.5996L11.8372 19.6684L13.0265 19.8452L12.1667 20.6729L12.3676 21.8542L11.3148 21.2997L10.2541 21.8542L10.455 20.6729L9.60315 19.8452L10.7845 19.6684L11.3148 18.5996Z" fill="white"/>
</g>
<mask id="mask5_1350_10745" style="mask-type:luminance" maskUnits="userSpaceOnUse" x="0" y="0" width="40" height="40">
<path d="M19.9376 39.9998C30.94 39.9998 39.8592 31.0807 39.8592 20.0783C39.8592 9.07592 30.94 0.156738 19.9376 0.156738C8.93524 0.156738 0.0160522 9.07592 0.0160522 20.0783C0.0160522 31.0807 8.93524 39.9998 19.9376 39.9998Z" fill="white"/>
</mask>
<g mask="url(#mask5_1350_10745)">
<path d="M29.0586 18.5996L29.589 19.6684L30.7703 19.8452L29.9185 20.6729L30.1194 21.8542L29.0586 21.2997L28.0059 21.8542L28.2068 20.6729L27.3469 19.8452L28.5282 19.6684L29.0586 18.5996Z" fill="white"/>
</g>
<mask id="mask6_1350_10745" style="mask-type:luminance" maskUnits="userSpaceOnUse" x="0" y="0" width="40" height="40">
<path d="M19.9376 39.9998C30.94 39.9998 39.8592 31.0807 39.8592 20.0783C39.8592 9.07592 30.94 0.156738 19.9376 0.156738C8.93524 0.156738 0.0160522 9.07592 0.0160522 20.0783C0.0160522 31.0807 8.93524 39.9998 19.9376 39.9998Z" fill="white"/>
</mask>
<g mask="url(#mask6_1350_10745)">
<path d="M23.2083 14.1157L23.7387 15.1845L24.92 15.3613L24.0681 16.1971L24.269 17.3704L23.2083 16.8159L22.1555 17.3704L22.3564 16.1971L21.4966 15.3613L22.6859 15.1845L23.2083 14.1157Z" fill="white"/>
</g>
<mask id="mask7_1350_10745" style="mask-type:luminance" maskUnits="userSpaceOnUse" x="0" y="0" width="40" height="40">
<path d="M19.9376 39.9998C30.94 39.9998 39.8592 31.0807 39.8592 20.0783C39.8592 9.07592 30.94 0.156738 19.9376 0.156738C8.93524 0.156738 0.0160522 9.07592 0.0160522 20.0783C0.0160522 31.0807 8.93524 39.9998 19.9376 39.9998Z" fill="white"/>
</mask>
<g mask="url(#mask7_1350_10745)">
<path d="M16.7955 23.0435L17.3259 24.1123L18.5152 24.281L17.6554 25.1168L17.8563 26.2981L16.7955 25.7436L15.7428 26.2981L15.9437 25.1168L15.0838 24.281L16.2731 24.1123L16.7955 23.0435Z" fill="white"/>
</g>
<mask id="mask8_1350_10745" style="mask-type:luminance" maskUnits="userSpaceOnUse" x="0" y="0" width="40" height="40">
<path d="M19.9376 39.9998C30.94 39.9998 39.8592 31.0807 39.8592 20.0783C39.8592 9.07592 30.94 0.156738 19.9376 0.156738C8.93524 0.156738 0.0160522 9.07592 0.0160522 20.0783C0.0160522 31.0807 8.93524 39.9998 19.9376 39.9998Z" fill="white"/>
</mask>
<g mask="url(#mask8_1350_10745)">
<path d="M23.2083 23.0435L23.7387 24.1123L24.92 24.281L24.0681 25.1168L24.269 26.2981L23.2083 25.7436L22.1555 26.2981L22.3564 25.1168L21.4966 24.281L22.6859 24.1123L23.2083 23.0435Z" fill="white"/>
</g>
</g>
<defs>
<clipPath id="clip0_1350_10745">
<rect width="40.0199" height="40" fill="white"/>
</clipPath>
</defs>
</svg>
