<svg width="40" height="40" viewBox="0 0 40 40" fill="none" xmlns="http://www.w3.org/2000/svg">
<g clip-path="url(#clip0_1350_8857)">
<path d="M0.944436 13.9125C0.33178 15.832 -1.70761e-05 17.8767 6.10489e-05 19.9995C-1.70761e-05 22.122 0.33178 24.1669 0.944514 26.0864L20.0001 26.9561L39.0555 26.0864C39.6681 24.1669 40 22.122 40 19.9995C40 17.8769 39.6682 15.832 39.0555 13.9125L20 13.043L0.944436 13.9125Z" fill="#F0F0F0"/>
<path d="M40 19.9998C40 18.8133 39.8961 17.6512 39.6979 16.5215H0.302188C0.103906 17.6512 0 18.8132 0 19.9998C0 21.1863 0.103984 22.3483 0.302188 23.478H39.6979C39.896 22.3483 40 21.1862 40 19.9998Z" fill="black"/>
<path d="M20.0001 40C28.9232 40 36.4802 34.1561 39.0555 26.0869H0.944519C3.51991 34.156 11.077 39.9999 20.0001 40Z" fill="#338AF3"/>
<path d="M20.0001 3.13307e-09C11.077 3.13307e-09 3.52 5.84398 0.944458 13.9129L39.0554 13.913C36.4802 5.84399 28.9231 -0.000156247 20.0001 3.13307e-09Z" fill="#338AF3"/>
</g>
<defs>
<clipPath id="clip0_1350_8857">
<rect width="40" height="40" fill="white"/>
</clipPath>
</defs>
</svg>
