<svg width="40" height="40" viewBox="0 0 40 40" fill="none" xmlns="http://www.w3.org/2000/svg">
<g clip-path="url(#clip0_1350_9563)">
<path d="M20 40C31.0457 40 40 31.0457 40 20C40 8.9543 31.0457 0 20 0C8.9543 0 0 8.9543 0 20C0 31.0457 8.9543 40 20 40Z" fill="#F0F0F0"/>
<path d="M27.5296 15.652H22.5091L19.9989 11.3042L17.4888 15.652H12.4682L14.9787 19.9998L12.4682 24.3477H17.4888L19.9989 28.6955L22.5091 24.3477H27.5296L25.0191 19.9998L27.5296 15.652ZM23.0829 19.9998L21.541 22.6708H18.457L16.9149 19.9998L18.457 17.3289H21.5409L23.0829 19.9998ZM19.9989 14.6579L20.5728 15.6519H19.4252L19.9989 14.6579ZM15.3728 17.3289H16.5206L15.9467 18.323L15.3728 17.3289ZM15.3728 22.6708L15.9468 21.6767L16.5207 22.6708H15.3728ZM19.9989 25.3417L19.4251 24.3477H20.5728L19.9989 25.3417ZM24.625 22.6708H23.4772L24.0512 21.6767L24.625 22.6708ZM23.4772 17.3289H24.625L24.0511 18.323L23.4772 17.3289Z" fill="#0052B4"/>
<path d="M32.4492 4.34766H7.54964C5.72441 5.80141 4.15909 7.56719 2.93488 9.56508H37.0639C35.8396 7.56727 34.2743 5.80141 32.4492 4.34766Z" fill="#0052B4"/>
<path d="M7.54964 35.652H32.4491C34.2743 34.1982 35.8396 32.4325 37.0639 30.4346H2.93488C4.15917 32.4324 5.72448 34.1982 7.54964 35.652Z" fill="#0052B4"/>
</g>
<defs>
<clipPath id="clip0_1350_9563">
<rect width="40" height="40" fill="white"/>
</clipPath>
</defs>
</svg>
