<svg width="40" height="40" viewBox="0 0 40 40" fill="none" xmlns="http://www.w3.org/2000/svg">
<g clip-path="url(#clip0_1350_8760)">
<path d="M20.001 0.000976562C31.0466 0.000976562 40.001 8.95535 40.001 20.001C40.001 31.0466 31.0466 40.0009 20.001 40.0009C8.95537 40.0009 0.0010004 31.0466 0.0010004 20.001" fill="#FFDA44"/>
<path d="M19.5652 8.88878H36.6311C35.5074 7.21011 34.1361 5.71168 32.5697 4.44434H19.5652V8.88878Z" fill="#D80027"/>
<path d="M19.5652 17.7783H39.8765C39.7061 16.2373 39.3607 14.7492 38.8604 13.334H19.5652V17.7783Z" fill="#D80027"/>
<path d="M1.13957 26.6662H38.8602C39.3604 25.251 39.7059 23.7628 39.8764 22.2217H0.123475C0.293787 23.7628 0.639255 25.251 1.13957 26.6662Z" fill="#D80027"/>
<path d="M7.43025 35.5558H32.5696C34.1359 34.2885 35.5073 32.7899 36.6311 31.1113H3.36893C4.49267 32.7899 5.86392 34.2884 7.43025 35.5558Z" fill="#D80027"/>
<path d="M20 0.000976562C8.95436 0.000976562 -7.81243e-05 8.95533 5.11209e-10 20.0011C4.56452 20.0009 8.95436 20.0011 20 20.0011L20 0.000976562Z" fill="#4A1F63"/>
<path d="M16.5218 10.4345V12.1736H15.6522V10.4345H13.9131V12.1736H13.0436V8.69531H9.56531V12.1736H8.6957V10.4345H6.95664V12.1736H6.08703V10.4345H4.34782V15.6518H18.2609V10.4345H16.5218Z" fill="#F0F0F0"/>
</g>
<defs>
<clipPath id="clip0_1350_8760">
<rect width="40" height="40" fill="white"/>
</clipPath>
</defs>
</svg>
