<svg width="40" height="40" viewBox="0 0 40 40" fill="none" xmlns="http://www.w3.org/2000/svg">
<g clip-path="url(#clip0_1350_9650)">
<path d="M38.0149 11.3044C34.7799 4.61445 27.9286 0 19.9994 0C12.0702 0 5.21895 4.61445 1.98395 11.3044L19.9994 13.0435L38.0149 11.3044Z" fill="#D80027"/>
<path d="M1.98395 28.6957C5.21895 35.3856 12.0702 40.0001 19.9994 40.0001C27.9286 40.0001 34.7799 35.3856 38.0149 28.6957L19.9994 26.9565L1.98395 28.6957Z" fill="#D80027"/>
<path d="M38.0155 11.3047H1.98453C0.713125 13.934 0 16.8838 0 20.0003C0 23.1168 0.713125 26.0667 1.98453 28.696H38.0154C39.287 26.0667 40 23.1168 40 20.0003C40 16.8838 39.287 13.934 38.0155 11.3047Z" fill="#0052B4"/>
<path d="M19.9999 26.9564C23.8418 26.9564 26.9564 23.8419 26.9564 19.9999C26.9564 16.158 23.8418 13.0435 19.9999 13.0435C16.1579 13.0435 13.0434 16.158 13.0434 19.9999C13.0434 23.8419 16.1579 26.9564 19.9999 26.9564Z" fill="#F0F0F0"/>
</g>
<defs>
<clipPath id="clip0_1350_9650">
<rect width="40" height="40" fill="white"/>
</clipPath>
</defs>
</svg>
