<svg width="40" height="40" viewBox="0 0 40 40" fill="none" xmlns="http://www.w3.org/2000/svg">
<g clip-path="url(#clip0_1350_9626)">
<path d="M20 40C31.0457 40 40 31.0457 40 20C40 8.9543 31.0457 0 20 0C8.9543 0 0 8.9543 0 20C0 31.0457 8.9543 40 20 40Z" fill="#0052B4"/>
<path d="M8.7852 12.1738L9.21692 13.5026H10.6138L9.48371 14.3236L9.91535 15.6521L8.7852 14.8311L7.65496 15.6521L8.08676 14.3236L6.9566 13.5026H8.3534L8.7852 12.1738Z" fill="#F0F0F0"/>
<path d="M13.1324 10.8701L13.5641 12.1988H14.961L13.8309 13.0198L14.2626 14.3483L13.1324 13.5273L12.0023 14.3483L12.434 13.0198L11.3039 12.1988H12.7008L13.1324 10.8701Z" fill="#F0F0F0"/>
<path d="M17.4813 9.56543L17.9131 10.8941H19.3099L18.1799 11.7152L18.6115 13.0437L17.4813 12.2226L16.3512 13.0437L16.7829 11.7152L15.6528 10.8941H17.0497L17.4813 9.56543Z" fill="#F0F0F0"/>
<path d="M31.2157 12.1738L30.784 13.5026H29.3871L30.5172 14.3236L30.0855 15.6521L31.2157 14.8311L32.3459 15.6521L31.9141 14.3236L33.0443 13.5026H31.6474L31.2157 12.1738Z" fill="#F0F0F0"/>
<path d="M26.8667 10.8701L26.435 12.1988H25.0381L26.1682 13.0198L25.7365 14.3483L26.8667 13.5273L27.9968 14.3483L27.5651 13.0198L28.6952 12.1988H27.2983L26.8667 10.8701Z" fill="#F0F0F0"/>
<path d="M22.5195 9.56543L22.0878 10.8941H20.6909L21.821 11.7152L21.3894 13.0437L22.5195 12.2226L23.6497 13.0437L23.2179 11.7152L24.348 10.8941H22.9511L22.5195 9.56543Z" fill="#F0F0F0"/>
<path d="M23.4784 20.8693L20.0002 16.5215L18.261 17.391V19.1302L15.6523 20.8693H13.9132V23.1161C16.4623 24.1483 18.261 26.6459 18.261 29.565H20.0002V27.8259L21.7393 26.0867L23.4784 27.8259L25.2176 26.0867V24.3476L26.9567 21.7389L23.4784 20.8693Z" fill="#FFDA44"/>
</g>
<defs>
<clipPath id="clip0_1350_9626">
<rect width="40" height="40" fill="white"/>
</clipPath>
</defs>
</svg>
