<svg width="40" height="40" viewBox="0 0 40 40" fill="none" xmlns="http://www.w3.org/2000/svg">
<g clip-path="url(#clip0_1350_9786)">
<path d="M20 40C31.0457 40 40 31.0457 40 20C40 8.9543 31.0457 0 20 0C8.9543 0 0 8.9543 0 20C0 31.0457 8.9543 40 20 40Z" fill="#338AF3"/>
<path d="M9.56531 21.7393H30.4348V24.3479H9.56531V21.7393Z" fill="#818085"/>
<path d="M13.0435 13.9136L20 14.7833L26.9565 13.9136V9.73969L24.1739 11.131L20 6.95703L15.8261 11.131L13.0435 9.73969V13.9136Z" fill="#FFDA44"/>
<path d="M11.3046 26.9563H8.69586V22.1737L9.56547 20.8692L8.69586 19.5649V16.5215H11.3046V26.9563Z" fill="#F0F0F0"/>
<path d="M31.3046 26.9563H28.6959V16.5215H31.3046V19.5648L30.435 20.8911L31.3046 22.1738V26.9563Z" fill="#F0F0F0"/>
<path d="M8.69586 19.5654H31.3045V22.1741H8.69586V19.5654Z" fill="#ACABB1"/>
<path d="M20 30.4347C16.1641 30.4347 13.0435 27.314 13.0435 23.4783V13.9131H26.9566V23.4783C26.9565 27.314 23.8359 30.4347 20 30.4347Z" fill="#F0F0F0"/>
<path d="M20 27.8257C17.6026 27.8257 15.6522 25.8752 15.6522 23.4779V16.5215H24.3478V23.4779C24.3478 25.8752 22.3975 27.8257 20 27.8257Z" fill="#0052B4"/>
<path d="M13.0435 13.9131H15.6522V16.5218H13.0435V13.9131Z" fill="#D80027"/>
<path d="M24.3476 13.9131H26.9563V16.5218H24.3476V13.9131Z" fill="#D80027"/>
<path d="M24.3476 19.5654H26.9563V22.1741H24.3476V19.5654Z" fill="#D80027"/>
<path d="M13.0435 19.5654H15.6522V22.1741H13.0435V19.5654Z" fill="#D80027"/>
<path d="M18.6958 13.9131H21.3045V16.5218H18.6958V13.9131Z" fill="#D80027"/>
<path d="M20.0002 27.8261C19.5458 27.8261 19.1078 27.7558 18.6958 27.626V30.3104C19.1186 30.3911 19.5542 30.4349 20.0002 30.4349C20.4461 30.4349 20.8817 30.3911 21.3046 30.3104V27.626C20.8926 27.7557 20.4546 27.8261 20.0002 27.8261Z" fill="#D80027"/>
<path d="M15.7102 24.1846L13.6284 26.2664C13.9893 27.0882 14.5043 27.8272 15.1373 28.4468L16.981 26.603C16.323 25.9673 15.8647 25.1267 15.7102 24.1846Z" fill="#D80027"/>
<path d="M26.3716 26.2655L24.2897 24.1836C24.1352 25.1256 23.6769 25.9662 23.019 26.6021L24.8628 28.4459C25.4956 27.8262 26.0107 27.0873 26.3716 26.2655Z" fill="#D80027"/>
</g>
<defs>
<clipPath id="clip0_1350_9786">
<rect width="40" height="40" fill="white"/>
</clipPath>
</defs>
</svg>
