<svg width="40" height="40" viewBox="0 0 40 40" fill="none" xmlns="http://www.w3.org/2000/svg">
<g clip-path="url(#clip0_1350_10142)">
<path d="M20 40C31.0457 40 40 31.0457 40 20C40 8.9543 31.0457 0 20 0C8.9543 0 0 8.9543 0 20C0 31.0457 8.9543 40 20 40Z" fill="#F0F0F0"/>
<path d="M20 7.40903e-06C19.9813 -0.0140551 -0.00531144 19.9948 1.05887e-06 20C1.05887e-06 8.95438 8.95437 7.40903e-06 20 7.40903e-06Z" fill="#D80027"/>
<path d="M20 7.40906e-06C20.0187 -0.0140551 40.0053 19.9947 40 20C40 8.95438 31.0456 7.40906e-06 20 7.40906e-06Z" fill="#D80027"/>
<path d="M20 39.9999C19.9813 40.014 -0.00531144 20.0053 1.05887e-06 20C1.05887e-06 31.0456 8.95437 39.9999 20 39.9999Z" fill="#0052B4"/>
<path d="M20 39.9999C20.0187 40.014 40.0053 20.0053 40 20C40 31.0456 31.0456 39.9999 20 39.9999Z" fill="#0052B4"/>
<path d="M19.9997 10.4346L22.1582 17.0775H29.1429L23.4921 21.1829L25.6505 27.8259L19.9997 23.7203L14.349 27.8259L16.5074 21.1829L10.8566 17.0775H17.8413L19.9997 10.4346Z" fill="#FFDA44"/>
</g>
<defs>
<clipPath id="clip0_1350_10142">
<rect width="40" height="40" fill="white"/>
</clipPath>
</defs>
</svg>
