<svg width="40" height="40" viewBox="0 0 40 40" fill="none" xmlns="http://www.w3.org/2000/svg">
<g clip-path="url(#clip0_1350_9513)">
<path d="M20 40C31.0457 40 40 31.0457 40 20C40 8.9543 31.0457 0 20 0C8.9543 0 0 8.9543 0 20C0 31.0457 8.9543 40 20 40Z" fill="#D80027"/>
<path d="M22.0653 15.1305C21.6108 17.021 20.8032 16.6605 20.4069 18.3092C18.0723 17.7479 16.6345 15.4002 17.1958 13.0655C17.7569 10.7308 20.1048 9.29303 22.4394 9.85436C21.6467 13.1518 22.4719 13.4396 22.0653 15.1305Z" fill="#F0F0F0"/>
<path d="M16.0072 16.531C17.6648 17.5474 17.0723 18.2042 18.5177 19.0907C17.2624 21.1377 14.5855 21.7795 12.5384 20.5242C10.4915 19.269 9.84952 16.5919 11.1048 14.5449C13.9959 16.3177 14.5244 15.6219 16.0072 16.531Z" fill="#F0F0F0"/>
<path d="M15.4667 22.7261C16.9457 21.4638 17.387 22.2302 18.6768 21.1294C20.2358 22.9557 20.0189 25.7001 18.1926 27.2591C16.3662 28.8181 13.6219 28.601 12.0631 26.7748C14.6423 24.573 14.1438 23.8551 15.4667 22.7261Z" fill="#F0F0F0"/>
<path d="M21.1919 25.1539C20.4481 23.3572 21.3135 23.1741 20.6651 21.6075C22.8838 20.6893 25.4269 21.7435 26.3452 23.9621C27.2634 26.1808 26.209 28.7239 23.9903 29.6421C22.6937 26.5086 21.8571 26.7609 21.1919 25.1539Z" fill="#F0F0F0"/>
<path d="M25.2698 20.4593C23.3313 20.6114 23.4243 19.7317 21.7341 19.8644C21.5464 17.4707 23.335 15.3776 25.7288 15.1898C28.1225 15.0023 30.2155 16.7908 30.4032 19.1847C27.0222 19.4498 27.0035 20.3234 25.2698 20.4593Z" fill="#F0F0F0"/>
</g>
<defs>
<clipPath id="clip0_1350_9513">
<rect width="40" height="40" fill="white"/>
</clipPath>
</defs>
</svg>
