<svg width="40" height="40" viewBox="0 0 40 40" fill="none" xmlns="http://www.w3.org/2000/svg">
<g clip-path="url(#clip0_1350_10626)">
<path d="M20 40C31.0457 40 40 31.0457 40 20C40 8.9543 31.0457 0 20 0C8.9543 0 0 8.9543 0 20C0 31.0457 8.9543 40 20 40Z" fill="#F0F0F0"/>
<path d="M20 14.7824H39.311C38.8095 12.9219 38.0473 11.1687 37.0645 9.56494H20V14.7824Z" fill="#338AF3"/>
<path d="M7.54967 35.6525H32.4491C34.2744 34.1987 35.8397 32.4329 37.0639 30.4351H2.93491C4.1592 32.4329 5.72452 34.1987 7.54967 35.6525Z" fill="#338AF3"/>
<path d="M20 0V4.34781H32.4498C29.0334 1.62687 24.707 0 20 0Z" fill="#338AF3"/>
<path d="M20 14.7824H39.311C38.8095 12.9219 38.0473 11.1687 37.0645 9.56494H20V14.7824Z" fill="#338AF3"/>
<path d="M0 20C0 21.8052 0.240625 23.5538 0.688984 25.2174H39.3111C39.7594 23.5538 40 21.8052 40 20H0Z" fill="#338AF3"/>
<path d="M17.3912 11.7045L14.9486 12.8535L16.2493 15.2191L13.5969 14.7117L13.2609 17.391L11.4135 15.4204L9.56601 17.391L9.22999 14.7117L6.57765 15.2189L7.87828 12.8534L5.43578 11.7045L7.87835 10.5556L6.57765 8.19002L9.22992 8.69736L9.56609 6.01807L11.4135 7.98869L13.2609 6.01807L13.5969 8.69736L16.2494 8.19002L14.9487 10.5557L17.3912 11.7045Z" fill="#FFDA44"/>
</g>
<defs>
<clipPath id="clip0_1350_10626">
<rect width="40" height="40" fill="white"/>
</clipPath>
</defs>
</svg>
