<svg width="40" height="40" viewBox="0 0 40 40" fill="none" xmlns="http://www.w3.org/2000/svg">
<g clip-path="url(#clip0_1350_16302)">
<mask id="mask0_1350_16302" style="mask-type:luminance" maskUnits="userSpaceOnUse" x="0" y="0" width="40" height="40">
<path d="M20.0055 39.9743C31.0439 39.9743 39.9922 31.026 39.9922 19.9877C39.9922 8.94932 31.0439 0.000976562 20.0055 0.000976562C8.96717 0.000976562 0.0188293 8.94932 0.0188293 19.9877C0.0188293 31.026 8.96717 39.9743 20.0055 39.9743Z" fill="white"/>
</mask>
<g mask="url(#mask0_1350_16302)">
<path d="M-2.75967 40.416V24.6153C-2.67468 24.5272 -2.56735 24.5014 -2.44918 24.5004C-2.29748 24.4989 -2.14578 24.4982 -1.99408 24.4983H64.7508C64.9118 24.4983 65.073 24.4965 65.2342 24.502C65.4372 24.5088 65.5605 24.5903 65.5334 24.8164C65.5312 24.8543 65.5312 24.8922 65.5334 24.9301V40.1035C65.5334 40.4443 65.5334 40.4447 65.202 40.4447C42.6505 40.4447 20.0988 40.4443 -2.45286 40.4437C-2.55548 40.443 -2.66136 40.4674 -2.75967 40.416Z" fill="#002867"/>
<path d="M-2.75966 15.2942C-2.75966 10.1125 -2.76143 4.9307 -2.76498 -0.25107C-2.76498 -0.464281 -2.71685 -0.512207 -2.50364 -0.512207C20.1658 -0.506472 42.8352 -0.504697 65.5045 -0.506882C65.5576 -0.408572 65.5316 -0.302069 65.5316 -0.199662C65.5331 4.85827 65.5335 9.91619 65.5328 14.9741C65.5328 15.3768 65.5056 15.4042 65.0976 15.4104C65.0124 15.4116 64.927 15.4104 64.8416 15.4104C42.5254 15.4104 20.2091 15.4094 -2.10733 15.4075C-2.32771 15.4083 -2.56795 15.4761 -2.75966 15.2942Z" fill="#002867"/>
<path d="M-2.75967 15.2942C19.8897 15.2942 42.5389 15.2962 65.1881 15.3C65.4435 15.3 65.5113 15.2416 65.5109 14.9807C65.5023 9.8183 65.5002 4.65591 65.5045 -0.506471C65.5219 -0.493977 65.5639 -0.535145 65.5621 -0.478002C65.5596 -0.402221 65.5621 -0.32644 65.5621 -0.250659C65.5621 13.2386 65.5639 26.7279 65.5674 40.2171C65.5674 40.4301 65.5193 40.4781 65.3061 40.4781C42.7032 40.4726 20.1001 40.4697 -2.50304 40.4693C-2.5862 40.4693 -2.69598 40.5348 -2.75906 40.416H65.1314C65.5045 40.416 65.5045 40.416 65.5045 40.0473C65.5045 35.0081 65.5067 29.9688 65.5109 24.9295C65.5109 24.669 65.4439 24.61 65.1883 24.61C42.5391 24.6162 19.8898 24.6182 -2.75967 24.6159V21.4894C-2.67775 21.4075 -2.57288 21.4065 -2.46802 21.4055C-2.32588 21.404 -2.18353 21.4055 -2.04139 21.4055C20.2259 21.4055 42.4931 21.4055 64.7602 21.4055C64.9575 21.4055 65.1621 21.4341 65.3284 21.2869C65.3995 21.1845 65.3864 21.069 65.3866 20.9565C65.3885 20.2842 65.3885 19.6118 65.3866 18.9393C65.3849 18.5706 65.3526 18.5428 64.9735 18.5387C64.8407 18.5373 64.7072 18.5387 64.5753 18.5387C42.3473 18.5387 20.1194 18.5377 -2.10857 18.5358C-2.32854 18.5358 -2.56817 18.6034 -2.75967 18.4217V15.2942Z" fill="#FEFEFE"/>
<path d="M-2.75967 18.4201C-2.65563 18.417 -2.55158 18.4109 -2.44754 18.4109C20.0819 18.4109 42.6113 18.4087 65.1408 18.4043C65.424 18.4043 65.5228 18.4555 65.5135 18.7631C65.4871 19.6524 65.499 20.5428 65.4957 21.4327C65.3974 21.4855 65.2909 21.4595 65.1885 21.4595C42.6419 21.4607 20.0952 21.4607 -2.45143 21.4595C-2.55384 21.4595 -2.66054 21.4853 -2.75865 21.4325L-2.75967 18.4201Z" fill="#BE0A30"/>
<path d="M-2.75966 21.4326H65.4949C65.4245 21.5739 65.2956 21.4996 65.199 21.4998C61.8152 21.5047 58.4314 21.5061 55.0476 21.5039C35.9013 21.5039 16.7549 21.5039 -2.39141 21.5039C-2.5143 21.5039 -2.63718 21.4947 -2.76007 21.49L-2.75966 21.4326Z" fill="#BB0828"/>
<path d="M9.55369 4.96376C9.15144 5.28757 8.75492 5.61916 8.34366 5.9313C8.20029 6.04108 8.17223 6.14164 8.22323 6.30959C8.3797 6.82285 8.5198 7.34103 8.68262 7.91491C8.20971 7.57349 7.77899 7.27303 7.36137 6.95516C7.22251 6.84948 7.13198 6.85787 6.99844 6.95864C6.58615 7.26975 6.16322 7.56673 5.68313 7.91348C5.84821 7.32362 5.98421 6.80503 6.14233 6.293C6.19353 6.1269 6.15584 6.03739 6.02538 5.93642C5.61575 5.61937 5.21555 5.28982 4.81186 4.96499C4.81575 4.93632 4.81964 4.90744 4.82333 4.87856C5.31898 4.87856 5.81483 4.86893 6.30986 4.88327C6.51877 4.88921 6.60561 4.81036 6.6646 4.61701C6.81596 4.12055 6.99046 3.63125 7.17827 3.07129C7.32737 3.50631 7.45866 3.88419 7.58667 4.2631C7.79291 4.87385 7.79148 4.87754 8.44688 4.88675C8.80571 4.89228 9.16373 4.88778 9.52358 4.88778L9.55369 4.96376Z" fill="#FEFEFE"/>
<path d="M15.1881 8.06494C15.3552 8.56284 15.5289 9.05869 15.6858 9.56008C15.7393 9.73069 15.8175 9.79787 16.0031 9.79295C16.504 9.77964 17.0066 9.78844 17.507 9.78844C17.5158 9.81712 17.5246 9.846 17.5332 9.87467C17.2022 10.1434 16.8711 10.4119 16.5399 10.6802C16.1458 10.9981 16.146 10.9973 16.2824 11.482C16.4022 11.9085 16.5202 12.3353 16.6576 12.8289L15.6113 12.0737C15.1607 11.7483 15.1607 11.7483 14.6992 12.0815C14.3699 12.3193 14.0399 12.5563 13.6594 12.8301C13.8212 12.2585 13.9603 11.7409 14.1165 11.2285C14.1681 11.0591 14.1411 10.9577 13.9963 10.8473C13.5897 10.5377 13.1975 10.2093 12.7766 9.87057C12.9815 9.79643 13.1758 9.83719 13.3634 9.8208C13.5048 9.80852 13.6477 9.81323 13.7892 9.80032C14.042 9.77984 14.3601 9.88901 14.5309 9.73396C14.6972 9.58302 14.7226 9.27498 14.8051 9.03453C14.9153 8.71338 15.021 8.39059 15.1287 8.06863L15.1881 8.06494Z" fill="#FEFEFE"/>
</g>
</g>
<defs>
<clipPath id="clip0_1350_16302">
<rect width="40" height="40" fill="white"/>
</clipPath>
</defs>
</svg>
