<svg width="40" height="40" viewBox="0 0 40 40" fill="none" xmlns="http://www.w3.org/2000/svg">
<g clip-path="url(#clip0_1350_8757)">
<path d="M20 40C31.0457 40 40 31.0457 40 20C40 8.9543 31.0457 0 20 0C8.9543 0 0 8.9543 0 20C0 31.0457 8.9543 40 20 40Z" fill="#F0F0F0"/>
<path d="M20.0006 0C15.9868 0 12.25 1.1832 9.11778 3.21859L14.2615 6.66617L7.82669 9.99945L14.2615 13.3327L7.82669 16.666L14.2615 19.9989L7.82669 23.3321L14.2615 26.6653L7.82669 29.9989L14.2615 33.3322L9.11716 36.7809C12.2495 38.8166 15.9866 40 20.0006 40C31.0462 40 40.0006 31.0456 40.0006 20C40.0006 8.95437 31.0462 0 20.0006 0V0Z" fill="#D80027"/>
</g>
<defs>
<clipPath id="clip0_1350_8757">
<rect width="40" height="40" fill="white"/>
</clipPath>
</defs>
</svg>
