<svg width="40" height="40" viewBox="0 0 40 40" fill="none" xmlns="http://www.w3.org/2000/svg">
<g clip-path="url(#clip0_1350_9503)">
<path d="M20 40C31.0457 40 40 31.0457 40 20C40 8.9543 31.0457 0 20 0C8.9543 0 0 8.9543 0 20C0 31.0457 8.9543 40 20 40Z" fill="#F0F0F0"/>
<path d="M19.9994 40.0002C27.9286 40.0002 34.7799 35.3857 38.0149 28.6958H1.98395C5.21895 35.3857 12.0702 40.0002 19.9994 40.0002Z" fill="#338AF3"/>
<path d="M19.9994 0C12.0702 0 5.21895 4.61445 1.98395 11.3044H38.0148C34.7799 4.61445 27.9286 0 19.9994 0Z" fill="#338AF3"/>
<path d="M12.3071 13.0435L12.9546 15.0363H15.05L13.3548 16.2679L14.0024 18.2608L12.3071 17.0292L10.6118 18.2608L11.2594 16.2679L9.56415 15.0363H11.6595L12.3071 13.0435Z" fill="#338AF3"/>
<path d="M12.3071 21.7393L12.9546 23.7322H15.05L13.3548 24.9638L14.0024 26.9566L12.3071 25.725L10.6118 26.9566L11.2594 24.9638L9.56415 23.7322H11.6595L12.3071 21.7393Z" fill="#338AF3"/>
<path d="M27.6907 13.0435L28.3383 15.0363H30.4337L28.7385 16.2679L29.386 18.2608L27.6907 17.0292L25.9954 18.2608L26.643 16.2679L24.9478 15.0363H27.0432L27.6907 13.0435Z" fill="#338AF3"/>
<path d="M27.6907 21.7393L28.3383 23.7322H30.4337L28.7385 24.9638L29.386 26.9566L27.6907 25.725L25.9954 26.9566L26.643 24.9638L24.9478 23.7322H27.0432L27.6907 21.7393Z" fill="#338AF3"/>
<path d="M19.999 17.3916L20.6466 19.3846H22.742L21.0468 20.6161L21.6943 22.609L19.999 21.3773L18.3037 22.609L18.9513 20.6161L17.256 19.3846H19.3514L19.999 17.3916Z" fill="#338AF3"/>
</g>
<defs>
<clipPath id="clip0_1350_9503">
<rect width="40" height="40" fill="white"/>
</clipPath>
</defs>
</svg>
