<svg width="40" height="40" viewBox="0 0 40 40" fill="none" xmlns="http://www.w3.org/2000/svg">
<g clip-path="url(#clip0_1350_16692)">
<mask id="mask0_1350_16692" style="mask-type:luminance" maskUnits="userSpaceOnUse" x="0" y="0" width="40" height="40">
<path d="M20.0003 39.9797C31.039 39.9797 39.9877 31.031 39.9877 19.9923C39.9877 8.95355 31.039 0.00488281 20.0003 0.00488281C8.96155 0.00488281 0.0128784 8.95355 0.0128784 19.9923C0.0128784 31.031 8.96155 39.9797 20.0003 39.9797Z" fill="white"/>
</mask>
<g mask="url(#mask0_1350_16692)">
<path d="M50.3313 40.2424H-10.341C-10.388 40.1444 -10.3632 40.0398 -10.3634 39.9385C-10.3646 31.1621 -10.3655 22.3857 -10.3659 13.6094C-10.3659 13.5081 -10.3412 13.4042 -10.3884 13.3055V13.2595C-10.3204 13.1813 -10.2311 13.1611 -10.1323 13.1602C-10.0216 13.159 -9.911 13.1577 -9.8003 13.1577C10.055 13.1577 29.9103 13.1587 49.7655 13.1606C49.9561 13.1606 50.1634 13.098 50.3346 13.2461C50.3742 13.3291 50.3551 13.4175 50.3551 13.503C50.3561 22.3308 50.3561 31.1586 50.3551 39.9864C50.3544 40.0718 50.3763 40.1605 50.3313 40.2424Z" fill="#D9121A"/>
<path d="M50.3236 13.2468C44.7898 13.2468 39.256 13.2471 33.7223 13.2478C19.1291 13.2478 4.53593 13.2478 -10.0573 13.2478C-10.1677 13.2478 -10.278 13.2552 -10.3884 13.2591V-0.207944C-10.3064 -0.252228 -10.2177 -0.23052 -10.1324 -0.23052C9.9382 -0.231581 30.0087 -0.231919 50.0792 -0.231533C50.3551 -0.231533 50.3554 -0.231533 50.3554 0.0518246C50.3554 4.36644 50.3549 8.68106 50.3538 12.9957C50.3538 13.0792 50.3848 13.1696 50.3236 13.2468Z" fill="#002487"/>
<path d="M50.3234 13.2466C50.326 13.1598 50.331 13.0729 50.331 12.9861C50.331 8.67958 50.3329 4.37307 50.3369 0.0665554C50.3369 -0.160507 50.287 -0.214197 50.0575 -0.214197C29.9089 -0.208023 9.76025 -0.206093 -10.3884 -0.208408C-10.378 -0.22288 -10.4123 -0.257902 -10.3647 -0.25631C-10.3014 -0.254284 -10.2382 -0.25631 -10.175 -0.25631C9.93387 -0.25631 30.0427 -0.25795 50.1517 -0.26123C50.3391 -0.26123 50.3849 -0.230695 50.3848 -0.0334446C50.3787 13.3205 50.3759 26.6746 50.3764 40.0286C50.3764 40.098 50.431 40.1893 50.3318 40.2418C50.3318 31.3379 50.3318 22.4339 50.3318 13.5298C50.3313 13.4359 50.3263 13.3414 50.3234 13.2466Z" fill="#FEFEFE"/>
<path d="M10.4372 18.5231C10.718 18.954 10.9931 19.3881 11.4621 19.6504C11.9253 19.9116 12.4487 20.0474 12.9805 20.0443H13.8822C12.7824 19.1436 12.1951 18.0642 12.3181 16.6417C12.7264 18.2154 13.9123 18.717 15.3819 18.8943C14.5171 17.8124 14.1634 16.6367 14.5772 15.286C14.6495 16.1061 14.9298 16.8182 15.5911 17.341C16.0298 17.6883 16.5394 17.8892 17.1175 18.1267C16.4799 16.8559 16.3957 15.6306 17.0667 14.3986C17.0403 15.0669 17.0335 15.7263 17.4141 16.3234C17.7873 16.9083 18.3361 17.2853 18.9611 17.7179C18.6178 16.3555 18.7669 15.1461 19.6918 14.0815C19.1217 15.583 19.7751 16.6786 20.8653 17.6872C20.7913 16.2883 21.2086 15.1338 22.3259 14.2818C22.0065 14.8856 21.7594 15.5018 21.8685 16.2066C21.9744 16.8904 22.3259 17.4565 22.7126 18.0763C22.945 16.7211 23.552 15.6759 24.8129 15.0881C24.2756 15.6896 23.9547 16.3691 24.0104 17.1878C24.0487 17.7464 24.242 18.2626 24.451 18.8358C24.9614 17.5306 25.8002 16.6377 27.1844 16.319C25.8303 17.1943 25.7141 18.4668 26.0035 19.9237C26.7705 18.7493 27.7912 18.0636 29.2197 18.0373C27.6873 18.5986 27.3064 19.8281 27.2831 21.3255C28.2817 20.3289 29.4317 19.8749 30.8238 20.1389C30.1544 20.2947 29.5264 20.517 29.0675 21.0681C28.6188 21.6063 28.446 22.2591 28.2164 22.9727C29.3979 22.2267 30.5928 21.9724 31.8818 22.5386C30.2899 22.4608 29.465 23.4293 28.8489 24.7543C30.1057 24.2888 31.3076 24.295 32.445 25.0268C32.4271 25.1399 32.3546 25.0817 32.2981 25.0736C31.8746 25.026 31.4515 24.9653 31.0294 25.0881C30.5084 25.2387 30.0665 25.52 29.6938 25.909C29.4802 26.1326 29.2794 26.368 29.0922 26.6141C29.7314 26.5562 30.3534 26.5517 30.9683 26.7276C31.5832 26.9034 32.0983 27.227 32.5417 27.7261C31.1183 27.0422 29.9734 27.5707 28.8832 28.5345C30.0434 28.6069 31.0329 28.9846 31.7828 29.8668C31.9675 29.9488 32.0944 30.0766 32.1157 30.2879C32.1146 30.3548 32.0928 30.3648 32.0336 30.3286C31.9214 30.2603 31.8047 30.1996 31.6896 30.1357C31.1362 29.8766 30.5447 29.7811 29.943 29.7305L29.478 29.8341C29.3874 30.0367 29.2065 30.0077 29.0365 30.006L28.7637 30.1179C28.7546 30.2459 28.6411 30.2594 28.5594 30.3053C28.5508 30.3497 28.5508 30.3497 28.6229 30.3584C28.8132 30.425 29.0398 30.4184 29.1583 30.6267L29.9735 31.1477C30.1586 31.2525 30.3329 31.3713 30.4724 31.5347C30.5281 31.5999 30.5941 31.6613 30.5698 31.7611C30.6734 31.9252 30.7769 32.0892 30.8803 32.2532C30.9916 32.3849 31.1311 32.5022 31.1076 32.7018C31.0911 32.7361 31.073 32.7687 31.0252 32.7532L30.788 32.5739C30.2329 32.085 29.565 31.8554 28.851 31.7315C28.6895 31.7125 28.5326 31.751 28.3743 31.7707C28.2229 31.9542 28.0216 31.9166 27.8243 31.8947C27.6892 31.8925 27.562 31.9264 27.3798 31.996C28.5404 32.6169 29.3479 33.4762 29.5589 34.7855C29.5805 34.8351 29.6013 34.8846 29.5132 34.8831C29.4806 34.8387 29.4434 34.7963 29.4161 34.7491C28.8246 33.72 27.8906 33.3661 26.7592 33.397C26.5649 33.4024 26.3702 33.3979 26.1599 33.427C26.6594 33.8635 27.066 34.3532 27.3546 34.9425C27.6459 35.5367 27.6874 36.1682 27.673 36.8213C27.431 36.1818 27.1575 35.5692 26.5565 35.1727C25.9727 34.7875 25.3146 34.6597 24.5788 34.5389C25.477 35.6545 25.7997 36.8475 25.3876 38.2131C25.3248 36.5798 24.2915 35.8141 22.8572 35.3391C23.5016 36.6019 23.5692 37.8283 22.8844 39.0684C23.1631 37.4588 22.289 36.5069 21.0048 35.7445C21.3657 37.0978 21.1929 38.3216 20.2523 39.4041C20.8524 37.9008 20.2209 36.786 19.1174 35.7734C19.1654 37.1429 18.7709 38.2956 17.6443 39.142C18.519 37.7962 18.098 36.5914 17.251 35.3817C17.0243 36.7598 16.3756 37.8053 15.0995 38.4063C15.5336 37.8834 15.9141 37.3419 15.9533 36.6274C15.9906 35.9341 15.7714 35.3057 15.5225 34.6132C15.0058 35.8902 14.194 36.796 12.8251 37.1002C14.1586 36.2216 14.2391 34.9477 13.9701 33.5192C13.2335 34.636 12.2643 35.3365 10.919 35.417C10.8747 35.4252 10.8167 35.4604 10.8246 35.3678C11.0942 35.2202 11.3817 35.1034 11.6251 34.9103C12.2309 34.4299 12.51 33.775 12.6152 33.0323C12.656 32.7455 12.6741 32.4554 12.7093 32.0975C11.707 33.0949 10.5709 33.5591 9.17702 33.2954C10.7633 33.0441 11.3912 31.9352 11.7206 30.4844C10.5359 31.2409 9.31928 31.4552 8.01161 30.9157C8.34576 30.8498 8.68194 30.883 9.00394 30.804C9.33468 30.7224 9.64444 30.5718 9.91291 30.3622C10.1841 30.1529 10.4175 29.906 10.5996 29.6164C10.778 29.3325 10.941 29.0387 11.1157 28.7409C10.9832 28.696 10.8995 28.7571 10.8139 28.7843C9.73129 29.1364 8.68527 29.097 7.68715 28.506C7.61262 28.4626 7.53288 28.4265 7.4556 28.3872C7.43129 28.3438 7.46399 28.3224 7.4912 28.2993C7.63592 28.2137 7.78744 28.2737 7.92926 28.2993C8.79135 28.4532 9.48281 28.114 10.1041 27.5648C10.3168 27.3766 10.4876 27.1491 10.7067 26.9095C10.3049 26.962 9.9336 26.9963 9.56414 26.9161C9.43389 26.8802 9.29511 26.8894 9.16501 26.8494C8.82796 26.7497 8.48353 26.6679 8.18874 26.4617C8.07832 26.3915 7.94272 26.3459 7.91276 26.1938L7.36646 25.7196L7.3831 25.6883L8.19062 25.9546C8.38729 25.8807 8.59178 25.9306 8.79207 25.9156C9.16515 25.9775 9.48672 25.8158 9.8145 25.6804C10.1637 25.4622 10.5303 25.2697 10.8372 24.992C10.7601 24.9083 10.6604 24.9595 10.5728 24.9465C10.044 24.8672 9.54316 24.7096 9.08339 24.4315C8.94026 24.3215 8.76501 24.2578 8.63997 24.1212C8.42434 23.9669 8.23346 23.7883 8.08556 23.5659C8.02391 23.4843 7.94229 23.4186 7.89569 23.3254C7.86342 23.261 7.82666 23.1891 7.87774 23.1261C7.92883 23.0632 8.00799 23.0872 8.07499 23.1116C8.14849 23.1403 8.21835 23.1776 8.2831 23.2226C8.95618 23.6784 9.68686 23.7344 10.4539 23.5381C10.6255 23.4695 10.805 23.4215 10.972 23.341C11.0792 23.2815 11.201 23.2553 11.307 23.1931C11.3387 23.169 11.3741 23.1514 11.4356 23.1158C10.8245 22.9205 10.268 22.662 9.8187 22.2171C9.37615 21.8527 9.07514 21.3881 8.85951 20.8633C8.8323 20.7969 8.81146 20.728 8.85444 20.6588C9.12159 20.6228 9.23071 20.8498 9.39496 20.9839C9.66096 21.2691 9.9912 21.4435 10.3634 21.5459C10.432 21.5791 10.5045 21.5604 10.5756 21.562C10.9777 21.6209 11.379 21.6255 11.7793 21.5487C11.8608 21.528 11.9491 21.54 12.0254 21.4962C12.1274 21.4497 12.2508 21.4883 12.3446 21.4161C12.2183 21.2595 12.0173 21.2187 11.8685 21.0978C11.7825 21.0279 11.7057 20.9587 11.6683 20.8527C10.9767 20.2415 10.5235 19.4959 10.3847 18.5734C10.3695 18.5241 10.3928 18.5128 10.4372 18.5231Z" fill="#FBDC09"/>
<path d="M8.83966 26.0105C8.62013 26.0285 8.4029 26.0189 8.19031 25.9553C8.39871 25.7714 8.65413 25.6617 8.89466 25.5203C8.34979 25.2026 7.24343 25.2513 6.76513 25.6026C6.68018 25.665 6.67078 25.7362 6.6796 25.8274C6.70204 26.0621 6.72027 26.2971 6.70334 26.543C6.63822 26.3644 6.56571 26.1882 6.51057 26.0066C6.47092 25.8763 6.42736 25.8536 6.32505 25.954C6.18467 26.0918 6.03561 26.2212 5.89089 26.3542C5.84357 26.3652 5.82056 26.351 5.83402 26.2992C5.93127 26.1465 6.00652 25.972 6.13069 25.8456C6.38134 25.5908 6.36875 25.3042 6.29364 24.9974C5.02939 25.3547 4.61289 25.4274 4.51188 26.9139C4.36861 26.5696 4.22418 26.2215 4.28279 25.8361C4.32519 25.556 4.52881 25.3864 4.76137 25.2517C5.17512 25.0126 5.62678 24.867 6.08366 24.7452C6.29321 24.689 6.41853 24.5967 6.50059 24.3898C6.62374 24.0791 6.85573 23.834 7.11072 23.5636C6.81043 23.5018 6.56846 23.418 6.26947 23.578C5.76861 23.8471 5.20435 23.966 4.65471 24.1093C4.18713 24.231 3.72505 24.3613 3.33489 24.6672C3.27801 24.7118 3.19914 24.7847 3.12765 24.7039C3.06542 24.6338 3.12143 24.5533 3.16441 24.4885C3.2223 24.4016 3.30913 24.3416 3.39943 24.2932C4.25529 23.838 5.15529 23.5092 6.11492 23.3526C6.21115 23.3262 6.14198 23.2987 6.11492 23.2715C5.2867 23.056 4.45066 23.0074 3.60681 23.1615C3.1207 23.2504 2.80334 23.5378 2.65978 24.0171C2.62823 24.1225 2.60681 24.3149 2.48699 24.2819C2.35862 24.2466 2.44241 24.0718 2.4689 23.9646C2.52765 23.7278 2.60189 23.4947 2.67512 23.2615C2.72794 23.0931 2.65023 23.0358 2.49987 23.06C1.89205 23.1573 1.28062 23.2466 0.797405 23.6846C0.776276 23.7038 0.74386 23.728 0.721284 23.7246C0.67179 23.716 0.673527 23.6668 0.679171 23.6287C0.708114 23.4323 0.834308 23.3052 0.993787 23.2063C1.38453 22.9639 1.82099 22.8589 2.26817 22.7928C2.95775 22.6915 3.6537 22.6799 4.34892 22.6637C4.4168 22.6621 4.48453 22.6571 4.60623 22.6508C4.02953 22.3513 3.52461 22.0055 2.96629 21.8236C2.46513 21.6605 1.90493 21.6838 1.36586 21.7244C1.3029 21.729 1.2401 21.7378 1.17772 21.7429C0.640097 21.7863 0.415205 21.9686 0.267883 22.4818C0.242268 22.571 0.215785 22.6598 0.183947 22.7689C0.0275066 22.1678 0.21289 21.8296 0.780618 21.6613C1.25196 21.5217 1.74256 21.4856 2.28785 21.4026C1.68684 21.0938 1.27483 20.5368 0.527796 20.5799C0.644439 20.453 0.780763 20.4806 0.88467 20.3886L0.492774 20.072L0.54603 20.0109C0.694077 20.0479 0.806522 20.1549 0.929967 20.2368C1.044 20.3126 1.144 20.3356 1.28149 20.2908C1.55066 20.2029 1.82809 20.1406 2.14169 20.0572C1.8126 19.9584 1.50117 19.766 1.21767 19.8008C0.67179 19.8673 0.11318 19.7921 -0.420974 19.9488C-0.649338 20.0158 -0.813449 20.1804 -0.9641 20.3555C-1.1845 20.6106 -1.39825 20.8707 -1.6298 21.1453C-1.69941 20.523 -1.2738 19.6368 -0.332117 19.5597C-0.122855 19.5262 0.0875645 19.5474 0.297405 19.5424C0.311877 19.5424 0.326349 19.5436 0.340821 19.5437C0.363084 19.5453 0.384989 19.5502 0.405799 19.5582C0.391421 19.5516 0.376313 19.5468 0.360792 19.5437C0.293353 19.5448 0.227796 19.5437 0.182499 19.483C-0.777848 19.2174 -1.74485 18.9789 -2.72314 18.7838C-2.16989 18.6673 -1.64196 18.8206 -1.11359 18.9297C-0.443405 19.0681 0.221428 19.2325 0.888433 19.3856C0.927796 19.4 0.970343 19.3831 1.00638 19.3958C1.00276 19.3948 1.01029 19.3911 1.00898 19.3906C0.978158 19.3824 0.962673 19.3591 0.946899 19.3361C0.179894 18.7899 -0.642826 18.3426 -1.49275 17.9419C-1.55267 17.9129 -1.6298 17.8941 -1.65961 17.7711C-1.38653 17.749 -1.16106 17.8798 -0.925894 17.9526C-0.687544 18.0264 -0.453246 18.1134 -0.170467 18.2107C-0.288846 18.0081 -0.422421 17.8817 -0.552812 17.7546C-0.995648 17.3225 -1.51765 16.9912 -2.00477 16.6154C-2.09449 16.5461 -2.2929 16.4749 -2.2188 16.3624C-2.15325 16.2628 -1.99478 16.4044 -1.88769 16.4585C-0.636603 17.0895 0.471211 17.9268 1.48424 18.8837C1.76919 19.1529 2.09813 19.343 2.39089 19.5859C2.76282 19.8944 3.18974 20.0358 3.63633 20.1617C3.76745 20.1987 3.89017 20.2186 4.02013 20.1775C4.10985 20.1518 4.1702 20.1718 4.17541 20.2775C4.49552 20.4707 4.87005 20.5107 5.2113 20.6482C5.45963 20.7485 5.71578 20.8293 5.96803 20.9202C6.25782 21.0233 6.52694 21.1771 6.76282 21.3746C7.23011 21.7641 7.7537 22.0769 8.26065 22.4122C8.45428 22.5403 8.61159 22.5531 8.79466 22.3977C8.45095 22.1905 8.10956 21.9899 7.77382 21.7804C7.42895 21.5656 7.11853 21.3119 6.90146 20.9598C6.88421 20.9288 6.8596 20.9026 6.82979 20.8833C6.79998 20.8641 6.76589 20.8526 6.73055 20.8497C5.89784 20.7614 5.20073 20.3909 4.58438 19.8391C3.26253 18.6559 2.03431 17.3879 1.01824 15.9271C0.833819 15.6612 0.680022 15.3754 0.559779 15.075C0.538795 15.0216 0.566146 15.0106 0.611877 15.0158C1.20044 15.7683 1.75196 16.5498 2.37179 17.2788C2.61246 17.5617 2.85341 17.844 3.11984 18.1037C3.20392 18.1856 3.29147 18.2615 3.41998 18.318C3.43908 18.1733 3.35978 18.089 3.3029 18.0021C3.01781 17.5666 2.67772 17.1682 2.44603 16.6967C2.25167 16.3015 2.08235 15.8996 1.98293 15.4446C2.12765 15.509 2.18554 15.6155 2.25225 15.7099C3.09393 16.8947 3.91781 18.0927 4.86296 19.2C5.15023 19.5368 5.43908 19.872 5.76021 20.1772C5.83706 20.2495 5.90667 20.3397 6.05182 20.3618C5.99263 20.1872 5.89509 20.0563 5.79437 19.931C5.39364 19.4323 4.98134 18.9429 4.58699 18.4393C4.13431 17.8604 3.79769 17.2217 3.63836 16.4982C3.6249 16.4367 3.61101 16.375 3.60218 16.3126C3.59798 16.283 3.60522 16.2517 3.6084 16.2018C3.7427 16.2676 3.79075 16.3869 3.85052 16.4912C4.6838 17.9529 5.7084 19.2734 6.82374 20.5288C6.96108 20.6834 7.08728 20.7268 7.2825 20.6112C6.86455 20.131 6.48293 19.6306 6.14806 19.0958C6.06007 18.9553 5.96875 18.8165 5.9139 18.6585C5.89943 18.6151 5.87121 18.5646 5.93011 18.5359C5.97425 18.5144 6.00406 18.5568 6.02765 18.5846C6.16079 18.7407 6.29871 18.8938 6.42056 19.0586C6.77222 19.5346 7.15283 19.9911 7.42939 20.519C7.52316 20.698 7.68901 20.5511 7.81 20.6058C8.04285 20.6077 8.27555 20.5122 8.5084 20.605C8.62982 20.5856 8.75037 20.5963 8.8702 20.6162C8.88713 20.6257 8.89277 20.6352 8.88742 20.6452C8.88206 20.6552 8.87642 20.6597 8.87078 20.6597C9.08554 21.2585 9.41593 21.7804 9.89668 22.2025C9.79263 22.3102 9.79263 22.3102 9.61274 22.3841C10.0894 22.6132 10.5783 22.7838 11.0511 22.9919C11.176 23.0469 11.3336 23.0721 11.3536 23.2524L11.0151 23.4022C10.8797 23.4167 10.7546 23.3837 10.6268 23.3375C10.1514 23.1639 9.70146 22.9365 9.29408 22.7472C9.58732 23.0144 9.92723 23.2253 10.2968 23.3695C10.3961 23.4081 10.5081 23.454 10.5036 23.596C9.54849 23.9288 8.69147 23.7025 7.90276 23.0861L7.87975 23.1485L8.15573 23.5393C8.13604 23.6009 8.08192 23.6261 8.02881 23.6319C7.57946 23.6802 7.33257 23.9969 7.06947 24.3562C7.42418 24.2704 7.7456 24.1825 8.07063 24.1093C8.26919 24.0649 8.46846 23.9963 8.67526 24.0721L9.11564 24.3647C9.08134 24.5145 8.94878 24.52 8.83822 24.5406C8.32707 24.6352 7.81405 24.7207 7.3058 24.8312C7.15442 24.864 6.99813 24.8847 6.86528 24.9799C7.14589 24.9288 7.41636 24.8304 7.70623 24.8272C8.26325 24.8213 8.80609 24.9097 9.33706 25.0672C9.50956 25.1183 9.67353 25.1272 9.84719 25.0779C10.1133 25.0024 10.3873 24.9653 10.6633 24.9524C10.7593 24.9478 10.8734 24.9122 10.9372 25.0319C10.6047 25.3102 10.2407 25.5487 9.85269 25.7424C9.49581 25.7586 9.18424 25.9468 8.83966 26.0105Z" fill="#007F00"/>
<path d="M29.1575 30.6246L28.6104 30.4219C28.5418 30.3804 28.4499 30.3641 28.4368 30.2628L28.7633 30.1157C29.7763 30.4175 30.7656 30.7897 31.7618 31.1409C34.2466 32.0172 36.7803 32.7369 39.2989 33.5056C39.51 33.57 39.7185 33.6422 39.9333 33.6949C40.0769 33.7302 40.1133 33.783 40.04 33.9192C39.8618 34.2493 39.9848 34.2487 39.5819 34.1285C37.7074 33.569 35.8753 32.8839 34.0235 32.2562C32.4028 31.7076 30.7799 31.1681 29.1575 30.6246Z" fill="#007F00"/>
<path d="M29.0356 30.004C29.1693 29.9122 29.325 29.8769 29.477 29.832C30.7125 30.1862 31.9478 30.5402 33.1831 30.894C35.1708 31.4584 37.1823 31.9304 39.1888 32.4193C39.6486 32.5313 40.1071 32.6481 40.5676 32.7569C40.7049 32.7893 40.7683 32.8293 40.6939 32.9866C40.5273 33.3384 40.6613 33.3112 40.191 33.1989C38.8411 32.8766 37.5137 32.4688 36.1794 32.0892C33.9955 31.4678 31.809 30.8561 29.6244 30.2368C29.4221 30.1785 29.2114 30.1336 29.0356 30.004Z" fill="#007F00"/>
<path d="M8.87195 20.6591C8.87195 20.6446 8.87195 20.6301 8.87195 20.6157L9.1103 20.5999C8.43736 19.8445 8.01884 18.9474 7.6391 18.0217C7.78382 18.0455 7.86052 18.1542 7.94026 18.2479C8.60384 19.0294 9.26472 19.8134 9.92289 20.6C9.94215 20.6245 9.96643 20.6445 9.99409 20.6587C10.0218 20.6729 10.0522 20.6811 10.0832 20.6825C10.2387 20.6961 10.3945 20.706 10.5999 20.721C10.1727 20.2366 9.87441 19.7225 9.60335 19.1909C9.35936 18.7133 9.1349 18.2265 9.00306 17.7032C8.98297 17.6272 8.97085 17.5493 8.96689 17.4708C8.96312 17.3695 8.9488 17.243 9.09105 17.2311C9.21985 17.2204 9.26573 17.3382 9.27919 17.4377C9.30639 17.6342 9.34966 17.8235 9.4239 18.0077C9.66992 18.6155 9.97137 19.1961 10.3013 19.7618C10.4482 20.0135 10.5932 20.2683 10.7921 20.4854C11.0275 20.742 11.3304 20.8565 11.6691 20.8922C11.8245 21.1366 12.0919 21.2216 12.3269 21.3523C12.3864 21.3854 12.4675 21.3883 12.4861 21.4746C12.3476 21.5293 12.2008 21.5604 12.052 21.5665C11.808 21.5969 11.6188 21.4463 11.4133 21.3613C11.1908 21.2692 10.9827 21.1424 10.7388 21.1044C10.7128 21.0846 10.7544 21.0641 10.7361 21.0899C10.7311 21.0969 10.7361 21.1044 10.7517 21.1073C11.0662 21.1597 11.3297 21.3397 11.6191 21.4546C11.7013 21.4873 11.8073 21.5054 11.8304 21.6194C11.4158 21.736 10.9786 21.7476 10.5583 21.6533C10.4937 21.6268 10.4213 21.6233 10.3597 21.5873C10.1559 21.522 9.97108 21.4207 9.83085 21.2586C9.69467 21.1013 9.48078 21.1429 9.32607 21.0391C9.15589 20.9349 9.06196 20.7397 8.87195 20.6591Z" fill="#007F00"/>
<path d="M27.823 31.8921C27.9993 31.8187 28.1861 31.7927 28.3729 31.7681C30.1343 32.6901 31.8946 33.6144 33.7 34.4488C35.1826 35.1341 36.6667 35.8163 38.1454 36.5093C38.2178 36.5435 38.4308 36.5128 38.3359 36.7184C38.198 37.0176 38.1297 37.0604 37.9106 36.9624C37.0386 36.5717 36.1893 36.1356 35.3373 35.7042C32.8736 34.4565 30.4092 33.2098 27.9441 31.9643C27.9026 31.943 27.8635 31.9163 27.823 31.8921Z" fill="#007F00"/>
<path d="M30.5689 31.7585L29.9727 31.145C30.5456 31.3217 31.0861 31.5806 31.6394 31.8062C34.1224 32.8193 36.6611 33.6809 39.1792 34.5974C39.2094 34.6064 39.239 34.6175 39.2676 34.6307C39.3482 34.6741 39.5094 34.6699 39.4991 34.7541C39.4839 34.8858 39.3996 35.0155 39.3236 35.1324C39.2737 35.2091 39.1905 35.1404 39.1288 35.1211C38.4663 34.9132 37.8237 34.651 37.1797 34.3935C35.0495 33.5421 32.9337 32.6547 30.7903 31.8366C30.718 31.8087 30.6431 31.7848 30.5689 31.7585Z" fill="#007F00"/>
<path d="M32.1148 30.2864L31.7819 29.8652C32.1405 29.8771 32.4731 30.01 32.8146 30.0958C35.4216 30.7554 38.0604 31.268 40.6913 31.8179C40.8604 31.8532 41.0838 31.8499 41.1787 31.9566C41.2737 32.0632 41.0949 32.2484 41.0756 32.4092C41.0708 32.4443 41.0561 32.4492 41.0314 32.4237C39.8271 32.1777 38.6355 31.8761 37.4424 31.5806C35.7215 31.1541 33.9994 30.732 32.276 30.3141C32.2239 30.3004 32.1692 30.2952 32.1148 30.2864Z" fill="#007F00"/>
<path d="M31.0728 32.6981C31.0083 32.5488 30.9438 32.3992 30.8795 32.2495C32.4569 32.9552 34.0547 33.6138 35.6598 34.2541C36.7225 34.6786 37.7845 35.1045 38.8457 35.5317C38.909 35.5573 39.09 35.5462 38.986 35.6928C38.9013 35.8122 38.9165 36.0895 38.6531 35.9923C38.2314 35.8369 37.8138 35.6682 37.4012 35.4909C35.2983 34.5877 33.2298 33.607 31.1188 32.7223C31.0906 32.7381 31.0753 32.7298 31.0728 32.6981Z" fill="#007F00"/>
<path d="M4.17485 20.2778L4.01956 20.1778C3.1776 19.6355 2.32463 19.1103 1.54272 18.4796C0.792647 17.8749 0.228103 17.1223 -0.23948 16.2899C-0.280146 16.2176 -0.339336 16.1469 -0.318496 16.0474C-0.221825 16.0534 -0.164661 16.1215 -0.101419 16.1747C1.34875 17.4079 2.74566 18.6991 4.08932 20.0484C4.20697 20.1655 4.20422 20.1682 4.17485 20.2778Z" fill="#007F00"/>
<path d="M8.50911 20.6049L7.81085 20.6058L8.23053 20.5654C7.33762 19.7827 6.84124 18.7536 6.34833 17.7183C6.46975 17.8588 6.59247 17.9981 6.71215 18.14C7.16468 18.6764 7.63212 19.2008 8.0505 19.7653C8.24211 20.0241 8.42619 20.2869 8.50911 20.6049Z" fill="#017F00"/>
<path d="M7.91247 26.1938L8.22043 26.4008C8.24576 26.476 8.21681 26.5426 8.17499 26.5991C7.8624 27.0206 7.74938 27.5167 7.63953 28.0147C7.61623 28.1211 7.60538 28.2335 7.5022 28.3017C7.49116 28.3075 7.4784 28.3093 7.4662 28.3066C7.45399 28.304 7.44311 28.2971 7.43548 28.2872C7.43548 27.9254 7.39105 27.5636 7.43881 27.1993C7.49048 26.8118 7.62781 26.4695 7.91247 26.1938Z" fill="#037E00"/>
<path d="M28.8501 31.7289C29.595 31.7072 30.2362 31.9451 30.7536 32.4905C30.7724 32.5104 30.7763 32.5441 30.7873 32.5713L28.8501 31.7289Z" fill="#057F00"/>
<path d="M29.9421 29.7287C30.5733 29.6533 31.1733 29.7117 31.6887 30.1339C31.2706 30.1246 30.885 29.9602 30.4815 29.8792C30.299 29.843 30.1217 29.7798 29.9421 29.7287Z" fill="#067F00"/>
<path d="M12.4854 21.4747C12.2932 21.389 12.0984 21.3087 11.9099 21.2159C11.7788 21.1513 11.5929 21.1158 11.6692 20.8924C11.6692 20.8796 11.6683 20.8667 11.668 20.854C11.9244 21.0465 12.194 21.2206 12.475 21.375C12.5067 21.3924 12.6447 21.4261 12.4854 21.4747Z" fill="#D21B19"/>
<path d="M0.182371 19.4839L0.378463 19.5218C0.383821 19.5251 0.387995 19.53 0.390387 19.5358C0.392778 19.5417 0.393265 19.5481 0.391777 19.5542C0.388159 19.5654 0.384397 19.571 0.380345 19.571L-0.332825 19.5604C-0.172188 19.4599 0.0194184 19.5674 0.182371 19.4839Z" fill="#9A3212"/>
<path d="M5.83414 26.2988L5.89101 26.3538C5.84673 26.4208 5.79723 26.482 5.70953 26.5165C5.72429 26.42 5.7803 26.36 5.83414 26.2988Z" fill="#286B05"/>
<path d="M32.2974 25.0726C32.3478 25.0613 32.4044 25.07 32.4443 25.0259C32.4863 25.0372 32.5311 25.044 32.553 25.1075C32.4602 25.1249 32.377 25.1188 32.2974 25.0726Z" fill="#F5B70C"/>
<path d="M0.612025 15.0164C0.594659 15.0357 0.577341 15.0554 0.560071 15.0756L0.439087 14.8608C0.556019 14.9056 0.585975 14.9588 0.612025 15.0164Z" fill="#216F04"/>
<path d="M31.0728 32.6982L31.1185 32.7231C31.1281 32.7648 31.1376 32.8065 31.1486 32.8548C31.0762 32.8414 31.0473 32.7994 31.0243 32.7506C31.0404 32.7331 31.0566 32.7158 31.0728 32.6982Z" fill="#EA930F"/>
<path d="M10.8233 35.3657L10.9176 35.4149C10.8899 35.4357 10.8573 35.4491 10.8229 35.4537C10.7885 35.4583 10.7535 35.4541 10.7213 35.4414C10.7327 35.3827 10.7819 35.3793 10.8233 35.3657Z" fill="#EE8B0F"/>
<path d="M6.1149 23.2715C6.16946 23.279 6.22054 23.2932 6.25962 23.3525H6.11432C6.11446 23.3255 6.11475 23.2985 6.1149 23.2715Z" fill="#73460E"/>
<path d="M7.43688 28.2876L7.49246 28.2938C7.49599 28.2952 7.4992 28.2974 7.50187 28.3001C7.50454 28.3028 7.50662 28.3061 7.50798 28.3096C7.50934 28.3132 7.50995 28.317 7.50977 28.3208C7.50959 28.3246 7.50862 28.3283 7.50693 28.3317C7.48985 28.3503 7.47263 28.3688 7.45555 28.3875C7.40968 28.3804 7.37364 28.3598 7.35541 28.3151L7.43688 28.2876Z" fill="#CA7F0E"/>
<path d="M0.946772 19.3364L1.08382 19.3874C1.09366 19.4277 1.08903 19.4535 1.03823 19.4316C0.985411 19.4259 0.929984 19.4286 0.888306 19.3859L0.946772 19.3364Z" fill="#BC2016"/>
<path d="M10.4372 18.5228L10.3843 18.5743C10.3503 18.5297 10.3094 18.4665 10.3602 18.4325C10.3959 18.4086 10.4224 18.4804 10.4372 18.5228Z" fill="#EE8E0F"/>
<path d="M29.5118 34.8809L29.5576 34.7832C29.594 34.8376 29.6343 34.9004 29.5752 34.9532C29.5534 34.9728 29.5234 34.9158 29.5118 34.8809Z" fill="#F5BA0C"/>
<path d="M1.13675 8.97114C0.76237 8.97114 0.757305 8.97186 0.698115 8.5338C0.523296 7.24089 0.188419 5.98387 -0.16614 4.73119C-0.515054 3.4982 -0.403911 2.32656 0.320981 1.2406C0.457884 1.03554 0.606219 0.842482 0.798549 0.686331C1.03632 0.492844 1.15036 0.483726 1.37641 0.696461C2.00058 1.28286 2.39247 1.99892 2.51563 2.85073C2.63386 3.66969 2.42445 4.44943 2.21056 5.22758C1.89001 6.39415 1.6521 7.57606 1.56874 8.78503C1.55904 8.92497 1.51982 8.9885 1.37424 8.97316C1.29566 8.96404 1.21577 8.97114 1.13675 8.97114Z" fill="#FBDC09"/>
<path d="M21.2605 3.342C21.2625 4.01465 21.0811 4.653 20.9077 5.29294C20.6102 6.39164 20.3811 7.50278 20.2944 8.64026C20.2691 8.97138 20.2654 8.97123 19.9229 8.97123C19.4508 8.97123 19.4598 8.97007 19.4029 8.51523C19.252 7.31407 18.9492 6.14706 18.6165 4.98585C18.3728 4.13462 18.2258 3.27297 18.4979 2.39829C18.6869 1.78918 18.961 1.22217 19.4225 0.768192C19.7352 0.460378 19.8711 0.460522 20.175 0.773836C20.8667 1.48816 21.2627 2.33245 21.2605 3.342Z" fill="#FBDC09"/>
<path d="M40.6075 3.21102C40.5945 3.91927 40.4425 4.53113 40.2721 5.13996C39.9438 6.31304 39.7135 7.50436 39.6208 8.71985C39.61 8.86037 39.5774 8.91449 39.4297 8.90335C39.2333 8.88888 38.9964 8.9621 38.8485 8.87556C38.6858 8.78034 38.7605 8.51536 38.7347 8.32563C38.5543 7.00002 38.1692 5.72289 37.8375 4.43273C37.5382 3.27064 37.7119 2.18019 38.3776 1.17281C38.5135 0.966735 38.6656 0.776431 38.8562 0.619557C39.0912 0.425925 39.208 0.421438 39.4327 0.631424C40.034 1.19307 40.4113 1.88164 40.5583 2.69221C40.5932 2.88627 40.6158 3.08323 40.6075 3.21102Z" fill="#FBDC09"/>
<path d="M22.5077 8.35493C22.8145 8.02425 22.8904 7.68604 22.8217 7.31093C22.758 6.96361 22.5152 6.82729 22.1978 6.98011C21.7357 7.20254 21.4807 7.6092 21.3019 8.06636C21.208 8.30036 21.135 8.54221 21.0838 8.78908C21.0188 9.11788 20.7755 8.95666 20.6148 8.96636C20.4084 8.97895 20.5258 8.80601 20.5353 8.7241C20.6427 7.80124 20.8755 6.9118 21.3104 6.08662C21.6304 5.47982 22.0629 4.97779 22.7286 4.72526C23.9443 4.26419 24.6871 5.16101 24.5985 6.19762C24.5392 6.89226 24.1915 7.43105 23.6174 7.82077C23.2926 8.04176 22.9395 8.2092 22.5077 8.35493Z" fill="#FBDC09"/>
<path d="M17.1349 8.31653C15.7456 7.90496 15.0489 7.00047 15.0896 5.93737C15.1289 4.91219 15.9603 4.35995 16.9226 4.70944C17.2054 4.81149 17.4655 4.96793 17.6883 5.16993C18.0524 5.49859 18.3116 5.90119 18.5121 6.34389C18.8632 7.11885 19.0684 7.93318 19.1729 8.77616C19.1939 8.94533 19.1331 8.96516 18.9848 8.97659C18.7447 8.99526 18.6323 8.93564 18.5781 8.67268C18.4726 8.16053 18.2849 7.67312 17.9098 7.28339C17.777 7.14519 17.6298 7.02652 17.4489 6.95894C17.1716 6.85517 16.9637 6.96154 16.8862 7.24678C16.7803 7.63868 16.8771 7.98991 17.1349 8.31653Z" fill="#FBDC09"/>
<path d="M-1.6557 8.25625C-1.68073 8.26754 -1.69752 8.28259 -1.70823 8.27897C-2.81474 7.91414 -3.71981 7.10459 -3.61243 5.84771C-3.53008 4.88273 -2.7405 4.37941 -1.81995 4.69793C-1.2845 4.88317 -0.876972 5.23512 -0.567565 5.69967C0.064707 6.64873 0.316082 7.72572 0.468614 8.83483C0.483086 8.94019 0.446473 8.97955 0.342276 8.97232C0.263533 8.96595 0.184405 8.96595 0.105662 8.97232C-0.0202422 8.98433 -0.0716171 8.93527 -0.0996923 8.80835C-0.18826 8.40806 -0.301429 8.01428 -0.518361 7.66045C-0.681168 7.39431 -0.876103 7.15828 -1.15628 7.00922C-1.53066 6.80951 -1.81214 6.96204 -1.85295 7.38418C-1.86742 7.54178 -1.87668 7.70256 -1.8269 7.85394C-1.7816 7.99113 -1.71359 8.1221 -1.6557 8.25625Z" fill="#FBDC09"/>
<path d="M3.80362 8.36156C4.05456 8.05765 4.14877 7.77776 4.12923 7.45606C4.09826 6.94564 3.77221 6.77357 3.34197 7.05519C2.95586 7.30786 2.72706 7.68442 2.57091 8.1054C2.48625 8.33348 2.42316 8.57096 2.36831 8.8083C2.29682 9.1138 2.06339 8.95157 1.90521 8.96749C1.72185 8.98616 1.80174 8.81915 1.81317 8.7426C1.98857 7.56373 2.25485 6.41568 3.02099 5.45432C3.32359 5.07458 3.70796 4.80786 4.17873 4.67183C5.07337 4.41336 5.82648 4.94318 5.88452 5.87299C5.93184 6.63435 5.63285 7.24202 5.04906 7.71394C4.69855 7.99802 4.2877 8.17255 3.80362 8.36156Z" fill="#FBDC09"/>
<path d="M36.4356 8.21963C35.212 8.07824 34.2054 6.70646 34.4754 5.57303C34.6724 4.74654 35.3307 4.36521 36.145 4.60486C36.8314 4.80747 37.2977 5.27505 37.6418 5.8736C38.1483 6.75638 38.3839 7.72599 38.5197 8.7257C38.5412 8.88402 38.4789 8.89633 38.3427 8.90848C38.0954 8.93048 37.9687 8.87722 37.915 8.59835C37.8175 8.09184 37.6276 7.61427 37.2616 7.2286C37.1356 7.09575 36.9975 6.97896 36.8275 6.90689C36.5218 6.77751 36.3027 6.88764 36.2181 7.2108C36.1391 7.51268 36.2004 7.80689 36.4356 8.21963Z" fill="#FBDC09"/>
<path d="M41.9461 8.22006C42.1616 7.93134 42.213 7.61904 42.1718 7.28619C42.1243 6.90443 41.8534 6.75074 41.5108 6.92599C41.0796 7.14567 40.8367 7.53221 40.6556 7.96145C40.5483 8.21571 40.4804 8.48359 40.415 8.75175C40.3419 9.05132 40.1016 8.87664 39.9443 8.89198C39.7651 8.90964 39.8598 8.74234 39.8697 8.66637C39.9923 7.73901 40.2158 6.83916 40.6587 6.00732C40.9337 5.49068 41.291 5.04191 41.8266 4.77114C42.3622 4.50037 42.9153 4.3804 43.4292 4.78923C43.9431 5.19806 44.0192 5.77693 43.9014 6.38113C43.7732 7.03945 43.377 7.52006 42.8053 7.85262C42.537 8.00877 42.2641 8.1655 41.9461 8.22006Z" fill="#FBDC09"/>
<path d="M19.4655 10.819C18.926 11.0242 18.4108 11.0108 17.8582 10.9813C18.0689 10.8258 18.2535 10.6978 18.4286 10.558C18.6738 10.3621 18.8502 10.1111 18.967 9.82112C19.0134 9.70535 19.0719 9.65209 19.2087 9.65542C19.6506 9.66598 20.093 9.65976 20.5353 9.65904C20.6233 9.65904 20.7021 9.6518 20.7391 9.76743C20.9111 10.3072 21.2765 10.6841 21.7629 10.9553C21.7735 10.9614 21.7774 10.9806 21.7975 11.0218C21.2748 11.0166 20.77 11.0082 20.2635 10.8337C20.2372 11.0473 20.3043 11.2427 20.3227 11.4399C20.3642 11.8851 20.2773 12.3029 20.0991 12.7055C20.0531 12.8097 20.0153 12.9582 19.8738 12.9472C19.7391 12.9368 19.6767 12.8075 19.6256 12.6877C19.4454 12.2653 19.3868 11.8247 19.423 11.3693C19.436 11.1981 19.4493 11.0263 19.4655 10.819Z" fill="#FBDC09"/>
<path d="M3.07903 10.9992C2.55703 11.0095 2.04488 11.0127 1.5265 10.824C1.54792 10.9775 1.56499 11.1134 1.58612 11.2479C1.66855 11.7498 1.59522 12.265 1.37599 12.724C1.32983 12.8224 1.29162 12.9555 1.16369 12.9512C1.03576 12.9469 0.971072 12.8247 0.921289 12.715C0.680479 12.1862 0.675269 11.6296 0.732288 11.0664C0.738655 11.0036 0.747917 10.9412 0.753272 10.8783C0.75443 10.8638 0.745023 10.8493 0.737064 10.8234C0.23388 11.026 -0.290433 11.0092 -0.866699 10.9814C-0.683631 10.8528 -0.5379 10.7548 -0.39709 10.6505C-0.112285 10.4396 0.111883 10.1767 0.239668 9.84382C0.297555 9.69403 0.383373 9.65047 0.54126 9.65568C0.967454 9.66798 1.39423 9.6593 1.82085 9.66046C1.89538 9.66046 1.98004 9.63586 2.01434 9.74338C2.19191 10.3069 2.57353 10.6994 3.07903 10.9992Z" fill="#FBDC09"/>
<path d="M41.121 10.9205C40.6 10.9568 40.0935 10.9441 39.5886 10.7593C39.6154 11.009 39.6474 11.2468 39.665 11.4856C39.6954 11.8962 39.6071 12.2856 39.4313 12.6561C39.3853 12.7535 39.3544 12.8857 39.2191 12.8801C39.0863 12.8746 39.0271 12.7564 38.9776 12.6471C38.7523 12.1494 38.7252 11.626 38.7795 11.0924C38.7905 10.9843 38.8216 10.8766 38.7903 10.7584C38.2898 10.9577 37.7712 10.9496 37.2452 10.9244C37.2445 10.8189 37.3336 10.8147 37.3853 10.7811C37.7831 10.5224 38.1278 10.2167 38.305 9.76115C38.3514 9.64219 38.4165 9.59573 38.551 9.59877C38.9934 9.60861 39.4362 9.60239 39.8788 9.60268C39.956 9.60268 40.0424 9.58459 40.0751 9.68748C40.2505 10.2405 40.6217 10.6289 41.121 10.9205Z" fill="#FBDC09"/>
<path d="M1.16412 9.18283C1.59827 9.18283 2.03097 9.18109 2.4644 9.18457C2.54559 9.18457 2.66252 9.13478 2.65688 9.30396C2.6521 9.45056 2.55442 9.41568 2.47598 9.41583C1.58558 9.41669 0.695037 9.41626 -0.195653 9.41452C-0.279155 9.41452 -0.373801 9.43782 -0.368301 9.29397C-0.362802 9.15012 -0.262223 9.18428 -0.183642 9.18399C0.265563 9.18182 0.714767 9.18283 1.16412 9.18283Z" fill="#FADB0A"/>
<path d="M19.8562 9.41504C19.4145 9.41504 18.9734 9.4162 18.5311 9.41403C18.4533 9.41403 18.3537 9.45079 18.3515 9.30231C18.3494 9.15759 18.4407 9.18291 18.524 9.18277C19.4154 9.18277 20.3067 9.18277 21.1978 9.18277C21.2847 9.18277 21.3727 9.16396 21.3654 9.3065C21.3582 9.45122 21.2596 9.41562 21.1812 9.41605C20.7395 9.41808 20.2984 9.41707 19.8562 9.41707V9.41504Z" fill="#F8DA0B"/>
<path d="M39.208 9.34611C38.766 9.34611 38.324 9.3477 37.8821 9.34452C37.8057 9.34452 37.698 9.38446 37.6939 9.23772C37.6905 9.09459 37.7908 9.12194 37.8725 9.12194C38.7566 9.12108 39.6407 9.12141 40.5246 9.12296C40.5993 9.12296 40.7067 9.07781 40.7074 9.23005C40.7083 9.39213 40.5951 9.35118 40.5097 9.35176C40.0756 9.35436 39.6414 9.35291 39.2073 9.35291L39.208 9.34611Z" fill="#F1D50E"/>
<path d="M7.50654 28.3318C7.50392 28.3185 7.49903 28.3056 7.49207 28.2939C7.57311 27.8919 7.64648 27.4879 7.78483 27.0999C7.87919 26.8353 8.04083 26.6123 8.22072 26.4009C8.51533 26.5452 8.82188 26.6639 9.13693 26.7554C9.17152 26.8783 9.07702 26.9436 9.01479 27.0204C8.82376 27.2569 8.67354 27.5125 8.62839 27.8265C8.82086 27.5685 9.01102 27.3093 9.21826 27.0633C9.31377 26.9498 9.41594 26.8606 9.56399 26.8343C10.0018 26.8999 10.4387 26.851 10.9181 26.797C10.287 27.5784 9.65227 28.2643 8.63345 28.4132C8.24981 28.4693 7.88092 28.3744 7.50654 28.3318Z" fill="#D9121A"/>
<path d="M10.9373 25.0323C10.5312 25.0217 10.1376 25.1006 9.74847 25.2049C9.62256 25.2388 9.51041 25.2308 9.38378 25.1905C8.71808 24.9751 8.0379 24.8589 7.33472 24.9685C7.10664 25.0039 6.90853 25.1164 6.69724 25.2068C6.64384 24.965 6.72618 24.8526 6.96554 24.8039C7.57567 24.6798 8.18494 24.5521 8.79999 24.4537C8.90853 24.4365 9.01808 24.4226 9.11562 24.3657C9.67264 24.6638 10.2602 24.8556 10.8956 24.8851C10.9473 24.8876 11.0227 24.8751 11.0346 24.9423C11.0428 24.9883 10.9809 25.0123 10.9373 25.0323Z" fill="#D9121A"/>
<path d="M8.6764 24.0717C8.07973 24.1931 7.48812 24.3362 6.89087 24.4799C7.21214 24.0252 7.48696 23.5171 8.15686 23.5393L8.6764 24.0717Z" fill="#D8131A"/>
<path d="M10.5049 23.5954C10.4773 23.5683 10.4541 23.5272 10.4211 23.516C9.92704 23.3509 9.50938 23.0602 9.11864 22.7259C9.07422 22.6878 8.94831 22.6969 8.99954 22.5993C9.04788 22.5065 9.13601 22.5637 9.20707 22.5977C9.47668 22.7268 9.74368 22.8618 10.0175 22.9826C10.3476 23.1286 10.6832 23.2624 11.016 23.4014C10.8555 23.4926 10.6881 23.565 10.5049 23.5954Z" fill="#D8131A"/>
<path d="M11.3547 23.2518C11.0054 23.0202 10.5999 22.9134 10.222 22.7453C9.95806 22.6278 9.69091 22.5175 9.40625 22.3959C9.56645 22.2774 9.7378 22.2535 9.89829 22.2021C10.4048 22.6308 10.9837 22.9204 11.652 23.0793C11.5576 23.1854 11.4515 23.211 11.3547 23.2518Z" fill="#D8141A"/>
<path d="M9.56426 26.8342C9.22938 27.1493 8.95326 27.5109 8.70955 27.8992C8.67106 27.9606 8.62866 28.0669 8.54327 28.0319C8.45789 27.9969 8.49551 27.8916 8.51346 27.8188C8.61238 27.4107 8.82938 27.0408 9.13734 26.7554L9.56426 26.8342Z" fill="#027F00"/>
<path d="M9.32605 21.0391C9.57482 21.0148 9.80203 21.0213 9.96614 21.2676C10.0615 21.4109 10.2394 21.4757 10.3865 21.5668C10.3949 21.607 10.3865 21.6296 10.3398 21.6102C9.94182 21.5264 9.60261 21.3384 9.32605 21.0391Z" fill="#D71619"/>
<path d="M11.8304 21.6197C11.4644 21.4026 11.0501 21.2963 10.6686 21.108C10.854 21.0654 11.0243 21.0547 11.1936 21.1761C11.4521 21.3611 11.7553 21.4591 12.0519 21.5669C11.9859 21.6168 11.9064 21.6115 11.8304 21.6197Z" fill="#CE1819"/>
<path d="M8.83966 26.0109C9.05442 25.8682 9.30276 25.8015 9.53749 25.7062C9.65326 25.6593 9.74791 25.7309 9.85283 25.7435C9.53532 25.9104 9.19986 26.0065 8.83966 26.0109Z" fill="#D61C19"/>
<path d="M28.4363 30.2632C28.4934 30.3173 28.5776 30.3416 28.61 30.4224C28.5262 30.4436 28.4428 30.4098 28.3854 30.3697C28.2763 30.2927 28.3921 30.2874 28.4363 30.2632Z" fill="#CD3C15"/>
<path d="M10.3398 21.6113L10.3865 21.5679C10.4483 21.5877 10.5146 21.5987 10.5583 21.6547C10.4809 21.6619 10.4055 21.6609 10.3398 21.6113Z" fill="#BF2A16"/>
<path d="M3.4314 20.8184C3.59912 20.7785 3.74384 20.7416 3.88972 20.7102C4.06526 20.6722 4.22908 20.7136 4.34037 20.8505C4.5414 21.0983 4.76706 21.325 5.01389 21.5272C4.65687 21.5375 3.84789 21.177 3.4314 20.8184Z" fill="#D7131A"/>
<path d="M9.46686 21.944C9.16773 22.2143 8.90767 22.1969 8.60521 21.9965C8.25471 21.765 7.86643 21.5894 7.56238 21.2817C8.1919 21.5019 8.80869 21.7492 9.46686 21.944Z" fill="#D7131A"/>
<path d="M3.24688 21.2917C2.84601 21.4322 2.51432 21.3242 2.22546 21.0503C2.65803 20.8323 2.90202 20.8894 3.24688 21.2917Z" fill="#D51419"/>
<path d="M6.83054 22.7509C6.30826 22.7882 5.95008 22.4384 5.51361 22.2114C5.73069 22.163 5.97454 22.1995 6.18004 22.3096C6.41477 22.4355 6.64646 22.5672 6.87946 22.6965C6.8919 22.7403 6.87772 22.7606 6.83054 22.7509Z" fill="#D41519"/>
<path d="M2.55441 20.6319C2.38075 20.7012 2.21794 20.7887 2.05499 20.8751C1.88451 20.9656 1.78003 20.7638 1.62793 20.6882C2.42417 20.4188 2.42417 20.4188 2.55441 20.6319Z" fill="#D41419"/>
<path d="M5.51043 21.2682C5.77598 21.3695 6.03517 21.484 6.27106 21.6445C6.33228 21.686 6.44472 21.7363 6.39321 21.816C6.34169 21.8957 6.23402 21.8458 6.16166 21.7963C5.92664 21.6371 5.69393 21.4749 5.46035 21.3137C5.45428 21.2729 5.45703 21.2426 5.51043 21.2682Z" fill="#D21619"/>
<path d="M3.75079 21.8834C4.01432 21.9213 4.30578 21.8979 4.47713 22.2287C4.16584 22.2103 3.94457 22.0405 3.70043 21.9381C3.68871 21.8937 3.70231 21.872 3.75079 21.8834Z" fill="#CC1918"/>
<path d="M3.54209 20.5344C3.30823 20.525 3.04832 20.6576 2.83746 20.4089C3.12024 20.2631 3.31431 20.4914 3.54209 20.5344Z" fill="#BC2116"/>
<path d="M7.43024 22.5747C7.66902 22.5738 7.88291 22.6563 8.15498 22.7287C7.79869 22.9931 7.64876 22.6361 7.43024 22.5747Z" fill="#C91A18"/>
<path d="M8.52969 21.1878L7.92578 21.0358C8.1582 21.0131 8.40726 20.8849 8.58873 21.1291C8.59727 21.1773 8.58367 21.2028 8.52969 21.1878Z" fill="#CA1A18"/>
<path d="M8.46771 23.0126C8.6803 22.7591 8.79492 23.0018 8.94629 23.0771C8.8023 23.1371 8.74832 23.1299 8.46771 23.0126Z" fill="#C51C17"/>
<path d="M0.380299 19.5707C0.380299 19.5543 0.379142 19.5378 0.378418 19.5215L0.585943 19.5834C0.497955 19.6348 0.437463 19.6174 0.380299 19.5707Z" fill="#52560A"/>
<path d="M5.51039 21.2683L5.46018 21.3135L5.27393 21.1993C5.38073 21.1773 5.44657 21.2199 5.51039 21.2683Z" fill="#A22D13"/>
<path d="M1.03821 19.4315L1.08379 19.3872C1.12996 19.4076 1.18973 19.4044 1.22171 19.4729C1.14848 19.4929 1.09117 19.4751 1.03821 19.4315Z" fill="#7C410F"/>
<path d="M3.75083 21.8834L3.70046 21.9381C3.65604 21.9278 3.58918 21.8971 3.61074 21.8646C3.6433 21.8154 3.70567 21.8531 3.75083 21.8834Z" fill="#58530B"/>
<path d="M6.83057 22.7507C6.84692 22.7326 6.86327 22.7144 6.87977 22.6963C6.91609 22.715 6.98831 22.7223 6.95444 22.7769C6.9323 22.8125 6.86863 22.7821 6.83057 22.7507Z" fill="#396307"/>
<path d="M8.52966 21.1878L8.58871 21.1299C8.62923 21.1478 8.70086 21.1733 8.67554 21.2111C8.64269 21.2569 8.57554 21.2226 8.52966 21.1878Z" fill="#9B3112"/>
</g>
</g>
<defs>
<clipPath id="clip0_1350_16692">
<rect width="40" height="40" fill="white"/>
</clipPath>
</defs>
</svg>
