<svg width="40" height="40" viewBox="0 0 40 40" fill="none" xmlns="http://www.w3.org/2000/svg">
<g clip-path="url(#clip0_1350_9404)">
<path d="M20 40C31.0457 40 40 31.0457 40 20C40 8.9543 31.0457 0 20 0C8.9543 0 0 8.9543 0 20C0 31.0457 8.9543 40 20 40Z" fill="#F9F9F9"/>
<path d="M20.0001 40.0001C28.5993 40.0001 35.9303 34.5726 38.756 26.9565H1.24402C4.06996 34.5726 11.4007 40.0001 20.0001 40.0001Z" fill="#D80027"/>
<path d="M27.8269 16.5217V13.913H28.6964V12.1738H26.9573V13.0435H25.2182V12.1738H23.4791V13.913H24.3486V16.5217H22.6095V10.4349H23.4791V8.6958H21.7399V9.56518H20.8703V8.6958H19.1313V9.56518H18.2616V8.6958H16.5225V10.4349H17.3921V16.5217H15.653V13.913H16.5225V12.1738H14.7834V13.0435H13.0443V12.1738H11.3052V13.913H12.1747V16.5217H10.4355V23.4782H29.566V16.5217H27.8269Z" fill="#D80027"/>
<path d="M20.0006 22.6084C18.5599 22.6084 17.3919 23.7764 17.3919 25.2171C17.3919 26.3527 18.118 27.3186 19.1311 27.6768V31.3041H16.5224V34.7824H20.8702V27.6768C21.8833 27.3187 22.6094 26.3529 22.6094 25.2171C22.6093 23.7764 21.4413 22.6084 20.0006 22.6084ZM20.0006 26.0867C19.5204 26.0867 19.1311 25.6973 19.1311 25.2171C19.1311 24.7369 19.5204 24.3476 20.0006 24.3476C20.4808 24.3476 20.8701 24.7369 20.8701 25.2171C20.8701 25.6973 20.4808 26.0867 20.0006 26.0867Z" fill="#FFDA44"/>
</g>
<defs>
<clipPath id="clip0_1350_9404">
<rect width="40" height="40" fill="white"/>
</clipPath>
</defs>
</svg>
