<svg width="40" height="40" viewBox="0 0 40 40" fill="none" xmlns="http://www.w3.org/2000/svg">
<g clip-path="url(#clip0_1350_10231)">
<path d="M20 40C31.0457 40 40 31.0457 40 20C40 8.9543 31.0457 0 20 0C8.9543 0 0 8.9543 0 20C0 31.0457 8.9543 40 20 40Z" fill="#F0F0F0"/>
<path d="M33.5009 5.24508C29.9431 1.98789 25.204 0 20.0002 0C19.1484 0 18.3089 0.0536719 17.485 0.157031L7.82632 11.3044L0.633118 25.0102C1.09781 26.8119 1.80827 28.5145 2.72491 30.0819L20.0002 20L33.5009 5.24508Z" fill="#FFDA44"/>
<path d="M36.6509 31.0811L8.66901 36.4811C11.89 38.6999 15.793 40 20 40C26.947 40 33.0656 36.4575 36.6509 31.0811Z" fill="#6DA544"/>
<path d="M33.5034 5.24756L2.73602 30.1011C3.54079 31.4736 4.5043 32.7416 5.60173 33.8798L39.9999 19.9998C39.9999 14.1593 37.4959 8.90397 33.5034 5.24756Z" fill="#D80027"/>
<path d="M0 20.0002C0 21.7304 0.219844 23.4093 0.632891 25.0104L17.4848 0.157227C7.62641 1.39426 0 9.80644 0 20.0002Z" fill="#0052B4"/>
</g>
<defs>
<clipPath id="clip0_1350_10231">
<rect width="40" height="40" fill="white"/>
</clipPath>
</defs>
</svg>
