<svg width="40" height="40" viewBox="0 0 40 40" fill="none" xmlns="http://www.w3.org/2000/svg">
<g clip-path="url(#clip0_1350_10168)">
<path d="M40 19.9998C40 31.0454 31.0456 39.9998 20 39.9998C8.95437 39.9998 0 31.0454 0 19.9998C0.869531 19.9998 20 17.3911 20 17.3911L40 19.9998Z" fill="#338AF3"/>
<path d="M0 20C0 8.95437 8.95437 0 20 0C31.0456 0 40 8.95437 40 20" fill="#F0F0F0"/>
<path d="M27.9386 13.8003L19.9999 21.7391L12.0611 13.8003C11.0345 15.3243 10.4347 17.1586 10.4347 19.1304V21.739C10.4347 25.9278 13.1413 29.496 16.8974 30.7875C16.396 31.77 16.4806 32.9962 17.2152 33.913C18.1908 33.131 19.2009 32.3215 20.0578 31.635C20.9146 32.3216 21.9248 33.1311 22.9003 33.913C23.6435 32.9855 23.722 31.7409 23.2009 30.7526C26.9056 29.4331 29.565 25.8911 29.565 21.739V19.1304C29.5651 17.1586 28.9653 15.3244 27.9386 13.8003Z" fill="#6DA544"/>
<path d="M19.9998 28.6955C16.164 28.6955 13.0433 25.5748 13.0433 21.739V19.1303C13.0433 15.2945 16.164 12.1738 19.9998 12.1738C23.8356 12.1738 26.9563 15.2945 26.9563 19.1303V21.739C26.9563 25.5748 23.8357 28.6955 19.9998 28.6955Z" fill="#FFDA44"/>
<path d="M24.3478 21.7392V19.1305C24.3478 16.7331 22.3974 14.7827 20 14.7827C17.6027 14.7827 15.6522 16.7332 15.6522 19.1305V21.7392L20 22.6088L24.3478 21.7392Z" fill="#338AF3"/>
<path d="M15.6522 21.7393C15.6522 24.1367 17.6027 26.0871 20 26.0871C22.3974 26.0871 24.3478 24.1366 24.3478 21.7393H15.6522Z" fill="#6DA544"/>
<path d="M25.2171 12.1739C25.2171 10.7332 24.0491 9.5652 22.6084 9.5652C21.9401 9.5652 21.3309 9.81676 20.8693 10.23V8.69559H21.7388V6.95645H20.8693V6.08691H19.1302V6.95645H18.2606V8.69559H19.1302V10.23C18.6685 9.81676 18.0593 9.5652 17.391 9.5652C15.9503 9.5652 14.7823 10.7332 14.7823 12.1739C14.7823 12.9463 15.1184 13.64 15.6519 14.1178V15.6522H24.3475V14.1178C24.8811 13.64 25.2171 12.9463 25.2171 12.1739Z" fill="#FFDA44"/>
</g>
<defs>
<clipPath id="clip0_1350_10168">
<rect width="40" height="40" fill="white"/>
</clipPath>
</defs>
</svg>
