<svg width="40" height="40" viewBox="0 0 40 40" fill="none" xmlns="http://www.w3.org/2000/svg">
<g clip-path="url(#clip0_1350_9548)">
<path d="M20 40C31.0457 40 40 31.0457 40 20C40 8.9543 31.0457 0 20 0C8.9543 0 0 8.9543 0 20C0 31.0457 8.9543 40 20 40Z" fill="#F0F0F0"/>
<path d="M20 0C11.4007 0 4.06988 5.4275 1.24402 13.0435H38.7561C35.9302 5.4275 28.5993 0 20 0Z" fill="#A2001D"/>
<path d="M20 40.0001C28.5993 40.0001 35.9302 34.5726 38.7561 26.9565H1.24402C4.06988 34.5726 11.4007 40.0001 20 40.0001Z" fill="black"/>
<path d="M15.2175 18.6953C15.2065 18.6953 15.1958 18.696 15.1849 18.6961V18.6953H11.3617C11.5555 17.9464 12.2351 17.3909 13.0436 17.3909V14.7822C10.6462 14.7822 8.69576 16.7327 8.69576 19.13V21.2605V21.304H15.1849H15.2175C15.4572 21.304 15.6522 21.4991 15.6522 21.7388V22.6083H6.95654V25.217H18.2609V21.7387C18.2609 20.0606 16.8956 18.6953 15.2175 18.6953Z" fill="#496E2D"/>
<path d="M21.7392 22.6083V14.7822H19.1305V25.2171H23.4783V22.6083H21.7392Z" fill="#496E2D"/>
<path d="M30.4344 22.6084V14.7822H27.8257V22.6084H26.9561V19.9997H24.3474V25.2171H32.1735V22.6084H30.4344Z" fill="#496E2D"/>
</g>
<defs>
<clipPath id="clip0_1350_9548">
<rect width="40" height="40" fill="white"/>
</clipPath>
</defs>
</svg>
