<svg width="40" height="40" viewBox="0 0 40 40" fill="none" xmlns="http://www.w3.org/2000/svg">
<g clip-path="url(#clip0_1350_9198)">
<path d="M20 40C31.0457 40 40 31.0457 40 20C40 8.9543 31.0457 0 20 0C8.9543 0 0 8.9543 0 20C0 31.0457 8.9543 40 20 40Z" fill="#F0F0F0"/>
<path d="M18.2603 20C18.2603 20 5.86902 34.1449 5.8573 34.1421C9.47651 37.7614 14.4766 40 19.9995 40C31.0451 40 39.9994 31.0456 39.9994 20H18.2603Z" fill="#D80027"/>
<path d="M5.85828 5.85791C-1.95219 13.6684 -1.95219 26.3317 5.85828 34.1423C9.08586 30.9147 12.19 27.8106 20.0005 20.0001L5.85828 5.85791Z" fill="#0052B4"/>
</g>
<defs>
<clipPath id="clip0_1350_9198">
<rect width="40" height="40" fill="white"/>
</clipPath>
</defs>
</svg>
