<svg width="40" height="40" viewBox="0 0 40 40" fill="none" xmlns="http://www.w3.org/2000/svg">
<g clip-path="url(#clip0_1350_10151)">
<path d="M1.98453 11.3046C0.713125 13.9339 0 16.8837 0 20.0002C0 23.1167 0.713125 26.0664 1.98453 28.6958L20 30.435L38.0155 28.6958C39.2869 26.0664 40 23.1167 40 20.0002C40 16.8837 39.2869 13.9339 38.0155 11.3046L20 9.56543L1.98453 11.3046Z" fill="#F0F0F0"/>
<path d="M1.98523 28.6958C5.22007 35.3857 12.0709 40.0002 20 40.0002C27.9291 40.0002 34.7799 35.3857 38.0148 28.6958H1.98523Z" fill="#496E2D"/>
<path d="M1.98523 11.3044H38.0148C34.7799 4.61445 27.9292 0 20 0C12.0708 0 5.22007 4.61445 1.98523 11.3044Z" fill="black"/>
<path d="M5.85785 5.85791C-1.95262 13.6684 -1.95262 26.3317 5.85785 34.1423C9.08543 30.9147 12.1896 27.8106 20 20.0001L5.85785 5.85791Z" fill="#D80027"/>
<path d="M25.2175 20C25.2175 17.0861 27.2653 14.6518 30 14.0546C29.5797 13.9629 29.1436 13.9131 28.6957 13.9131C25.3339 13.9131 22.6087 16.6382 22.6087 20C22.6087 23.3618 25.3339 26.087 28.6957 26.087C29.1435 26.087 29.5796 26.0372 30 25.9454C27.2653 25.3482 25.2175 22.9139 25.2175 20Z" fill="#D80027"/>
<path d="M30.2556 16.0874L31.1191 18.7447H33.9129L31.6526 20.3868L32.516 23.044L30.2556 21.4018L27.9953 23.044L28.8589 20.3868L26.5984 18.7447H29.3922L30.2556 16.0874Z" fill="#D80027"/>
</g>
<defs>
<clipPath id="clip0_1350_10151">
<rect width="40" height="40" fill="white"/>
</clipPath>
</defs>
</svg>
