<svg width="40" height="40" viewBox="0 0 40 40" fill="none" xmlns="http://www.w3.org/2000/svg">
<g clip-path="url(#clip0_1350_10457)">
<path d="M20 40C31.0457 40 40 31.0457 40 20C40 8.9543 31.0457 0 20 0C8.9543 0 0 8.9543 0 20C0 31.0457 8.9543 40 20 40Z" fill="#F0F0F0"/>
<path d="M8.72772 3.47828C11.9375 1.28406 15.8186 0 20.0001 0C24.1817 0 28.0628 1.28406 31.2726 3.47828L20.0001 4.34781L8.72772 3.47828Z" fill="#FFDA44"/>
<path d="M5.85891 34.1413L15.0809 24.9195L20 16.522L24.9185 24.9189L34.1411 34.1413C37.7606 30.5223 40 25.5231 40 20.0002C40 13.1361 36.5415 7.08031 31.2724 3.47852H8.72758C3.45852 7.08031 0 13.1361 0 20.0002C0 25.5231 2.23938 30.5223 5.85891 34.1413Z" fill="#D80027"/>
<path d="M38.4803 27.6583L23.8577 21.5991L24.9175 24.9182L34.1408 34.1415C35.9824 32.3001 37.4666 30.1015 38.4803 27.6583Z" fill="#0052B4"/>
<path d="M40 20.0002C40 17.2873 39.4593 14.701 38.4806 12.3423L20 20.0002H40Z" fill="#0052B4"/>
<path d="M34.1411 5.85914C33.262 4.98024 32.302 4.18234 31.2724 3.47852H26.8462L20 20.0002L34.1411 5.85914Z" fill="#0052B4"/>
<path d="M20.0003 3.47852H13.1541L20.0003 20.0002V3.47852Z" fill="#0052B4"/>
<path d="M5.85911 5.85889C4.01754 7.70029 2.5334 9.89881 1.51965 12.342L20.0002 20L5.85911 5.85889Z" fill="#0052B4"/>
<path d="M0 20C0 22.7129 0.540703 25.2992 1.51937 27.6579L20 20H0Z" fill="#0052B4"/>
<path d="M8.72772 36.5215C11.9374 38.7157 15.8186 39.9998 20.0001 39.9998C24.1817 39.9998 28.0628 38.7157 31.2726 36.5215H8.72772Z" fill="#FFDA44"/>
<path d="M20.0004 19.9999L24.9194 24.9189C26.1784 23.66 26.957 21.921 26.957 19.9999C26.957 16.1579 23.8425 13.0435 20.0005 13.0435C16.1586 13.0435 13.0439 16.1579 13.0439 19.9999C13.0439 21.9209 13.8225 23.66 15.0815 24.9189L20.0004 19.9999Z" fill="#FFDA44"/>
<path d="M23.0436 30.0001C23.0436 31.6809 21.6808 32.174 20.0001 32.174C18.3193 32.174 16.9565 31.6809 16.9565 30.0001C16.9565 28.3192 18.3193 26.9565 20.0001 26.9565C21.6808 26.9565 23.0436 28.3192 23.0436 30.0001Z" fill="#FFDA44"/>
<path d="M23.0436 30C23.0436 31.6809 21.6809 33.0435 20.0001 33.0435C18.3193 33.0435 16.9566 31.6809 16.9566 30" fill="#0052B4"/>
</g>
<defs>
<clipPath id="clip0_1350_10457">
<rect width="40" height="40" fill="white"/>
</clipPath>
</defs>
</svg>
