<svg width="40" height="40" viewBox="0 0 40 40" fill="none" xmlns="http://www.w3.org/2000/svg">
<g clip-path="url(#clip0_1350_8984)">
<path d="M0 19.9997C0 23.4645 0.881484 26.7234 2.4318 29.5649L20 31.3041L37.5682 29.5649C39.1185 26.7234 40 23.4645 40 19.9997C40 16.5348 39.1185 13.2759 37.5682 10.4345L20 8.69531L2.4318 10.4345C0.881484 13.2759 0 16.5348 0 19.9997H0Z" fill="#D80027"/>
<path d="M2.43176 10.4348H37.5681C34.1761 4.21789 27.5808 0 20 0C12.4191 0 5.82387 4.21789 2.43176 10.4348Z" fill="#0052B4"/>
<path d="M20 40.0002C27.5808 40.0002 34.1761 35.7823 37.5682 29.5654H2.43176C5.82387 35.7823 12.4191 40.0002 20 40.0002Z" fill="#0052B4"/>
<path d="M26.956 23.9128V21.3041H25.2169V17.8258L23.4778 16.0867L21.7386 17.8258V14.3475L19.9995 12.6084L18.2603 14.3475V17.8258L16.5212 16.0867L14.782 17.8258V21.3041H13.043V23.9128H11.3038V26.5215H28.6951V23.9128H26.956Z" fill="#F0F0F0"/>
</g>
<defs>
<clipPath id="clip0_1350_8984">
<rect width="40" height="40" fill="white"/>
</clipPath>
</defs>
</svg>
