<svg width="40" height="40" viewBox="0 0 40 40" fill="none" xmlns="http://www.w3.org/2000/svg">
<g clip-path="url(#clip0_1350_10302)">
<path d="M38.756 26.9563C39.5599 24.7897 40 22.4462 40 19.9998C40 17.5534 39.5599 15.21 38.756 13.0433L20 11.3042L1.24398 13.0433C0.440078 15.21 0 17.5534 0 19.9998C0 22.4462 0.440078 24.7897 1.24398 26.9563L20 28.6955L38.756 26.9563Z" fill="#F0F0F0"/>
<path d="M19.9999 40.0001C28.5991 40.0001 35.93 34.5726 38.7558 26.9565H1.24377C4.06971 34.5726 11.4005 40.0001 19.9999 40.0001Z" fill="#D80027"/>
<path d="M19.9999 0C11.4005 0 4.06971 5.4275 1.24377 13.0435H38.7559C35.93 5.4275 28.5991 0 19.9999 0Z" fill="#496E2D"/>
<path d="M20 15.6519L21.0791 18.9732H24.5716L21.7462 21.0261L22.8255 24.3475L20 22.2949L17.1745 24.3475L18.2538 21.0261L15.4284 18.9732H18.9208L20 15.6519Z" fill="black"/>
<path d="M25.9422 3.91309V7.97098C25.9422 8.61043 25.4221 9.13043 24.7828 9.13043V10.8696C26.3811 10.8696 27.6814 9.56933 27.6814 7.97098V3.91309H25.9422Z" fill="#F0F0F0"/>
<path d="M13.4785 7.97098C13.4785 8.61043 12.9584 9.13043 12.319 9.13043V10.8696C13.9174 10.8696 15.2176 9.56933 15.2176 7.97098V3.91309H13.4785V7.97098Z" fill="#F0F0F0"/>
<path d="M23.3331 3.91309H25.0723V7.97098H23.3331V3.91309Z" fill="#F0F0F0"/>
<path d="M20.725 6.23184C20.725 6.39168 20.5949 6.52176 20.4351 6.52176C20.2753 6.52176 20.1452 6.39168 20.1452 6.23184V3.91309H18.4061V6.23184C18.4061 6.39168 18.2761 6.52176 18.1162 6.52176C17.9564 6.52176 17.8264 6.39168 17.8264 6.23184V3.91309H16.0872V6.23184C16.0872 7.35074 16.9974 8.2609 18.1162 8.2609C18.5471 8.2609 18.9468 8.12551 19.2756 7.89559C19.6046 8.12551 20.0042 8.2609 20.435 8.2609C20.5218 8.2609 20.6072 8.2548 20.6911 8.2441C20.5678 8.75184 20.1105 9.13043 19.5655 9.13043V10.8696C21.1638 10.8696 22.464 9.56933 22.464 7.97098V6.23184V3.91309H20.7249L20.725 6.23184Z" fill="#F0F0F0"/>
<path d="M16.0871 9.13037H18.6958V10.8695H16.0871V9.13037Z" fill="#F0F0F0"/>
</g>
<defs>
<clipPath id="clip0_1350_10302">
<rect width="40" height="40" fill="white"/>
</clipPath>
</defs>
</svg>
