<svg width="40" height="40" viewBox="0 0 40 40" fill="none" xmlns="http://www.w3.org/2000/svg">
<g clip-path="url(#clip0_1350_9597)">
<path d="M20 40C31.0457 40 40 31.0457 40 20C40 8.9543 31.0457 0 20 0C8.9543 0 0 8.9543 0 20C0 31.0457 8.9543 40 20 40Z" fill="#338AF3"/>
<path d="M31.3049 20.2173H8.69617C8.69617 21.7781 10.0556 23.0434 11.6163 23.0434H11.5223C11.5223 24.6042 12.7875 25.8695 14.3484 25.8695C14.3484 27.4303 15.6136 28.6956 17.1744 28.6956H22.8266C24.3875 28.6956 25.6527 27.4303 25.6527 25.8695C27.2136 25.8695 28.4788 24.6042 28.4788 23.0434H28.3848C29.9453 23.0434 31.3049 21.7781 31.3049 20.2173Z" fill="#FFDA44"/>
<path d="M27.8255 16.5215C27.8255 20.8437 24.3216 24.3476 19.9994 24.3476C15.6772 24.3476 12.1733 20.8437 12.1733 16.5215" fill="#338AF3"/>
<path d="M25.9773 16.5219L23.5347 17.6709L24.8354 20.0365L22.1831 19.5291L21.847 22.2085L19.9996 20.2378L18.1521 22.2085L17.8161 19.5291L15.1637 20.0364L16.4643 17.6708L14.0219 16.5219L16.4644 15.373L15.1637 13.0075L17.816 13.5148L18.1522 10.8354L19.9996 12.8061L21.8471 10.8354L22.1831 13.5148L24.8355 13.0075L23.5348 15.3731L25.9773 16.5219Z" fill="#FFDA44"/>
</g>
<defs>
<clipPath id="clip0_1350_9597">
<rect width="40" height="40" fill="white"/>
</clipPath>
</defs>
</svg>
