<svg width="40" height="40" viewBox="0 0 40 40" fill="none" xmlns="http://www.w3.org/2000/svg">
<g clip-path="url(#clip0_1350_9001)">
<path d="M19.9994 0C17.553 0 15.2095 0.440078 13.0429 1.24398L12.1733 20L13.0429 38.756C15.2095 39.56 17.553 40 19.9994 40C22.4458 40 24.7893 39.56 26.9559 38.756L27.8255 20L26.956 1.24398C24.7893 0.440078 22.4458 0 19.9994 0V0Z" fill="#338AF3"/>
<path d="M40.0001 20.0002C40.0001 11.4009 34.5726 4.07 26.9566 1.24414V38.7562C34.5726 35.9303 40.0001 28.5995 40.0001 20.0002Z" fill="#FFDA44"/>
<path d="M13.0435 38.7562V1.24414C5.4275 4.07 0 11.4009 0 20.0002C0 28.5995 5.4275 35.9303 13.0435 38.7562Z" fill="#F0F0F0"/>
</g>
<defs>
<clipPath id="clip0_1350_9001">
<rect width="40" height="40" fill="white"/>
</clipPath>
</defs>
</svg>
