<svg width="40" height="40" viewBox="0 0 40 40" fill="none" xmlns="http://www.w3.org/2000/svg">
<g clip-path="url(#clip0_1350_8963)">
<path d="M40 19.9999C40 17.5535 39.56 15.21 38.756 13.0434L20 12.1738L1.24398 13.0434C0.440078 15.21 0 17.5535 0 19.9999C0 22.4463 0.440078 24.7898 1.24398 26.9564L20 27.826L38.756 26.9565C39.56 24.7898 40 22.4463 40 19.9999Z" fill="#496E2D"/>
<path d="M20.0001 40.0006C28.5994 40.0006 35.9302 34.5731 38.7561 26.957H1.24406C4.06992 34.5731 11.4008 40.0006 20.0001 40.0006Z" fill="#D80027"/>
<path d="M1.24406 13.0435H38.7562C35.9302 5.4275 28.5994 0 20.0001 0C11.4008 0 4.06992 5.4275 1.24406 13.0435Z" fill="#F0F0F0"/>
</g>
<defs>
<clipPath id="clip0_1350_8963">
<rect width="40" height="40" fill="white"/>
</clipPath>
</defs>
</svg>
