<svg width="40" height="40" viewBox="0 0 40 40" fill="none" xmlns="http://www.w3.org/2000/svg">
<g clip-path="url(#clip0_1350_10613)">
<path d="M20 40C31.0457 40 40 31.0457 40 20C40 8.9543 31.0457 0 20 0C8.9543 0 0 8.9543 0 20C0 31.0457 8.9543 40 20 40Z" fill="#338AF3"/>
<path d="M19.9421 13.0435C16.1 13.0435 12.9856 16.158 12.9856 19.9999C12.9856 23.8419 16.1001 26.9564 19.9421 26.9564C23.784 26.9564 26.8986 23.8419 26.8986 19.9999C26.8986 16.158 23.7839 13.0435 19.9421 13.0435ZM18.2029 19.9999C18.2029 19.0395 18.9815 18.2608 19.9421 18.2608C20.9026 18.2608 21.6812 19.0395 21.6812 19.9999C21.6812 20.9605 20.9026 21.7391 19.9421 21.7391C18.9815 21.7391 18.2029 20.9605 18.2029 19.9999ZM21.7452 17.025C21.4753 16.861 21.1811 16.7337 20.8695 16.6477V14.8664C21.654 15.0072 22.3773 15.3228 22.998 15.7723L21.7452 17.025ZM19.1304 16.6179C18.8041 16.696 18.4958 16.8199 18.2126 16.9827L16.954 15.7241C17.5902 15.2786 18.3299 14.9709 19.1304 14.8456V16.6179ZM18.2125 23.0172C18.4958 23.1799 18.804 23.3039 19.1304 23.3819V25.1541C18.3297 25.029 17.5902 24.7211 16.954 24.2756L18.2125 23.0172ZM20.8696 23.3522C21.1811 23.2662 21.4755 23.1389 21.7452 22.9749L22.998 24.2277C22.3772 24.6771 21.654 24.9928 20.8695 25.1335V23.3523H20.8696V23.3522ZM22.9593 21.7296C23.1125 21.463 23.2323 21.1746 23.3108 20.8696H25.0859C24.9553 21.6478 24.6526 22.3673 24.218 22.9881L22.9593 21.7296ZM23.3108 19.1304C23.2323 18.8253 23.1125 18.5371 22.9593 18.2704L24.2179 17.0118C24.6526 17.6327 24.9553 18.3521 25.0859 19.1303H23.3107V19.1304H23.3108ZM15.7144 16.9441L16.9671 18.1968C16.7929 18.4835 16.6591 18.7973 16.5733 19.1304H14.7982C14.9336 18.3237 15.2538 17.5801 15.7144 16.9441ZM14.7982 20.8695H16.5733C16.659 21.2026 16.7929 21.5163 16.9671 21.8031L15.7144 23.0558C15.2538 22.4198 14.9336 21.6763 14.7982 20.8695Z" fill="#F0F0F0"/>
<path d="M31.2464 19.9997C31.2464 16.9075 30.0044 14.1059 27.9927 12.0649L26.1481 13.9096C27.6877 15.4783 28.6377 17.628 28.6377 19.9997C28.6377 24.8022 24.7445 28.6953 19.9421 28.6953C15.1395 28.6953 11.2465 24.8022 11.2465 19.9997C11.2465 17.5984 12.2197 15.4245 13.7934 13.851L11.9488 12.0063C9.90305 14.0521 8.63782 16.8781 8.63782 19.9997C8.63782 25.1728 12.1126 29.5342 16.8555 30.8774C16.3355 31.8653 16.4147 33.1089 17.1575 34.0359C18.1331 33.254 19.1432 32.4445 20.0001 31.7579C20.857 32.4446 21.8671 33.254 22.8427 34.0359C23.5928 33.0997 23.6666 31.8403 23.1294 30.8477C27.8204 29.4715 31.2464 25.136 31.2464 19.9997Z" fill="#F0F0F0"/>
</g>
<defs>
<clipPath id="clip0_1350_10613">
<rect width="40" height="40" fill="white"/>
</clipPath>
</defs>
</svg>
