<svg width="40" height="40" viewBox="0 0 40 40" fill="none" xmlns="http://www.w3.org/2000/svg">
<g clip-path="url(#clip0_1350_10040)">
<path d="M20 40C31.0457 40 40 31.0457 40 20C40 8.9543 31.0457 0 20 0C8.9543 0 0 8.9543 0 20C0 31.0457 8.9543 40 20 40Z" fill="#F0F0F0"/>
<path d="M0 20C0 31.0456 8.95437 40 20 40C20 32.3941 20 20 20 20C20 20 6.95648 20 0 20Z" fill="#0052B4"/>
<path d="M20 0C31.0456 0 40 8.95437 40 20C32.3941 20 20 20 20 20C20 20 20 6.95648 20 0Z" fill="#D80027"/>
<path d="M11.9055 6.95703L13.2006 10.9428H17.3914L14.001 13.4061L15.296 17.3919L11.9055 14.9285L8.51502 17.3919L9.81002 13.4061L6.41956 10.9428H10.6104L11.9055 6.95703Z" fill="#0052B4"/>
<path d="M28.0946 22.6084L29.3897 26.5942H33.5805L30.19 29.0575L31.485 33.0432L28.0946 30.5799L24.7041 33.0432L25.9991 29.0575L22.6086 26.5942H26.7995L28.0946 22.6084Z" fill="#D80027"/>
</g>
<defs>
<clipPath id="clip0_1350_10040">
<rect width="40" height="40" fill="white"/>
</clipPath>
</defs>
</svg>
