<svg width="40" height="40" viewBox="0 0 40 40" fill="none" xmlns="http://www.w3.org/2000/svg">
<g clip-path="url(#clip0_1350_9696)">
<path d="M40 20.0003C40 31.0459 31.0456 40.0003 20 40.0003C8.95437 40.0003 0 31.0459 0 20.0003C0.869531 20.0003 20 17.3916 20 17.3916L40 20.0003Z" fill="#D80027"/>
<path d="M0 20C0 8.95437 8.95437 0 20 0C31.0456 0 40 8.95437 40 20" fill="#0052B4"/>
<path d="M14.7826 13.9131C14.7826 12.4724 13.6146 11.3044 12.1739 11.3044C11.5055 11.3044 10.8964 11.556 10.4348 11.9692V10.4348H11.3043V8.6957H10.4348V7.82617H8.69562V8.6957H7.82609V10.4348H8.69562V11.9692C8.23398 11.556 7.62484 11.3044 6.95648 11.3044C5.51578 11.3044 4.34781 12.4724 4.34781 13.9131C4.34781 14.6855 4.68382 15.3793 5.21734 15.857V17.3914H13.913V15.857C14.4466 15.3793 14.7826 14.6855 14.7826 13.9131Z" fill="#FFDA44"/>
</g>
<defs>
<clipPath id="clip0_1350_9696">
<rect width="40" height="40" fill="white"/>
</clipPath>
</defs>
</svg>
