<svg width="40" height="40" viewBox="0 0 40 40" fill="none" xmlns="http://www.w3.org/2000/svg">
<g clip-path="url(#clip0_1350_9842)">
<path d="M20 40C31.0457 40 40 31.0457 40 20C40 8.9543 31.0457 0 20 0C8.9543 0 0 8.9543 0 20C0 31.0457 8.9543 40 20 40Z" fill="#FFDA44"/>
<path d="M40 20.0002C40 13.1361 36.5415 7.08031 31.2724 3.47852H8.72758C3.45859 7.08031 0 13.1361 0 20.0002C0 26.8645 3.45859 32.9202 8.72758 36.5219H31.2724C36.5415 32.9202 40 26.8645 40 20.0002Z" fill="#A2001D"/>
<path d="M15.6526 14.7828H24.3482V11.3046L22.609 12.1741L20.0004 9.56543L17.3917 12.1741L15.6526 11.3046V14.7828Z" fill="#FFDA44"/>
<path d="M27.8263 20.0009H23.4801C23.6506 19.7061 23.7497 19.3649 23.7497 18.9999C23.7497 17.8915 22.8511 16.9932 21.7429 16.9932C20.9772 16.9932 20.3122 17.4222 19.9739 18.0527C19.6355 17.4221 18.9705 16.9932 18.2048 16.9932C17.0966 16.9932 16.1981 17.8915 16.1981 18.9999C16.1981 19.365 16.2973 19.7061 16.4676 20.0009H12.174C12.174 21.3308 13.3323 22.4089 14.6622 22.4089H14.582C14.582 23.4997 15.3075 24.4208 16.3023 24.7167L14.3479 26.6713L16.1925 28.5159L18.8091 25.8993C18.9116 25.9368 19.0176 25.9668 19.1272 25.9875L17.5461 29.5574C18.3038 29.8655 19.1318 30.0365 20.0002 30.0365C20.8685 30.0365 21.6965 29.8655 22.4543 29.5574L20.8732 25.9875C20.9827 25.9669 21.0887 25.9368 21.1911 25.8993L23.8078 28.5159L25.6523 26.6713L23.6978 24.7168C24.6925 24.4207 25.4181 23.4998 25.4181 22.4089H25.3379C26.6679 22.4089 27.8263 21.3308 27.8263 20.0009Z" fill="#FFDA44"/>
<path d="M20.0002 21.3047L17.1741 22.609V25.2177L20.0002 26.9568L22.8262 25.2177V22.609L20.0002 21.3047Z" fill="#6DA544"/>
<path d="M17.1741 20H22.8262V23.4783H17.1741V20Z" fill="#0052B4"/>
</g>
<defs>
<clipPath id="clip0_1350_9842">
<rect width="40" height="40" fill="white"/>
</clipPath>
</defs>
</svg>
