<svg width="40" height="40" viewBox="0 0 40 40" fill="none" xmlns="http://www.w3.org/2000/svg">
<g clip-path="url(#clip0_1350_9005)">
<path d="M20 40C31.0457 40 40 31.0457 40 20C40 8.9543 31.0457 0 20 0C8.9543 0 0 8.9543 0 20C0 31.0457 8.9543 40 20 40Z" fill="#F0F0F0"/>
<path d="M19.9995 39.9995C26.0613 39.9995 31.4928 37.3023 35.1605 33.043H4.8385C8.50623 37.3023 13.9377 39.9995 19.9995 39.9995Z" fill="#0052B4"/>
<path d="M40 20C40 8.95437 31.0456 0 20 0C8.95437 0 0 8.95437 0 20C0 21.8052 0.240625 23.5538 0.688984 25.2174H39.3111C39.7594 23.5538 40 21.8052 40 20Z" fill="#0052B4"/>
<path d="M1.59027 27.8262C1.97582 28.7321 2.42652 29.6034 2.93613 30.4349H37.0652C37.5746 29.6033 38.0254 28.732 38.4111 27.8262H1.59027Z" fill="#D80027"/>
<path d="M14.297 21.3047L14.6207 22.3011H15.6685L14.8209 22.917L15.1446 23.9134L14.297 23.2975L13.4493 23.9134L13.7731 22.917L12.9256 22.3011H13.9733L14.297 21.3047Z" fill="#FFDA44"/>
<path d="M14.297 34.3477L14.6207 35.3441H15.6685L14.8209 35.9599L15.1446 36.9563L14.297 36.3406L13.4493 36.9563L13.7731 35.9599L12.9256 35.3441H13.9733L14.297 34.3477Z" fill="#FFDA44"/>
<path d="M8.22489 29.9365L8.54864 30.9329H9.59638L8.7488 31.5486L9.07255 32.5452L8.22489 31.9293L7.37724 32.5452L7.70114 31.5486L6.85349 30.9329H7.90114L8.22489 29.9365Z" fill="#FFDA44"/>
<path d="M10.5445 22.6094L10.8683 23.6059H11.9159L11.0684 24.2216L11.3922 25.2181L10.5445 24.6023L9.69686 25.2181L10.0208 24.2216L9.17303 23.6059H10.2208L10.5445 22.6094Z" fill="#FFDA44"/>
<path d="M6.85349 26.7124L7.90099 26.7125L8.22481 25.7158L8.54864 26.7124L9.59638 26.7123L8.74872 27.3282L9.07255 28.3246L8.22481 27.7088L7.37724 28.3244L7.70099 27.3281L6.85349 26.7124Z" fill="#FFDA44"/>
<path d="M9.69696 35.462L10.0207 34.4658L9.17297 33.85H10.2207L10.5445 32.8535L10.8684 33.8499H11.916L11.0684 34.4657L11.3921 35.4623L10.5445 34.8463L9.69696 35.462Z" fill="#FFDA44"/>
<path d="M20.3652 29.9365L20.0415 30.9329H18.9938L19.8413 31.5486L19.5175 32.5452L20.3652 31.9293L21.2128 32.5452L20.889 31.5486L21.7366 30.9329H20.6889L20.3652 29.9365Z" fill="#FFDA44"/>
<path d="M18.047 22.6094L17.7233 23.6059H16.6756L17.5231 24.2216L17.1993 25.2181L18.047 24.6023L18.8947 25.2181L18.5708 24.2216L19.4185 23.6059H18.3708L18.047 22.6094Z" fill="#FFDA44"/>
<path d="M21.7366 26.7124L20.6891 26.7125L20.3652 25.7158L20.0415 26.7124L18.9938 26.7123L19.8413 27.3282L19.5175 28.3246L20.3652 27.7088L21.2128 28.3244L20.8891 27.3281L21.7366 26.7124Z" fill="#FFDA44"/>
<path d="M18.8947 35.462L18.571 34.4658L19.4187 33.85H18.3709L18.0471 32.8535L17.7234 33.8499H16.6756L17.5233 34.4657L17.1995 35.4623L18.0472 34.8463L18.8947 35.462Z" fill="#FFDA44"/>
</g>
<defs>
<clipPath id="clip0_1350_9005">
<rect width="40" height="40" fill="white"/>
</clipPath>
</defs>
</svg>
