<svg width="40" height="40" viewBox="0 0 40 40" fill="none" xmlns="http://www.w3.org/2000/svg">
<g clip-path="url(#clip0_1350_9202)">
<path d="M37.7798 10.8292C36.8556 9.03867 35.6443 7.35805 34.1434 5.85711C32.6424 4.35609 30.9617 3.14477 29.1712 2.2207L15.0814 15.0805L2.2215 29.1703C3.14564 30.9609 4.35697 32.6416 5.8579 34.1425C7.35884 35.6434 9.03954 36.8548 10.83 37.7789L24.9198 24.919L37.7798 10.8292Z" fill="#FFDA44"/>
<path d="M5.858 34.1427C6.69698 34.9816 7.59222 35.7299 8.5312 36.3888L36.3893 8.53047C35.7307 7.59149 34.9824 6.69625 34.1434 5.85727C33.3043 5.01828 32.4092 4.27008 31.4702 3.61133L3.61206 31.4695C4.27073 32.4083 5.01894 33.3037 5.858 34.1427Z" fill="#D80027"/>
<path d="M5.85723 5.85718C-0.452691 12.1671 -1.66402 21.6435 2.22082 29.1705L29.1705 2.22085C21.6435 -1.66391 12.1671 -0.452428 5.85723 5.85718Z" fill="#338AF3"/>
<path d="M34.1428 34.1428C40.4526 27.833 41.6639 18.3565 37.7793 10.8296L10.8296 37.7792C18.3565 41.664 27.833 40.4527 34.1428 34.1428Z" fill="#338AF3"/>
<path d="M10.6579 6.08643L11.7372 9.40807H15.2297L12.4042 11.4609L13.4834 14.7824L10.6579 12.7296L7.83231 14.7824L8.91169 11.4609L6.08606 9.40807H9.57856L10.6579 6.08643Z" fill="#FFDA44"/>
</g>
<defs>
<clipPath id="clip0_1350_9202">
<rect width="40" height="40" fill="white"/>
</clipPath>
</defs>
</svg>
