<svg width="40" height="40" viewBox="0 0 40 40" fill="none" xmlns="http://www.w3.org/2000/svg">
<g clip-path="url(#clip0_1350_9475)">
<path d="M26.9566 1.24406C24.7899 0.440078 22.4464 0 19.9999 0C17.5536 0 15.2102 0.440078 13.0436 1.24391L12.174 20L13.0435 38.7561C15.2102 39.56 17.5536 40 19.9999 40C22.4465 40 24.7899 39.56 26.9566 38.7559L27.8262 20L26.9566 1.24406Z" fill="#FFDA44"/>
<path d="M0 20.0002C0 28.5995 5.4275 35.9304 13.0435 38.7562V1.24414C5.4275 4.07008 0 11.4009 0 20.0002Z" fill="#D80027"/>
<path d="M40.0001 20.0002C40.0001 11.4009 34.5726 4.07008 26.9566 1.24414V38.7563C34.5726 35.9304 40.0001 28.5995 40.0001 20.0002Z" fill="#6DA544"/>
</g>
<defs>
<clipPath id="clip0_1350_9475">
<rect width="40" height="40" fill="white"/>
</clipPath>
</defs>
</svg>
