<svg width="40" height="40" viewBox="0 0 40 40" fill="none" xmlns="http://www.w3.org/2000/svg">
<g clip-path="url(#clip0_1350_10284)">
<path d="M20 40C31.0457 40 40 31.0457 40 20C40 8.9543 31.0457 0 20 0C8.9543 0 0 8.9543 0 20C0 31.0457 8.9543 40 20 40Z" fill="#F0F0F0"/>
<path d="M38.756 13.0436H17.3913V7.82617H6.95648V13.0436H1.24398C0.440078 15.2102 0 17.5537 0 20.0001C0 22.4465 0.440078 24.7899 1.24398 26.9566L20 28.6957L38.756 26.9566C39.5599 24.7899 40 22.4465 40 20.0001C40 17.5537 39.5599 15.2102 38.756 13.0436Z" fill="#0052B4"/>
<path d="M20.0001 40.0001C28.5994 40.0001 35.9302 34.5726 38.7561 26.9565H1.24405C4.06991 34.5726 11.4008 40.0001 20.0001 40.0001Z" fill="#D80027"/>
<path d="M6.9566 13.0434V14.7824C6.9566 18.7762 12.174 19.9999 12.174 19.9999C12.174 19.9999 17.3914 18.7762 17.3914 14.7824V13.0434L15.6523 14.7825L12.174 12.1738L8.69574 14.7825L6.9566 13.0434Z" fill="#F0F0F0"/>
</g>
<defs>
<clipPath id="clip0_1350_10284">
<rect width="40" height="40" fill="white"/>
</clipPath>
</defs>
</svg>
