<svg width="40" height="40" viewBox="0 0 40 40" fill="none" xmlns="http://www.w3.org/2000/svg">
<g clip-path="url(#clip0_1350_9423)">
<path d="M20 40C31.0457 40 40 31.0457 40 20C40 8.9543 31.0457 0 20 0C8.9543 0 0 8.9543 0 20C0 31.0457 8.9543 40 20 40Z" fill="#FFDA44"/>
<path d="M8.72772 3.47828C11.9375 1.28406 15.8186 0 20.0001 0C24.1817 0 28.0628 1.28406 31.2726 3.47828L20.0001 4.34781L8.72772 3.47828Z" fill="#A2001D"/>
<path d="M19.9995 19.9995L18.7231 18.7231L18.3842 19.3302L19.9995 19.9995Z" fill="#0052B4"/>
<path d="M5.85828 5.85791C-1.95219 13.6684 -1.95219 26.3317 5.85828 34.1423C9.08586 30.9147 12.19 27.8106 20.0005 20.0001L5.85828 5.85791Z" fill="#496E2D"/>
<path d="M34.1422 5.85791C41.9527 13.6684 41.9527 26.3317 34.1422 34.1423C30.9146 30.9147 27.8105 27.8106 20 20.0001L34.1422 5.85791Z" fill="#496E2D"/>
<path d="M19.9999 26.9564C23.8418 26.9564 26.9564 23.8419 26.9564 19.9999C26.9564 16.158 23.8418 13.0435 19.9999 13.0435C16.1579 13.0435 13.0434 16.158 13.0434 19.9999C13.0434 23.8419 16.1579 26.9564 19.9999 26.9564Z" fill="#A2001D"/>
<path d="M19.9994 13.0435L21.5587 17.8426H26.6054L22.5228 20.8092L24.0821 25.6086L19.9994 22.6425L15.9166 25.6086L17.4762 20.8092L13.3936 17.8426H18.44L19.9994 13.0435Z" fill="#FFDA44"/>
<path d="M20.0068 0H19.9934C14.4736 0.00179688 9.47668 2.23953 5.85895 5.85688H34.1412C30.5234 2.23953 25.5264 0.00179688 20.0068 0Z" fill="#A2001D"/>
<path d="M5.85901 34.1431C9.47823 37.7617 14.4778 39.9999 20 39.9999C25.5223 39.9999 30.5218 37.7617 34.141 34.1431H5.85901Z" fill="#A2001D"/>
<path d="M19.9994 2.17383L20.3232 3.17023H21.3709L20.5233 3.78609L20.8471 4.7825L19.9994 4.16672L19.1518 4.7825L19.4757 3.78609L18.6279 3.17023H19.6756L19.9994 2.17383Z" fill="#FFDA44"/>
<path d="M15.1499 2.17383L15.4738 3.17023H16.5214L15.6738 3.78609L15.9977 4.7825L15.1499 4.16672L14.3024 4.7825L14.6262 3.78609L13.7784 3.17023H14.8261L15.1499 2.17383Z" fill="#FFDA44"/>
<path d="M24.8491 2.17383L25.173 3.17023H26.2206L25.373 3.78609L25.6969 4.7825L24.8491 4.16672L24.0016 4.7825L24.3254 3.78609L23.4777 3.17023H24.5253L24.8491 2.17383Z" fill="#FFDA44"/>
<path d="M19.9994 35.2173L20.3232 36.2137H21.3709L20.5233 36.8296L20.8471 37.826L19.9994 37.2101L19.1518 37.826L19.4757 36.8296L18.6279 36.2137H19.6756L19.9994 35.2173Z" fill="#FFDA44"/>
<path d="M15.1499 35.2173L15.4738 36.2137H16.5214L15.6738 36.8296L15.9977 37.826L15.1499 37.2101L14.3024 37.826L14.6262 36.8296L13.7784 36.2137H14.8261L15.1499 35.2173Z" fill="#FFDA44"/>
<path d="M24.8491 35.2173L25.173 36.2137H26.2206L25.373 36.8296L25.6969 37.826L24.8491 37.2101L24.0016 37.826L24.3254 36.8296L23.4777 36.2137H24.5253L24.8491 35.2173Z" fill="#FFDA44"/>
<path d="M6.09398 19.6694C6.60766 20.481 6.36625 21.5553 5.55461 22.0691C4.74305 22.5828 3.66867 22.3414 3.15492 21.5298C2.22484 20.0604 2.76414 17.6606 2.76414 17.6606C2.76414 17.6606 5.16383 18.1999 6.09398 19.6694Z" fill="#FFDA44"/>
<path d="M5.08999 22.2044C5.57022 22.2044 5.95952 21.8151 5.95952 21.3349C5.95952 20.8546 5.57022 20.4653 5.08999 20.4653C4.60976 20.4653 4.22046 20.8546 4.22046 21.3349C4.22046 21.8151 4.60976 22.2044 5.08999 22.2044Z" fill="#A2001D"/>
</g>
<defs>
<clipPath id="clip0_1350_9423">
<rect width="40" height="40" fill="white"/>
</clipPath>
</defs>
</svg>
