<svg width="40" height="40" viewBox="0 0 40 40" fill="none" xmlns="http://www.w3.org/2000/svg">
<g clip-path="url(#clip0_1350_9410)">
<path d="M20 40C31.0457 40 40 31.0457 40 20C40 8.9543 31.0457 0 20 0C8.9543 0 0 8.9543 0 20C0 31.0457 8.9543 40 20 40Z" fill="#F0F0F0"/>
<path d="M20 14.7829H39.311C38.8095 12.9224 38.0473 11.1692 37.0645 9.56543H20V14.7829Z" fill="#338AF3"/>
<path d="M7.54964 35.652H32.4491C34.2743 34.1982 35.8396 32.4325 37.0639 30.4346H2.93488C4.15917 32.4324 5.72448 34.1982 7.54964 35.652Z" fill="#338AF3"/>
<path d="M6.9559 4.83887C5.38355 6.19285 4.02425 7.7873 2.93488 9.56511H6.9559V4.83887Z" fill="#338AF3"/>
<path d="M20 20.0001C20 17.963 20 16.258 20 14.7827H12.1739V20.0001H6.95648V14.7827H0.688984C0.240625 16.4463 0 18.1949 0 20.0001C0 21.8054 0.240625 23.554 0.688984 25.2176H39.3111C39.7594 23.554 40 21.8054 40 20.0001H20Z" fill="#338AF3"/>
<path d="M19.9994 0C17.2222 0 14.5772 0.566641 12.1733 1.58969V9.56523H19.9994C19.9994 7.74398 19.9994 6.195 19.9994 4.34781H32.4492C29.0327 1.62688 24.7064 0 19.9994 0Z" fill="#338AF3"/>
</g>
<defs>
<clipPath id="clip0_1350_9410">
<rect width="40" height="40" fill="white"/>
</clipPath>
</defs>
</svg>
