<svg width="40" height="40" viewBox="0 0 40 40" fill="none" xmlns="http://www.w3.org/2000/svg">
<g clip-path="url(#clip0_1350_8772)">
<path d="M28.6961 1.98453C26.0668 0.713125 23.1169 0 20.0005 0C16.8841 0 13.9343 0.713125 11.3049 1.98453L9.56573 20L11.3049 38.0155C13.9343 39.2869 16.8841 40 20.0005 40C23.1169 40 26.0668 39.2869 28.6961 38.0155L30.4353 20L28.6961 1.98453Z" fill="#FFDA44"/>
<path d="M11.3044 1.98535C4.61453 5.2202 0 12.0709 0 20.0001C0 27.9293 4.61453 34.78 11.3044 38.0149V1.98535Z" fill="#0052B4"/>
<path d="M28.6962 1.98535V38.0149C35.386 34.78 40.0005 27.9293 40.0005 20.0001C40.0005 12.071 35.386 5.2202 28.6962 1.98535Z" fill="#0052B4"/>
<path d="M26.0863 12.1737L27.253 12.757L26.0863 12.1737L24.9196 11.5904C24.8493 11.7311 23.3259 14.8306 23.0771 19.565H21.3037V12.1737L19.9994 10.4346L18.695 12.1737V19.565H16.9216C16.6727 14.8306 15.1495 11.7311 15.0791 11.5904L12.7458 12.7571C12.7619 12.7891 14.3473 16.0161 14.3473 20.8694V22.1738H18.6951V29.5651H21.3037V22.1738H25.6516V20.8693C25.6516 18.3601 26.0857 16.2911 26.45 14.9971C26.8471 13.5862 27.2505 12.7622 27.2544 12.754L26.0863 12.1737Z" fill="black"/>
</g>
<defs>
<clipPath id="clip0_1350_8772">
<rect width="40" height="40" fill="white"/>
</clipPath>
</defs>
</svg>
