<svg width="40" height="40" viewBox="0 0 40 40" fill="none" xmlns="http://www.w3.org/2000/svg">
<g clip-path="url(#clip0_1350_9313)">
<path d="M20 40C31.0457 40 40 31.0457 40 20C40 8.9543 31.0457 0 20 0C8.9543 0 0 8.9543 0 20C0 31.0457 8.9543 40 20 40Z" fill="#0052B4"/>
<path d="M20.0012 7.82617L20.6487 9.81906H22.744L21.0488 11.0507L21.6964 13.0436L20.0012 11.8119L18.3059 13.0436L18.9534 11.0507L17.2582 9.81906H19.3536L20.0012 7.82617Z" fill="#FFDA44"/>
<path d="M11.3929 11.3916L13.2601 12.3429L14.7417 10.8613L14.4138 12.9309L16.281 13.8822L14.2113 14.21L13.8835 16.2797L12.9322 14.4126L10.8627 14.7405L12.3443 13.2588L11.3929 11.3916Z" fill="#FFDA44"/>
<path d="M7.82675 20.0003L9.81964 19.3527V17.2573L11.0512 18.9526L13.0442 18.3051L11.8124 20.0003L13.0442 21.6955L11.0512 21.048L9.81964 22.7433V20.6479L7.82675 20.0003Z" fill="#FFDA44"/>
<path d="M11.3929 28.6082L12.3442 26.741L10.8627 25.2594L12.9323 25.5873L13.8835 23.7202L14.2113 25.7898L16.2809 26.1176L14.414 27.069L14.7417 29.1385L13.2601 27.6569L11.3929 28.6082Z" fill="#FFDA44"/>
<path d="M20.0012 32.1743L19.3535 30.1814H17.2582L18.9535 28.9498L18.3059 26.957L20.0012 28.1886L21.6964 26.957L21.0488 28.9498L22.744 30.1814H20.6487L20.0012 32.1743Z" fill="#FFDA44"/>
<path d="M28.6084 28.6082L26.7413 27.6569L25.2596 29.1386L25.5875 27.0689L23.7205 26.1176L25.79 25.7898L26.1178 23.7202L27.0691 25.5873L29.1386 25.2594L27.657 26.7412L28.6084 28.6082Z" fill="#FFDA44"/>
<path d="M32.1745 20.0003L30.1816 20.6479V22.7433L28.95 21.0479L26.9573 21.6955L28.1889 20.0003L26.9573 18.3051L28.9501 18.9526L30.1816 17.2573V19.3528L32.1745 20.0003Z" fill="#FFDA44"/>
<path d="M28.6084 11.3916L27.6571 13.2588L29.1387 14.7404L27.069 14.4124L26.1178 16.2795L25.79 14.2099L23.7205 13.882L25.5875 12.9308L25.2596 10.8613L26.7414 12.3429L28.6084 11.3916Z" fill="#FFDA44"/>
</g>
<defs>
<clipPath id="clip0_1350_9313">
<rect width="40" height="40" fill="white"/>
</clipPath>
</defs>
</svg>
