<svg width="40" height="40" viewBox="0 0 40 40" fill="none" xmlns="http://www.w3.org/2000/svg">
<g clip-path="url(#clip0_1350_18641)">
<mask id="mask0_1350_18641" style="mask-type:luminance" maskUnits="userSpaceOnUse" x="0" y="0" width="40" height="40">
<path d="M20 40C31.0457 40 40 31.0457 40 20C40 8.95431 31.0457 0 20 0C8.95431 0 0 8.95431 0 20C0 31.0457 8.95431 40 20 40Z" fill="white"/>
</mask>
<g mask="url(#mask0_1350_18641)">
<path d="M14.4 0H14V16H6V0H-2V16H-10V16.4H14.4V0Z" fill="white"/>
<path d="M26.95 27.0502H28.45L27.7 25.7002L26.95 27.0502Z" fill="#002395"/>
<path d="M14.4 0V16.4H-10V40H50V0H14.4ZM22.06 24.4L22.5333 22.95L21.3033 22.05H22.8333L23.3 20.6L23.76 22.05H25.2933L24.0633 22.95L24.52 24.4L23.29 23.5L22.06 24.4ZM28.32 34.5L27.09 33.6L25.86 34.5L26.3333 33.05L25.1033 32.15H26.6333L27.1033 30.7L27.5733 32.15H29.08L27.85 33.05L28.32 34.5ZM32.82 37.9L31.59 37L30.36 37.9L30.83 36.45L29.6 35.55H31.1333L31.6 34.1L32.07 35.55H33.58L32.35 36.45L32.82 37.9ZM37.32 34.5L36.09 33.6L34.86 34.5L35.3333 33.05L34.1033 32.15H35.6367L36.1033 30.7L36.57 32.15H38.08L36.85 33.05L37.32 34.5ZM37.4 29.1L37.04 28.45H33.97L31.6 32.7L29.23 28.45H26.16L25.8 29.1H24L27.7 23.2L30.45 27.5V20.35H26.79L25.5 18.3H37.7L36.4 20.35H32.74V21.6H35.62L34.4 23.55H32.75V27.5L35.5 23.2L39.2 29.1H37.4ZM41.12 24.4L39.89 23.5L38.66 24.4L39.1333 22.95L37.9033 22.05H39.4367L39.9033 20.6L40.37 22.05H41.9033L40.6533 22.95L41.12 24.4Z" fill="#002395"/>
<path d="M34.75 27.0502H36.25L35.5 25.7002L34.75 27.0502Z" fill="#002395"/>
<path d="M14 0H6V16H14V0Z" fill="#ED2939"/>
<path d="M24.06 22.9501L25.29 22.0501H23.76L23.3 20.6001L22.83 22.0501H21.3L22.53 22.9501L22.06 24.4001L23.29 23.5001L24.52 24.4001L24.06 22.9501Z" fill="white"/>
<path d="M32.07 35.5501L31.6 34.1001L31.13 35.5501H29.6L30.83 36.4501L30.36 37.9001L31.59 37.0001L32.82 37.9001L32.35 36.4501L33.58 35.5501H32.07Z" fill="white"/>
<path d="M40.37 22.0501L39.9 20.6001L39.43 22.0501H37.9L39.13 22.9501L38.66 24.4001L39.89 23.5001L41.12 24.4001L40.65 22.9501L41.9 22.0501H40.37Z" fill="white"/>
<path d="M27.57 32.1502L27.1 30.7002L26.63 32.1502H25.1L26.33 33.0502L25.86 34.5002L27.09 33.6002L28.32 34.5002L27.85 33.0502L29.08 32.1502H27.57Z" fill="white"/>
<path d="M32.75 27.4998V23.5498H34.4L35.62 21.5998H32.74V20.3498H36.4L37.7 18.2998H25.5L26.79 20.3498H30.45V27.4998L27.7 23.1998L24 29.0998H25.8L26.16 28.4498H29.23L31.6 32.6998L33.97 28.4498H37.04L37.4 29.0998H39.2L35.5 23.1998L32.75 27.4998ZM26.95 27.0498L27.7 25.6998L28.45 27.0498H26.95ZM34.75 27.0498L35.5 25.6998L36.25 27.0498H34.75Z" fill="white"/>
<path d="M36.57 32.1502L36.1 30.7002L35.63 32.1502H34.1L35.33 33.0502L34.86 34.5002L36.09 33.6002L37.32 34.5002L36.85 33.0502L38.08 32.1502H36.57Z" fill="white"/>
</g>
</g>
<defs>
<clipPath id="clip0_1350_18641">
<rect width="40" height="40" fill="white"/>
</clipPath>
</defs>
</svg>
