<svg width="40" height="40" viewBox="0 0 40 40" fill="none" xmlns="http://www.w3.org/2000/svg">
<g clip-path="url(#clip0_1350_8863)">
<path d="M20 40C31.0457 40 40 31.0457 40 20C40 8.9543 31.0457 0 20 0C8.9543 0 0 8.9543 0 20C0 31.0457 8.9543 40 20 40Z" fill="#6DA544"/>
<path d="M19.9994 7.82617L36.5211 20.0001L19.9994 32.174L3.47766 20.0001L19.9994 7.82617Z" fill="#FFDA44"/>
<path d="M19.9999 26.9559C23.8418 26.9559 26.9564 23.8414 26.9564 19.9995C26.9564 16.1575 23.8418 13.043 19.9999 13.043C16.1579 13.043 13.0434 16.1575 13.0434 19.9995C13.0434 23.8414 16.1579 26.9559 19.9999 26.9559Z" fill="#F0F0F0"/>
<path d="M16.5212 19.5645C15.3115 19.5645 14.1441 19.7484 13.0452 20.0898C13.0939 23.8898 16.188 26.9558 19.9995 26.9558C22.3564 26.9558 24.4379 25.7826 25.6963 23.9895C23.5434 21.2945 20.2308 19.5645 16.5212 19.5645Z" fill="#0052B4"/>
<path d="M26.8266 21.3323C26.9103 20.9007 26.9556 20.4555 26.9556 19.9995C26.9556 16.1574 23.841 13.043 19.9991 13.043C17.1324 13.043 14.6714 14.7774 13.6064 17.2538C14.5478 17.0588 15.5225 16.956 16.5209 16.956C20.5613 16.9559 24.2164 18.6355 26.8266 21.3323Z" fill="#0052B4"/>
</g>
<defs>
<clipPath id="clip0_1350_8863">
<rect width="40" height="40" fill="white"/>
</clipPath>
</defs>
</svg>
