<svg width="40" height="40" viewBox="0 0 40 40" fill="none" xmlns="http://www.w3.org/2000/svg">
<g clip-path="url(#clip0_1350_10106)">
<path d="M20 40C31.0457 40 40 31.0457 40 20C40 8.9543 31.0457 0 20 0C8.9543 0 0 8.9543 0 20C0 31.0457 8.9543 40 20 40Z" fill="#F0F0F0"/>
<path d="M39.9998 20C39.9998 8.95437 31.0455 0 19.9998 0C16.0873 0 12.4378 1.12461 9.35515 3.06648L13.739 4.92906L7.82593 7.44141L13.739 9.95367L7.82593 12.4659L13.739 14.978L7.82593 17.4898L13.739 20.0014L7.82593 22.5136L13.739 25.0256L7.82593 27.5374L13.739 30.0495L7.82593 32.5616L13.739 35.0734L9.3571 36.935C12.4394 38.8759 16.0881 40 19.9998 40C31.0455 40 39.9998 31.0456 39.9998 20Z" fill="#751A46"/>
</g>
<defs>
<clipPath id="clip0_1350_10106">
<rect width="40" height="40" fill="white"/>
</clipPath>
</defs>
</svg>
