<svg width="40" height="40" viewBox="0 0 40 40" fill="none" xmlns="http://www.w3.org/2000/svg">
<g clip-path="url(#clip0_1350_10035)">
<path d="M20 40C31.0457 40 40 31.0457 40 20C40 8.9543 31.0457 0 20 0C8.9543 0 0 8.9543 0 20C0 31.0457 8.9543 40 20 40Z" fill="#F0F0F0"/>
<path d="M12.1737 13.0435H38.7557C35.9299 5.4275 28.599 0 19.9998 0C14.4768 0 9.47734 2.23898 5.85828 5.85852L12.1737 13.0435Z" fill="black"/>
<path d="M12.1737 26.957H38.7557C35.9299 34.5731 28.599 40.0006 19.9998 40.0006C14.4768 40.0006 9.47734 37.7616 5.85828 34.142L12.1737 26.957Z" fill="#6DA544"/>
<path d="M5.85785 5.85742C-1.95262 13.6679 -1.95262 26.3313 5.85785 34.1418C9.08543 30.9142 12.1896 27.8101 20 19.9996L5.85785 5.85742Z" fill="#D80027"/>
</g>
<defs>
<clipPath id="clip0_1350_10035">
<rect width="40" height="40" fill="white"/>
</clipPath>
</defs>
</svg>
