<svg width="40" height="40" viewBox="0 0 40 40" fill="none" xmlns="http://www.w3.org/2000/svg">
<g clip-path="url(#clip0_1350_9862)">
<path d="M20 40C31.0457 40 40 31.0457 40 20C40 8.9543 31.0457 0 20 0C8.9543 0 0 8.9543 0 20C0 31.0457 8.9543 40 20 40Z" fill="#D80027"/>
<path d="M31.8195 16.4134H22.7903L20.0002 7.82617L17.21 16.4134H8.18079L15.4856 21.7205L12.6953 30.308L20.0002 25.0007L27.305 30.308L24.5148 21.7206L31.8195 16.4134ZM17.53 21.0562L18.4735 18.1524H21.5267L22.4703 21.0562V21.0563L20.0002 22.8509L17.5301 21.0563L17.53 21.0562ZM20.9617 16.4134H19.0387L20.0002 13.454L20.9617 16.4134ZM23.9496 19.9815L23.3553 18.1525H26.467L23.9496 19.9815ZM16.6449 18.1525L16.0506 19.9815L13.5332 18.1525H16.6449ZM16.0034 25.7548L16.9649 22.7955L18.5208 23.9259L16.0034 25.7548ZM21.4795 23.9259L23.0354 22.7956L23.997 25.7549L21.4795 23.9259Z" fill="#FFDA44"/>
</g>
<defs>
<clipPath id="clip0_1350_9862">
<rect width="40" height="40" fill="white"/>
</clipPath>
</defs>
</svg>
