<svg width="40" height="40" viewBox="0 0 40 40" fill="none" xmlns="http://www.w3.org/2000/svg">
<g clip-path="url(#clip0_1350_10056)">
<path d="M20 40C31.0457 40 40 31.0457 40 20C40 8.9543 31.0457 0 20 0C8.9543 0 0 8.9543 0 20C0 31.0457 8.9543 40 20 40Z" fill="#F0F0F0"/>
<path d="M20 0C12.0708 0 5.21954 4.61445 1.98454 11.3044H38.0154C34.7805 4.61445 27.9291 0 20 0Z" fill="#D80027"/>
<path d="M20 39.9997C27.9291 39.9997 34.7805 35.3852 38.0155 28.6953H1.98454C5.21954 35.3852 12.0708 39.9997 20 39.9997Z" fill="#0052B4"/>
<path d="M24.919 14.2119L23.0743 16.0565C23.8611 16.8433 24.3479 17.9303 24.3479 19.1309C24.3479 21.5322 22.4012 23.4787 20 23.4787C17.5989 23.4787 15.6522 21.5321 15.6522 19.1309C15.6522 17.9303 16.1389 16.8433 16.9257 16.0565L15.0811 14.2119C13.8221 15.4707 13.0435 17.2098 13.0435 19.1309C13.0435 22.9729 16.1581 26.0874 20 26.0874C23.842 26.0874 26.9565 22.9729 26.9565 19.1309C26.9565 17.2098 26.1779 15.4707 24.919 14.2119Z" fill="#6DA544"/>
<path d="M19.9999 16.5215L20.6475 18.5145H22.7429L21.0477 19.746L21.6953 21.7389L19.9999 20.5073L18.3046 21.7389L18.9522 19.746L17.257 18.5145H19.3524L19.9999 16.5215Z" fill="#FFDA44"/>
</g>
<defs>
<clipPath id="clip0_1350_10056">
<rect width="40" height="40" fill="white"/>
</clipPath>
</defs>
</svg>
