<svg width="40" height="40" viewBox="0 0 40 40" fill="none" xmlns="http://www.w3.org/2000/svg">
<g clip-path="url(#clip0_1350_8730)">
<path d="M40 19.9999C40 17.5535 39.56 15.21 38.756 13.0434L20 12.1738L1.24398 13.0434C0.440078 15.21 0 17.5535 0 19.9999C0 22.4463 0.440078 24.7898 1.24398 26.9564L20 27.826L38.756 26.9565C39.56 24.7898 40 22.4463 40 19.9999Z" fill="#D80027"/>
<path d="M20.0001 40.0006C28.5994 40.0006 35.9302 34.5731 38.7561 26.957H1.24405C4.06991 34.5731 11.4008 40.0006 20.0001 40.0006Z" fill="#6DA544"/>
<path d="M1.24405 13.0435H38.7562C35.9302 5.4275 28.5994 0 20.0001 0C11.4008 0 4.06991 5.4275 1.24405 13.0435Z" fill="#338AF3"/>
<path d="M20.4342 25.6517C17.3127 25.6517 14.782 23.1211 14.782 19.9995C14.782 16.878 17.3127 14.3473 20.4342 14.3473C21.4075 14.3473 22.3234 14.5934 23.1229 15.0267C21.8685 13.8001 20.1532 13.043 18.2603 13.043C14.4183 13.043 11.3038 16.1575 11.3038 19.9995C11.3038 23.8414 14.4184 26.9559 18.2603 26.9559C20.1533 26.9559 21.8686 26.1988 23.1229 24.9722C22.3234 25.4056 21.4075 25.6517 20.4342 25.6517Z" fill="#F0F0F0"/>
<path d="M24.7826 16.0859L25.5312 18.1915L27.5495 17.232L26.5901 19.2502L28.6956 19.999L26.5901 20.7477L27.5495 22.766L25.5312 21.8065L24.7826 23.912L24.034 21.8065L22.0156 22.766L22.9751 20.7477L20.8695 19.999L22.9751 19.2502L22.0156 17.232L24.034 18.1915L24.7826 16.0859Z" fill="#F0F0F0"/>
</g>
<defs>
<clipPath id="clip0_1350_8730">
<rect width="40" height="40" fill="white"/>
</clipPath>
</defs>
</svg>
