<svg width="40" height="40" viewBox="0 0 40 40" fill="none" xmlns="http://www.w3.org/2000/svg">
<g clip-path="url(#clip0_1350_9969)">
<path d="M28.6957 1.98453C26.0663 0.713125 23.1166 0 20.0001 0C16.8836 0 13.9338 0.713125 11.3044 1.98453L9.56531 20L11.3044 38.0155C13.9338 39.2869 16.8836 40 20.0001 40C23.1166 40 26.0663 39.2869 28.6957 38.0155L30.4348 20L28.6957 1.98453Z" fill="#F0F0F0"/>
<path d="M11.3044 1.98535C4.61445 5.2202 0 12.0709 0 20.0001C0 27.9293 4.61445 34.78 11.3044 38.0149V1.98535Z" fill="#6DA544"/>
<path d="M28.6959 1.98535V38.0149C35.3858 34.78 40.0003 27.9293 40.0003 20.0001C40.0003 12.071 35.3858 5.2202 28.6959 1.98535Z" fill="#6DA544"/>
<path d="M25.2172 26.0871L19.9998 9.56543L14.7823 26.0871H18.6954V30.435H21.3042V26.0871H25.2172Z" fill="#6DA544"/>
</g>
<defs>
<clipPath id="clip0_1350_9969">
<rect width="40" height="40" fill="white"/>
</clipPath>
</defs>
</svg>
