<svg width="40" height="40" viewBox="0 0 40 40" fill="none" xmlns="http://www.w3.org/2000/svg">
<g clip-path="url(#clip0_1350_9194)">
<path d="M20 40C31.0457 40 40 31.0457 40 20C40 8.9543 31.0457 0 20 0C8.9543 0 0 8.9543 0 20C0 31.0457 8.9543 40 20 40Z" fill="#FCFCFC"/>
<path d="M31.3049 17.3911C30.6962 17.3911 29.9425 17.3911 28.6962 17.3911C28.6962 22.1936 24.8029 26.0867 20.0006 26.0867C15.198 26.0867 11.305 22.1936 11.305 17.3911C10.4643 17.3911 9.53676 17.3911 8.69629 17.3911C8.69629 22.5642 12.171 26.9256 16.9139 28.2688C16.3939 29.2566 16.4732 30.5003 17.216 31.4273C18.1916 30.6453 19.2017 29.8359 20.0586 29.1493C20.9154 29.8359 21.9256 30.6454 22.9011 31.4273C23.6513 30.4911 23.7251 29.2316 23.1879 28.2391C27.8789 26.8629 31.3049 22.5274 31.3049 17.3911Z" fill="#6DA544"/>
<path d="M13.0434 16.5215C13.0434 16.5215 13.0434 20.8693 17.3912 20.8693L18.2607 21.7389H19.9999C19.9999 21.7389 20.8694 19.1302 22.6086 19.1302C22.6086 19.1302 22.6086 17.3911 24.3477 17.3911C26.0868 17.3911 26.9564 17.3911 26.9564 17.3911C26.9564 17.3911 26.0868 13.9128 30.4346 11.3041L28.6955 10.4346C28.6955 10.4346 22.6086 14.7824 18.2607 13.9129V15.652H16.5216L15.6521 14.7825L13.0434 16.5215Z" fill="#FFDA44"/>
</g>
<defs>
<clipPath id="clip0_1350_9194">
<rect width="40" height="40" fill="white"/>
</clipPath>
</defs>
</svg>
