<svg width="40" height="40" viewBox="0 0 40 40" fill="none" xmlns="http://www.w3.org/2000/svg">
<g clip-path="url(#clip0_1350_9096)">
<path d="M20 40C31.0457 40 40 31.0457 40 20C40 8.9543 31.0457 0 20 0C8.9543 0 0 8.9543 0 20C0 31.0457 8.9543 40 20 40Z" fill="#6DA544"/>
<path d="M30.7011 28.6953L31.2499 29.8429L32.4893 29.5565L31.9343 30.7011L32.9309 31.4914L31.69 31.7711L31.6935 33.0432L30.7011 32.2473L29.7087 33.0432L29.7122 31.7711L28.4713 31.4914L29.468 30.7011L28.913 29.5565L30.1523 29.8429L30.7011 28.6953Z" fill="#FFDA44"/>
<path d="M25.5966 16.5215L26.1456 17.6691L27.3849 17.3826L26.8299 18.5273L27.8265 19.3176L26.5856 19.5973L26.5891 20.8693L25.5966 20.0735L24.6043 20.8693L24.6077 19.5973L23.3669 19.3176L24.3635 18.5273L23.8084 17.3826L25.0479 17.6691L25.5966 16.5215Z" fill="#FFDA44"/>
<path d="M30.7014 9.56543L31.2502 10.713L32.4896 10.4264L31.9346 11.5711L32.9312 12.3615L31.6903 12.6411L31.6936 13.9132L30.7014 13.1174L29.709 13.9132L29.7125 12.6411L28.4717 12.3615L29.4682 11.5711L28.9132 10.4264L30.1525 10.713L30.7014 9.56543Z" fill="#FFDA44"/>
<path d="M35.1609 14.7822L35.7097 15.9298L36.9491 15.6433L36.3941 16.788L37.3907 17.5783L36.1498 17.858L36.1533 19.1301L35.1609 18.3343L34.1685 19.1301L34.1719 17.858L32.9311 17.5783L33.9277 16.788L33.3727 15.6433L34.612 15.9298L35.1609 14.7822Z" fill="#FFDA44"/>
<path d="M31.9729 20.8691L32.4047 22.1978H33.8017L32.6715 23.0189L33.1033 24.3474L31.9729 23.5264L30.8429 24.3474L31.2745 23.0189L30.1443 22.1978H31.5413L31.9729 20.8691Z" fill="#FFDA44"/>
<path d="M22.1737 25.6527C19.0521 25.6527 16.5215 23.1221 16.5215 20.0005C16.5215 16.8789 19.052 14.3483 22.1737 14.3483C23.147 14.3483 24.0629 14.5945 24.8624 15.0277C23.6081 13.801 21.8929 13.0439 19.9997 13.0439C16.1578 13.0439 13.0433 16.1585 13.0433 20.0004C13.0433 23.8424 16.1578 26.9569 19.9997 26.9569C21.8928 26.9569 23.6081 26.1999 24.8623 24.9732C24.0629 25.4065 23.147 25.6527 22.1737 25.6527Z" fill="#FFDA44"/>
<path d="M12.5772 7.82606C11.9757 6.78668 10.8526 6.08691 9.56545 6.08691C8.27826 6.08691 7.15521 6.78668 6.55365 7.82606H12.5772Z" fill="#FFDA44"/>
<path d="M12.5884 7.8457L9.56506 10.8691L6.5417 7.8457C6.25271 8.35281 6.08685 8.9393 6.08685 9.56477C6.08685 11.4858 7.64412 13.043 9.56513 13.043C11.4861 13.043 13.0434 11.4859 13.0434 9.56477C13.0433 8.9393 12.8774 8.35281 12.5884 7.8457Z" fill="#FFDA44"/>
<path d="M8.69617 10V12.9339C8.97406 13.0054 9.26546 13.0434 9.5657 13.0434C9.86593 13.0434 10.1573 13.0053 10.4352 12.9339V10H8.69617Z" fill="#A2001D"/>
</g>
<defs>
<clipPath id="clip0_1350_9096">
<rect width="40" height="40" fill="white"/>
</clipPath>
</defs>
</svg>
