<svg width="40" height="40" viewBox="0 0 40 40" fill="none" xmlns="http://www.w3.org/2000/svg">
<g clip-path="url(#clip0_1350_9124)">
<path d="M40 20C40 31.0456 31.0456 40 20 40C8.95437 40 0 31.0456 0 20C0 20.0048 20 0.0021875 20 0C31.0456 0 40 8.95437 40 20Z" fill="#0052B4"/>
<path d="M19.946 19.9998H19.9995C19.9995 19.9818 19.9995 19.9643 19.9995 19.9463C19.9817 19.9642 19.9639 19.982 19.946 19.9998Z" fill="#F0F0F0"/>
<path d="M20 10.4348C20 6.91563 20 4.60977 20 0H19.9966C8.95242 0.001875 0 8.95539 0 20H10.4348V14.1241L16.3106 20H19.9466C19.9644 19.9822 19.9822 19.9644 20.0001 19.9465C20.0001 18.5991 20.0001 17.3968 20.0001 16.3108L14.1241 10.4348H20Z" fill="#F0F0F0"/>
<path d="M10.1188 2.6084C6.99077 4.38957 4.39022 6.99004 2.60913 10.1181V19.9997H7.82655V7.82598V7.82582H20.0005C20.0005 6.18027 20.0005 4.61262 20.0005 2.6084H10.1188Z" fill="#D80027"/>
<path d="M20.0011 17.5403L12.8952 10.4346H10.4358V10.4347L20.0009 19.9997H20.0011C20.0011 19.9997 20.0011 18.3038 20.0011 17.5403Z" fill="#D80027"/>
<path d="M26.9558 20L27.3259 21.1387H28.5232L27.5546 21.8425L27.9246 22.9813L26.9558 22.2775L25.9871 22.9813L26.3571 21.8425L25.3885 21.1387H26.5858L26.9558 20Z" fill="#F0F0F0"/>
<path d="M22.037 22.0375L23.1038 22.581L23.9505 21.7344L23.7632 22.917L24.83 23.4606L23.6474 23.6478L23.4601 24.8306L22.9164 23.7637L21.7339 23.951L22.5807 23.1044L22.037 22.0375Z" fill="#F0F0F0"/>
<path d="M20 26.9568L21.1387 26.5868L21.1389 25.3896L21.8425 26.3582L22.9813 25.9881L22.2775 26.9568L22.9813 27.9257L21.8425 27.5557L21.1389 28.5243V27.327L20 26.9568Z" fill="#F0F0F0"/>
<path d="M22.037 31.8751L22.5805 30.8082L21.7339 29.9616L22.9165 30.1489L23.4601 29.082L23.6474 30.2647L24.83 30.4519L23.7632 30.9955L23.9505 32.1783L23.1038 31.3314L22.037 31.8751Z" fill="#F0F0F0"/>
<path d="M26.9559 33.913L26.5859 32.7741H25.3886L26.3573 32.0704L25.9873 30.9316L26.9559 31.6354L27.9248 30.9316L27.5548 32.0704L28.5233 32.7741H27.3261L26.9559 33.913Z" fill="#F0F0F0"/>
<path d="M31.8754 31.8751L30.8086 31.3316L29.962 32.1783L30.1493 30.9955L29.0824 30.452L30.2651 30.2647L30.4524 29.082L30.9959 30.1489L32.1786 29.9616L31.3318 30.8083L31.8754 31.8751Z" fill="#F0F0F0"/>
<path d="M33.9136 26.9568L32.7748 27.327V28.5243L32.071 27.5556L30.9323 27.9257L31.6361 26.9568L30.9323 25.9881L32.071 26.3582L32.7748 25.3896V26.5868L33.9136 26.9568Z" fill="#F0F0F0"/>
<path d="M31.8754 22.0375L31.332 23.1043L32.1786 23.9509L30.9959 23.7636L30.4524 24.8306L30.2651 23.6477L29.0824 23.4605L30.1493 22.917L29.962 21.7344L30.8086 22.5809L31.8754 22.0375Z" fill="#F0F0F0"/>
</g>
<defs>
<clipPath id="clip0_1350_9124">
<rect width="40" height="40" fill="white"/>
</clipPath>
</defs>
</svg>
