<svg width="40" height="40" viewBox="0 0 40 40" fill="none" xmlns="http://www.w3.org/2000/svg">
<g clip-path="url(#clip0_1350_10388)">
<path d="M20 40C31.0457 40 40 31.0457 40 20C40 8.9543 31.0457 0 20 0C8.9543 0 0 8.9543 0 20C0 31.0457 8.9543 40 20 40Z" fill="#F0F0F0"/>
<path d="M38.7559 13.0435H1.24391C0.440078 15.2102 0 17.5535 0 19.9999C0 22.4463 0.440078 24.7899 1.24391 26.9564H38.756C39.56 24.7899 40 22.4463 40 19.9999C40 17.5535 39.56 15.2102 38.7559 13.0435Z" fill="#A2001D"/>
<path d="M20.058 39.9994C26.9081 39.9994 32.9531 36.5547 36.5577 31.3037H3.55835C7.16288 36.5547 13.2077 39.9994 20.058 39.9994Z" fill="#6DA544"/>
<path d="M20.058 0C26.9081 0 32.9531 3.44469 36.5577 8.69562H3.55835C7.16288 3.44469 13.2077 0 20.058 0Z" fill="#6DA544"/>
<path d="M20 13.0435L21.7267 18.3575H27.3146L22.7939 21.6422L24.5207 26.9564L20 23.6721L15.4793 26.9564L17.2062 21.6422L12.6855 18.3575H18.2734L20 13.0435Z" fill="#FFDA44"/>
</g>
<defs>
<clipPath id="clip0_1350_10388">
<rect width="40" height="40" fill="white"/>
</clipPath>
</defs>
</svg>
