<svg width="40" height="40" viewBox="0 0 40 40" fill="none" xmlns="http://www.w3.org/2000/svg">
<g clip-path="url(#clip0_1350_16346)">
<mask id="mask0_1350_16346" style="mask-type:luminance" maskUnits="userSpaceOnUse" x="0" y="0" width="40" height="40">
<path d="M20 39.9579C31.0225 39.9579 39.958 31.0225 39.958 20C39.958 8.97748 31.0225 0.0419922 20 0.0419922C8.97754 0.0419922 0.0420532 8.97748 0.0420532 20C0.0420532 31.0225 8.97754 39.9579 20 39.9579Z" fill="white"/>
</mask>
<g mask="url(#mask0_1350_16346)">
<path d="M20.0294 -0.248861C33.4441 -0.248861 46.859 -0.25038 60.274 -0.253418C60.4639 -0.253418 60.5064 -0.210886 60.5064 -0.0210129C60.5013 13.3852 60.4998 26.7915 60.5018 40.1977C60.4056 40.2484 60.3028 40.2215 60.2031 40.2215C33.4193 40.2215 6.63533 40.2215 -20.1488 40.2215C-20.5088 40.2215 -20.4673 40.261 -20.4673 39.8934C-20.4673 33.3469 -20.4673 26.8006 -20.4673 20.2544C-20.4673 20.1496 -20.5083 20.0337 -20.4167 19.9415C-20.2232 19.8752 -20.0202 19.8732 -19.8202 19.8722C-19.0374 19.8674 -18.2546 19.8674 -17.4718 19.8722C-16.9848 19.9035 -16.4977 19.8828 -16.0106 19.8656C-15.8506 19.86 -15.7124 19.7557 -15.5696 19.6843L-4.10982 13.9587C-4.02678 13.9172 -3.94526 13.8727 -3.8597 13.8377C-3.60653 13.7365 -3.52197 13.7871 -3.50527 14.064C-3.49109 14.3081 -3.50071 14.5521 -3.50071 14.7962C-3.50071 16.3621 -3.50071 17.9278 -3.50071 19.4934C-3.50071 19.8782 -3.50071 19.8782 -3.10678 19.8797C-2.79539 19.8797 -2.484 19.8767 -2.1721 19.8853C-1.1721 19.8534 -0.171595 19.8772 0.828405 19.8727C1.13878 19.8727 1.45018 19.8544 1.76005 19.8848C2.09625 19.8742 2.43296 19.8808 2.76967 19.8772C3.07347 19.8747 3.08461 19.8671 3.08511 19.5663C3.08815 18.4716 3.08511 17.377 3.08511 16.2823C3.08511 15.6072 3.08511 14.9334 3.08511 14.261C3.08266 14.1684 3.08655 14.0757 3.09676 13.9835C3.12106 13.8114 3.2117 13.7491 3.37878 13.8104C3.49609 13.8573 3.6107 13.9107 3.72208 13.9704C7.52798 15.8722 11.3334 17.7749 15.1383 19.6787C15.4077 19.8167 15.707 19.8863 16.0097 19.8813C17.1469 19.8716 18.2846 19.8813 19.4218 19.8737C19.5737 19.8737 19.7403 19.9562 19.8861 19.8403C19.9707 19.5962 19.9104 19.3456 19.9256 19.0985C19.9383 18.8919 19.9104 18.6833 19.9413 18.4767C19.956 18.4089 19.9221 18.3395 19.9342 18.2742C20.0137 17.858 19.7692 17.6914 19.4365 17.5268C16.793 16.22 14.1575 14.8965 11.5195 13.5775C11.4066 13.5213 11.2876 13.4737 11.1914 13.3896C11.079 13.2924 11.1044 13.218 11.239 13.1765C11.3616 13.1385 11.4922 13.1501 11.6157 13.1496H19.4795C19.9312 13.1496 19.9307 13.1496 19.9317 12.6939C19.9317 12.4078 19.9266 12.1218 19.9413 11.8332C19.9074 10.9785 19.9302 10.1233 19.9276 9.2681C19.9276 8.80734 19.9074 8.34608 19.9403 7.88582C19.9246 7.55823 19.9332 7.23013 19.9302 6.90203C19.9271 6.57392 19.9216 6.5724 19.6061 6.57139C18.8395 6.56835 18.0725 6.57139 17.3059 6.57139C15.4017 6.57139 13.4973 6.57139 11.5925 6.57139C11.4669 6.57139 11.3393 6.58203 11.2173 6.53544C11.1094 6.49392 11.0963 6.42608 11.1773 6.34557C11.2684 6.25494 11.3884 6.20835 11.5013 6.15215L19.4603 2.17696C19.5504 2.1319 19.639 2.08228 19.7307 2.04025C19.8795 1.97139 19.9332 1.86 19.9332 1.69747C19.9302 1.17527 19.9302 0.653249 19.9332 0.131392C19.9322 -0.0032914 19.9226 -0.141013 20.0294 -0.248861Z" fill="#000089"/>
<path d="M1.81672 19.9657H-2.23037C-2.36353 19.8477 -2.33163 19.6882 -2.33163 19.5398C-2.33366 17.1901 -2.33366 14.8401 -2.33163 12.4897C-2.33163 11.9895 -2.33163 11.989 -2.83138 11.989H-19.8764C-20.4678 11.989 -20.4678 11.989 -20.4678 11.4001C-20.4678 10.2882 -20.4678 9.17646 -20.4678 8.0649C-20.4678 7.78946 -20.4278 7.74946 -20.1478 7.73832C-20.0218 7.73376 -19.8947 7.73832 -19.7686 7.73832H-2.82784C-2.33518 7.73832 -2.33467 7.73832 -2.33467 7.2568C-2.33467 4.90676 -2.33467 2.55672 -2.33467 0.206673C-2.33467 0.0492044 -2.36606 -0.118391 -2.2334 -0.249023H1.81672C1.9509 -0.120922 1.91799 0.0466728 1.91799 0.203635C1.91799 2.54456 1.91799 4.88515 1.91799 7.22541C1.91799 7.73629 1.91799 7.73629 2.4309 7.73629C8.12609 7.73629 13.8211 7.73629 19.516 7.73629C19.6871 7.73629 19.8749 7.68566 20.0177 7.83756V11.8821C19.9453 11.9667 19.8471 11.9834 19.7433 11.9834C19.6167 11.9834 19.4901 11.9834 19.3641 11.9834H2.39647C1.92153 11.9834 1.92102 11.9834 1.92102 12.4573C1.92102 14.8165 1.92102 17.1754 1.92102 19.5343C1.91951 19.6872 1.94989 19.8477 1.81672 19.9657Z" fill="#FE0000"/>
<path d="M-2.23035 -0.248951C-2.23035 2.36236 -2.22866 4.97366 -2.22528 7.58497C-2.22528 7.79257 -2.27035 7.84624 -2.483 7.84573C-8.37465 7.83932 -14.2663 7.83594 -20.1579 7.83561C-20.3767 7.83561 -20.4526 7.87459 -20.4496 8.1151C-20.4349 9.27966 -20.4369 10.4397 -20.4496 11.6022C-20.4496 11.8245 -20.405 11.8913 -20.1681 11.8913C-14.2946 11.8839 -8.41988 11.8795 -2.54376 11.8781C-2.27136 11.8781 -2.22478 11.9566 -2.22579 12.2083C-2.23541 14.7941 -2.23186 17.3799 -2.23186 19.9657C-2.6111 19.9688 -2.99136 19.9622 -3.36908 19.9784C-3.54832 19.9865 -3.59035 19.9318 -3.58984 19.7561C-3.58376 17.8746 -3.58984 15.9931 -3.58984 14.1116V13.8584C-3.70528 13.8346 -3.77414 13.909 -3.85262 13.946C-7.7706 15.9014 -11.6876 17.8592 -15.6035 19.8194C-15.8097 19.9312 -16.042 19.9861 -16.2764 19.9784C-16.6465 19.9607 -17.0177 19.9688 -17.3903 19.9657C-17.4364 19.8903 -17.3696 19.8599 -17.3286 19.826C-17.2538 19.7713 -17.1729 19.7254 -17.0876 19.6893C-12.9043 17.6002 -8.72148 15.5104 -4.53921 13.4199C-4.48056 13.3889 -4.4204 13.3609 -4.35895 13.3359C-5.10528 13.3404 -5.85465 13.3419 -6.60351 13.3359C-6.84775 13.3333 -7.08889 13.3906 -7.30579 13.5029C-11.4621 15.5816 -15.6199 17.6599 -19.7792 19.7379C-19.9727 19.8396 -20.1786 19.9156 -20.3919 19.9637C-20.4931 20.0417 -20.44 20.1505 -20.44 20.2427C-20.443 26.7973 -20.446 33.3517 -20.4491 39.906C-20.4491 40.1531 -20.3878 40.2012 -20.1483 40.2012C6.73472 40.1951 33.6181 40.1932 60.5018 40.1956C60.4907 40.2113 60.5271 40.2462 60.4765 40.2462C60.4091 40.2462 60.3413 40.2462 60.274 40.2462C33.4274 40.2462 6.58079 40.2478 -20.2658 40.2508C-20.4552 40.2508 -20.4982 40.2083 -20.4982 40.0184C-20.4931 26.6712 -20.4904 13.324 -20.4901 -0.0231284C-20.4901 -0.0970525 -20.5488 -0.194774 -20.443 -0.250977C-20.3645 -0.149711 -20.3534 -0.0367993 -20.3539 0.0832007C-20.3539 0.352568 -20.3422 0.622948 -20.3574 0.893327C-20.3706 1.12928 -20.2739 1.26042 -20.0653 1.36269C-19.0222 1.87561 -17.9843 2.39915 -16.9443 2.91864C-14.7502 4.014 -12.5576 5.11105 -10.3665 6.20978C-10.1272 6.33306 -9.86105 6.39516 -9.59186 6.39054C-8.83541 6.38244 -8.07845 6.38345 -7.34781 6.39054C-7.79693 6.17738 -8.25921 5.93485 -8.72705 5.70345C-12.5107 3.81417 -16.2935 1.92303 -20.0754 0.0300361C-20.2 -0.0322424 -20.3792 -0.0499639 -20.3924 -0.248951H-15.8896C-15.5858 -0.179584 -15.3083 -0.036293 -15.0288 0.105479C-11.3458 1.94649 -7.66191 3.78717 -3.97718 5.6275C-3.9544 5.63864 -3.9311 5.64877 -3.90933 5.66143C-3.7625 5.74852 -3.67186 5.74042 -3.68807 5.53687C-3.69262 5.47814 -3.68807 5.4189 -3.68807 5.35966C-3.68807 3.63409 -3.68807 1.90818 -3.68807 0.181935C-3.68807 0.0340867 -3.71946 -0.124901 -3.59693 -0.248951H-2.23035Z" fill="#FEFEFE"/>
<path d="M20.0208 7.83917C14.0461 7.83917 8.07145 7.84102 2.09676 7.84474C1.86284 7.84474 1.81322 7.78246 1.81372 7.55765C1.82183 4.95512 1.81879 2.35208 1.81879 -0.250452H3.18132C3.30385 -0.126402 3.27246 0.0325858 3.27246 0.18094C3.27448 1.89841 3.27448 3.61588 3.27246 5.33334C3.27246 5.38398 3.27246 5.43461 3.27246 5.48524C3.2755 5.76018 3.28208 5.76524 3.53778 5.63714L9.75752 2.53233C11.4757 1.6736 13.193 0.81402 14.9094 -0.0464016C15.0927 -0.138047 15.2876 -0.181591 15.4765 -0.248933H16.9449C16.952 -0.0919712 16.8152 -0.0661484 16.7185 -0.0160218C16.1869 0.258409 15.6487 0.519674 15.114 0.787016C11.436 2.62668 7.75786 4.46432 4.07955 6.29993C4.01805 6.33282 3.95484 6.3624 3.89018 6.38854C4.64461 6.38854 5.39246 6.38195 6.1398 6.38854C6.40904 6.39325 6.6753 6.33151 6.91499 6.20879C10.9994 4.16524 15.0838 2.12305 19.1682 0.082206C19.4309 -0.0489332 19.6902 -0.187161 19.9783 -0.251465H20.0289C20.0289 0.422459 20.0203 1.09689 20.0345 1.77031C20.0385 1.96221 19.9697 2.04575 19.8066 2.12474C16.9999 3.52322 14.1948 4.92457 11.3914 6.32879C11.3103 6.36485 11.2381 6.41825 11.1798 6.48524H11.4406C14.2137 6.48524 16.9874 6.48828 19.7606 6.47967C19.9839 6.47967 20.0487 6.53031 20.035 6.75461C20.0122 7.11562 20.0239 7.47866 20.0208 7.83917Z" fill="#FEFEFE"/>
<path d="M15.4765 -0.248969C14.2228 0.383605 12.9689 1.01415 11.7149 1.64268C8.94903 3.02664 6.18194 4.40976 3.41367 5.79204C3.34684 5.82546 3.27899 5.85533 3.22177 5.88217C3.15038 5.85533 3.17114 5.80571 3.17114 5.76926C3.17114 3.7966 3.17114 1.82377 3.17114 -0.149222C3.17334 -0.1832 3.17756 -0.217016 3.1838 -0.250488L15.4765 -0.248969Z" fill="#00008A"/>
<path d="M19.9788 -0.249023C19.9312 -0.171049 19.8426 -0.156365 19.7702 -0.120416C15.4461 2.04262 11.1219 4.20482 6.79753 6.36617C6.64124 6.44738 6.46732 6.48877 6.2912 6.48667C5.49069 6.48009 4.68968 6.48363 3.88918 6.48363H3.64614L3.63702 6.44313C3.7069 6.40617 3.77626 6.36718 3.84715 6.33174C8.13981 4.18693 12.4321 2.04144 16.7241 -0.10472C16.8011 -0.143201 16.9023 -0.155353 16.9434 -0.249023H19.9788Z" fill="#FE0000"/>
<path d="M1.81673 19.9659C1.81673 17.3557 1.81976 14.7456 1.81116 12.1355C1.81116 11.9188 1.87192 11.8823 2.07495 11.8823C8.0574 11.8884 14.0393 11.8901 20.0208 11.8874C20.0238 12.2575 20.0152 12.6287 20.0339 12.9983C20.0441 13.1973 19.9833 13.2484 19.7858 13.2474C17.7965 13.2398 15.8071 13.2428 13.8177 13.2428H11.1889C11.1828 13.256 11.1767 13.2697 11.1701 13.2828C11.2441 13.3218 11.317 13.3618 11.3919 13.3993C14.1737 14.788 16.9566 16.1752 19.7408 17.5608C19.9565 17.6676 20.075 17.7775 20.0329 18.0297C20.0096 18.1694 20.0238 18.3152 20.0208 18.458C19.8643 18.5512 19.7458 18.4357 19.6253 18.376C18.2076 17.6702 16.7899 16.9627 15.3722 16.2535C13.5494 15.3421 11.7254 14.4295 9.90027 13.5157C9.66056 13.3925 9.39409 13.3304 9.12458 13.335C8.38331 13.3441 7.64154 13.34 6.93217 13.335C6.99242 13.3573 7.07951 13.4038 7.16761 13.4479C11.3286 15.5292 15.4898 17.6103 19.6512 19.6909C19.7777 19.7542 19.955 19.775 19.9793 19.9659C18.521 19.9689 17.063 19.9725 15.6051 19.9765C15.477 19.9765 15.3798 19.9127 15.2765 19.8611C11.3288 17.8908 7.38145 15.9191 3.43445 13.9461C3.16964 13.814 3.16964 13.814 3.16964 14.1122C3.16964 15.9856 3.1666 17.855 3.1747 19.7264C3.1747 19.9233 3.13318 19.9902 2.92812 19.9795C2.55901 19.9598 2.18736 19.9689 1.81673 19.9659Z" fill="#FEFEFE"/>
<path d="M4.52507 26.3268C3.84963 27.3445 3.20862 28.3207 2.55444 29.2878C2.44203 29.4534 2.45874 29.5213 2.62887 29.62C3.55241 30.1547 4.46937 30.701 5.38836 31.2443C5.47343 31.2949 5.55798 31.3456 5.70634 31.4377C5.05824 31.4954 4.47849 31.5481 3.89874 31.5987C3.28608 31.6494 2.67393 31.7096 2.06077 31.7506C1.87343 31.7623 1.91444 31.865 1.92912 31.9704C2.08743 33.1029 2.24625 34.2355 2.40558 35.3683C2.41064 35.4013 2.41267 35.4347 2.42077 35.5147C2.19748 35.2899 1.99748 35.0964 1.80558 34.8949C1.20102 34.2615 0.590388 33.6321 0.00102091 32.9861C-0.168093 32.8013 -0.256195 32.8169 -0.41822 32.9911C-1.16404 33.7921 -1.92404 34.5805 -2.67949 35.3709C-2.71847 35.4119 -2.76151 35.4494 -2.83695 35.5228C-2.72354 34.704 -2.61721 33.9334 -2.50987 33.1628C-2.45417 32.7633 -2.40202 32.3628 -2.33923 31.9643C-2.31645 31.8205 -2.33316 31.7618 -2.50531 31.7481C-3.66987 31.6569 -4.83797 31.5516 -6.00404 31.4499C-6.03018 31.4413 -6.05531 31.4299 -6.07898 31.4159C-5.61822 31.1405 -5.1767 30.8747 -4.73316 30.6119C-4.17619 30.2823 -3.61923 29.9486 -3.05771 29.6306C-2.88202 29.5294 -2.84455 29.4676 -2.97113 29.2823C-3.58227 28.3861 -4.17518 27.4782 -4.77468 26.5734C-4.81974 26.505 -4.86379 26.4357 -4.94379 26.3116C-4.36303 26.5309 -3.84151 26.7253 -3.31847 26.9278C-2.73771 27.1481 -2.15392 27.3643 -1.57771 27.5947C-1.41062 27.661 -1.361 27.6175 -1.30936 27.4544C-0.970625 26.3709 -0.616195 25.2949 -0.266828 24.2169C-0.255182 24.18 -0.242017 24.1435 -0.205562 24.0347C-0.0723972 24.4453 0.0389953 24.7896 0.148869 25.1344C0.398995 25.9086 0.658236 26.6807 0.893679 27.46C0.950387 27.6483 1.0157 27.6428 1.1671 27.585C2.23393 27.1764 3.3033 26.7749 4.37216 26.3699C4.40355 26.3597 4.43494 26.3526 4.52507 26.3268Z" fill="#FEFEFE"/>
<path d="M19.9793 19.9658C18.916 19.4286 17.8527 18.8878 16.7843 18.3541C13.4763 16.7001 10.1663 15.0461 6.85421 13.3921C6.78788 13.3592 6.72409 13.3222 6.65826 13.2868C6.67143 13.2696 6.68004 13.2483 6.68864 13.2483C7.60713 13.2453 8.52611 13.2453 9.44459 13.2407C9.57978 13.2407 9.68712 13.303 9.79902 13.3587L19.8157 18.3627C19.8831 18.3967 19.9524 18.4265 20.0208 18.4579C20.0238 18.919 20.0264 19.3803 20.0284 19.8417C20.0284 19.8868 20.0476 19.9455 19.9793 19.9658Z" fill="#FE0000"/>
<path d="M27.3955 18.0508C27.8264 17.7951 28.2537 17.5338 28.6892 17.2862C28.8507 17.1946 28.8887 17.1217 28.7687 16.9541C28.4765 16.5439 28.2066 16.1186 27.8892 15.6417C28.4001 15.8351 28.8568 15.9961 29.3023 16.1819C29.5261 16.2761 29.6249 16.2533 29.6922 15.9996C29.8142 15.5394 29.9747 15.0882 30.1307 14.5991C30.2547 14.7875 30.2791 14.9784 30.3408 15.1515C30.4451 15.4437 30.5434 15.7394 30.6203 16.0396C30.671 16.233 30.7332 16.2928 30.9388 16.2037C31.3312 16.033 31.7368 15.8923 32.1383 15.7439C32.2056 15.7191 32.2689 15.6644 32.3702 15.6933C32.1023 16.0984 31.8406 16.4938 31.5773 16.8898C31.397 17.1606 31.3975 17.1586 31.6882 17.3303C32.0932 17.5692 32.4937 17.8113 32.9631 18.0898C32.4203 18.1348 31.9504 18.1723 31.478 18.2128C31.0801 18.2467 31.154 18.232 31.1945 18.553C31.2522 19.0168 31.351 19.4766 31.3697 20.0153C31.0112 19.6381 30.6953 19.3065 30.3813 18.9758C30.1484 18.7298 30.1494 18.7292 29.9206 18.9703C29.637 19.2697 29.3528 19.5686 29.0679 19.867C29.0239 19.913 28.9894 19.9779 28.8993 19.9723C28.9697 19.4725 29.0264 18.9768 29.116 18.4872C29.154 18.2776 29.0942 18.228 28.9013 18.2158C28.4056 18.186 27.911 18.1389 27.4158 18.0989L27.3955 18.0508Z" fill="#FEFEFE"/>
<path d="M40.2952 30.6558C40.4471 31.1317 40.6091 31.6061 40.7509 32.0846C40.8016 32.2461 40.8436 32.2998 41.0248 32.2244C41.4805 32.0345 41.9484 31.8699 42.4127 31.6988C42.4775 31.794 42.3955 31.8456 42.3595 31.9013C42.1165 32.275 41.876 32.6507 41.6172 33.0127C41.5195 33.1499 41.5524 33.1991 41.68 33.2725C42.081 33.5029 42.476 33.7434 42.8724 33.9813C42.92 34.0097 42.9848 34.0203 43.0081 34.1115C42.5221 34.152 42.041 34.2016 41.559 34.2284C41.3454 34.2401 41.2466 34.2689 41.3059 34.5292C41.3914 34.9226 41.4243 35.3277 41.476 35.7282C41.4856 35.8072 41.5129 35.8907 41.4527 35.9889C41.1059 35.6249 40.76 35.2735 40.4294 34.9074C40.3094 34.7742 40.2491 34.7418 40.1109 34.8988C39.7727 35.2831 39.4097 35.6451 39.0173 36.0573C39.0922 35.4973 39.1479 34.9884 39.235 34.4846C39.2694 34.2821 39.2147 34.2421 39.0324 34.2315C38.5322 34.2021 38.0335 34.1545 37.4562 34.1079C37.9266 33.8239 38.3231 33.5616 38.7418 33.3413C38.9732 33.2193 39.0167 33.1342 38.8522 32.9115C38.5676 32.5282 38.3185 32.1185 38.0522 31.716C38.1869 31.6755 38.2846 31.7631 38.3914 31.8016C38.7393 31.9261 39.0917 32.0431 39.4259 32.1985C39.6719 32.3125 39.7489 32.2396 39.8147 32.0031C39.9398 31.551 40.0962 31.1074 40.2395 30.6603L40.2952 30.6558Z" fill="#FEFEFE"/>
<path d="M38.0532 4.76616C38.2208 4.72363 38.3489 4.82844 38.4876 4.87654C38.836 4.99857 39.1823 5.12971 39.5236 5.26945C39.6669 5.32819 39.7226 5.31148 39.7691 5.15502C39.916 4.6649 40.0805 4.18085 40.2421 3.68262C40.3433 3.73983 40.3383 3.84009 40.3651 3.92059C40.5023 4.33477 40.641 4.74895 40.7651 5.16768C40.8081 5.31401 40.8618 5.32717 40.996 5.273C41.3929 5.11249 41.7955 4.96565 42.1975 4.8173C42.2719 4.78996 42.3438 4.72464 42.4593 4.78692C42.194 5.19198 41.9393 5.59249 41.6653 5.98186C41.5489 6.14844 41.5185 6.23198 41.7378 6.34641C42.1742 6.57477 42.5894 6.84312 43.0709 7.1292C42.5104 7.18287 42.0137 7.2416 41.515 7.27249C41.3185 7.28464 41.2618 7.32312 41.2988 7.53274C41.3841 8.02394 41.4349 8.52052 41.4507 9.01882C41.1226 8.67452 40.7823 8.34084 40.4709 7.98236C40.3059 7.79249 40.2142 7.80059 40.0532 7.9854C39.7381 8.34706 39.3959 8.68408 39.0294 8.9935C39.0972 8.49679 39.16 7.99958 39.237 7.50439C39.2618 7.34844 39.2491 7.28667 39.0648 7.27553C38.5524 7.24414 38.0421 7.1854 37.4598 7.13072C37.8243 6.91401 38.1362 6.73173 38.4446 6.54388C38.6299 6.43097 38.9291 6.36717 38.9676 6.18945C38.999 6.04464 38.7697 5.84262 38.6542 5.66743C38.4542 5.36869 38.2542 5.06895 38.0532 4.76616Z" fill="#FEFEFE"/>
</g>
</g>
<defs>
<clipPath id="clip0_1350_16346">
<rect width="40" height="40" fill="white"/>
</clipPath>
</defs>
</svg>
