<svg width="40" height="40" viewBox="0 0 40 40" fill="none" xmlns="http://www.w3.org/2000/svg">
<g clip-path="url(#clip0_1350_9700)">
<path d="M38.756 26.9568C39.56 24.7903 40 22.4467 40 20.0003C40 17.5539 39.56 15.2104 38.756 13.0438L20 11.3047L1.24398 13.0438C0.44 15.2104 0 17.5539 0 20.0003C0 22.4467 0.44 24.7903 1.24398 26.9568L20 28.696L38.756 26.9568Z" fill="#6DA544"/>
<path d="M38.7559 13.0435C35.93 5.4275 28.5991 0 19.9999 0C11.4006 0 4.06969 5.4275 1.24384 13.0435H38.7559Z" fill="#FFDA44"/>
<path d="M19.9999 40.0006C28.5991 40.0006 35.93 34.5731 38.7559 26.957H1.24384C4.06969 34.5731 11.4006 40.0006 19.9999 40.0006Z" fill="#D80027"/>
</g>
<defs>
<clipPath id="clip0_1350_9700">
<rect width="40" height="40" fill="white"/>
</clipPath>
</defs>
</svg>
