<svg width="40" height="40" viewBox="0 0 40 40" fill="none" xmlns="http://www.w3.org/2000/svg">
<g clip-path="url(#clip0_1350_10221)">
<path d="M20 40C31.0457 40 40 31.0457 40 20C40 8.9543 31.0457 0 20 0C8.9543 0 0 8.9543 0 20C0 31.0457 8.9543 40 20 40Z" fill="#F0F0F0"/>
<path d="M20 0C8.95437 0 0 8.95437 0 20C0 22.4464 0.440078 24.7899 1.24398 26.9565H38.7561C39.56 24.7899 40 22.4464 40 20C40 8.95437 31.0456 0 20 0Z" fill="#0052B4"/>
<path d="M19.9999 0C11.4006 0 4.06969 5.4275 1.24384 13.0435H38.7559C35.93 5.4275 28.5991 0 19.9999 0Z" fill="#D80027"/>
<path d="M5.17169 11.3042V21.2812C5.17169 26.9565 12.5858 28.6955 12.5858 28.6955C12.5858 28.6955 19.9999 26.9565 19.9999 21.2812V11.3042H5.17169Z" fill="#D80027"/>
<path d="M8.23798 13.0436H16.9337V9.56531L15.1945 10.4348L12.5859 7.82617L9.97712 10.4348L8.23798 9.56531V13.0436Z" fill="#FFDA44"/>
<path d="M18.261 22.6703L12.6088 17.0181L6.9566 22.6703L8.80121 24.5149L12.6088 20.7073L16.4164 24.5149L18.261 22.6703Z" fill="#FFDA44"/>
<path d="M18.261 17.3912H15.6238C15.7721 17.1353 15.8583 16.8389 15.8583 16.5219C15.8583 15.5612 15.0797 14.7827 14.1192 14.7827C13.4555 14.7827 12.8792 15.1544 12.586 15.7009C12.2928 15.1545 11.7164 14.7827 11.0528 14.7827C10.0923 14.7827 9.31364 15.5612 9.31364 16.5219C9.31364 16.8389 9.39989 17.1354 9.54817 17.3912H6.9566C6.9566 18.3518 7.79324 19.1304 8.75364 19.1304H8.69575C8.69575 20.0909 9.47434 20.8695 10.4349 20.8695C10.4349 21.72 11.0457 22.4265 11.8523 22.5778L10.482 25.6717C11.1387 25.9387 11.8564 26.0869 12.6089 26.0869C13.3614 26.0869 14.079 25.9387 14.7357 25.6717L13.3654 22.5778C14.1721 22.4267 14.7829 21.7201 14.7829 20.8695C15.7434 20.8695 16.522 20.0909 16.522 19.1304H16.4641C17.4244 19.1304 18.261 18.3517 18.261 17.3912Z" fill="#F0F0F0"/>
</g>
<defs>
<clipPath id="clip0_1350_10221">
<rect width="40" height="40" fill="white"/>
</clipPath>
</defs>
</svg>
