<svg width="40" height="40" viewBox="0 0 40 40" fill="none" xmlns="http://www.w3.org/2000/svg">
<g clip-path="url(#clip0_1350_11355)">
<mask id="mask0_1350_11355" style="mask-type:luminance" maskUnits="userSpaceOnUse" x="0" y="0" width="40" height="40">
<path d="M20.0044 39.9795C31.0432 39.9795 39.992 31.0308 39.992 19.992C39.992 8.95313 31.0432 0.00439453 20.0044 0.00439453C8.96558 0.00439453 0.0168457 8.95313 0.0168457 19.992C0.0168457 31.0308 8.96558 39.9795 20.0044 39.9795Z" fill="white"/>
</mask>
<g mask="url(#mask0_1350_11355)">
<path d="M19.9785 40.1051C10.0285 40.1051 0.0785198 40.107 -9.87146 40.1106C-10.1033 40.1106 -10.1583 40.0537 -10.1581 39.8236C-10.1522 26.5937 -10.1522 13.3639 -10.1581 0.134231C-10.1581 -0.0788358 -10.1079 -0.126465 -9.89654 -0.126465C10.0376 -0.120845 29.9716 -0.120845 49.9056 -0.126465C50.1182 -0.126465 50.1665 -0.076939 50.1663 0.134863C50.1605 13.3646 50.1605 26.5944 50.1663 39.8242C50.1663 40.056 50.1094 40.1108 49.879 40.1106C39.9123 40.1043 29.9455 40.1025 19.9785 40.1051Z" fill="black"/>
<path d="M10.0906 39.995C10.0228 39.9977 9.9549 40.0028 9.88682 40.0028C3.29827 40.0028 -3.29048 40.0028 -9.87946 40.0028C-9.9216 40.0028 -9.96375 40.0005 -10.007 39.9992C-10.007 39.8498 -9.88557 39.7809 -9.79832 39.6936C-7.47524 37.3676 -5.14078 35.0532 -2.8274 32.7179C7.91991 21.8593 18.7715 11.1025 29.5591 0.282891C29.6723 0.169298 29.772 0.0361048 29.9361 -0.013421C30.0725 -0.0153177 30.2086 -0.0186897 30.3448 -0.0186897C36.8184 -0.0186897 43.2919 -0.0179872 49.7652 -0.0165822C49.8598 -0.0165822 49.9671 -0.0627361 50.0516 0.0243029C50.0107 0.150752 49.9151 0.237369 49.8246 0.32778L27.875 22.277C22.0584 28.0936 16.2417 33.9103 10.4251 39.7269C10.3224 39.8283 10.2308 39.9415 10.0906 39.995Z" fill="#FED500"/>
<path d="M29.9361 -0.0133878C28.8196 1.10948 27.7028 2.23249 26.5858 3.35563C19.4145 10.5299 12.2426 17.7036 5.07015 24.8768C0.0964899 29.8524 -4.87632 34.8288 -9.84829 39.806C-9.90709 39.8648 -9.98401 39.9114 -10.008 39.9995C-10.0923 39.9329 -10.0481 39.841 -10.0481 39.7626C-10.0505 26.5942 -10.053 13.4258 -10.0557 0.257424C-10.0557 0.0310801 -9.99813 -0.0241359 -9.77327 -0.0239252C3.40355 -0.0181647 16.5804 -0.0164085 29.7574 -0.0186565C29.8166 -0.0186565 29.8767 -0.0152845 29.9361 -0.0133878Z" fill="#00843E"/>
<path d="M10.0906 39.9951C11.2976 38.7825 12.5047 37.5698 13.7119 36.3572C18.2445 31.8219 22.7778 27.2874 27.3119 22.7536C34.8405 15.222 42.3702 7.69059 49.9009 0.159293C49.9485 0.111453 50.0019 0.0693034 50.0526 0.0244141C50.0552 0.177628 50.0602 0.330842 50.0602 0.484056C50.0602 13.5517 50.0622 26.6194 50.0661 39.687C50.0661 39.9346 50.0215 40.0103 49.7532 40.0101C36.6259 40.0024 23.4987 40.0001 10.3713 40.0033C10.2767 40.0033 10.1831 39.9981 10.0906 39.9951Z" fill="#D91A32"/>
</g>
</g>
<defs>
<clipPath id="clip0_1350_11355">
<rect width="40" height="40" fill="white"/>
</clipPath>
</defs>
</svg>
