<svg width="40" height="40" viewBox="0 0 40 40" fill="none" xmlns="http://www.w3.org/2000/svg">
<g clip-path="url(#clip0_1350_8661)">
<path d="M0 20C0 8.95437 8.95437 0 20 0C31.0456 0 40 8.95437 40 20C39.1305 20 20 22.6087 20 22.6087L0 20Z" fill="#D80027"/>
<path d="M40 20C40 31.0456 31.0456 40 20 40C8.95437 40 0 31.0456 0 20" fill="black"/>
<path d="M17.2565 15.9063L18.952 17.1367L18.3059 19.1295L20.0001 17.897L21.6958 19.1275L21.0472 17.1353L22.7412 15.903L20.6463 15.9042L19.9976 13.9121L19.3514 15.9049L17.2565 15.9063Z" fill="#FFDA44"/>
<path d="M24.9994 11.3394C23.4234 10.4294 21.7002 9.99998 19.9994 10.0029V12.6111C21.2565 12.6088 22.5301 12.926 23.695 13.5986C27.2246 15.6365 28.4382 20.1658 26.4003 23.6954C24.3626 27.2249 19.8333 28.4386 16.3037 26.4008C15.2754 25.8071 14.4454 25.001 13.8335 24.0708L11.6557 25.5086C12.4836 26.7671 13.6082 27.8567 14.9994 28.6598C19.7747 31.4169 25.9026 29.7749 28.6596 24.9996C31.4166 20.2243 29.7747 14.0964 24.9994 11.3394Z" fill="#FFDA44"/>
<path d="M14.2325 18.2607C13.5411 19.5247 14.0053 21.11 15.2692 21.8014L23.7418 26.4311C23.1656 27.4843 23.4716 28.7662 24.5248 29.3424L26.8135 30.5943C27.8667 31.1706 29.1879 30.7837 29.7641 29.7304L31.016 27.4418L14.2325 18.2607Z" fill="#FFDA44"/>
</g>
<defs>
<clipPath id="clip0_1350_8661">
<rect width="40" height="40" fill="white"/>
</clipPath>
</defs>
</svg>
