<svg width="40" height="40" viewBox="0 0 40 40" fill="none" xmlns="http://www.w3.org/2000/svg">
<g clip-path="url(#clip0_1350_16319)">
<mask id="mask0_1350_16319" style="mask-type:luminance" maskUnits="userSpaceOnUse" x="0" y="0" width="40" height="40">
<path d="M20 39.97C31.0374 39.97 39.985 31.0224 39.985 19.985C39.985 8.94759 31.0374 0 20 0C8.96259 0 0.0149994 8.94759 0.0149994 19.985C0.0149994 31.0224 8.96259 39.97 20 39.97Z" fill="white"/>
</mask>
<g mask="url(#mask0_1350_16319)">
<path d="M49.9829 21.4524V39.9369C49.9783 39.9423 49.972 39.9459 49.965 39.9472C49.958 39.9485 49.9508 39.9474 49.9445 39.9441C49.8556 39.911 49.7715 39.8662 49.6945 39.8107C39.881 33.2704 30.0678 26.7291 20.2549 20.187C20.1826 20.1387 20.0903 20.1069 20.0663 20.0071C20.0697 19.991 20.078 19.9763 20.09 19.965C20.102 19.9537 20.1172 19.9463 20.1335 19.9438C20.1763 19.9318 20.218 19.9138 20.2645 19.9195C20.6498 19.9795 21.0393 19.9666 21.427 19.9816C21.9895 20.0035 22.5514 20.0281 23.1128 20.0677C23.3263 20.0827 23.5412 20.089 23.7547 20.0956C24.2777 20.1114 24.7997 20.1474 25.3224 20.1684C25.929 20.193 26.5355 20.2284 27.1424 20.2584C27.5305 20.2766 27.9184 20.2966 28.3062 20.3183C28.9179 20.3513 29.5296 20.3813 30.1412 20.4083C30.5242 20.426 30.9071 20.4467 31.29 20.4665C31.9068 20.4986 32.5233 20.5306 33.1403 20.5585C33.5233 20.5756 33.9062 20.596 34.2891 20.6164C34.9056 20.6491 35.5224 20.6809 36.1391 20.7081C36.5173 20.7249 36.8951 20.7465 37.2729 20.766C37.8948 20.7981 38.5164 20.8305 39.1382 20.8581C39.511 20.8746 39.884 20.8971 40.2567 20.9156C40.8834 20.9456 41.5101 20.9798 42.137 21.0083C42.505 21.0248 42.8726 21.0458 43.2408 21.0647C43.8723 21.0971 44.5038 21.1306 45.1359 21.1582C45.4939 21.1738 45.8516 21.1963 46.2096 21.2137C46.8513 21.2455 47.493 21.2806 48.1347 21.3081C48.4978 21.3237 48.8603 21.351 49.2237 21.3636C49.4276 21.3708 49.6306 21.4002 49.8354 21.3936C49.8628 21.3917 49.8903 21.396 49.9159 21.4061C49.9414 21.4163 49.9643 21.4321 49.9829 21.4524Z" fill="#3365FE"/>
<path d="M21.516 0.00195312H47.466C47.4864 0.0937072 47.4081 0.121893 47.3562 0.159075C46.5074 0.783063 45.6537 1.40045 44.8015 2.01994C43.5221 2.95068 42.2421 3.88131 40.9613 4.81185C39.1398 6.13579 37.3185 7.46032 35.4975 8.78546C33.946 9.9119 32.3952 11.0391 30.845 12.1672L25.7205 15.8919C24.2387 16.969 22.7566 18.0467 21.2744 19.1252C21.0006 19.3249 20.7169 19.5111 20.4465 19.715C20.4112 19.7352 20.3774 19.7577 20.3451 19.7825C20.2999 19.8038 20.275 19.8457 20.2447 19.8823C20.1883 19.9222 20.1349 19.9723 20.0564 19.9423C20.0388 19.9311 20.0245 19.9154 20.0151 19.8967C20.0058 19.8781 20.0017 19.8572 20.0033 19.8364C20.0015 19.7936 20.0033 19.751 20.0033 19.7084V19.6017C20.0102 19.0937 20.0633 18.5885 20.0972 18.0823C20.119 17.7594 20.1448 17.437 20.1679 17.1144C20.2015 16.643 20.2396 16.172 20.2753 15.7009C20.2993 15.3834 20.3235 15.0655 20.346 14.748C20.3796 14.2766 20.4177 13.8056 20.4549 13.3345C20.4795 13.0268 20.5002 12.7189 20.5235 12.4112C20.561 11.9153 20.5964 11.419 20.6366 10.9231C20.6606 10.6256 20.6807 10.3276 20.7029 10.0298C20.7403 9.52849 20.7763 9.02744 20.8162 8.52639C20.8405 8.22384 20.8606 7.92099 20.8834 7.61815C20.9205 7.12189 20.9553 6.62564 20.9958 6.12969C21.0204 5.82744 21.0402 5.52429 21.063 5.22144C21.1002 4.72549 21.1352 4.22924 21.1754 3.73329C21.2 3.43074 21.2201 3.12759 21.2426 2.82504C21.2798 2.32869 21.317 1.83264 21.3544 1.33689C21.379 1.00435 21.4099 0.672118 21.4252 0.338985C21.4303 0.220844 21.4294 0.0991046 21.516 0.00195312Z" fill="#3365FE"/>
<path d="M-7.43027 0.00195312H18.5197C18.5943 0.0685198 18.6018 0.164172 18.6048 0.249929C18.6171 0.583662 18.6528 0.915896 18.6768 1.24843C18.7104 1.7099 18.7448 2.17167 18.7835 2.63284C18.8084 2.92549 18.83 3.21874 18.8501 3.5117C18.8843 4.01845 18.9283 4.52429 18.9634 5.03074C18.9856 5.35368 19.0114 5.67632 19.0339 5.99925C19.0672 6.47092 19.1044 6.94258 19.1418 7.41395C19.1655 7.7117 19.1889 8.00945 19.2093 8.3075C19.2444 8.81425 19.2879 9.32009 19.3233 9.82654C19.3454 10.1495 19.3706 10.4721 19.3937 10.7951C19.4273 11.2667 19.4657 11.7381 19.5014 12.2094C19.5256 12.5273 19.5491 12.8451 19.5721 13.163C19.606 13.6445 19.6453 14.1258 19.6819 14.6071C19.705 14.915 19.7292 15.2226 19.7505 15.5306C19.7847 16.0223 19.8243 16.5135 19.8624 17.0047C19.8849 17.2976 19.908 17.5906 19.928 17.8835C19.9532 18.2511 19.9805 18.6181 20.0129 18.9852C20.0309 19.1888 20.0105 19.3942 20.0177 19.5984V19.7033C20.0177 19.745 20.0177 19.7867 20.0177 19.828C20.0177 19.8694 20.0219 19.909 19.982 19.9357C19.9053 19.9627 19.8555 19.9057 19.7976 19.8757C19.7616 19.8457 19.7346 19.8029 19.6897 19.7819C19.6573 19.7572 19.6233 19.7345 19.588 19.7141C19.1083 19.3636 18.6234 19.0223 18.1436 18.6727C16.8769 17.7496 15.609 16.8276 14.34 15.9069C12.6593 14.6875 10.9791 13.4665 9.29956 12.2439C7.8243 11.1745 6.35044 10.1028 4.87797 9.02894L-0.258157 5.29491C-1.63107 4.29541 -3.00388 3.29691 -4.3766 2.2994C-5.35231 1.58906 -6.33492 0.883812 -7.30823 0.16777C-7.3637 0.126991 -7.45126 0.101204 -7.43027 0.00195312Z" fill="#3365FE"/>
<path d="M20.0783 19.9243C20.1382 19.9201 20.1751 19.8703 20.2261 19.8479C20.2577 19.8119 20.2957 19.7823 20.3382 19.7603C20.3719 19.7351 20.4076 19.7127 20.445 19.6934C21.3409 19.1003 22.2867 18.5906 23.2111 18.0467C24.4678 17.3069 25.7298 16.5774 26.9892 15.8425C28.9952 14.6732 31.0011 13.5038 33.0069 12.3342C34.6639 11.3697 36.3204 10.4042 37.9766 9.43766C40.3444 8.05655 42.7124 6.67544 45.0807 5.29434C46.5771 4.42137 48.0736 3.54801 49.57 2.67424C49.6519 2.62627 49.7337 2.57829 49.8174 2.53362C49.8693 2.50603 49.9229 2.46915 49.9829 2.51802V18.4862C49.9646 18.5068 49.9419 18.5229 49.9164 18.5333C49.8909 18.5437 49.8634 18.5481 49.836 18.5462C49.576 18.5327 49.3181 18.5699 49.0597 18.5825C48.5574 18.6068 48.0546 18.6188 47.5532 18.6626C47.34 18.6814 47.125 18.6823 46.9115 18.6898C46.3937 18.7081 45.8765 18.7423 45.3589 18.763C44.737 18.7876 44.1154 18.8269 43.4935 18.853C43.1157 18.8691 42.7373 18.8871 42.3598 18.9129C41.6891 18.9567 41.0168 18.9675 40.3466 19.0236C40.1385 19.0407 39.9268 19.0431 39.7199 19.05C39.2018 19.0673 38.6849 19.1018 38.1673 19.1228C37.5454 19.148 36.9238 19.1864 36.3019 19.2128C35.9241 19.2296 35.5457 19.247 35.1682 19.2727C34.4974 19.3165 33.8252 19.3273 33.155 19.3834C32.9469 19.4008 32.7352 19.4026 32.5283 19.4098C32.0153 19.4275 31.5034 19.462 30.9907 19.4823C30.3637 19.5069 29.7373 19.5465 29.1103 19.5723C28.7424 19.5882 28.3745 19.6098 28.0066 19.6287C27.3751 19.6614 26.7433 19.694 26.1115 19.7222C25.7436 19.739 25.3751 19.7543 25.0078 19.7798C24.531 19.8128 24.0525 19.814 23.5763 19.8605C23.3733 19.8805 23.1682 19.8781 22.9646 19.8871C22.0783 19.9258 21.1922 19.9906 20.304 19.9675C20.2791 19.9698 20.2539 19.9652 20.2315 19.954L20.1391 19.984C20.1241 19.9591 20.0609 19.9825 20.0783 19.9243Z" fill="#3365FE"/>
<path d="M49.9829 2.51874C49.9229 2.51304 49.8831 2.55832 49.8375 2.58471C40.0776 8.27426 30.3181 13.9642 20.5592 19.6546C20.5205 19.6771 20.4804 19.6963 20.4408 19.7169C20.4078 19.734 20.406 19.7148 20.4093 19.69C21.3932 18.9731 22.3769 18.2563 23.3604 17.5394C27.4766 14.5471 31.5928 11.5552 35.7092 8.56372C39.6034 5.73313 43.4975 2.90185 47.3913 0.0698651C47.4186 0.050075 47.4546 0.0398801 47.4663 0.00209895C48.2759 0.00209895 49.0855 0.00209895 49.8951 0C49.97 0 49.9871 0.0167916 49.9868 0.0917541C49.982 0.89955 49.9829 1.70915 49.9829 2.51874Z" fill="#FEFE00"/>
<path d="M-7.43027 0.00195312C-6.98679 0.356376 -6.51813 0.677515 -6.05936 1.01155C-0.878748 4.77907 4.30236 8.54578 9.48397 12.3117C12.8291 14.7435 16.1744 17.1751 19.52 19.6065C19.5562 19.6328 19.591 19.6613 19.6264 19.6886C19.6315 19.7186 19.6132 19.7282 19.5904 19.736C19.5044 19.7438 19.4375 19.6958 19.3694 19.6559C17.516 18.5727 15.6622 17.4909 13.8081 16.4107C11.4053 15.0092 9.00221 13.609 6.59881 12.21L0.674675 8.75338C-1.66416 7.39026 -4.00209 6.02724 -6.33912 4.66432C-7.49514 3.99086 -8.65126 3.3175 -9.80748 2.64423C-9.87855 2.60255 -9.9643 2.56807 -9.96221 2.46132C-9.96221 1.69491 -9.96221 0.92869 -9.96221 0.162673C-9.96221 0.109299 -9.9763 0.0532275 -9.94811 0.00195312H-7.43027Z" fill="#FEFE00"/>
<path d="M20.2315 19.9558C21.3487 19.9022 22.4658 19.8484 23.5826 19.7942C24.6945 19.739 25.8063 19.6827 26.9182 19.6251L30.8822 19.426C31.9592 19.3724 33.0363 19.3188 34.1134 19.2653C35.4347 19.1993 36.756 19.133 38.0774 19.0665C39.1644 19.0121 40.2515 18.9583 41.3386 18.9051C42.6449 18.8398 43.9512 18.7739 45.2576 18.7075L48.5038 18.5462C48.9525 18.524 49.4013 18.5024 49.8501 18.4815C49.8942 18.4794 49.9401 18.4845 49.9829 18.4863V21.4524C49.6186 21.4689 49.2558 21.4284 48.8924 21.4119C47.5359 21.3492 46.1799 21.2785 44.8234 21.2098C43.1281 21.1244 41.4328 21.0384 39.7377 20.9516C38.436 20.8866 37.1344 20.8254 35.833 20.7603C34.1377 20.6754 32.4423 20.5893 30.747 20.5021C29.4456 20.4371 28.144 20.3762 26.8426 20.3108C25.1472 20.2259 23.4519 20.1398 21.7565 20.0527C21.2828 20.0287 20.809 20.0077 20.3353 19.9831C20.3011 19.9813 20.2549 20.0089 20.2315 19.9558Z" fill="#FEFE00"/>
<path d="M19.9934 19.6232C19.8703 17.9767 19.7469 16.3304 19.6234 14.6844C19.4885 12.8937 19.3527 11.1032 19.2162 9.3129C19.1113 7.9153 19.0102 6.5174 18.9053 5.11979C18.8009 3.72689 18.6952 2.33429 18.588 0.941983C18.5643 0.62864 18.5424 0.315296 18.5197 0.00195312H21.5161C21.4297 1.14558 21.3433 2.28941 21.257 3.43344C21.1822 4.42834 21.1084 5.42324 21.0354 6.41814C20.9502 7.55218 20.8644 8.68611 20.7778 9.81994C20.7035 10.8096 20.6298 11.7992 20.5568 12.7885C20.4711 13.9279 20.385 15.0673 20.2987 16.2068C20.2245 17.1919 20.1509 18.1768 20.078 19.1615C20.0666 19.3156 20.0543 19.4697 20.0423 19.6238C20.0398 19.6282 20.0363 19.6318 20.0319 19.6343C20.0276 19.6368 20.0227 19.6381 20.0177 19.638C20.0127 19.6379 20.0078 19.6365 20.0035 19.6339C19.9993 19.6313 19.9958 19.6276 19.9934 19.6232Z" fill="#FEFE00"/>
<path d="M-9.94752 0.00195312L-9.94242 2.5084C-9.89905 2.57037 -9.87792 2.64519 -9.88245 2.72069C-9.88425 2.78066 -9.88245 2.84063 -9.88245 2.9006V18.199C-9.88245 18.294 -9.88245 18.3888 -9.89055 18.4832C-9.87775 19.4729 -9.87775 20.4624 -9.89055 21.4517C-9.88155 21.5513 -9.88245 21.6511 -9.88245 21.7516C-9.88245 27.6886 -9.88245 33.6256 -9.88245 39.5627C-9.88245 39.6598 -9.90854 39.7639 -9.83837 39.8511C-9.80539 39.8811 -9.76551 39.8772 -9.72533 39.8772C10.0436 39.871 29.8124 39.8697 49.5811 39.8733C49.7109 39.8686 49.8404 39.889 49.9625 39.9333C49.9652 39.9358 49.9685 39.9376 49.972 39.9385C49.9756 39.9394 49.9794 39.9394 49.9829 39.9384C49.9766 39.9477 49.9982 39.9684 49.9682 39.9684C49.928 39.9669 49.8882 39.9684 49.8483 39.9684C29.9544 39.9684 10.0605 39.9694 -9.83358 39.9714C-9.95202 39.9714 -9.9808 39.9522 -9.9808 39.8274C-9.9772 26.5979 -9.9754 13.3681 -9.9754 0.138085C-9.9754 0.0928077 -10.0102 0.0349366 -9.94752 0.00195312Z" fill="#FEFEFE"/>
<path d="M49.9625 39.9318C49.9025 39.9336 49.8426 39.9366 49.7826 39.9366H-9.74453C-9.8045 39.9366 -9.86447 39.9336 -9.92444 39.9318C-9.92444 39.8688 -9.88456 39.8326 -9.83898 39.7999C-9.78621 39.7618 -9.73163 39.7267 -9.67766 39.6907C-1.78661 34.432 6.10425 29.1737 13.9949 23.9159C15.9067 22.643 17.819 21.3705 19.7316 20.0985C19.7982 20.0545 19.8684 20.017 19.9367 19.9756C19.9895 19.9576 20.0414 19.9426 20.0777 20.0056C21.4798 20.9411 22.8819 21.8766 24.284 22.8122L49.6564 39.7207C49.7601 39.79 49.8606 39.8611 49.9625 39.9318Z" fill="#FD0000"/>
<path d="M20.0777 20.0048C20.0599 19.9928 20.0389 19.9865 20.0174 19.9868C19.996 19.9872 19.9751 19.9941 19.9577 20.0066C19.9196 20.0006 19.8648 20.0258 19.8618 19.9548C19.8849 19.9158 19.9283 19.9422 19.958 19.9248C19.9922 19.9017 19.9844 19.8648 19.9925 19.8306C19.9993 19.824 20.0084 19.8203 20.0178 19.8203C20.0273 19.8203 20.0364 19.824 20.0432 19.8306C20.0513 19.8633 20.0432 19.902 20.0783 19.9245L20.1382 19.9844L20.0777 20.0048Z" fill="#607AC6"/>
<path d="M20.0432 19.8307H19.9925C19.9925 19.7914 19.9925 19.7518 19.9925 19.7108C19.9957 19.7073 19.9995 19.7045 20.0039 19.7026C20.0082 19.7007 20.0128 19.6997 20.0175 19.6997C20.0223 19.6997 20.0269 19.7007 20.0312 19.7026C20.0355 19.7045 20.0394 19.7073 20.0426 19.7108L20.0432 19.8307Z" fill="#96B082"/>
<path d="M20.0429 19.712H19.9928C19.9928 19.682 19.9928 19.6521 19.9928 19.6221H20.0417C20.0426 19.653 20.0429 19.6823 20.0429 19.712Z" fill="#D3DE36"/>
<path d="M20.4093 19.6899L20.4408 19.7169L20.3508 19.7769C20.3182 19.7925 20.3155 19.7748 20.3209 19.7493L20.4093 19.6899Z" fill="#D6E032"/>
<path d="M20.3194 19.749L20.3493 19.7766L20.2249 19.848C20.2228 19.7826 20.2825 19.7766 20.3194 19.749Z" fill="#B4C75C"/>
<path d="M19.958 19.9247C19.9337 19.9547 19.8981 19.9502 19.8666 19.9547C19.827 20.0327 19.7556 20.0171 19.6885 20.0147C19.3532 19.9481 19.0126 19.9688 18.6747 19.9607C18.1562 19.9484 17.6393 19.9115 17.1211 19.8902C16.5292 19.8662 15.9373 19.8324 15.3451 19.8027C14.7382 19.7727 14.1313 19.7406 13.5241 19.7127C13.1361 19.6943 12.7481 19.6749 12.3601 19.6546C11.7482 19.621 11.1361 19.5904 10.5238 19.5628C10.1358 19.5448 9.74783 19.5254 9.35983 19.5046C8.74793 19.4716 8.13594 19.4412 7.52384 19.4132C7.14064 19.3958 6.75773 19.3751 6.37482 19.355C5.75773 19.3229 5.14094 19.2902 4.52384 19.2632C4.15083 19.2468 3.77782 19.2246 3.4048 19.2057C2.77782 19.1739 2.15113 19.1415 1.52384 19.113C1.16073 19.0962 0.797607 19.0761 0.434489 19.0573C-0.202393 19.0243 -0.838974 18.9901 -1.47616 18.9631C-1.83598 18.9481 -2.1922 18.9247 -2.55052 18.9073C-3.1925 18.8773 -3.83418 18.8399 -4.47646 18.8135C-4.83448 18.7985 -5.1928 18.7781 -5.55052 18.7562C-6.23658 18.7145 -6.92383 18.6992 -7.60899 18.6453C-7.83268 18.6276 -8.05876 18.6249 -8.28095 18.6153C-8.779 18.5967 -9.27586 18.5505 -9.77451 18.5475C-9.84107 18.5475 -9.90554 18.5409 -9.94242 18.4728C-9.94392 18.4129 -9.94722 18.3529 -9.94722 18.2929C-9.94722 13.0911 -9.94722 7.88923 -9.94722 2.68723C-9.94722 2.62726 -9.94392 2.56729 -9.94242 2.50732C-9.30434 2.87674 -8.66536 3.24406 -8.02848 3.61677C1.13594 8.9599 10.3002 14.3033 19.4642 19.6471C19.5071 19.6719 19.552 19.6932 19.5958 19.7163C19.6345 19.7235 19.6709 19.7399 19.702 19.764C19.7436 19.7847 19.7766 19.8195 19.8219 19.8363L19.958 19.9247Z" fill="#3365FE"/>
<path d="M19.6852 19.776L19.5952 19.7161L19.6252 19.6885L19.7152 19.7484C19.7221 19.7739 19.7185 19.7901 19.6852 19.776Z" fill="#D6E032"/>
<path d="M19.6852 19.7762L19.7152 19.748C19.7556 19.7705 19.7997 19.7891 19.8189 19.8365C19.7634 19.8437 19.7256 19.8083 19.6852 19.7762Z" fill="#B3C65E"/>
<path d="M19.7451 19.9831L19.8675 19.9546C19.8843 19.9957 19.9334 19.9798 19.9574 20.0068C18.6181 20.9005 17.2788 21.7944 15.9394 22.6883L-9.64286 39.7357C-9.73792 39.799 -9.82997 39.8667 -9.92322 39.9321C-9.9664 39.8907 -9.94571 39.8377 -9.94571 39.7906C-9.94691 33.7272 -9.94691 27.6637 -9.94571 21.6002C-9.94571 21.5552 -9.94242 21.5102 -9.94092 21.4655C-9.90014 21.3915 -9.82847 21.3912 -9.75801 21.3906C-9.25456 21.3867 -8.75261 21.3447 -8.25006 21.3237C-7.64796 21.2985 -7.04616 21.2637 -6.44436 21.2338C-5.84746 21.2038 -5.25056 21.1738 -4.65366 21.1438C-4.05666 21.1138 -3.45996 21.0838 -2.86295 21.0538C-2.26116 21.0239 -1.65906 20.9939 -1.05726 20.9639C-0.460155 20.9345 0.136745 20.9045 0.733447 20.8739L2.53914 20.784L4.32985 20.694C4.93155 20.664 5.53335 20.6341 6.13525 20.6041C6.73235 20.5741 7.32925 20.5441 7.92595 20.5141C8.52785 20.4839 9.12975 20.4539 9.73165 20.4242C10.3287 20.394 10.9257 20.364 11.5224 20.3342L13.3281 20.2442L15.1188 20.1543C15.7254 20.1243 16.3325 20.0961 16.9391 20.0643C17.8201 20.0167 18.7005 19.9582 19.5835 19.9687C19.636 19.9702 19.6918 19.9576 19.7451 19.9831Z" fill="#3365FE"/>
<path d="M19.7451 19.9831C17.6108 20.0908 15.4769 20.1985 13.3433 20.306C11.8379 20.3812 10.3323 20.4551 8.8267 20.5279C6.93744 20.6227 5.04839 20.7183 3.15953 20.8149C1.65428 20.8904 0.148437 20.9618 -1.35711 21.0371C-3.24657 21.1318 -5.13562 21.2275 -7.02428 21.324C-7.99639 21.373 -8.9686 21.4202 -9.94092 21.4655V18.4736C-8.60479 18.539 -7.26865 18.6045 -5.93252 18.67C-4.24217 18.7546 -2.55221 18.8401 -0.862658 18.9267C0.433594 18.9918 1.73015 19.0532 3.0261 19.1183C4.52175 19.1931 6.0173 19.2687 7.51275 19.3453C8.80431 19.4101 10.0957 19.4737 11.3868 19.5363C12.8925 19.6119 14.3979 19.6881 15.9032 19.7651C17.1397 19.8273 18.3761 19.8896 19.6123 19.9522C19.6552 19.9546 19.711 19.9261 19.7451 19.9831Z" fill="#FEFE00"/>
</g>
</g>
<defs>
<clipPath id="clip0_1350_16319">
<rect width="40" height="40" fill="white"/>
</clipPath>
</defs>
</svg>
