<svg width="40" height="40" viewBox="0 0 40 40" fill="none" xmlns="http://www.w3.org/2000/svg">
<g clip-path="url(#clip0_1350_10320)">
<path d="M20 40C31.0457 40 40 31.0457 40 20C40 8.9543 31.0457 0 20 0C8.9543 0 0 8.9543 0 20C0 31.0457 8.9543 40 20 40Z" fill="#F0F0F0"/>
<path d="M26.9565 19.9999C26.9565 21.7391 23.842 26.0869 20 26.0869C16.158 26.0869 13.0435 21.7391 13.0435 19.9999C13.0435 16.1579 16.158 13.0435 20 13.0435C23.842 13.0435 26.9565 16.1579 26.9565 19.9999Z" fill="#D80027"/>
<path d="M26.9565 20C26.9565 23.842 23.842 26.9565 20 26.9565C16.158 26.9565 13.0435 23.842 13.0435 20" fill="#0052B4"/>
<path d="M27.373 26.1489L29.2174 24.3046L30.4469 25.5342L28.6026 27.3785L27.373 26.1489Z" fill="black"/>
<path d="M24.2982 29.2231L26.1425 27.3788L27.3721 28.6084L25.5278 30.4527L24.2982 29.2231Z" fill="black"/>
<path d="M31.0618 29.8374L32.9061 27.9931L34.1357 29.2226L32.2913 31.067L31.0618 29.8374Z" fill="black"/>
<path d="M27.9871 32.9121L29.8315 31.0678L31.061 32.2974L29.2167 34.1417L27.9871 32.9121Z" fill="black"/>
<path d="M29.2174 27.9932L31.0617 26.1488L32.2913 27.3784L30.447 29.2227L29.2174 27.9932Z" fill="black"/>
<path d="M26.1436 31.0674L27.9879 29.223L29.2175 30.4526L27.3732 32.297L26.1436 31.0674Z" fill="black"/>
<path d="M31.0698 13.8545L26.1516 8.93626L27.3812 7.70669L32.2994 12.6249L31.0698 13.8545Z" fill="black"/>
<path d="M26.151 12.6255L24.3067 10.7812L25.5362 9.55164L27.3805 11.396L26.151 12.6255Z" fill="black"/>
<path d="M29.2249 15.6997L27.3806 13.8554L28.6101 12.6259L30.4544 14.4702L29.2249 15.6997Z" fill="black"/>
<path d="M29.8391 8.93555L27.9948 7.09121L29.2243 5.86164L31.0687 7.70597L29.8391 8.93555Z" fill="black"/>
<path d="M32.9149 12.0112L31.0706 10.1669L32.3002 8.93732L34.1445 10.7817L32.9149 12.0112Z" fill="black"/>
<path d="M7.09003 27.9902L12.0083 32.9084L10.7787 34.138L5.86045 29.2198L7.09003 27.9902Z" fill="black"/>
<path d="M12.0082 29.2188L13.8525 31.0631L12.623 32.2926L10.7787 30.4483L12.0082 29.2188Z" fill="black"/>
<path d="M8.93402 26.145L10.7784 27.9894L9.54878 29.2189L7.70445 27.3746L8.93402 26.145Z" fill="black"/>
<path d="M10.7784 24.3003L15.6966 29.2185L14.4671 30.4481L9.54881 25.5299L10.7784 24.3003Z" fill="black"/>
<path d="M12.008 7.0874L7.08976 12.0056L5.86019 10.7761L10.7784 5.85783L12.008 7.0874Z" fill="black"/>
<path d="M13.8524 8.93164L8.93412 13.8499L7.70455 12.6203L12.6228 7.70207L13.8524 8.93164Z" fill="black"/>
<path d="M15.6983 10.7773L10.7801 15.6956L9.55055 14.4661L14.4688 9.54782L15.6983 10.7773Z" fill="black"/>
</g>
<defs>
<clipPath id="clip0_1350_10320">
<rect width="40" height="40" fill="white"/>
</clipPath>
</defs>
</svg>
