<svg width="40" height="40" viewBox="0 0 40 40" fill="none" xmlns="http://www.w3.org/2000/svg">
<g clip-path="url(#clip0_1350_10241)">
<path d="M20 40C31.0457 40 40 31.0457 40 20C40 8.9543 31.0457 0 20 0C8.9543 0 0 8.9543 0 20C0 31.0457 8.9543 40 20 40Z" fill="#F0F0F0"/>
<path d="M0 20.0001C0 8.95438 8.95437 0 20 0C31.0456 0 40 8.95438 40 20.0001" fill="#D80027"/>
<path d="M12.1739 10.435C12.1739 7.52111 14.2218 5.08689 16.9565 4.48963C16.5362 4.39791 16.1002 4.34814 15.6521 4.34814C12.2903 4.34814 9.56519 7.0733 9.56519 10.4351C9.56519 13.7969 12.2903 16.522 15.6521 16.522C16.1 16.522 16.5361 16.4723 16.9565 16.3805C14.2218 15.7832 12.1739 13.349 12.1739 10.435Z" fill="#F0F0F0"/>
<path d="M20.0001 4.78271L20.4318 6.11123H21.8288L20.6985 6.93241L21.1303 8.26093L20.0001 7.43991L18.8699 8.26093L19.3017 6.93241L18.1715 6.11123H19.5684L20.0001 4.78271Z" fill="#F0F0F0"/>
<path d="M16.6116 7.3916L17.0432 8.72019H18.4402L17.31 9.54129L17.7417 10.8698L16.6116 10.0488L15.4813 10.8698L15.9131 9.54129L14.7828 8.72019H16.1798L16.6116 7.3916Z" fill="#F0F0F0"/>
<path d="M23.3888 7.3916L23.8206 8.72019H25.2174L24.0872 9.54129L24.519 10.8698L23.3888 10.0488L22.2586 10.8698L22.6903 9.54129L21.5602 8.72019H22.9571L23.3888 7.3916Z" fill="#F0F0F0"/>
<path d="M22.0843 11.3047L22.5161 12.6333H23.9129L22.7828 13.4544L23.2145 14.7829L22.0843 13.9619L20.9542 14.7829L21.3859 13.4544L20.2557 12.6333H21.6525L22.0843 11.3047Z" fill="#F0F0F0"/>
<path d="M17.9157 11.3047L18.3473 12.6333H19.7444L18.6141 13.4544L19.0459 14.7829L17.9157 13.9619L16.7855 14.7829L17.2172 13.4544L16.087 12.6333H17.484L17.9157 11.3047Z" fill="#F0F0F0"/>
</g>
<defs>
<clipPath id="clip0_1350_10241">
<rect width="40" height="40" fill="white"/>
</clipPath>
</defs>
</svg>
