<svg width="40" height="40" viewBox="0 0 40 40" fill="none" xmlns="http://www.w3.org/2000/svg">
<g clip-path="url(#clip0_1350_9812)">
<path d="M20 40C31.0457 40 40 31.0457 40 20C40 8.9543 31.0457 0 20 0C8.9543 0 0 8.9543 0 20C0 31.0457 8.9543 40 20 40Z" fill="#338AF3"/>
<path d="M20 8.69531L20.8633 11.3525H23.6574L21.3971 12.9948L22.2604 15.6519L20 14.0097L17.7396 15.6519L18.6032 12.9948L16.3428 11.3525H19.1368L20 8.69531Z" fill="#F0F0F0"/>
<path d="M8.69592 20.0003L11.3531 19.1368V16.3428L12.9954 18.6032L15.6525 17.7399L14.0103 20.0003L15.6525 22.2604L12.9954 21.397L11.3531 23.6574V20.8635L8.69592 20.0003Z" fill="#F0F0F0"/>
<path d="M20.0002 31.3042L19.1368 28.647H16.3428L18.6032 27.0048L17.7399 24.3477L20.0002 25.9898L22.2604 24.3477L21.397 27.0048L23.6574 28.647H20.8635L20.0002 31.3042Z" fill="#F0F0F0"/>
<path d="M31.3047 20L28.6475 20.8634V23.6574L27.0053 21.397L24.3481 22.2604L25.9903 20L24.3481 17.7398L27.0053 18.6032L28.6475 16.3428V19.1368L31.3047 20Z" fill="#F0F0F0"/>
</g>
<defs>
<clipPath id="clip0_1350_9812">
<rect width="40" height="40" fill="white"/>
</clipPath>
</defs>
</svg>
