<svg width="40" height="40" viewBox="0 0 40 40" fill="none" xmlns="http://www.w3.org/2000/svg">
<g clip-path="url(#clip0_1350_10446)">
<path d="M20 40C31.0457 40 40 31.0457 40 20C40 8.9543 31.0457 0 20 0C8.9543 0 0 8.9543 0 20C0 31.0457 8.9543 40 20 40Z" fill="#FFDA44"/>
<path d="M5.8579 34.1425C6.69689 34.9814 7.59204 35.7296 8.53103 36.3884L36.3881 8.53129C35.7295 7.5923 34.9812 6.69715 34.1422 5.85816C33.3031 5.01918 32.4081 4.27105 31.4691 3.6123L3.61212 31.4694C4.27072 32.4082 5.019 33.3034 5.8579 34.1425Z" fill="black"/>
<path d="M5.85762 5.85743C-0.451912 12.1671 -1.66324 21.643 2.22137 29.1698L29.17 2.22126C21.6432 -1.66335 12.1672 -0.451943 5.85762 5.85743Z" fill="#6DA544"/>
<path d="M34.1421 34.1424C40.4517 27.8329 41.6629 18.3569 37.7785 10.8301L10.8299 37.7787C18.3565 41.6633 27.8325 40.452 34.1421 34.1424Z" fill="#338AF3"/>
</g>
<defs>
<clipPath id="clip0_1350_10446">
<rect width="40" height="40" fill="white"/>
</clipPath>
</defs>
</svg>
