<svg width="40" height="40" viewBox="0 0 40 40" fill="none" xmlns="http://www.w3.org/2000/svg">
<g clip-path="url(#clip0_1350_10184)">
<path d="M20 40C31.0457 40 40 31.0457 40 20C40 8.9543 31.0457 0 20 0C8.9543 0 0 8.9543 0 20C0 31.0457 8.9543 40 20 40Z" fill="#F0F0F0"/>
<path d="M39.8307 17.3913H22.6088H22.6087V0.169297C21.7548 0.058125 20.8841 0 20 0C19.1159 0 18.2452 0.058125 17.3913 0.169297V17.3912V17.3913H0.169297C0.058125 18.2452 0 19.1159 0 20C0 20.8841 0.058125 21.7548 0.169297 22.6087H17.3912H17.3913V39.8307C18.2452 39.9419 19.1159 40 20 40C20.8841 40 21.7548 39.942 22.6087 39.8307V22.6089V22.6087H39.8307C39.9419 21.7548 40 20.8841 40 20C40 19.1159 39.9419 18.2452 39.8307 17.3913Z" fill="#D80027"/>
<path d="M29.5652 6.95654C27.9444 6.95654 26.5826 8.06506 26.1965 9.56522L29.5652 10.4347L32.9339 9.56522C32.5478 8.06514 31.186 6.95654 29.5652 6.95654Z" fill="black"/>
<path d="M26.0865 14.7824L30.4343 15.6519V13.8032C31.6565 13.4886 32.6186 12.5263 32.9332 11.3041L29.5647 10.4346H25.2169L26.0865 13.0432V14.7824Z" fill="black"/>
<path d="M32.9334 9.56543H25.2169V11.3046V13.0437H26.0865V11.3046H32.9332C33.0047 11.0267 33.043 10.7353 33.043 10.435C33.043 10.1347 33.005 9.84332 32.9334 9.56543Z" fill="#ACABB1"/>
<path d="M11.3043 6.95654C9.68353 6.95654 8.32173 8.06506 7.93564 9.56522L11.3043 10.4347L14.673 9.56522C14.2869 8.06514 12.9251 6.95654 11.3043 6.95654Z" fill="black"/>
<path d="M7.82621 14.7824L12.174 15.6519V13.8032C13.3963 13.4886 14.3583 12.5263 14.6729 11.3041L11.3045 10.4346H6.9566L7.82614 13.0432V14.7824H7.82621Z" fill="black"/>
<path d="M14.6732 9.56543H6.9566V11.3046V13.0437H7.82614V11.3046H14.6729C14.7444 11.0267 14.7827 10.7353 14.7827 10.435C14.7827 10.1347 14.7447 9.84332 14.6732 9.56543Z" fill="#ACABB1"/>
<path d="M29.5652 24.3481C27.9444 24.3481 26.5826 25.4567 26.1965 26.9568L29.5652 27.8263L32.9339 26.9568C32.5478 25.4567 31.186 24.3481 29.5652 24.3481Z" fill="black"/>
<path d="M26.0865 32.174L30.4343 33.0435V31.1948C31.6565 30.8802 32.6186 29.9179 32.9332 28.6957L29.5647 27.8262H25.2169L26.0865 30.4348V32.174Z" fill="black"/>
<path d="M32.9334 26.9565H25.2169V28.6957V30.4348H26.0865V28.6957H32.9332C33.0047 28.4178 33.043 28.1264 33.043 27.8262C33.043 27.5259 33.005 27.2345 32.9334 26.9565Z" fill="#ACABB1"/>
<path d="M11.3043 24.3481C9.68353 24.3481 8.32173 25.4567 7.93564 26.9568L11.3043 27.8263L14.673 26.9568C14.2869 25.4567 12.9251 24.3481 11.3043 24.3481Z" fill="black"/>
<path d="M7.82621 32.174L12.174 33.0435V31.1948C13.3963 30.8802 14.3583 29.9179 14.6729 28.6957L11.3045 27.8262H6.9566L7.82614 30.4348V32.174H7.82621Z" fill="black"/>
<path d="M14.6732 26.9565H6.9566V28.6957V30.4348H7.82614V28.6957H14.6729C14.7444 28.4178 14.7827 28.1264 14.7827 27.8262C14.7827 27.5259 14.7447 27.2345 14.6732 26.9565Z" fill="#ACABB1"/>
</g>
<defs>
<clipPath id="clip0_1350_10184">
<rect width="40" height="40" fill="white"/>
</clipPath>
</defs>
</svg>
