<svg width="40" height="40" viewBox="0 0 40 40" fill="none" xmlns="http://www.w3.org/2000/svg">
<g clip-path="url(#clip0_1350_9221)">
<path d="M20 40C31.0457 40 40 31.0457 40 20C40 8.9543 31.0457 0 20 0C8.9543 0 0 8.9543 0 20C0 31.0457 8.9543 40 20 40Z" fill="#F0F0F0"/>
<path d="M23.9135 39.6162C31.82 38.0478 38.0482 31.8195 39.6166 23.9131H23.9135V39.6162Z" fill="#496E2D"/>
<path d="M0.383667 23.9131C1.95203 31.8195 8.18031 38.0478 16.0868 39.6162V23.9131H0.383667Z" fill="#496E2D"/>
<path d="M39.6166 16.0869C38.0482 8.18051 31.82 1.95223 23.9135 0.383789V16.0869H39.6166Z" fill="#496E2D"/>
<path d="M16.0868 0.383789C8.18031 1.95223 1.95203 8.18051 0.383667 16.0869H16.0868V0.383789Z" fill="#496E2D"/>
<path d="M18.6955 23.9131H16.0868V39.6162C16.9381 39.785 17.809 39.8994 18.6955 39.9565V23.9131Z" fill="#FFDA44"/>
<path d="M18.6955 16.0869V0.043457C17.809 0.100488 16.938 0.214941 16.0868 0.38377V16.0869H18.6955Z" fill="#FFDA44"/>
<path d="M21.3049 0.0435156C20.8735 0.015625 20.4389 0 20.0005 0C19.5622 0 19.1276 0.015625 18.6962 0.0435156V16.087H21.3048V0.0435156H21.3049Z" fill="black"/>
<path d="M18.6962 39.9566C19.1276 39.9845 19.5622 40.0001 20.0005 40.0001C20.4389 40.0001 20.8735 39.9845 21.3049 39.9566V23.9131H18.6962V39.9566H18.6962Z" fill="black"/>
<path d="M16.0875 18.6956V16.0869H0.384349C0.215443 16.9383 0.101068 17.8091 0.0440369 18.6956H16.0875Z" fill="#FFDA44"/>
<path d="M23.9132 18.6956H39.9567C39.8997 17.8091 39.7852 16.9383 39.6164 16.0869H23.9133V18.6956H23.9132Z" fill="#FFDA44"/>
<path d="M23.9132 21.3045H39.9567C39.9845 20.8732 40.0002 20.4385 40.0002 20.0002C40.0002 19.5618 39.9845 19.1271 39.9566 18.6958H23.9132V21.3045Z" fill="black"/>
<path d="M0.0435156 18.6958C0.0157031 19.1271 0 19.5618 0 20.0002C0 20.4385 0.0157031 20.8732 0.0435156 21.3045H16.087V18.6959H0.0435156V18.6958Z" fill="black"/>
<path d="M19.9995 29.565C25.2822 29.565 29.5647 25.2825 29.5647 19.9998C29.5647 14.7171 25.2822 10.4346 19.9995 10.4346C14.7168 10.4346 10.4343 14.7171 10.4343 19.9998C10.4343 25.2825 14.7168 29.565 19.9995 29.565Z" fill="#D80027"/>
<path d="M22.1793 21.0671C21.4679 19.6442 20.5431 18.202 20.5431 18.202C20.5431 18.202 20.5661 17.5454 20.5661 17.1541C20.5661 16.5647 20.0883 16.0869 19.4989 16.0869C18.9405 16.0869 18.483 16.5159 18.4364 17.0621C17.9973 17.0907 17.6499 17.455 17.6499 17.9012C17.6499 18.2257 17.8337 18.5068 18.1028 18.6474C18.2365 18.3346 18.4984 18.0903 18.8223 17.979C18.8751 18.0222 18.9319 18.0608 18.9924 18.0936L19.1291 18.159C19.1291 18.159 18.6222 19.588 18.6222 20.3557C18.6222 22.5138 20.0451 23.1793 20.0451 23.1793V23.2016L19.3336 23.913H20.7565V22.49L21.468 23.2015C21.4743 23.1882 22.8157 22.3398 22.1793 21.0671Z" fill="#496E2D"/>
<path d="M20.0011 12.1738L20.3249 13.1702H21.3725L20.525 13.7861L20.8488 14.7825L20.0011 14.1667L19.1535 14.7825L19.4773 13.7861L18.6297 13.1702H19.6774L20.0011 12.1738Z" fill="#496E2D"/>
<path d="M15.4011 13.6685L16.2486 14.2844L17.0962 13.6685L16.7725 14.665L17.6202 15.2807L16.5724 15.2808L16.2487 16.2772L15.9248 15.2808L14.8772 15.2807L15.7248 14.6649L15.4011 13.6685Z" fill="#496E2D"/>
<path d="M12.5576 17.5819H13.6051L13.929 16.5854L14.2527 17.5819L15.3004 17.5818L14.4529 18.1977L14.7767 19.1941L13.929 18.5783L13.0814 19.194L13.4051 18.1976L12.5576 17.5819Z" fill="#496E2D"/>
<path d="M12.5576 22.4183L13.4051 21.8026L13.0813 20.8062L13.929 21.422L14.7766 20.8062L14.4529 21.8026L15.3005 22.4184L14.2527 22.4185L13.929 23.4148L13.6051 22.4183H12.5576Z" fill="#496E2D"/>
<path d="M15.4011 26.3312L15.7248 25.335L14.8771 24.7191H15.9248L16.2487 23.7227L16.5724 24.7191H17.6202L16.7725 25.335L17.0962 26.3313L16.2486 25.7155L15.4011 26.3312Z" fill="#496E2D"/>
<path d="M20.0011 27.826L19.6774 26.8297H18.6297L19.4773 26.2138L19.1535 25.2174L20.0011 25.8331L20.8487 25.2173L20.525 26.2138L21.3725 26.8296L20.3249 26.8297L20.0011 27.826Z" fill="#496E2D"/>
<path d="M24.6006 26.3312L23.7531 25.7155L22.9056 26.3314L23.2292 25.335L22.3816 24.7191L23.4293 24.7191L23.753 23.7227L24.0769 24.7191H25.1245L24.277 25.335L24.6006 26.3312Z" fill="#496E2D"/>
<path d="M27.4442 22.4183H26.3966L26.0728 23.4147L25.749 22.4184H24.7012L25.5489 21.8025L25.225 20.8062L26.0728 21.4219L26.9203 20.8062L26.5967 21.8026L27.4442 22.4183Z" fill="#496E2D"/>
<path d="M27.4442 17.5818L26.5967 18.1976L26.9203 19.194L26.0728 18.5782L25.2251 19.1941L25.5489 18.1976L24.7012 17.5819L25.749 17.5817L26.0727 16.5854L26.3966 17.5818H27.4442Z" fill="#496E2D"/>
<path d="M24.6006 13.6685L24.277 14.6648L25.1245 15.2806H24.0769L23.7531 16.2771L23.4293 15.2807L22.3816 15.2808L23.2292 14.6648L22.9055 13.6685L23.7531 14.2842L24.6006 13.6685Z" fill="#496E2D"/>
</g>
<defs>
<clipPath id="clip0_1350_9221">
<rect width="40" height="40" fill="white"/>
</clipPath>
</defs>
</svg>
