<svg width="40" height="40" viewBox="0 0 40 40" fill="none" xmlns="http://www.w3.org/2000/svg">
<g clip-path="url(#clip0_1350_9805)">
<path d="M20 40C31.0457 40 40 31.0457 40 20C40 8.9543 31.0457 0 20 0C8.9543 0 0 8.9543 0 20C0 31.0457 8.9543 40 20 40Z" fill="#F0F0F0"/>
<path d="M40.0003 19.9998C40.0003 12.0706 35.3858 5.21938 28.6959 1.98438V38.0152C35.3858 34.7803 40.0003 27.9291 40.0003 19.9998Z" fill="#D80027"/>
<path d="M0 19.9998C0 27.9291 4.61445 34.7803 11.3044 38.0153V1.98438C4.61445 5.21937 0 12.0706 0 19.9998Z" fill="#6DA544"/>
<path d="M14.7823 19.9999C14.7823 22.8814 17.1183 25.2173 19.9998 25.2173C22.8813 25.2173 25.2172 22.8814 25.2172 19.9999V18.2607H14.7823V19.9999Z" fill="#6DA544"/>
<path d="M26.9564 16.5223H21.739C21.739 15.5619 20.9604 14.7832 19.9999 14.7832C19.0394 14.7832 18.2607 15.5619 18.2607 16.5223H13.0433C13.0433 17.4829 13.88 18.2615 14.8404 18.2615H14.7825C14.7825 19.222 15.5611 20.0006 16.5216 20.0006C16.5216 20.9612 17.3002 21.7397 18.2607 21.7397H21.739C22.6996 21.7397 23.4782 20.9612 23.4782 20.0006C24.4387 20.0006 25.2173 19.222 25.2173 18.2615H25.1593C26.1199 18.2615 26.9564 17.4829 26.9564 16.5223Z" fill="#FF9811"/>
</g>
<defs>
<clipPath id="clip0_1350_9805">
<rect width="40" height="40" fill="white"/>
</clipPath>
</defs>
</svg>
