<svg width="40" height="40" viewBox="0 0 40 40" fill="none" xmlns="http://www.w3.org/2000/svg">
<g clip-path="url(#clip0_1350_9747)">
<path d="M20 40C31.0457 40 40 31.0457 40 20C40 8.9543 31.0457 0 20 0C8.9543 0 0 8.9543 0 20C0 31.0457 8.9543 40 20 40Z" fill="#D80027"/>
<path d="M6.9566 10.4346H33.0436V29.565H6.9566V10.4346Z" fill="#6DA544"/>
<path d="M23.221 25.6517C20.0994 25.6517 17.5688 23.1211 17.5688 19.9995C17.5688 16.878 20.0994 14.3473 23.221 14.3473C24.1942 14.3473 25.1101 14.5934 25.9096 15.0267C24.6553 13.8001 22.9401 13.043 21.0471 13.043C17.2052 13.043 14.0906 16.1575 14.0906 19.9995C14.0906 23.8414 17.2052 26.9559 21.0471 26.9559C22.9401 26.9559 24.6554 26.1988 25.9096 24.9722C25.1101 25.4056 24.1942 25.6517 23.221 25.6517Z" fill="#F0F0F0"/>
</g>
<defs>
<clipPath id="clip0_1350_9747">
<rect width="40" height="40" fill="white"/>
</clipPath>
</defs>
</svg>
