<svg width="40" height="40" viewBox="0 0 40 40" fill="none" xmlns="http://www.w3.org/2000/svg">
<g clip-path="url(#clip0_1350_9781)">
<path d="M2.43176 10.4348L20 12.1739L37.5682 10.4348C34.1761 4.21789 27.5808 0 20 0C12.4191 0 5.82387 4.21789 2.43176 10.4348Z" fill="#D80027"/>
<path d="M2.4318 29.5651L20 31.3042L37.5682 29.5651C39.1185 26.7236 40 23.4647 40 19.9999L20 18.2607L0 19.9999C0 23.4647 0.881484 26.7236 2.4318 29.5651Z" fill="#FFDA44"/>
<path d="M2.4318 10.4346C0.881484 13.2761 0 16.535 0 19.9998H40C40 16.535 39.1185 13.2761 37.5682 10.4346H20H2.4318Z" fill="#0052B4"/>
<path d="M20 40.0002C27.5808 40.0002 34.1761 35.7823 37.5682 29.5654H2.43176C5.82387 35.7823 12.4191 40.0002 20 40.0002Z" fill="#6DA544"/>
</g>
<defs>
<clipPath id="clip0_1350_9781">
<rect width="40" height="40" fill="white"/>
</clipPath>
</defs>
</svg>
