<svg width="40" height="40" viewBox="0 0 40 40" fill="none" xmlns="http://www.w3.org/2000/svg">
<g clip-path="url(#clip0_1350_10511)">
<path d="M20 40C31.0457 40 40 31.0457 40 20C40 8.9543 31.0457 0 20 0C8.9543 0 0 8.9543 0 20C0 31.0457 8.9543 40 20 40Z" fill="#D80027"/>
<path d="M19.181 16.3428L20.8221 18.6041L23.4796 17.7424L21.836 20.0018L23.4768 22.263L20.8202 21.398L19.1767 23.6574L19.1784 20.8636L16.5217 19.9986L19.1793 19.1368L19.181 16.3428Z" fill="#F0F0F0"/>
<path d="M14.7021 25.6522C11.5805 25.6522 9.04989 23.1216 9.04989 20C9.04989 16.8785 11.5805 14.3478 14.7021 14.3478C15.6754 14.3478 16.5911 14.594 17.3907 15.0272C16.1364 13.8005 14.421 13.0435 12.5282 13.0435C8.68614 13.0435 5.57169 16.158 5.57169 19.9999C5.57169 23.8419 8.68622 26.9564 12.5282 26.9564C14.4211 26.9564 16.1365 26.1993 17.3907 24.9727C16.5911 25.406 15.6754 25.6522 14.7021 25.6522Z" fill="#F0F0F0"/>
</g>
<defs>
<clipPath id="clip0_1350_10511">
<rect width="40" height="40" fill="white"/>
</clipPath>
</defs>
</svg>
