<svg width="40" height="40" viewBox="0 0 40 40" fill="none" xmlns="http://www.w3.org/2000/svg">
<g clip-path="url(#clip0_1350_9879)">
<path d="M20 40C31.0457 40 40 31.0457 40 20C40 8.9543 31.0457 0 20 0C8.9543 0 0 8.9543 0 20C0 31.0457 8.9543 40 20 40Z" fill="#F0F0F0"/>
<path d="M5.85792 34.1424C6.6969 34.9814 7.59206 35.7296 8.53104 36.3883L36.388 8.53129C35.7293 7.5923 34.9811 6.69715 34.1421 5.85816C33.3031 5.01918 32.4079 4.27105 31.4689 3.6123L3.61206 31.4693C4.27073 32.4082 5.01894 33.3034 5.85792 34.1424Z" fill="#A2001D"/>
<path d="M5.85762 5.85694C-0.452065 12.1666 -1.66332 21.6426 2.22129 29.1693L29.1699 2.22077C21.6432 -1.66384 12.1672 -0.452431 5.85762 5.85694Z" fill="#0052B4"/>
<path d="M34.1422 34.1424C40.4518 27.8329 41.663 18.3569 37.7786 10.8301L10.83 37.7787C18.3566 41.6633 27.8326 40.452 34.1422 34.1424Z" fill="#496E2D"/>
<path d="M16.5213 11.3043L14.2802 12.3585L15.4737 14.5289L13.0402 14.0635L12.7317 16.5217L11.0367 14.7136L9.34166 16.5217L9.03337 14.0635L6.59978 14.5289L7.79314 12.3584L5.55212 11.3043L7.79322 10.2501L6.59978 8.0798L9.0333 8.54527L9.34173 6.08691L11.0367 7.89504L12.7318 6.08691L13.0402 8.54527L15.4737 8.0798L14.2804 10.2502L16.5213 11.3043Z" fill="#FFDA44"/>
</g>
<defs>
<clipPath id="clip0_1350_9879">
<rect width="40" height="40" fill="white"/>
</clipPath>
</defs>
</svg>
