<svg width="40" height="40" viewBox="0 0 40 40" fill="none" xmlns="http://www.w3.org/2000/svg">
<g clip-path="url(#clip0_1350_8820)">
<path d="M40 20C40 31.0456 31.0456 40 20 40C8.95437 40 0 31.0456 0 20C0 20.0048 20 0.0021875 20 0C31.0456 0 40 8.95437 40 20Z" fill="#D80027"/>
<path d="M19.9999 9.56543V16.311L13.0434 9.56543H19.9999Z" fill="#0052B4"/>
<path d="M10.4353 19.9999H16.3111L10.4353 12.1738L9.56572 18.2608L10.4353 19.9999Z" fill="#0052B4"/>
<path d="M19.946 19.9998H19.9995C19.9995 19.9818 19.9995 19.9643 19.9995 19.9463C19.9817 19.9642 19.9639 19.982 19.946 19.9998Z" fill="#F0F0F0"/>
<path d="M20 10.4348C20 6.91563 20 4.60977 20 0H19.9966C8.95242 0.001875 0 8.95539 0 20H10.4348V14.1241L16.3106 20H19.9466C19.9644 19.9822 19.9822 19.9644 20.0001 19.9465C20.0001 18.5991 20.0001 17.3968 20.0001 16.3108L14.1241 10.4348H20Z" fill="#F0F0F0"/>
<path d="M10.1188 2.6084C6.99077 4.38957 4.39022 6.99004 2.60913 10.1181V20.8693H7.82655V7.82598V7.82582H20.87C20.87 6.18027 20.87 4.61262 20.87 2.6084H10.1188Z" fill="#D80027"/>
<path d="M20.7961 18.3353L12.8952 10.4346H10.4358V10.4347L20.7959 20.7948H20.796C20.7961 20.7949 20.7961 19.099 20.7961 18.3353Z" fill="#D80027"/>
<path d="M22.6091 10.4346V19.9997C22.6091 24.6591 34.783 24.6591 34.783 19.9997V10.4346H22.6091Z" fill="#F3F3F3"/>
<path d="M22.6091 20.0001V20C22.6091 24.6594 28.6961 26.087 28.6961 26.087C28.6961 26.087 34.783 24.6594 34.783 20V20.0001H22.6091Z" fill="#6DA544"/>
<path d="M28.6956 16.1738L25.8695 17.3912V19.9999L28.6956 21.7391L31.5217 19.9999V17.3912L28.6956 16.1738Z" fill="#A2001D"/>
<path d="M25.8695 14.7832H31.5217V17.3919H25.8695V14.7832Z" fill="#338AF3"/>
</g>
<defs>
<clipPath id="clip0_1350_8820">
<rect width="40" height="40" fill="white"/>
</clipPath>
</defs>
</svg>
