<svg width="40" height="40" viewBox="0 0 40 40" fill="none" xmlns="http://www.w3.org/2000/svg">
<g clip-path="url(#clip0_1350_16681)">
<mask id="mask0_1350_16681" style="mask-type:luminance" maskUnits="userSpaceOnUse" x="0" y="0" width="40" height="40">
<path d="M19.9919 39.9842C31.0293 39.9842 39.9769 31.0366 39.9769 19.9992C39.9769 8.96175 31.0293 0.0141602 19.9919 0.0141602C8.95449 0.0141602 0.00689697 8.96175 0.00689697 19.9992C0.00689697 31.0366 8.95449 39.9842 19.9919 39.9842Z" fill="white"/>
</mask>
<g mask="url(#mask0_1350_16681)">
<path d="M50.8969 -0.56115V40.566C50.7436 40.5864 50.6291 40.5003 50.5128 40.423L45.863 37.3234C43.9487 36.0474 42.0341 34.7721 40.1191 33.4973C34.4564 29.7453 28.8126 25.9645 23.1553 22.2047C23.045 22.1312 22.9637 22.0167 22.83 21.9774C22.7863 21.9264 22.7542 21.8666 22.7358 21.802C22.6357 21.5261 22.5616 21.2422 22.4678 20.9645C22.4303 20.8538 22.4495 20.7711 22.5505 20.6973C23.5396 19.9763 24.5303 19.2566 25.5224 18.5384C25.7583 18.3669 25.9976 18.1993 26.2396 18.0107C26.164 17.9618 26.0963 17.9783 26.0333 17.978C24.6594 17.978 23.2854 17.978 21.9113 17.978H21.8186C21.4822 17.9765 21.4795 17.9723 21.3853 17.6481C21.2528 17.1936 21.0918 16.7486 20.9472 16.2988C20.6642 15.4176 20.3748 14.5381 20.0897 13.6571C20.0717 13.6014 20.0696 13.5345 19.9976 13.4928C19.9176 13.6287 19.8825 13.7789 19.8396 13.9237C19.6897 14.4269 19.5146 14.9213 19.355 15.4212C19.1032 16.2101 18.8405 16.9954 18.5892 17.7843C18.5499 17.9072 18.4867 17.9771 18.3493 17.9768C17.8453 17.975 17.3409 17.9882 16.8369 17.9696C16.7077 17.8796 16.567 17.8116 16.436 17.7246C7.4223 11.718 -1.59089 5.71141 -10.6036 -0.295183C-10.6881 -0.351555 -10.7835 -0.396232 -10.8402 -0.488586C-10.8845 -0.56025 -10.8564 -0.578541 -10.785 -0.576742C9.70996 -0.576742 30.2047 -0.576742 50.6993 -0.576742C50.7652 -0.575842 50.833 -0.591735 50.8969 -0.56115Z" fill="#07872F"/>
<path d="M-10.851 -0.552734C-8.56052 0.975302 -6.27006 2.50354 -3.97961 4.03197C1.84368 7.91163 7.66727 11.7911 13.4912 15.6704C14.6024 16.41 15.7128 17.1514 16.8225 17.8946C16.7901 17.9981 16.6996 17.9744 16.6285 17.9756C16.2321 17.981 15.836 17.9777 15.4399 17.978C14.9457 17.978 14.4518 17.978 13.958 17.978C13.9017 17.973 13.8449 17.9764 13.7895 17.9882C13.7967 18.0482 13.845 18.0641 13.8795 18.0898C15.0259 18.9262 16.1744 19.7604 17.325 20.5924C17.3376 20.6014 17.3508 20.6095 17.3631 20.6185C17.603 20.7903 17.603 20.7963 17.513 21.0761C17.0873 22.3921 16.663 23.7087 16.2288 25.0215C16.1942 25.1208 16.169 25.2232 16.1535 25.3273C16.4042 25.1738 16.612 25.0083 16.8264 24.8524C17.8369 24.1185 18.848 23.3853 19.8597 22.6527C19.9697 22.5729 20.06 22.5831 20.1664 22.6596C21.0228 23.2743 21.8714 23.9 22.7265 24.5162C23.0728 24.7657 23.418 25.0167 23.7622 25.2692C23.7862 25.2868 23.8087 25.3111 23.8546 25.2991C23.8311 25.1647 23.7953 25.0327 23.7478 24.9048C23.448 23.9969 23.1525 23.0873 22.8615 22.1762C22.8351 22.094 22.7694 22.0053 22.8615 21.9198C23.6877 22.468 24.5138 23.0161 25.34 23.5642C33.7502 29.1672 42.1606 34.7701 50.5712 40.3729C50.6759 40.4428 50.7697 40.5342 50.8975 40.5666C50.8909 40.5762 50.913 40.599 50.8822 40.5966C50.8408 40.5966 50.7997 40.5966 50.7586 40.5966H-10.881C-10.9109 40.5432 -10.8957 40.4856 -10.8957 40.4302C-10.8957 26.8232 -10.8952 13.2165 -10.8942 -0.389916C-10.8942 -0.443589 -10.9376 -0.518252 -10.851 -0.552734Z" fill="#FADB09"/>
<path d="M-10.851 -0.552639C-10.9094 -0.498666 -10.8795 -0.428501 -10.8795 -0.367032C-10.8809 9.1614 -10.8814 18.6897 -10.881 28.218V40.5967C-10.8905 40.5901 -10.913 40.6123 -10.9109 40.5814C-10.9109 40.5403 -10.9109 40.4989 -10.9109 40.4579C-10.9109 26.8207 -10.9118 13.1836 -10.9136 -0.453388C-10.9136 -0.569131 -10.8878 -0.595218 -10.7718 -0.595218C9.73794 -0.592219 30.2482 -0.59062 50.7589 -0.59042C50.8039 -0.59042 50.8636 -0.626102 50.8978 -0.560435H-10.6357C-10.7073 -0.561035 -10.7793 -0.555637 -10.851 -0.552639Z" fill="#FEFEFE"/>
<path d="M22.8609 21.9192C23.2327 23.0677 23.6045 24.2162 23.9763 25.3648C23.9919 25.4128 24.0063 25.4617 24.0246 25.5273C23.9418 25.5102 23.8972 25.4605 23.8471 25.4242C22.6105 24.5274 21.3749 23.6292 20.1403 22.7294C20.0375 22.6542 19.9739 22.6599 19.8747 22.7324C18.6411 23.6336 17.4058 24.5318 16.1688 25.4272C16.1197 25.4629 16.0696 25.4973 16.0165 25.5348C15.9865 25.4692 16.0216 25.4239 16.0363 25.3789C16.5101 23.9176 16.9859 22.4571 17.4639 20.9972C17.5059 20.8692 17.4885 20.8023 17.3763 20.7213C16.1369 19.8284 14.9004 18.9315 13.6666 18.0308C13.6231 17.999 13.5664 17.9795 13.5316 17.8949H16.8225C17.3367 17.8967 17.8513 17.8949 18.3655 17.9033C18.4891 17.9054 18.4921 17.8215 18.5155 17.7486C18.9003 16.5672 19.2843 15.3855 19.6675 14.2035C19.761 13.9156 19.8547 13.6276 19.9484 13.3393C19.9619 13.2976 19.9802 13.2578 20.0114 13.1792C20.0891 13.4134 20.1553 13.6101 20.2195 13.8074C20.6443 15.1159 21.0682 16.4253 21.4912 17.7354C21.5322 17.8635 21.5874 17.9057 21.7262 17.9054C23.2555 17.8991 24.7826 17.9015 26.3107 17.9015H26.4906C26.4606 17.969 26.4117 17.9894 26.3727 18.0176C25.1289 18.9213 23.8843 19.8237 22.6387 20.7246C22.5248 20.8065 22.5077 20.8746 22.5535 20.9999C22.6648 21.3036 22.7595 21.6122 22.8609 21.9192Z" fill="#D9121A"/>
</g>
</g>
<defs>
<clipPath id="clip0_1350_16681">
<rect width="40" height="40" fill="white"/>
</clipPath>
</defs>
</svg>
