<svg width="40" height="40" viewBox="0 0 40 40" fill="none" xmlns="http://www.w3.org/2000/svg">
<g clip-path="url(#clip0_1350_9736)">
<path d="M20 40C31.0457 40 40 31.0457 40 20C40 8.9543 31.0457 0 20 0C8.9543 0 0 8.9543 0 20C0 31.0457 8.9543 40 20 40Z" fill="#F0F0F0"/>
<path d="M19.1301 19.9996H39.9997C39.9997 18.1944 39.759 16.4458 39.3107 14.7822H19.1301V19.9996Z" fill="#D80027"/>
<path d="M19.1301 9.56508H37.0642C35.8399 7.56727 34.2747 5.80141 32.4494 4.34766H19.1301V9.56508Z" fill="#D80027"/>
<path d="M20.0001 40.0002C24.707 40.0002 29.0333 38.3733 32.4498 35.6523H7.55029C10.9668 38.3733 15.2931 40.0002 20.0001 40.0002Z" fill="#D80027"/>
<path d="M2.93533 30.4352H37.0644C38.0473 28.8314 38.8095 27.0782 39.3109 25.2178H0.688843C1.19017 27.0782 1.95244 28.8314 2.93533 30.4352Z" fill="#D80027"/>
<path d="M20 20C20 8.95437 20 7.65219 20 0C8.95437 0 0 8.95437 0 20H20Z" fill="#0052B4"/>
<path d="M13.2996 17.1194C10.5682 17.1194 8.35394 14.9051 8.35394 12.1738C8.35394 9.44246 10.5682 7.22816 13.2996 7.22816C14.1512 7.22816 14.9525 7.44355 15.6521 7.82262C14.5546 6.74941 13.0537 6.08691 11.3974 6.08691C8.03574 6.08691 5.31042 8.81215 5.31042 12.1739C5.31042 15.5356 8.03574 18.2608 11.3974 18.2608C13.0537 18.2608 14.5546 17.5983 15.6521 16.5251C14.9525 16.904 14.1513 17.1194 13.2996 17.1194Z" fill="#FFDA44"/>
<path d="M14.6934 8.69531L15.5715 10.5314L17.5544 10.0733L16.6664 11.9045L18.2611 13.1691L16.2756 13.6166L16.2812 15.6519L14.6934 14.3786L13.1056 15.6519L13.1111 13.6166L11.1256 13.1691L12.7203 11.9045L11.8323 10.0733L13.8153 10.5314L14.6934 8.69531Z" fill="#FFDA44"/>
</g>
<defs>
<clipPath id="clip0_1350_9736">
<rect width="40" height="40" fill="white"/>
</clipPath>
</defs>
</svg>
