<svg width="40" height="40" viewBox="0 0 40 40" fill="none" xmlns="http://www.w3.org/2000/svg">
<g clip-path="url(#clip0_1350_9829)">
<path d="M19.9994 40C22.4458 40 24.7893 39.56 26.9559 38.756L27.8255 20L26.956 1.24398C24.7893 0.440078 22.4458 0 19.9994 0C17.553 0 15.2095 0.440078 13.0429 1.24398L12.1733 20L13.0429 38.756C15.2095 39.56 17.553 40 19.9994 40Z" fill="#0052B4"/>
<path d="M0 20.0002C0 28.5995 5.4275 35.9303 13.0435 38.7562V1.24414C5.4275 4.07 0 11.4009 0 20.0002Z" fill="#A2001D"/>
<path d="M26.9566 1.24414V38.7562C34.5726 35.9303 40.0001 28.5995 40.0001 20.0002C40.0001 11.4009 34.5726 4.07 26.9566 1.24414Z" fill="#A2001D"/>
<path d="M9.56525 20H11.3044V26.9565H9.56525V20Z" fill="#FFDA44"/>
<path d="M2.60858 20H4.34772V26.9565H2.60858V20Z" fill="#FFDA44"/>
<path d="M6.9563 24.3474C7.9168 24.3474 8.69544 23.5688 8.69544 22.6083C8.69544 21.6478 7.9168 20.8691 6.9563 20.8691C5.9958 20.8691 5.21716 21.6478 5.21716 22.6083C5.21716 23.5688 5.9958 24.3474 6.9563 24.3474Z" fill="#FFDA44"/>
<path d="M6.95632 17.3904C7.43655 17.3904 7.82586 17.0011 7.82586 16.5209C7.82586 16.0407 7.43655 15.6514 6.95632 15.6514C6.47609 15.6514 6.08679 16.0407 6.08679 16.5209C6.08679 17.0011 6.47609 17.3904 6.95632 17.3904Z" fill="#FFDA44"/>
<path d="M5.21722 25.2178H8.6955V26.9569H5.21722V25.2178Z" fill="#FFDA44"/>
<path d="M5.21722 18.2607H8.6955V19.9999H5.21722V18.2607Z" fill="#FFDA44"/>
<path d="M6.95584 10.4346L7.57178 12.3299H9.56459L7.95248 13.5013L8.56795 15.3966L6.95584 14.2252L5.34381 15.3966L5.95928 13.5013L4.34717 12.3299H6.33998L6.95584 10.4346Z" fill="#FFDA44"/>
</g>
<defs>
<clipPath id="clip0_1350_9829">
<rect width="40" height="40" fill="white"/>
</clipPath>
</defs>
</svg>
