<svg width="40" height="40" viewBox="0 0 40 40" fill="none" xmlns="http://www.w3.org/2000/svg">
<g clip-path="url(#clip0_1350_10046)">
<path d="M34.1423 34.1426C26.3318 41.9531 13.6686 41.9531 5.85793 34.1426C-1.95253 26.3321 -1.95253 13.6688 5.85801 5.85822C13.6685 -1.95225 25.102 -0.722484 32.9125 7.08806C40.7229 14.8985 41.9527 26.3321 34.1423 34.1426Z" fill="black"/>
<path d="M5.858 5.85778C13.6685 -1.95269 26.3317 -1.95253 34.1423 5.85786C41.9528 13.6683 41.9528 26.3316 34.1423 34.1422" fill="#A2001D"/>
<path d="M15.2837 26.957L15.6075 27.9535H16.6552L15.8075 28.5693L16.1314 29.5658L15.2837 28.9499L14.436 29.5658L14.7598 28.5693L13.9122 27.9535H14.9599L15.2837 26.957Z" fill="#F0F0F0"/>
<path d="M12.6081 17.3916L13.1479 19.0524H14.894L13.4813 20.0787L14.0209 21.7395L12.6081 20.713L11.1955 21.7395L11.7352 20.0787L10.3223 19.0524H12.0686L12.6081 17.3916Z" fill="#F0F0F0"/>
<path d="M12.6081 29.5654L13.1477 31.2262H14.894L13.4811 32.2525L14.0209 33.9132L12.6081 32.8868L11.1955 33.9132L11.735 32.2525L10.3223 31.2262H12.0684L12.6081 29.5654Z" fill="#F0F0F0"/>
<path d="M17.7137 21.7393L18.2535 23.4H19.9996L18.5868 24.4263L19.1264 26.0871L17.7137 25.0606L16.301 26.0871L16.8407 24.4263L15.428 23.4H17.1742L17.7137 21.7393Z" fill="#F0F0F0"/>
<path d="M7.50275 21.7393L8.04251 23.4H9.78853L8.37587 24.4263L8.9154 26.0871L7.50275 25.0606L6.09001 26.0871L6.62978 24.4263L5.21696 23.4H6.96314L7.50275 21.7393Z" fill="#F0F0F0"/>
<path d="M33.4809 14.8093C32.587 13.9154 31.4256 13.3874 30.1776 13.2967L33.9135 10.391C32.4256 8.90309 30.4314 8.23113 28.4855 8.37324C28.2525 7.53606 27.8084 6.74527 27.15 6.08691L25.6743 9.03832C25.5775 8.86192 25.4549 8.6959 25.3054 8.54645C24.4563 7.69746 23.0799 7.69746 22.231 8.54645C21.3821 9.39543 21.382 10.7718 22.231 11.6208C22.3805 11.7703 22.5466 11.8929 22.723 11.9897L19.7716 13.4654C20.4301 14.124 21.2214 14.5685 22.0591 14.8013C21.9165 16.7472 22.5877 18.7411 24.0757 20.2291L27.3398 16.0324C27.5853 15.7906 27.9096 15.6571 28.2546 15.6571C28.603 15.6571 28.9305 15.7927 29.1769 16.0392C29.4233 16.2855 29.559 16.6131 29.559 16.9614C29.559 17.3099 29.4233 17.6374 29.1769 17.8838L30.4067 19.1136C30.9815 18.5388 31.2981 17.7745 31.2981 16.9615C31.2981 16.2964 31.0859 15.664 30.6942 15.1412C31.265 15.2936 31.8045 15.5922 32.2513 16.0392C33.6076 17.3954 33.6076 19.6021 32.2513 20.9582L33.4812 22.188C34.4666 21.2025 35.0093 19.8924 35.0093 18.4987C35.0091 17.1049 34.4662 15.7947 33.4809 14.8093Z" fill="#FFDA44"/>
</g>
<defs>
<clipPath id="clip0_1350_10046">
<rect width="40" height="40" fill="white"/>
</clipPath>
</defs>
</svg>
