<svg width="40" height="40" viewBox="0 0 40 40" fill="none" xmlns="http://www.w3.org/2000/svg">
<g clip-path="url(#clip0_1350_9088)">
<path d="M20 40C31.0457 40 40 31.0457 40 20C40 8.9543 31.0457 0 20 0C8.9543 0 0 8.9543 0 20C0 31.0457 8.9543 40 20 40Z" fill="#D80027"/>
<path d="M10.9453 12.1719L12.6719 17.4844H18.2578L13.7422 20.7734L15.4688 26.0859L10.9453 22.8047L6.42188 26.0859L8.15625 20.7734L3.63281 17.4844H9.21875L10.9453 12.1719Z" fill="#FFDA44"/>
<path d="M23.7103 30.9766L22.39 29.3516L20.4369 30.1094L21.5697 28.3516L20.2494 26.7188L22.2728 27.2578L23.4134 25.5L23.5228 27.5938L25.5541 28.1328L23.5931 28.8828L23.7103 30.9766Z" fill="#FFDA44"/>
<path d="M26.3354 26.2109L26.9604 24.2109L25.2495 23L27.3432 22.9688L27.9604 20.9688L28.6401 22.9531L30.7338 22.9297L29.0541 24.1797L29.726 26.1641L28.0151 24.9531L26.3354 26.2109Z" fill="#FFDA44"/>
<path d="M29.8755 14.6797L28.9537 16.5625L30.4537 18.0234L28.3834 17.7266L27.4615 19.6016L27.1021 17.5391L25.024 17.2422L26.8834 16.2656L26.524 14.1953L28.024 15.6562L29.8755 14.6797Z" fill="#FFDA44"/>
<path d="M23.765 8.97656L23.6088 11.0625L25.5541 11.8516L23.515 12.3516L23.3666 14.4453L22.265 12.6641L20.226 13.1641L21.5775 11.5625L20.4681 9.78906L22.4135 10.5781L23.765 8.97656Z" fill="#FFDA44"/>
</g>
<defs>
<clipPath id="clip0_1350_9088">
<rect width="40" height="40" fill="white"/>
</clipPath>
</defs>
</svg>
