<svg width="40" height="40" viewBox="0 0 40 40" fill="none" xmlns="http://www.w3.org/2000/svg">
<g clip-path="url(#clip0_1350_9764)">
<path d="M20 40C31.0457 40 40 31.0457 40 20C40 8.9543 31.0457 0 20 0C8.9543 0 0 8.9543 0 20C0 31.0457 8.9543 40 20 40Z" fill="#F0F0F0"/>
<path d="M39.8285 17.3918C39.2768 13.1741 37.3823 9.09867 34.142 5.85844C30.9018 2.6182 26.8262 0.723594 22.6086 0.171875L22.6087 17.3918H39.8285Z" fill="#0052B4"/>
<path d="M17.3909 0.171875C13.1733 0.723594 9.09774 2.61813 5.8575 5.85836C2.61735 9.09867 0.722739 13.1742 0.171021 17.392L17.391 17.3919L17.3909 0.171875Z" fill="#0052B4"/>
<path d="M0.171021 22.6094C0.722739 26.827 2.61735 30.9027 5.8575 34.1428C9.09774 37.383 13.1732 39.2775 17.391 39.8295L17.3909 22.6095L0.171021 22.6094Z" fill="#0052B4"/>
<path d="M22.6086 39.8292C26.8263 39.2775 30.9018 37.383 34.142 34.1427C37.3822 30.9025 39.2768 26.827 39.8285 22.6094H22.6086V39.8292Z" fill="#0052B4"/>
<path d="M26.8277 12.6899C26.8277 12.4239 27.0438 12.2078 27.3098 12.2078H28.343C29.9761 12.2078 31.3048 10.8792 31.3048 9.24613C31.3048 7.61309 29.9762 6.28441 28.343 6.28441H27.3619C27.0416 6.04387 26.612 5.89551 26.1381 5.89551C25.1496 5.89551 24.3483 6.53652 24.3483 7.3273C24.3483 8.11043 25.1343 8.74574 26.1096 8.75809L26.1091 8.76379H28.343C28.609 8.76379 28.8252 8.98004 28.8252 9.24598C28.8252 9.51191 28.609 9.72809 28.343 9.72809H27.3098C25.6767 9.72809 24.3482 11.0567 24.3482 12.6897C24.3482 14.3228 25.6766 15.6514 27.3098 15.6514H31.3047V13.1719H27.3098C27.0438 13.172 26.8277 12.9558 26.8277 12.6899Z" fill="#F0F0F0"/>
<path d="M11.1763 12.6899C11.1763 12.4239 11.3925 12.2078 11.6585 12.2078H12.6916C14.3248 12.2078 15.6534 10.8792 15.6534 9.24613C15.6534 7.61309 14.3249 6.28441 12.6916 6.28441H11.7106C11.3903 6.04387 10.9607 5.89551 10.4868 5.89551C9.49829 5.89551 8.69696 6.53652 8.69696 7.3273C8.69696 8.11043 9.48298 8.74574 10.4583 8.75809L10.4578 8.76379H12.6917C12.9577 8.76379 13.1739 8.98004 13.1739 9.24598C13.1739 9.51191 12.9577 9.72809 12.6917 9.72809H11.6586C10.0255 9.72809 8.69696 11.0567 8.69696 12.6897C8.69696 14.3228 10.0254 15.6514 11.6586 15.6514H15.6534V13.1719H11.6585C11.3925 13.172 11.1763 12.9558 11.1763 12.6899Z" fill="#F0F0F0"/>
<path d="M26.8277 31.1411C26.8277 30.8751 27.0438 30.6589 27.3099 30.6589H28.343C29.9761 30.6589 31.3048 29.3304 31.3048 27.6973C31.3048 26.0643 29.9762 24.7356 28.343 24.7356H27.3619C27.0417 24.495 26.6121 24.3467 26.1381 24.3467C25.1496 24.3467 24.3482 24.9878 24.3482 25.7785C24.3482 26.5616 25.1342 27.1969 26.1096 27.2093L26.1091 27.215H28.3429C28.6089 27.215 28.8251 27.4312 28.8251 27.6971C28.8251 27.9631 28.6089 28.1793 28.3429 28.1793H27.3098C25.6767 28.1793 24.3481 29.5079 24.3481 31.1409C24.3481 32.7739 25.6766 34.1026 27.3098 34.1026H31.3047V31.6232H27.3099C27.0438 31.6232 26.8277 31.4069 26.8277 31.1411Z" fill="#F0F0F0"/>
<path d="M11.1754 31.1411C11.1754 30.8751 11.3916 30.6589 11.6576 30.6589H12.6907C14.3239 30.6589 15.6525 29.3304 15.6525 27.6973C15.6525 26.0643 14.3239 24.7356 12.6907 24.7356H11.7097C11.3894 24.495 10.9598 24.3467 10.4859 24.3467C9.49731 24.3467 8.69598 24.9878 8.69598 25.7785C8.69598 26.5616 9.482 27.1969 10.4573 27.2093L10.4568 27.215H12.6907C12.9568 27.215 13.1729 27.4312 13.1729 27.6971C13.1729 27.9631 12.9568 28.1793 12.6907 28.1793H11.6576C10.0245 28.1793 8.69598 29.5079 8.69598 31.1409C8.69598 32.7739 10.0244 34.1026 11.6576 34.1026H15.6525V31.6232H11.6576C11.3916 31.6232 11.1754 31.4069 11.1754 31.1411Z" fill="#F0F0F0"/>
</g>
<defs>
<clipPath id="clip0_1350_9764">
<rect width="40" height="40" fill="white"/>
</clipPath>
</defs>
</svg>
