<svg width="40" height="40" viewBox="0 0 40 40" fill="none" xmlns="http://www.w3.org/2000/svg">
<g clip-path="url(#clip0_1350_8751)">
<path d="M20 40C31.0457 40 40 31.0457 40 20C40 8.9543 31.0457 0 20 0C8.9543 0 0 8.9543 0 20C0 31.0457 8.9543 40 20 40Z" fill="#FFDA44"/>
<path d="M12.1735 13.0435H38.7555C35.9297 5.4275 28.5988 0 19.9996 0C14.4766 0 9.47716 2.23898 5.85809 5.85852L12.1735 13.0435Z" fill="#338AF3"/>
<path d="M12.1735 26.957H38.7555C35.9297 34.5731 28.5988 40.0006 19.9996 40.0006C14.4766 40.0006 9.47716 37.7616 5.85809 34.142L12.1735 26.957Z" fill="#338AF3"/>
<path d="M5.85828 5.85742C-1.95219 13.6679 -1.95219 26.3313 5.85828 34.1418C9.08586 30.9142 12.19 27.8101 20.0005 19.9996L5.85828 5.85742Z" fill="black"/>
</g>
<defs>
<clipPath id="clip0_1350_8751">
<rect width="40" height="40" fill="white"/>
</clipPath>
</defs>
</svg>
