<svg width="40" height="40" viewBox="0 0 40 40" fill="none" xmlns="http://www.w3.org/2000/svg">
<g clip-path="url(#clip0_1350_10076)">
<path d="M40 20C40 31.0456 31.0456 40 20 40C8.95437 40 0 31.0456 0 20C0 20.0048 20 0.0021875 20 0C31.0456 0 40 8.95437 40 20Z" fill="#0052B4"/>
<path d="M19.9465 19.9998H20C20 19.9818 20 19.9643 20 19.9463C19.9822 19.9642 19.9644 19.982 19.9465 19.9998Z" fill="#F0F0F0"/>
<path d="M20 10.4348C20 6.91563 20 4.60977 20 0H19.9966C8.95242 0.001875 0 8.95539 0 20H10.4348V14.1241L16.3106 20H19.9466C19.9644 19.9822 19.9822 19.9644 20.0001 19.9465C20.0001 18.5991 20.0001 17.3968 20.0001 16.3108L14.1241 10.4348H20Z" fill="#F0F0F0"/>
<path d="M10.1183 2.6084C6.99022 4.38957 4.38968 6.99004 2.60858 10.1181V19.9997H7.826V7.82598V7.82582H19.9999C19.9999 6.18027 19.9999 4.61262 19.9999 2.6084H10.1183Z" fill="#D80027"/>
<path d="M19.9997 17.5403L12.8939 10.4346H10.4345V10.4347L19.9996 19.9997H19.9997C19.9997 19.9997 19.9997 18.3038 19.9997 17.5403Z" fill="#D80027"/>
<path d="M31.3046 12.174L28.6959 13.0436L26.0872 12.174L25.2177 10.0001L26.0872 7.82617H31.3046L30.435 10.0001L31.3046 12.174Z" fill="#ACABB1"/>
<path d="M22.6086 12.1738V21.739C22.6086 26.3983 28.6955 27.826 28.6955 27.826C28.6955 27.826 34.7825 26.3983 34.7825 21.739V12.1738H22.6086Z" fill="#338AF3"/>
<path d="M23.1575 24.0047C24.6537 26.8773 28.6958 27.8257 28.6958 27.8257C28.6958 27.8257 32.7378 26.8773 34.234 24.0047L28.6958 14.7822L23.1575 24.0047Z" fill="#6DA544"/>
<path d="M34.7825 21.6423L28.6955 12.1738L22.6086 21.6424V21.739C22.6086 22.6013 22.8175 23.3527 23.1573 24.0051L28.6955 15.3898L34.2338 24.005C34.5736 23.3526 34.7825 22.6012 34.7825 21.7389V21.6423Z" fill="#FFDA44"/>
</g>
<defs>
<clipPath id="clip0_1350_10076">
<rect width="40" height="40" fill="white"/>
</clipPath>
</defs>
</svg>
