<svg width="40" height="40" viewBox="0 0 40 40" fill="none" xmlns="http://www.w3.org/2000/svg">
<g clip-path="url(#clip0_1350_9915)">
<path d="M20 40C31.0457 40 40 31.0457 40 20C40 8.9543 31.0457 0 20 0C8.9543 0 0 8.9543 0 20C0 31.0457 8.9543 40 20 40Z" fill="#F0F0F0"/>
<path d="M20.0001 0C11.4008 0 4.06991 5.4275 1.24405 13.0435H38.7562C35.9302 5.4275 28.5994 0 20.0001 0Z" fill="#A2001D"/>
<path d="M20.0001 40.0006C28.5994 40.0006 35.9302 34.5731 38.7561 26.957H1.24405C4.06991 34.5731 11.4008 40.0006 20.0001 40.0006Z" fill="#0052B4"/>
</g>
<defs>
<clipPath id="clip0_1350_9915">
<rect width="40" height="40" fill="white"/>
</clipPath>
</defs>
</svg>
