<svg width="40" height="40" viewBox="0 0 40 40" fill="none" xmlns="http://www.w3.org/2000/svg">
<g clip-path="url(#clip0_1350_9277)">
<path d="M20 40C31.0457 40 40 31.0457 40 20C40 8.9543 31.0457 0 20 0C8.9543 0 0 8.9543 0 20C0 31.0457 8.9543 40 20 40Z" fill="#F0F0F0"/>
<path d="M19.9994 0C12.0702 0 5.21895 4.61445 1.98395 11.3044H38.0148C34.7799 4.61445 27.9286 0 19.9994 0Z" fill="#0052B4"/>
<path d="M19.9994 40.0002C27.9286 40.0002 34.7799 35.3857 38.0149 28.6958H1.98395C5.21895 35.3857 12.0702 40.0002 19.9994 40.0002Z" fill="#0052B4"/>
<path d="M15.9836 20.8696L20 13.9131L24.0164 20.8696H15.9836Z" fill="#FFDA44"/>
<path d="M25.2179 23.1667L20.0005 25.7754L14.7831 23.1667V19.6885H25.2179V23.1667Z" fill="#6DA544"/>
<path d="M24.9189 14.2114L23.0743 16.056C23.8611 16.8428 24.3478 17.9298 24.3478 19.1304C24.3478 21.5317 22.4012 23.4782 20 23.4782C17.5988 23.4782 15.6522 21.5316 15.6522 19.1304C15.6522 17.9298 16.1389 16.8428 16.9257 16.056L15.0811 14.2114C13.8221 15.4702 13.0435 17.2093 13.0435 19.1304C13.0435 22.9724 16.1581 26.0869 20 26.0869C23.842 26.0869 26.9565 22.9724 26.9565 19.1304C26.9564 17.2093 26.1778 15.4702 24.9189 14.2114Z" fill="#FFDA44"/>
</g>
<defs>
<clipPath id="clip0_1350_9277">
<rect width="40" height="40" fill="white"/>
</clipPath>
</defs>
</svg>
