<svg width="40" height="40" viewBox="0 0 40 40" fill="none" xmlns="http://www.w3.org/2000/svg">
<g clip-path="url(#clip0_1350_9759)">
<path d="M20 40C31.0456 40 40 31.0456 40 20C40 16.6435 39.1719 13.4808 37.7108 10.7031L19.9765 20.0234L29.2969 2.28922C26.5192 0.828125 23.3565 0 20 0C8.95437 0 0 8.95437 0 20C0 25.5229 2.23859 30.5229 5.85781 34.1422C9.47711 37.7615 14.4771 40 20 40Z" fill="#0052B4"/>
<path d="M37.69 10.725C36.7745 8.9825 35.5843 7.34649 34.1191 5.88133C32.6539 4.41617 31.0181 3.22594 29.2754 2.31055L5.83475 34.1656L37.69 10.725Z" fill="#F0F0F0"/>
<path d="M5.83475 34.1661L37.69 10.7255C36.7745 8.98301 35.5843 7.34699 34.1191 5.88184L5.83475 34.1661Z" fill="#FF9811"/>
<path d="M17.3677 11.7286L14.9252 12.8775L16.2259 15.2431L13.5736 14.7357L13.2375 17.415L11.39 15.4443L9.54247 17.415L9.20653 14.7357L6.55418 15.2429L7.85473 12.8774L5.41223 11.7286L7.85481 10.5796L6.55418 8.2141L9.20637 8.72137L9.54254 6.04199L11.39 8.01269L13.2375 6.04199L13.5736 8.72137L16.226 8.2141L14.9253 10.5796L17.3677 11.7286Z" fill="#F0F0F0"/>
</g>
<defs>
<clipPath id="clip0_1350_9759">
<rect width="40" height="40" fill="white"/>
</clipPath>
</defs>
</svg>
