<svg width="40" height="40" viewBox="0 0 40 40" fill="none" xmlns="http://www.w3.org/2000/svg">
<g clip-path="url(#clip0_1350_8802)">
<path d="M26.956 1.24398C24.7893 0.440078 22.4459 0 19.9995 0C17.5531 0 15.2096 0.440078 13.043 1.24398L11.3038 20L13.043 38.756C15.2096 39.56 17.5531 40 19.9995 40C22.4459 40 24.7893 39.56 26.956 38.756L28.6951 20L26.956 1.24398Z" fill="#FFDA44"/>
<path d="M40.0001 20.0001C40.0001 11.4009 34.5726 4.06992 26.9566 1.24414V38.7562C34.5726 35.9302 40.0001 28.5995 40.0001 20.0001Z" fill="#D80027"/>
<path d="M0 20.0001C0 28.5995 5.4275 35.9302 13.0435 38.7562V1.24414C5.4275 4.06992 0 11.4009 0 20.0001Z" fill="black"/>
</g>
<defs>
<clipPath id="clip0_1350_8802">
<rect width="40" height="40" fill="white"/>
</clipPath>
</defs>
</svg>
