<svg width="40" height="40" viewBox="0 0 40 40" fill="none" xmlns="http://www.w3.org/2000/svg">
<g clip-path="url(#clip0_1350_9272)">
<path d="M20 40C31.0457 40 40 31.0457 40 20C40 8.9543 31.0457 0 20 0C8.9543 0 0 8.9543 0 20C0 31.0457 8.9543 40 20 40Z" fill="#F0F0F0"/>
<path d="M20.0001 0C11.4008 0 4.06994 5.4275 1.24408 13.0435H38.7562C35.9303 5.4275 28.5994 0 20.0001 0Z" fill="#D80027"/>
<path d="M20.0001 40.0001C28.5994 40.0001 35.9303 34.5726 38.7561 26.9565H1.24408C4.06994 34.5726 11.4008 40.0001 20.0001 40.0001Z" fill="black"/>
<path d="M26.9564 17.8261H21.739C21.739 16.8656 20.9603 16.0869 19.9998 16.0869C19.0394 16.0869 18.2607 16.8656 18.2607 17.8261H13.0433C13.0433 18.7866 13.8799 19.5652 14.8404 19.5652H14.7824C14.7824 20.5257 15.561 21.3043 16.5215 21.3043C16.5215 22.2649 17.3001 23.0435 18.2607 23.0435H21.739C22.6995 23.0435 23.4781 22.2649 23.4781 21.3043C24.4386 21.3043 25.2172 20.5257 25.2172 19.5652H25.1593C26.1198 19.5652 26.9564 18.7866 26.9564 17.8261Z" fill="#FF9811"/>
</g>
<defs>
<clipPath id="clip0_1350_9272">
<rect width="40" height="40" fill="white"/>
</clipPath>
</defs>
</svg>
