<svg width="40" height="40" viewBox="0 0 40 40" fill="none" xmlns="http://www.w3.org/2000/svg">
<g clip-path="url(#clip0_1350_16372)">
<mask id="mask0_1350_16372" style="mask-type:luminance" maskUnits="userSpaceOnUse" x="0" y="0" width="40" height="40">
<path d="M20 39.9986C31.045 39.9986 39.9988 31.0448 39.9988 19.9998C39.9988 8.95474 31.045 0.000976562 20 0.000976562C8.95497 0.000976562 0.00119781 8.95474 0.00119781 19.9998C0.00119781 31.0448 8.95497 39.9986 20 39.9986Z" fill="white"/>
</mask>
<g mask="url(#mask0_1350_16372)">
<path d="M59.95 39.998H-19.956C-19.996 39.9156 -19.9748 39.8276 -19.9748 39.7428C-19.9764 26.5292 -19.9764 13.3159 -19.9748 0.102784C-19.9644 0.0155845 -19.902 0.0427845 -19.8548 0.0539845C-19.7391 0.0850268 -19.6274 0.12946 -19.522 0.186384C-8.59214 5.65092 2.33907 11.1137 13.2716 16.5748C13.3824 16.6304 13.5116 16.666 13.572 16.7932C13.5988 16.9068 13.54 17.0012 13.4976 17.0968C13.1962 17.7653 13.0017 18.4771 12.9212 19.206C12.7612 20.7024 13.0184 22.1216 13.7448 23.446C14.3324 24.5238 15.1888 25.4313 16.2309 26.0803C17.2729 26.7292 18.4651 27.0976 19.6916 27.1496C20.938 27.2048 22.1144 26.964 23.2232 26.406C24.512 25.7572 25.5124 24.7968 26.2332 23.546C26.2984 23.4332 26.34 23.2984 26.4712 23.2344C26.6012 23.2108 26.7012 23.2872 26.8064 23.34C28.9931 24.4309 31.1797 25.5229 33.3664 26.616C42.1272 30.9952 50.888 35.3741 59.6488 39.7528C59.7612 39.8084 59.9304 39.818 59.95 39.998Z" fill="#012168"/>
<path d="M59.95 39.998C59.8972 39.9332 59.8172 39.9124 59.7468 39.878C48.7193 34.366 37.6915 28.8548 26.6632 23.3444L26.4844 23.2544C26.4212 23.1424 26.4876 23.0456 26.5304 22.9532C26.8378 22.2871 27.0338 21.5751 27.1108 20.8456C27.2708 19.3632 27.0208 17.9544 26.3108 16.6404C25.6257 15.3548 24.5588 14.3133 23.2572 13.6592C22.3588 13.1983 21.3702 12.9401 20.3612 12.9028C18.206 12.8152 16.3852 13.5548 14.8716 15.07C14.4475 15.5034 14.0831 15.9914 13.788 16.5212C13.7288 16.6248 13.7004 16.766 13.548 16.7916L-8.4388 5.80519L-19.7272 0.165192C-19.792 0.132792 -19.8536 0.0935918 -19.9168 0.0571918C-19.8368 0.00599179 -19.7484 0.0319918 -19.6648 0.0319918C-0.992268 0.0319918 17.6799 0.0319918 36.3516 0.0319918C44.1457 0.0319918 51.9397 0.0319918 59.7336 0.0319918C59.8184 0.0319918 59.9064 0.0111918 59.9892 0.0507918C59.9892 13.3068 59.9884 26.5628 59.9868 39.8188C59.9876 39.8768 60.0336 39.954 59.95 39.998Z" fill="#0DAE2B"/>
<path d="M59.99 0.0502265H-19.6568C-19.7432 0.0502265 -19.8296 0.0542265 -19.916 0.0562265C-20 0.122227 -19.9536 0.213427 -19.9536 0.290627C-19.956 13.5264 -19.9568 26.762 -19.956 39.9974C-19.9684 39.989 -19.998 40.0178 -19.996 39.9774C-19.996 39.9242 -19.996 39.871 -19.996 39.8174C-19.996 26.6078 -19.9973 13.3984 -20 0.189027C-20 0.0394265 -19.966 0.00582654 -19.8164 0.00582654C6.726 0.0100932 33.2681 0.0123599 59.81 0.0126265C59.8684 0.0126265 59.9456 -0.0333735 59.99 0.0502265Z" fill="#FEFEFE"/>
<path d="M13.5488 16.7928C13.9296 16.0944 14.374 15.4424 14.9488 14.8872C16.2832 13.6012 17.8724 12.9004 19.7288 12.8208C23.4088 12.6608 26.6412 15.3364 27.16 18.9832C27.36 20.3792 27.1724 21.7284 26.5836 23.016C26.548 23.096 26.5168 23.176 26.4836 23.256C26.0888 23.9848 25.6276 24.6672 25.0124 25.2292C22.9532 27.1092 20.5508 27.72 17.8924 26.9036C15.2744 26.0996 13.628 24.2784 12.9816 21.6088C12.6016 20.04 12.7816 18.5064 13.448 17.0324C13.4848 16.9524 13.5156 16.872 13.5488 16.7928Z" fill="#F6D016"/>
<path d="M1.7076 22.0345C1.7372 21.6433 1.76 21.2481 1.8008 20.8549C1.8152 20.7209 1.7732 20.6825 1.6508 20.6649C1.264 20.6085 0.879202 20.5425 0.442802 20.4717C0.802802 20.2277 1.1176 20.0021 1.4452 19.7973C1.5792 19.7133 1.5828 19.6481 1.508 19.5229C1.3116 19.1941 1.128 18.8577 0.912402 18.4777C1.2944 18.5945 1.628 18.6961 1.9612 18.7977C2.2448 18.8857 2.244 18.8861 2.3568 18.6065C2.4876 18.2813 2.62 17.9569 2.7656 17.5977C2.9188 17.9949 3.066 18.3545 3.194 18.7205C3.2452 18.8665 3.3076 18.8937 3.45 18.8473C3.8208 18.7273 4.1964 18.6209 4.6004 18.5001C4.3772 18.8841 4.1744 19.2405 3.9604 19.5913C3.9068 19.6805 3.918 19.7225 4.0004 19.7793C4.3352 20.0061 4.6652 20.2401 5.0404 20.5017C4.6456 20.5593 4.2964 20.6133 3.9464 20.6617C3.6528 20.7017 3.6524 20.6973 3.674 20.9929C3.7 21.3433 3.7256 21.6937 3.754 22.1025C3.514 21.8765 3.3088 21.6837 3.1028 21.4929C2.9828 21.3801 2.8592 21.1877 2.7324 21.1829C2.6124 21.1789 2.4824 21.3709 2.36 21.4805C2.152 21.6665 1.9464 21.8561 1.7392 22.0433C1.7404 22.0457 1.7308 22.0413 1.7076 22.0345Z" fill="#FEFEFE"/>
<path d="M30.5332 22.178C31.3996 22.5468 31.9972 22.6892 32.5904 22.6544C32.2504 22.5632 31.9504 22.4924 31.6564 22.4008C31.3624 22.3092 31.0688 22.1952 30.7764 22.0912C30.77 22.0568 30.7764 22.036 30.8164 22.0556C31.57 22.2208 32.3248 22.3756 33.0924 22.47C34.4353 22.6345 35.7925 22.6479 37.1384 22.51C39.2776 22.2904 41.2892 21.6536 43.1924 20.67C44.3864 20.052 45.456 19.27 46.288 18.1952C46.5744 17.8355 46.8045 17.4344 46.9704 17.0056C47.2216 16.3328 47.1368 15.7088 46.7448 15.106C46.256 14.3544 45.5764 13.8212 44.8328 13.352C44.1212 12.9048 43.3612 12.5488 42.6412 12.118C41.2352 11.2756 40.022 10.2248 39.0768 8.87795C39.0392 8.82436 39.0028 8.76956 38.9648 8.71316C39.0232 8.64396 39.0936 8.67796 39.1524 8.68236C41.1016 8.82076 42.94 9.37316 44.7076 10.1832C45.0796 10.3536 45.3876 10.6256 45.718 10.8604C46.2148 11.2078 46.7542 11.4901 47.3228 11.7004C47.4648 11.754 47.51 11.724 47.5116 11.5752C47.5225 11.2359 47.5785 10.8996 47.678 10.5752C47.7428 10.3464 47.7076 10.1264 47.65 9.90636C47.4296 9.07036 47.0364 8.30635 46.65 7.54116C46.1532 6.55516 45.5564 5.62116 45.098 4.61596C44.6417 3.62001 44.3551 2.5548 44.25 1.46436C44.5072 1.64676 44.736 1.80036 44.9556 1.96596C46.7587 3.3299 48.3393 4.96519 49.6412 6.81356C50.1724 7.56356 50.3888 8.42076 50.478 9.31996C50.558 10.13 50.492 10.9444 50.558 11.754C50.6296 12.6552 50.9104 13.484 51.4652 14.2076C51.7428 14.57 52.0972 14.7616 52.5708 14.7184C52.8508 14.6928 53.1276 14.6716 53.4008 14.6084C53.696 14.54 53.9608 14.572 54.204 14.78C54.4176 14.9628 54.6924 14.976 54.9604 14.9844C55.2572 14.9936 55.45 15.1536 55.6136 15.4308C55.4644 15.4308 55.3424 15.4256 55.2208 15.4308C54.7728 15.4532 54.4448 15.634 54.2552 16.0708C53.9352 16.8136 53.2844 17.1836 52.5592 17.4188C52.0864 17.572 51.5852 17.6352 51.1064 17.7716C49.6633 18.1804 48.2913 18.8081 47.0384 19.6328C44.6416 21.208 41.9924 22.1564 39.2304 22.8328C37.9804 23.138 36.704 23.1972 35.4212 23.178C34.5292 23.1644 33.6372 23.1648 32.748 23.0676C31.9208 22.9772 31.1772 22.6808 30.496 22.2136C30.4864 22.18 30.4908 22.1588 30.5332 22.178Z" fill="#F6D016"/>
<path d="M30.5332 22.1779L30.4952 22.2143L30.3604 22.1343C30.3364 22.1244 30.3172 22.1054 30.3068 22.0815C30.3913 22.0857 30.4716 22.1199 30.5332 22.1779Z" fill="#A6C51D"/>
<path d="M30.656 22.0529C30.6228 22.0397 30.556 22.0229 30.5692 22.0025C30.6036 21.9497 30.654 21.9877 30.6948 22.0153C30.6918 22.0242 30.6867 22.0322 30.6799 22.0388C30.6732 22.0453 30.665 22.0502 30.656 22.0529Z" fill="#76BE21"/>
<path d="M30.656 22.0532L30.696 22.0156C30.7392 22.0196 30.7844 22.0196 30.816 22.0556L30.776 22.0912L30.656 22.0532Z" fill="#BCC81B"/>
<path d="M21.9344 25.1348C21.5344 25.1176 21.098 25.0372 20.6608 24.948C20.5272 24.9208 20.5216 24.8596 20.5432 24.7544C20.7083 23.9522 20.7628 23.1313 20.7052 22.3144C20.6764 21.906 20.4964 21.6704 20.0984 21.5464C19.8228 21.4604 19.5356 21.4488 19.2508 21.4264C19.1012 21.414 18.948 21.3892 18.8464 21.2804C18.6996 21.1232 18.5064 21.1152 18.3224 21.0704C18.2999 21.0645 18.2765 21.0633 18.2535 21.0667C18.2306 21.0701 18.2086 21.0782 18.1888 21.0904C17.8352 21.2988 17.514 21.2468 17.29 20.8948C17.17 20.7048 17.0324 20.6632 16.8324 20.6648C16.3276 20.6688 15.8212 20.726 15.318 20.6344C15.2328 20.6188 15.1804 20.6808 15.136 20.7368C15.0284 20.872 14.932 21.0168 14.8244 21.1508C14.668 21.3468 14.5776 21.3668 14.41 21.2564C14.1736 21.1012 14.1344 20.9844 14.2384 20.7632C14.3356 20.5564 14.5144 20.4252 14.7092 20.3508C15.0868 20.2064 15.2172 19.9452 15.2292 19.5588C15.2396 19.2036 15.3452 19.114 15.6876 19.0172C15.7323 19.0058 15.7735 18.9835 15.8076 18.9524C15.9788 18.7788 15.9656 18.228 15.7876 18.0604C15.6568 17.9372 15.5204 17.8204 15.3876 17.6984C15.1448 17.4744 15.2076 16.9784 15.4932 16.8184C15.5988 16.7584 15.6356 16.8272 15.6828 16.8924C15.892 17.1848 16.1032 17.4756 16.338 17.748C16.4818 17.9223 16.6501 18.075 16.8376 18.2012C17.016 18.316 17.1976 18.3756 17.4224 18.318C17.6125 18.2751 17.811 18.289 17.9932 18.358C18.0564 18.3796 18.1312 18.41 18.1496 18.4732C18.206 18.6672 18.3536 18.6688 18.5096 18.6732C20.0752 18.7056 21.332 18.0808 22.3252 16.8896C22.4576 16.7296 22.4084 16.5484 22.4128 16.3732C22.416 16.2584 22.4272 16.156 22.5564 16.1216C22.6792 16.0892 22.7652 16.1292 22.7924 16.2632C22.824 16.4176 22.9064 16.4168 22.9884 16.3096C23.166 16.0776 23.4312 15.8956 23.4148 15.5496C23.4108 15.4648 23.482 15.4064 23.5704 15.3924C23.6736 15.376 23.7276 15.436 23.7704 15.5224C23.8968 15.7884 24.3048 15.8348 24.5028 15.6024C24.5668 15.528 24.6448 15.4956 24.732 15.5224C24.8412 15.5552 24.7988 15.6508 24.7932 15.726C24.7688 15.9919 24.7987 16.26 24.8812 16.514C25.0192 16.922 25.0012 17.3228 24.8636 17.726C24.7692 18.0008 24.7944 18.048 25.0692 18.1592C25.1184 18.1792 25.168 18.1992 25.218 18.2164C25.4604 18.3072 25.4604 18.3072 25.3132 18.5092C25.3052 18.52 25.294 18.532 25.2936 18.5436C25.2788 18.8508 25.0236 18.916 24.8136 19.0316C24.2612 19.3332 23.7768 19.7028 23.5092 20.302C23.4132 20.5168 23.276 20.7076 22.9992 20.722C22.902 20.7272 22.8504 20.802 22.8328 20.8948C22.7828 21.164 22.74 21.4328 22.8376 21.702C22.8584 21.7582 22.8675 21.8181 22.8644 21.878C22.8304 22.39 22.77 22.8984 22.5068 23.3532C22.395 23.535 22.3347 23.7437 22.3324 23.9572C22.3324 24.2632 22.3356 24.5692 22.3324 24.8772C22.3284 25.1428 22.326 25.1428 21.9344 25.1348Z" fill="#0DAF2B"/>
</g>
</g>
<defs>
<clipPath id="clip0_1350_16372">
<rect width="40" height="40" fill="white"/>
</clipPath>
</defs>
</svg>
