<svg width="40" height="40" viewBox="0 0 40 40" fill="none" xmlns="http://www.w3.org/2000/svg">
<g clip-path="url(#clip0_1350_9983)">
<path d="M20 40C31.0457 40 40 31.0457 40 20C40 8.9543 31.0457 0 20 0C8.9543 0 0 8.9543 0 20C0 31.0457 8.9543 40 20 40Z" fill="#F0F0F0"/>
<path d="M4.83842 6.95703C4.13663 7.77211 3.49952 8.64422 2.93483 9.56571H37.0639C36.4992 8.64422 35.8622 7.77203 35.1603 6.95703H4.83842Z" fill="#D80027"/>
<path d="M4.83841 33.0442H35.1604C35.8622 32.2291 36.4993 31.357 37.064 30.4355H2.9349C3.49951 31.357 4.13662 32.2291 4.83841 33.0442Z" fill="#D80027"/>
<path d="M17.4401 16.3428L19.081 18.6041L21.7386 17.7424L20.0951 20.0018L21.7359 22.263L19.0792 21.398L17.4357 23.6574L17.4373 20.8636L14.7807 19.9986L17.4383 19.1368L17.4401 16.3428Z" fill="#D80027"/>
<path d="M12.9615 25.6527C9.83997 25.6527 7.30935 23.1221 7.30935 20.0005C7.30935 16.8789 9.83997 14.3483 12.9615 14.3483C13.9348 14.3483 14.8507 14.5944 15.6502 15.0277C14.3959 13.8011 12.6805 13.0439 10.7876 13.0439C6.9456 13.0439 3.83115 16.1585 3.83115 20.0004C3.83115 23.8424 6.94568 26.9569 10.7876 26.9569C12.6805 26.9569 14.3959 26.1998 15.6502 24.9732C14.8507 25.4066 13.9349 25.6527 12.9615 25.6527Z" fill="#D80027"/>
</g>
<defs>
<clipPath id="clip0_1350_9983">
<rect width="40" height="40" fill="white"/>
</clipPath>
</defs>
</svg>
