<svg width="40" height="40" viewBox="0 0 40 40" fill="none" xmlns="http://www.w3.org/2000/svg">
<g clip-path="url(#clip0_1350_10499)">
<path d="M10.8292 2.2207C9.03875 3.14484 7.35805 4.35617 5.85711 5.85711C4.35609 7.35812 3.14477 9.03883 2.2207 10.8293L15.0806 24.9191L29.1704 37.779C30.9609 36.8548 32.6416 35.6435 34.1426 34.1427C35.6436 32.6416 36.8548 30.9609 37.779 29.1705L24.9191 15.0806L10.8292 2.2207Z" fill="#F0F0F0"/>
<path d="M34.1427 34.1423C34.9817 33.3033 35.73 32.4081 36.3887 31.4691L8.53055 3.61084C7.59156 4.26951 6.69633 5.01779 5.85734 5.85678C5.01836 6.69576 4.27008 7.591 3.61133 8.53006L31.4695 36.3882C32.4084 35.7295 33.3037 34.9813 34.1427 34.1423Z" fill="black"/>
<path d="M5.85718 34.143C12.1671 40.4529 21.6434 41.6642 29.1705 37.7793L2.22085 10.8296C-1.66391 18.3566 -0.452428 27.8331 5.85718 34.143Z" fill="#D80027"/>
<path d="M34.143 5.85728C27.8331 -0.452562 18.3567 -1.66381 10.8297 2.2208L37.7793 29.1706C41.6642 21.6436 40.4529 12.1671 34.143 5.85728Z" fill="#D80027"/>
</g>
<defs>
<clipPath id="clip0_1350_10499">
<rect width="40" height="40" fill="white"/>
</clipPath>
</defs>
</svg>
