<svg width="40" height="40" viewBox="0 0 40 40" fill="none" xmlns="http://www.w3.org/2000/svg">
<g clip-path="url(#clip0_1350_9560)">
<path d="M20 40C31.0457 40 40 31.0457 40 20C40 8.9543 31.0457 0 20 0C8.9543 0 0 8.9543 0 20C0 31.0457 8.9543 40 20 40Z" fill="#D80027"/>
<path d="M27.4049 13.4069L25.9913 18.4515L21.7499 17.6683L19.0198 12.0405L11.6442 14.6578L11.0626 13.0187L9.13287 12.781L10.5869 16.8786L15.6626 15.5805L17.105 19.6453L13.5962 24.8236L19.5507 29.9022L18.4221 31.2254L19.181 33.0155L22.0027 29.7074L18.3407 25.9608L21.1397 22.6793L27.3786 23.1288L28.7996 15.4327L30.5098 15.7486L31.6808 14.1962L27.4049 13.4069Z" fill="#F0F0F0"/>
</g>
<defs>
<clipPath id="clip0_1350_9560">
<rect width="40" height="40" fill="white"/>
</clipPath>
</defs>
</svg>
