<svg width="40" height="40" viewBox="0 0 40 40" fill="none" xmlns="http://www.w3.org/2000/svg">
<g clip-path="url(#clip0_1350_8845)">
<path d="M20 40C31.0457 40 40 31.0457 40 20C40 8.9543 31.0457 0 20 0C8.9543 0 0 8.9543 0 20C0 31.0457 8.9543 40 20 40Z" fill="#F0F0F0"/>
<path d="M5.85775 5.85721C1.57142 10.1435 -0.361936 15.8915 0.0562674 21.4967L21.4971 0.0557982C15.892 -0.362483 10.1441 1.57088 5.85775 5.85721Z" fill="#FFDA44"/>
<path d="M7.14136 35.3182C14.9992 41.9293 26.746 41.5383 34.1421 34.1423C41.5382 26.7463 41.9292 14.9994 35.3181 7.1416L7.14136 35.3182Z" fill="#0052B4"/>
<path d="M19.928 19.1943L21.6515 18.2607L19.928 17.3271C19.5256 14.713 17.4601 12.6474 14.846 12.2451L13.9123 10.5215L12.9787 12.245C10.3647 12.6473 8.29919 14.7129 7.89669 17.327L6.1731 18.2607L7.89661 19.1943C8.29903 21.8084 10.3645 23.874 12.9786 24.2763L13.9123 25.9999L14.8459 24.2764C17.4601 23.874 19.5256 21.8084 19.928 19.1943ZM13.9124 21.739C11.9914 21.739 10.4341 20.1818 10.4341 18.2607C10.4341 16.3396 11.9913 14.7824 13.9124 14.7824C15.8335 14.7824 17.3907 16.3396 17.3907 18.2607C17.3907 20.1818 15.8334 21.739 13.9124 21.739Z" fill="black"/>
<path d="M13.9132 15.6523L14.6662 16.9566H16.1724L15.4193 18.261L16.1724 19.5654H14.6662L13.9132 20.8697L13.1601 19.5654H11.6541L12.4071 18.261L11.6541 16.9566H13.1601L13.9132 15.6523Z" fill="#D80027"/>
</g>
<defs>
<clipPath id="clip0_1350_8845">
<rect width="40" height="40" fill="white"/>
</clipPath>
</defs>
</svg>
