<svg width="40" height="40" viewBox="0 0 40 40" fill="none" xmlns="http://www.w3.org/2000/svg">
<g clip-path="url(#clip0_1350_9919)">
<path d="M40 20C40 31.0456 31.0456 40 20 40C8.95437 40 0 31.0456 0 20C0 20.0048 20 0.0021875 20 0C31.0456 0 40 8.95437 40 20Z" fill="#0052B4"/>
<path d="M19.9465 19.9998H20C20 19.9818 20 19.9643 20 19.9463C19.9822 19.9642 19.9644 19.982 19.9465 19.9998Z" fill="#F0F0F0"/>
<path d="M20 10.4348C20 6.91563 20 4.60977 20 0H19.9966C8.9525 0.001875 0 8.95539 0 20H10.4348V14.1241L16.3107 20H19.9466C19.9644 19.9822 19.9823 19.9644 20.0001 19.9465C20.0001 18.5991 20.0001 17.3968 20.0001 16.3108L14.1241 10.4348H20Z" fill="#F0F0F0"/>
<path d="M10.1183 2.6084C6.99022 4.38957 4.38975 6.99004 2.60858 10.1181V19.9997H7.826V7.82598V7.82582H19.9999C19.9999 6.18027 19.9999 4.61262 19.9999 2.6084H10.1183Z" fill="#D80027"/>
<path d="M19.9997 17.5403L12.894 10.4346C12.894 10.4346 10.4346 10.4347 10.4346 10.4346V10.4347L19.9996 19.9997H19.9997C19.9997 19.9997 19.9997 18.3038 19.9997 17.5403Z" fill="#D80027"/>
<path d="M34.6348 14.8408L35.0664 16.1694H36.4634L35.3332 16.9905L35.7649 18.319L34.6348 17.498L33.5045 18.319L33.9363 16.9905L32.806 16.1694H34.203L34.6348 14.8408Z" fill="#D80027"/>
<path d="M29.6415 24.4053L30.2891 26.3982H32.3845L30.6892 27.6298L31.3368 29.6227L29.6415 28.3911L27.9462 29.6227L28.5938 27.6298L26.8985 26.3982H28.9939L29.6415 24.4053Z" fill="#D80027"/>
<path d="M29.8298 8.75293L30.3695 10.4138H32.1157L30.7028 11.44L31.2425 13.1007L29.8298 12.0742L28.4171 13.1007L28.9568 11.44L27.5441 10.4138H29.2902L29.8298 8.75293Z" fill="#D80027"/>
<path d="M25.0248 14.7822L25.6723 16.7752H27.7677L26.0724 18.0067L26.7201 19.9996L25.0248 18.768L23.3295 19.9996L23.9771 18.0067L22.2818 16.7752H24.3772L25.0248 14.7822Z" fill="#D80027"/>
</g>
<defs>
<clipPath id="clip0_1350_9919">
<rect width="40" height="40" fill="white"/>
</clipPath>
</defs>
</svg>
