<svg width="40" height="40" viewBox="0 0 40 40" fill="none" xmlns="http://www.w3.org/2000/svg">
<g clip-path="url(#clip0_1350_11334)">
<mask id="mask0_1350_11334" style="mask-type:luminance" maskUnits="userSpaceOnUse" x="0" y="0" width="40" height="40">
<path d="M20.0037 39.9888C31.0463 39.9888 39.9981 31.037 39.9981 19.9944C39.9981 8.9518 31.0463 0 20.0037 0C8.96108 0 0.00927734 8.9518 0.00927734 19.9944C0.00927734 31.037 8.96108 39.9888 20.0037 39.9888Z" fill="white"/>
</mask>
<g mask="url(#mask0_1350_11334)">
<path d="M67.3359 39.9867H-0.354062C-0.384913 39.9397 -0.372763 39.8865 -0.372763 39.836C-0.372763 35.486 -0.372485 31.1359 -0.37193 26.7856C-0.369058 26.7599 -0.357059 26.7359 -0.3381 26.7182C-0.221245 26.6388 -0.087951 26.6686 0.0380764 26.6686C3.34409 26.6666 6.65015 26.6662 9.95624 26.6674C10.0592 26.6674 10.1627 26.6612 10.2632 26.6884C10.4015 26.6918 10.4819 26.7845 10.5579 26.8828C11.1442 27.645 11.8261 28.3287 12.5867 28.9169C14.2261 30.1821 16.0734 30.9456 18.1286 31.2073C18.7938 31.291 19.4654 31.3129 20.1347 31.2727C22.0139 31.1634 23.767 30.6284 25.3791 29.6453C26.1035 29.2036 26.7651 28.6815 27.3815 28.1023C27.767 27.74 28.1043 27.332 28.4349 26.9193C28.5143 26.8201 28.5846 26.7049 28.7316 26.6898C28.8332 26.6622 28.9367 26.6671 29.0397 26.6671C41.6811 26.6671 54.3224 26.6675 66.9639 26.6682C67.0779 26.6682 67.1971 26.6444 67.3044 26.7091C67.3256 26.724 67.3421 26.7447 67.3521 26.7686C67.3591 27.2969 67.3548 27.8253 67.3548 28.3536C67.3554 32.1553 67.3552 35.957 67.3541 39.7587C67.3541 39.8346 67.3733 39.9133 67.3359 39.9867Z" fill="#019834"/>
<path d="M-0.392639 13.3561V0.00195312H67.3359C67.3382 0.0148179 67.3405 0.0275636 67.3429 0.0404284C67.3286 0.062247 67.3093 0.0802727 67.2865 0.0929597C67.2204 0.127742 67.1482 0.11988 67.0778 0.121429C66.9489 0.124169 66.8198 0.12262 66.6908 0.12262C44.5409 0.12262 22.391 0.12262 0.240952 0.12262C-0.320334 0.12262 -0.271257 0.080214 -0.271257 0.632686C-0.271972 4.7356 -0.272647 8.83848 -0.273282 12.9413C-0.273282 13.074 -0.24112 13.2137 -0.32224 13.3377C-0.330108 13.3484 -0.341388 13.356 -0.354198 13.3594C-0.367009 13.3627 -0.380576 13.3615 -0.392639 13.3561Z" fill="#AAAAFE"/>
<path d="M67.3408 13.3869C67.3392 13.4642 67.336 13.5417 67.336 13.6185C67.336 17.9098 67.336 22.201 67.336 26.4922C67.336 26.5755 67.332 26.6589 67.3298 26.7431C67.2525 26.7445 67.175 26.747 67.0979 26.747C54.382 26.747 41.6661 26.747 28.9502 26.747C28.86 26.747 28.7698 26.7429 28.6796 26.7406C28.6279 26.6132 28.7224 26.5328 28.7822 26.4475C29.4017 25.5646 29.8871 24.6131 30.2285 23.5917C30.6237 22.4093 30.8115 21.1954 30.8094 19.9429C30.8068 18.3764 30.4985 16.8826 29.8751 15.4521C29.6174 14.8604 29.3153 14.2899 28.9498 13.7556C28.8953 13.6758 28.8368 13.5977 28.7978 13.5088C28.7659 13.4359 28.7404 13.3598 28.8336 13.3063C28.9451 13.2577 29.0628 13.2758 29.1777 13.2758C31.0741 13.2742 32.9704 13.2739 34.8668 13.2748C45.5355 13.2748 56.2043 13.2756 66.873 13.2773C67.0271 13.2773 67.1999 13.2203 67.3301 13.3637C67.331 13.3724 67.3347 13.3806 67.3408 13.3869Z" fill="#EC2D37"/>
<path d="M-0.330583 26.7434C-0.351905 26.6741 -0.343805 26.6027 -0.343805 26.5322C-0.344281 22.2161 -0.344281 17.9 -0.343805 13.584C-0.343805 13.5138 -0.354883 13.442 -0.326294 13.3739C-0.285556 13.2915 -0.209439 13.2812 -0.129987 13.2779C-0.0466041 13.2743 0.0373744 13.275 0.121234 13.275C3.34244 13.275 6.56364 13.2754 9.78484 13.276C9.91254 13.276 10.0429 13.2565 10.1672 13.3035C10.3152 13.413 10.2209 13.5196 10.1566 13.6189C9.86906 14.0625 9.59759 14.5145 9.36269 14.9888C8.77377 16.18 8.41284 17.4347 8.27001 18.7545C8.01581 21.1059 8.47013 23.3167 9.58568 25.3957C9.77297 25.7488 9.98389 26.0889 10.217 26.4136C10.2859 26.5089 10.3862 26.5989 10.3399 26.7403C10.282 26.7425 10.2243 26.7466 10.1664 26.7466C6.70599 26.7466 3.24563 26.7466 -0.21468 26.7466C-0.252798 26.747 -0.291988 26.7447 -0.330583 26.7434Z" fill="#EC2D37"/>
<path d="M10.3398 26.7404C10.2908 26.6649 10.2438 26.5879 10.1922 26.5141C9.10636 24.9627 8.43119 23.2488 8.21142 21.3681C7.87916 18.5265 8.51593 15.9167 10.1217 13.539C10.1575 13.4858 10.1881 13.4291 10.2211 13.3741C10.2021 13.2869 10.2559 13.2269 10.3015 13.1653C11.2941 11.8232 12.5206 10.7481 13.9808 9.93991C15.3358 9.18875 16.7837 8.72812 18.3221 8.57315C20.2829 8.37577 22.1797 8.65224 23.9958 9.42866C25.2039 9.94504 26.2875 10.6538 27.2613 11.5388C27.7749 12.0057 28.2194 12.5292 28.6506 13.0675C28.7221 13.1567 28.8046 13.245 28.7958 13.3741C29.0171 13.7223 29.2501 14.0628 29.451 14.424C30.2329 15.8303 30.7099 17.3317 30.8464 18.936C31.0847 21.7392 30.3935 24.292 28.7728 26.5942C28.7395 26.6419 28.7104 26.6918 28.6793 26.7405C28.3974 27.0756 28.1292 27.4216 27.8301 27.7428C27.1523 28.4693 26.3827 29.1044 25.5407 29.632C24.3041 30.4098 22.9641 30.9225 21.5283 31.186C20.6238 31.3521 19.7104 31.4004 18.7949 31.3435C17.2723 31.2489 15.8224 30.8627 14.4564 30.1805C13.025 29.4658 11.7959 28.493 10.7691 27.2621C10.6249 27.0894 10.4829 26.9144 10.3398 26.7404Z" fill="black"/>
<path d="M28.7958 13.3742C28.4992 12.993 28.2055 12.6083 27.8742 12.2544C26.0696 10.3288 23.8697 9.13413 21.262 8.72293C17.1214 8.07005 12.9677 9.75926 10.4369 13.1015C10.3671 13.1937 10.3081 13.2951 10.221 13.3737C10.1503 13.3717 10.0796 13.3681 10.0088 13.3681C6.62806 13.3681 3.2474 13.3681 -0.133188 13.3681C-0.197512 13.3681 -0.261836 13.3713 -0.326279 13.373C-0.332144 13.3627 -0.340935 13.3544 -0.351532 13.3491C-0.348673 13.2658 -0.343313 13.1824 -0.343313 13.0983C-0.343313 8.85408 -0.343313 4.60989 -0.343313 0.365697C-0.343313 0.320551 -0.343313 0.275286 -0.343313 0.23014C-0.342002 0.0413375 -0.342003 0.0412184 -0.154153 0.0395508C-0.115439 0.0395508 -0.0767255 0.0395508 -0.038012 0.0395508C22.3281 0.0395508 44.6941 0.0395508 67.0601 0.0395508C67.1504 0.0395508 67.2406 0.0424096 67.3309 0.0439582C67.3323 0.114715 67.3352 0.18559 67.3352 0.256347C67.3352 4.54763 67.3352 8.83887 67.3352 13.1301C67.3352 13.2073 67.3311 13.2849 67.3291 13.3618C67.2388 13.3633 67.1486 13.3664 67.0585 13.3664H29.0659C28.9762 13.3686 28.886 13.3722 28.7958 13.3742Z" fill="#0100FD"/>
<path d="M21.9345 15.5162C21.8648 15.5856 21.8134 15.6317 21.7677 15.6829C21.4528 16.0364 21.1922 16.4283 20.9733 16.8464C20.845 17.0912 20.6597 17.268 20.4186 17.3932C20.1396 17.5379 19.8366 17.6305 19.5245 17.6664C19.4811 17.6117 19.4961 17.5581 19.4958 17.5082C19.495 17.4117 19.4731 17.3038 19.5086 17.2223C19.549 17.1289 19.6779 17.1551 19.7664 17.1263C20.3784 16.9271 20.7918 16.3477 20.767 15.7137C20.7417 15.0608 20.2936 14.5139 19.6605 14.3633C19.4954 14.324 19.4948 14.324 19.4947 14.1509C19.4947 13.7898 19.4974 13.4285 19.4925 13.067C19.4913 12.9729 19.5209 12.9156 19.6008 12.8629C20.4432 12.3084 20.9622 11.5069 21.3307 10.5911C21.3523 10.5371 21.364 10.4796 21.3653 10.4215C21.3663 10.3901 21.3677 10.3548 21.3308 10.3401C21.2979 10.3271 21.2674 10.3392 21.2413 10.3602C21.2152 10.3813 21.192 10.4018 21.1691 10.4243C20.776 10.811 20.3124 11.0821 19.7966 11.2691C19.7065 11.3018 19.618 11.338 19.5154 11.3774C19.4832 11.312 19.4956 11.2484 19.4956 11.1884C19.4947 10.5109 19.4945 9.83354 19.495 9.15631C19.495 8.92093 19.4815 8.94285 19.7 8.94749C21.8225 8.99347 23.7853 9.57715 25.5501 10.7576C28.155 12.4993 29.8088 14.9119 30.3489 18.0009C30.9989 21.7194 29.9685 24.9708 27.3622 27.7057C26.3533 28.7644 25.1526 29.5586 23.8072 30.1328C23.7895 30.1405 23.7715 30.1481 23.7539 30.1555C23.5327 30.246 23.5845 30.2389 23.4545 30.0861C23.2585 29.8551 23.0666 29.6202 22.8688 29.3905C22.4772 28.9358 22.0607 28.5047 21.6419 28.0753C21.11 27.5308 20.4595 27.2915 19.7186 27.2483C19.6929 27.2467 19.667 27.2462 19.6413 27.2441C19.4984 27.2322 19.4984 27.2322 19.4956 27.0835C19.4956 27.0512 19.4996 27.0184 19.4949 26.9868C19.4676 26.8038 19.5098 26.6854 19.7093 26.6081C19.9373 26.5201 20.08 26.3137 20.1945 26.0997C20.4171 25.6835 20.4873 25.2359 20.4513 24.7698C20.4267 24.4516 20.3501 24.1462 20.1941 23.8645C20.0531 23.6104 19.8706 23.3978 19.5876 23.2948C19.5261 23.2726 19.4884 23.2429 19.4946 23.171C19.5023 23.0816 19.4838 22.9909 19.5085 22.8942C19.5807 22.8823 19.6454 22.9129 19.7091 22.9355C20.3569 23.1635 20.7944 23.6131 21.0589 24.2371C21.2049 24.5813 21.3441 24.928 21.5198 25.259C21.6045 25.4185 21.6944 25.5752 21.8047 25.7189C21.8507 25.7785 21.896 25.8406 21.9758 25.8866C22.0019 25.7736 21.9684 25.6822 21.9401 25.5941C21.7644 25.058 21.6859 24.5027 21.6109 23.9467C21.5825 23.7356 21.5855 23.5225 21.5585 23.3108C21.4796 22.6879 21.1297 22.3089 20.5368 22.1374C20.2368 22.0505 19.9293 22.0221 19.6184 22.0279C19.5494 22.0292 19.4886 22.0299 19.4946 21.9312C19.4983 21.8702 19.5131 21.8331 19.5821 21.8345C19.6787 21.8362 19.7756 21.8345 19.8723 21.8345C20.3109 21.8345 20.7495 21.8352 21.1881 21.8345C21.3414 21.8345 21.3463 21.8318 21.3448 21.6915C21.3403 21.2902 21.4008 21.3643 21.0277 21.3605C20.5698 21.3557 20.1118 21.3605 19.6539 21.359C19.5121 21.359 19.4441 21.2496 19.5021 21.1208C19.5259 21.068 19.5756 21.0741 19.6178 21.0699C19.7655 21.0551 19.9112 21.0248 20.0526 20.9797C20.232 20.9228 20.4008 20.844 20.5505 20.7281C20.9874 20.3901 20.9884 19.9139 20.549 19.5768C20.2805 19.3708 19.9671 19.2782 19.6357 19.2368C19.5021 19.2202 19.4801 19.19 19.4954 19.0688C19.5014 19.0218 19.521 18.9988 19.5669 18.998C19.6127 18.9972 19.6572 18.9968 19.7023 18.9968C20.1989 18.9968 20.6955 18.9975 21.1922 18.9968C21.3415 18.9968 21.346 18.9938 21.3447 18.848C21.341 18.4449 21.3965 18.5194 21.028 18.5157C20.5634 18.5112 20.0989 18.5157 19.6343 18.5135C19.5765 18.5135 19.5003 18.5399 19.4942 18.4331C19.4888 18.3406 19.5232 18.3114 19.6149 18.3076C19.9825 18.2921 20.3466 18.2402 20.7108 18.1924C20.8529 18.1737 20.9896 18.1351 21.1147 18.0663C21.4363 17.8892 21.6083 17.6246 21.5881 17.2473C21.5652 16.8209 21.6416 16.4135 21.8285 16.0275C21.9071 15.869 21.9436 15.6929 21.9345 15.5162Z" fill="#FFFF01"/>
<path d="M16.7409 25.9045C16.8801 25.7919 16.9565 25.6743 17.03 25.5555C17.2787 25.1534 17.4607 24.7194 17.6313 24.2809C17.7456 23.9854 17.9162 23.715 18.1338 23.4847C18.3395 23.2658 18.5795 23.0945 18.8594 22.982C18.9174 22.9582 18.9785 22.9419 19.0612 22.9142C19.0612 23.0357 19.0603 23.1366 19.0612 23.2376C19.0619 23.2836 19.0349 23.3076 18.9991 23.3261C18.6299 23.519 18.4358 23.8491 18.3202 24.2285C18.1497 24.7883 18.162 25.349 18.3768 25.8974C18.4971 26.2044 18.6773 26.4683 18.9784 26.6279C19.037 26.659 19.0648 26.6959 19.0628 26.7631C19.0591 26.8791 19.0574 26.9955 19.0628 27.1114C19.0675 27.2091 19.0206 27.2278 18.9343 27.2298C18.6507 27.2349 18.3679 27.2625 18.0886 27.3121C17.7432 27.3755 17.4423 27.5208 17.1714 27.7421C16.7762 28.0654 16.4113 28.4203 16.0569 28.7867C15.7075 29.1484 15.3673 29.5189 15.0362 29.8982C14.9364 30.0119 14.9335 30.0142 14.798 29.9458C11.5976 28.3476 9.52267 25.8274 8.74745 22.3296C7.52279 16.8041 10.6712 11.3094 16.0256 9.51174C16.956 9.20036 17.9241 9.01562 18.9039 8.96248C19.0598 8.95367 19.0619 8.95367 19.062 9.11733C19.0629 9.8978 19.0595 10.6778 19.0655 11.4587C19.0663 11.5751 19.0209 11.6304 18.9265 11.6815C18.7395 11.7826 18.5572 11.8935 18.3765 12.005C18.2271 12.0956 18.0961 12.2134 17.9903 12.3525C17.8831 12.4939 17.7971 12.6493 17.7924 12.8276C17.7829 13.1805 17.7896 13.5337 17.7896 13.9192C17.9398 13.8186 18.062 13.7296 18.1912 13.6519C18.329 13.5686 18.4719 13.4941 18.6152 13.4208C18.7517 13.351 18.8917 13.2879 19.0296 13.2222C19.0817 13.2698 19.0609 13.3246 19.0613 13.3725C19.0637 13.6305 19.0626 13.8885 19.0624 14.1468C19.0624 14.3381 19.0624 14.3381 18.8847 14.3969C18.0305 14.6828 17.6435 15.6609 18.0767 16.4469C18.2624 16.7838 18.5432 17.0091 18.9105 17.1259C19.0618 17.1744 19.0641 17.1756 19.0619 17.3369C19.0607 17.425 19.0779 17.5155 19.0418 17.6199C18.5653 17.4957 18.1328 17.3269 17.883 16.8631C17.6529 16.436 17.3827 16.0357 17.0538 15.677C17.0074 15.6262 16.9704 15.5619 16.8825 15.5356C16.8848 15.7147 16.9274 15.891 17.0071 16.0515C17.1903 16.4244 17.2642 16.8199 17.2454 17.2326C17.2281 17.6126 17.3982 17.9034 17.7424 18.0741C17.9555 18.1798 18.1877 18.199 18.4171 18.2299C18.596 18.2537 18.7754 18.2739 18.9553 18.2903C19.0373 18.2974 19.0637 18.3329 19.0645 18.413C19.0655 18.5083 19.0122 18.5144 18.9405 18.5141C18.5084 18.5131 18.0763 18.5131 17.6442 18.5141C17.4624 18.5141 17.4591 18.5154 17.461 18.6905C17.4649 19.0544 17.4115 18.9924 17.7664 18.9957C18.1533 18.9994 18.5407 18.9957 18.9272 18.9973C19.0582 18.998 19.0701 19.0172 19.0635 19.1425C19.0601 19.2035 19.0405 19.2351 18.9757 19.2443C18.8222 19.2651 18.6716 19.3027 18.5264 19.3565C18.3312 19.4298 18.1507 19.5275 18.0033 19.6781C17.7187 19.9688 17.7174 20.3322 18.0014 20.6235C18.2158 20.8434 18.4888 20.9546 18.7821 21.0235C18.8323 21.0354 18.8829 21.0519 18.9336 21.0534C19.0319 21.056 19.067 21.099 19.0647 21.1975C19.061 21.3524 19.0628 21.358 18.9025 21.3584C18.4834 21.3596 18.0642 21.3584 17.645 21.359C17.4623 21.359 17.4623 21.3603 17.4604 21.534C17.4569 21.8344 17.4569 21.8344 17.7513 21.8344C18.1444 21.8344 18.5374 21.8344 18.9314 21.8353C18.979 21.8353 19.0386 21.8155 19.0591 21.8882C19.0829 21.9708 19.0502 22.0251 18.9609 22.0263C18.7351 22.0286 18.5101 22.0545 18.2897 22.1038C17.954 22.1794 17.6617 22.3269 17.4369 22.5989C17.3388 22.7189 17.2672 22.8582 17.2268 23.0077C17.1722 23.2007 17.1479 23.3986 17.1341 23.5989C17.0907 24.2303 17.0031 24.8549 16.8218 25.4637C16.7832 25.5927 16.7397 25.721 16.7409 25.9045Z" fill="#FFFF01"/>
</g>
</g>
<defs>
<clipPath id="clip0_1350_11334">
<rect width="40" height="40" fill="white"/>
</clipPath>
</defs>
</svg>
