<svg width="40" height="40" viewBox="0 0 40 40" fill="none" xmlns="http://www.w3.org/2000/svg">
<g clip-path="url(#clip0_1350_10004)">
<path d="M20 40C31.0457 40 40 31.0457 40 20C40 8.9543 31.0457 0 20 0C8.9543 0 0 8.9543 0 20C0 31.0457 8.9543 40 20 40Z" fill="#F0F0F0"/>
<path d="M0 19.9998C0 27.5807 4.21797 34.176 10.4348 37.568V2.43164C4.21797 5.82367 0 12.419 0 19.9998Z" fill="#D80027"/>
<path d="M38.7561 26.9559C39.56 24.7893 40 22.4459 40 19.9995C40 17.553 39.56 15.2095 38.7561 13.043H1.24406C0.440078 15.2095 0 17.553 0 19.9995C0 22.4459 0.440078 24.7893 1.24406 26.9559L20 28.6951L38.7561 26.9559Z" fill="#D80027"/>
<path d="M19.9998 40.0006C28.5992 40.0006 35.93 34.5731 38.7559 26.957H1.2439C4.06968 34.5731 11.4006 40.0006 19.9998 40.0006Z" fill="#6DA544"/>
<path d="M0 19.9995C0 29.24 6.26727 37.0155 14.7826 39.3105V0.688477C6.26727 2.98348 0 10.7589 0 19.9995Z" fill="#D80027"/>
<path d="M12.2355 8.80164L10.3909 6.95703L9.16124 8.18688L7.93155 6.95703L6.08695 8.80164L7.31671 10.0314L6.08679 11.2613L7.9314 13.1059L9.16116 11.876L10.3909 13.1059L12.2355 11.2613L11.0058 10.0314L12.2355 8.80164Z" fill="#F0F0F0"/>
</g>
<defs>
<clipPath id="clip0_1350_10004">
<rect width="40" height="40" fill="white"/>
</clipPath>
</defs>
</svg>
