<svg width="40" height="40" viewBox="0 0 40 40" fill="none" xmlns="http://www.w3.org/2000/svg">
<g clip-path="url(#clip0_1350_9446)">
<path d="M8.72772 36.5219C11.9374 38.716 15.8187 40.0002 20.0001 40.0002C24.1816 40.0002 28.0628 38.716 31.2726 36.5219L20.0001 34.7827L8.72772 36.5219Z" fill="#D80027"/>
<path d="M31.2726 3.47828C28.0628 1.28414 24.1816 0 20.0001 0C15.8187 0 11.9374 1.28414 8.72772 3.47828L20.0001 5.21742L31.2726 3.47828Z" fill="#D80027"/>
<path d="M40 20.0002C40 13.3823 36.0378 6.73617 31.2724 3.47852H8.72758C3.45859 7.08039 0 13.1362 0 20.0002C0 26.8645 3.45859 32.9201 8.72758 36.5219H31.2724C36.5415 32.9201 40 26.8645 40 20.0002Z" fill="#0052B4"/>
<path d="M18.8676 32.625C18.5943 32.3906 12.1733 26.8087 12.1733 20.0002C12.1733 13.1917 18.5943 7.60973 18.8676 7.37543L19.9994 6.40527L21.1312 7.37535C21.4045 7.60973 27.8255 13.1916 27.8255 20.0002C27.8255 26.8088 21.4046 32.3907 21.1312 32.625L19.9994 33.5951L18.8676 32.625Z" fill="#D80027"/>
<path d="M26.0871 20.0002C26.0871 13.9132 20.0002 8.6958 20.0002 8.6958C20.0002 8.6958 13.9132 13.9134 13.9132 20.0002C13.9132 21.8623 14.4833 23.6427 15.2741 25.2176H24.7263C25.517 23.6427 26.0871 21.8623 26.0871 20.0002Z" fill="#338AF3"/>
<path d="M26.0871 20C26.0871 21.8621 25.517 23.6425 24.7263 25.2174L20.0002 26.087L15.2741 25.2174C14.4833 23.6426 13.9132 21.8621 13.9132 20H26.0871Z" fill="#0052B4"/>
<path d="M20 31.3042C20 31.3042 22.9319 28.7904 24.7261 25.2173H15.2739C17.0681 28.7904 20 31.3042 20 31.3042Z" fill="#FFDA44"/>
<path d="M16.0868 16.5215H23.9129L19.9998 20.4345L16.0868 16.5215Z" fill="#6DA544"/>
<path d="M18.6962 19.1304H21.3049V26.9565H18.6962V19.1304Z" fill="#A2001D"/>
</g>
<defs>
<clipPath id="clip0_1350_9446">
<rect width="40" height="40" fill="white"/>
</clipPath>
</defs>
</svg>
