<svg width="40" height="40" viewBox="0 0 40 40" fill="none" xmlns="http://www.w3.org/2000/svg">
<g clip-path="url(#clip0_1350_10505)">
<path d="M20 40C31.0457 40 40 31.0457 40 20C40 8.9543 31.0457 0 20 0C8.9543 0 0 8.9543 0 20C0 31.0457 8.9543 40 20 40Z" fill="#D80027"/>
<path d="M20 29.5655C25.2827 29.5655 29.5652 25.283 29.5652 20.0003C29.5652 14.7176 25.2827 10.4351 20 10.4351C14.7172 10.4351 10.4347 14.7176 10.4347 20.0003C10.4347 25.283 14.7172 29.5655 20 29.5655Z" fill="#F0F0F0"/>
<path d="M21.1784 16.3428L22.8194 18.6041L25.4769 17.7424L23.8334 20.0018L25.4742 22.263L22.8175 21.398L21.174 23.6574L21.1757 20.8636L18.519 19.9986L21.1767 19.1368L21.1784 16.3428Z" fill="#D80027"/>
<path d="M22.1738 25.6522C19.0522 25.6522 16.5216 23.1216 16.5216 20C16.5216 16.8785 19.0522 14.3478 22.1738 14.3478C23.1471 14.3478 24.0629 14.5939 24.8625 15.0272C23.6082 13.8006 21.8929 13.0435 19.9999 13.0435C16.158 13.0435 13.0434 16.158 13.0434 19.9999C13.0434 23.8419 16.158 26.9564 19.9999 26.9564C21.8929 26.9564 23.6082 26.1993 24.8625 24.9727C24.0629 25.4061 23.1471 25.6522 22.1738 25.6522Z" fill="#D80027"/>
</g>
<defs>
<clipPath id="clip0_1350_10505">
<rect width="40" height="40" fill="white"/>
</clipPath>
</defs>
</svg>
