<svg width="40" height="40" viewBox="0 0 40 40" fill="none" xmlns="http://www.w3.org/2000/svg">
<g clip-path="url(#clip0_1350_9996)">
<path d="M20 40C31.0457 40 40 31.0457 40 20C40 8.9543 31.0457 0 20 0C8.9543 0 0 8.9543 0 20C0 31.0457 8.9543 40 20 40Z" fill="#F0F0F0"/>
<path d="M0.688934 25.2178C1.84612 29.5114 4.39651 33.2329 7.82604 35.8679V25.2178H0.688934Z" fill="#D80027"/>
<path d="M18.2609 39.9243C18.8342 39.9736 19.414 40.0003 20.0001 40.0003C29.2406 40.0003 37.0161 33.7331 39.3111 25.2178H18.2609V39.9243Z" fill="#D80027"/>
<path d="M39.3111 14.7826C37.0161 6.26727 29.2406 0 20.0001 0C19.414 0 18.8342 0.0267187 18.2609 0.0760937V14.7826H39.3111Z" fill="#D80027"/>
<path d="M7.82604 4.13281C4.39651 6.76797 1.84612 10.4893 0.688934 14.783H7.82604V4.13281Z" fill="#D80027"/>
<path d="M39.8307 17.3915H15.6523H15.6522V0.475586C13.8039 0.88543 12.0516 1.54973 10.4348 2.43199V17.3914V17.3914H0.169297C0.0579688 18.2454 0 19.1161 0 20.0002C0 20.8843 0.0579688 21.755 0.169297 22.6089H10.4347H10.4348V37.5683C12.0516 38.4505 13.8039 39.115 15.6522 39.5247V22.6091V22.6089H39.8307C39.9419 21.755 40 20.8843 40 20.0002C40 19.1161 39.9419 18.2454 39.8307 17.3915Z" fill="#0052B4"/>
</g>
<defs>
<clipPath id="clip0_1350_9996">
<rect width="40" height="40" fill="white"/>
</clipPath>
</defs>
</svg>
