<svg width="40" height="40" viewBox="0 0 40 40" fill="none" xmlns="http://www.w3.org/2000/svg">
<g clip-path="url(#clip0_1350_8971)">
<path d="M20 40C31.0457 40 40 31.0457 40 20C40 8.9543 31.0457 0 20 0C8.9543 0 0 8.9543 0 20C0 31.0457 8.9543 40 20 40Z" fill="#F0F0F0"/>
<path d="M32.1778 4.13337C25.0175 -1.37647 14.9825 -1.37647 7.82214 4.13329L20 16.3111L32.1778 4.13337Z" fill="#D80027"/>
<path d="M19.9998 23.6896L7.82214 35.8673C14.9825 41.3771 25.0175 41.3771 32.1778 35.8673L20 23.6895L19.9998 23.6896Z" fill="#D80027"/>
<path d="M16.3101 20.0001L4.13238 7.82227C-1.37746 14.9826 -1.37746 25.0176 4.13238 32.1779L16.3101 20.0001Z" fill="#6DA544"/>
<path d="M23.6882 20.0001L35.8659 32.1779C41.3757 25.0176 41.3757 14.9826 35.8659 7.82227L23.6882 20.0001Z" fill="#6DA544"/>
<path d="M19.9995 28.696C24.8019 28.696 28.6951 24.8028 28.6951 20.0003C28.6951 15.1979 24.8019 11.3047 19.9995 11.3047C15.197 11.3047 11.3038 15.1979 11.3038 20.0003C11.3038 24.8028 15.197 28.696 19.9995 28.696Z" fill="#F0F0F0"/>
<path d="M20.0002 13.9131L20.7533 15.2175H22.2594L21.5063 16.5218L22.2594 17.8261H20.7533L20.0002 19.1305L19.2472 17.8261H17.7411L18.4941 16.5218L17.7411 15.2175H19.2472L20.0002 13.9131Z" fill="#D80027"/>
<path d="M16.1724 20L16.9255 21.3044H18.4316L17.6785 22.6087L18.4316 23.913H16.9255L16.1724 25.2174L15.4193 23.913H13.9132L14.6663 22.6087L13.9132 21.3044H15.4193L16.1724 20Z" fill="#D80027"/>
<path d="M23.8276 20L24.5806 21.3044H26.0867L25.3337 22.6087L26.0867 23.913H24.5806L23.8276 25.2174L23.0745 23.913H21.5684L22.3214 22.6087L21.5684 21.3044H23.0745L23.8276 20Z" fill="#D80027"/>
</g>
<defs>
<clipPath id="clip0_1350_8971">
<rect width="40" height="40" fill="white"/>
</clipPath>
</defs>
</svg>
