<svg width="40" height="40" viewBox="0 0 40 40" fill="none" xmlns="http://www.w3.org/2000/svg">
<g clip-path="url(#clip0_1350_9418)">
<path d="M0 20C0 8.95437 8.95437 0 20 0C31.0456 0 40 8.95437 40 20C39.1305 20 20 22.6087 20 22.6087L0 20Z" fill="#F0F0F0"/>
<path d="M40 20C40 31.0456 31.0456 40 20 40C8.95437 40 0 31.0456 0 20" fill="#D80027"/>
<path d="M13.9125 29.565C19.1952 29.565 23.4777 25.2825 23.4777 19.9998C23.4777 14.7171 19.1952 10.4346 13.9125 10.4346C8.62973 10.4346 4.34723 14.7171 4.34723 19.9998C4.34723 25.2825 8.62973 29.565 13.9125 29.565Z" fill="#F0F0F0"/>
<path d="M4.34723 19.9998C4.34723 14.7172 8.62973 10.4346 13.9125 10.4346C19.1953 10.4346 23.4777 14.7171 23.4777 19.9998" fill="#D80027"/>
</g>
<defs>
<clipPath id="clip0_1350_9418">
<rect width="40" height="40" fill="white"/>
</clipPath>
</defs>
</svg>
