<svg width="40" height="40" viewBox="0 0 40 40" fill="none" xmlns="http://www.w3.org/2000/svg">
<g clip-path="url(#clip0_1350_10020)">
<path d="M38.756 26.9568C39.56 24.7902 40 22.4467 40 20.0003C40 17.5539 39.56 15.2105 38.756 13.0438L20 11.3047L1.24398 13.0438C0.440078 15.2105 0 17.5539 0 20.0003C0 22.4467 0.440078 24.7902 1.24398 26.9568L20 28.696L38.756 26.9568Z" fill="#D80027"/>
<path d="M19.9999 40.0006C28.5991 40.0006 35.93 34.5731 38.7558 26.957H1.24377C4.06971 34.5731 11.4005 40.0006 19.9999 40.0006Z" fill="#FFDA44"/>
<path d="M19.9999 0C11.4005 0 4.06971 5.4275 1.24377 13.0435H38.7559C35.93 5.4275 28.5991 0 19.9999 0Z" fill="#F0F0F0"/>
</g>
<defs>
<clipPath id="clip0_1350_10020">
<rect width="40" height="40" fill="white"/>
</clipPath>
</defs>
</svg>
