<svg width="40" height="40" viewBox="0 0 40 40" fill="none" xmlns="http://www.w3.org/2000/svg">
<g clip-path="url(#clip0_1350_12114)">
<mask id="mask0_1350_12114" style="mask-type:luminance" maskUnits="userSpaceOnUse" x="0" y="0" width="40" height="40">
<path d="M19.9998 39.9876C31.0367 39.9876 39.9838 31.0405 39.9838 20.0036C39.9838 8.96669 31.0367 0.0195312 19.9998 0.0195312C8.96291 0.0195312 0.0157471 8.96669 0.0157471 20.0036C0.0157471 31.0405 8.96291 39.9876 19.9998 39.9876Z" fill="white"/>
</mask>
<g mask="url(#mask0_1350_12114)">
<path d="M9.76799 40.4275H-10.4369C-10.4442 40.4121 -10.4467 40.3949 -10.4443 40.3781C-10.4418 40.3612 -10.4344 40.3455 -10.4231 40.3328C-10.3111 40.225 -10.1684 40.2541 -10.036 40.2537C-8.87158 40.2511 -7.70766 40.2506 -6.54425 40.2522C-1.10698 40.2509 4.33015 40.2502 9.76713 40.25C9.86862 40.2396 9.97067 40.2355 10.0727 40.2378C16.655 40.2378 23.237 40.2378 29.8189 40.2378C29.9379 40.2346 30.0571 40.2379 30.1758 40.2477C30.3198 40.2328 30.4645 40.238 30.609 40.238H49.8963C50.3987 40.238 50.3991 40.238 50.3991 39.7405C50.3991 26.7007 50.3991 13.6608 50.3991 0.620718C50.3991 0.434411 50.3806 0.246379 50.4306 0.0626591C50.4738 0.000987962 50.4848 -0.113945 50.607 -0.0451576C50.614 0.0565353 50.6157 0.158523 50.6122 0.260395C50.6122 13.5404 50.6122 26.8204 50.6122 40.1004C50.6122 40.2082 50.6385 40.321 50.5887 40.4266H30.179C30.0912 40.3773 29.9957 40.4016 29.9041 40.4016C23.2841 40.4003 16.6642 40.4003 10.0442 40.4016C9.95128 40.4025 9.85575 40.3781 9.76799 40.4275Z" fill="#050706"/>
<path d="M50.579 -0.0696274L50.4882 0.0325828C50.3694 -0.200301 50.1561 -0.187795 49.9403 -0.187795C43.4713 -0.186213 37.0028 -0.185782 30.5348 -0.186501C30.4158 -0.183623 30.2968 -0.18679 30.1781 -0.195989C30.0254 -0.179816 29.8723 -0.186285 29.7192 -0.186285H10.1289C10.0099 -0.186285 9.89175 -0.182404 9.77229 -0.197929C6.16718 -0.204111 2.56193 -0.204901 -1.04346 -0.200301C-4.079 -0.201451 -7.1144 -0.201451 -10.1497 -0.200301C-10.1949 -0.200301 -10.2404 -0.200301 -10.2855 -0.202026C-10.3269 -0.202026 -10.3687 -0.204183 -10.4101 -0.207848C-10.4492 -0.210688 -10.4877 -0.218813 -10.5246 -0.231999C-10.574 -0.24925 -10.6049 -0.290005 -10.6409 -0.32429V-0.375396C-10.579 -0.415072 -10.5145 -0.399331 -10.45 -0.383805C-10.3398 -0.369142 -10.2292 -0.375396 -10.119 -0.375396C-3.61251 -0.375396 2.89394 -0.375396 9.40032 -0.375396C9.52732 -0.375396 9.65541 -0.361379 9.78069 -0.395881C9.87406 -0.402997 9.96765 -0.399547 10.061 -0.399547H50.3521C50.645 -0.399115 50.651 -0.390274 50.579 -0.0696274Z" fill="#040706"/>
<path d="M-10.4878 -0.366894L-10.6417 -0.375519C-10.6307 -0.391045 -10.6676 -0.428565 -10.6163 -0.427055C-10.5484 -0.424683 -10.4802 -0.427055 -10.4121 -0.427055C9.86162 -0.426624 30.1354 -0.42799 50.4093 -0.431152C50.6005 -0.431152 50.6436 -0.388026 50.6436 -0.196974C50.6385 13.268 50.6358 26.7331 50.6357 40.1981C50.6357 40.2729 50.6945 40.3706 50.5878 40.4277C50.5878 27.0304 50.5878 13.6331 50.5878 0.235802C50.5878 0.134023 50.5824 0.0322439 50.5794 -0.069535C50.6411 -0.325923 50.5397 -0.381772 50.284 -0.381557C36.8634 -0.374369 23.4428 -0.372141 10.0222 -0.374872C9.93745 -0.374872 9.85271 -0.369697 9.76774 -0.366894C9.67653 -0.336274 9.5823 -0.351368 9.48958 -0.351368C2.9234 -0.350505 -3.64286 -0.350505 -10.2092 -0.351368C-10.3023 -0.351368 -10.3966 -0.336274 -10.4878 -0.366894Z" fill="#FEFEFE"/>
<path d="M9.76849 -0.264971C9.82779 -0.267774 9.88709 -0.272949 9.94638 -0.272949H30.0219C30.0727 -0.272949 30.1236 -0.269283 30.1745 -0.267343C30.2485 -0.196184 30.2569 -0.102814 30.2608 -0.00858262C30.266 0.093412 30.264 0.195407 30.264 0.297186C30.264 13.4485 30.2632 26.5998 30.2616 39.751C30.2616 39.9403 30.3162 40.1447 30.1698 40.3116C29.6257 40.3131 29.0819 40.3159 28.5379 40.3162C22.3834 40.3162 16.2289 40.3162 10.0745 40.3162C9.97291 40.3162 9.87113 40.3099 9.76935 40.3065C9.74892 40.2905 9.73307 40.2695 9.72342 40.2454C9.71435 40.22 9.70814 40.1936 9.70487 40.1667C9.70035 40.1383 9.69797 40.1102 9.6956 40.0805C9.69032 40.05 9.68708 40.0193 9.6859 39.9884C9.67835 39.8265 9.67965 39.6649 9.67965 39.5037V0.556377C9.67965 0.403493 9.67771 0.250393 9.68331 0.0979403C9.68396 0.0676326 9.68698 0.0374225 9.69237 0.00758988C9.69366 -0.0206581 9.69582 -0.049553 9.69776 -0.0786635C9.6989 -0.120116 9.70616 -0.161172 9.71932 -0.200496C9.73227 -0.224409 9.74885 -0.246161 9.76849 -0.264971Z" fill="#FEFEFE"/>
<path d="M30.171 40.3125C30.1734 40.2362 30.1777 40.1598 30.1777 40.0835C30.1777 26.6757 30.1777 13.2679 30.1777 -0.139884C30.1777 -0.18301 30.176 -0.224843 30.1749 -0.267323C30.2599 -0.269264 30.3448 -0.273145 30.4296 -0.273145C37.0054 -0.273145 43.581 -0.27487 50.1566 -0.27832C50.3966 -0.27832 50.5346 -0.239075 50.4882 0.0328387C50.4861 0.126208 50.4822 0.219577 50.4822 0.313162C50.4822 13.544 50.4836 26.7748 50.4865 40.0055C50.4865 40.2321 50.4576 40.3289 50.1906 40.3289C43.6022 40.3207 37.0139 40.3183 30.4257 40.3218C30.3407 40.3216 30.256 40.3157 30.171 40.3125Z" fill="#006F3C"/>
<path d="M9.75954 -0.0184397C9.76235 0.0749296 9.76752 0.168083 9.76752 0.261884C9.76752 13.4555 9.76752 26.6491 9.76752 39.8427C9.76752 39.9358 9.76235 40.0292 9.75933 40.123C9.68839 40.1661 9.6099 40.1467 9.53485 40.1467C2.96235 40.1467 -3.61016 40.1467 -10.1827 40.1467C-10.2499 40.1178 -10.3739 40.1418 -10.3198 39.9997C-10.2995 39.8901 -10.3101 39.7793 -10.3101 39.6691C-10.3101 26.6036 -10.3095 13.5383 -10.3084 0.473205C-10.3084 0.378326 -10.3299 0.281291 -10.3114 0.237948C-10.3092 0.278056 -10.3114 0.369054 -10.3114 0.460051C-10.3114 13.5425 -10.3114 26.6249 -10.3114 39.7071C-10.3114 39.8082 -10.2933 39.9113 -10.3291 40.0107C-10.4606 40.0165 -10.4455 39.911 -10.4539 39.8347C-10.4675 39.7084 -10.4595 39.5803 -10.4598 39.4528C-10.4598 26.4613 -10.4603 13.47 -10.4613 0.478811C-10.4613 0.294876 -10.4229 0.102962 -10.5311 -0.0684666V-0.168736C-10.4905 -0.189513 -10.4575 -0.22256 -10.4367 -0.263184H-10.3362C-10.1902 -0.166149 -10.0246 -0.192887 -9.86504 -0.192887C-5.20534 -0.191593 -0.545576 -0.191593 4.11426 -0.192887C5.86592 -0.192887 7.61759 -0.192384 9.36925 -0.191378C9.50165 -0.191378 9.6444 -0.225232 9.75911 -0.119787V-0.0686823C9.66208 -0.0201647 9.55836 -0.0451782 9.45723 -0.0451782C2.99757 -0.0440282 -3.46259 -0.0440282 -9.92326 -0.0451782C-10.0166 -0.0451782 -10.1102 -0.0471189 -10.2036 -0.0434531C-3.61555 -0.0434531 2.97263 -0.0434531 9.56095 -0.0434531C9.62736 -0.0425906 9.69766 -0.0587631 9.75954 -0.0184397Z" fill="#F37636"/>
</g>
</g>
<defs>
<clipPath id="clip0_1350_12114">
<rect width="40" height="40" fill="white"/>
</clipPath>
</defs>
</svg>
