<svg width="40" height="40" viewBox="0 0 40 40" fill="none" xmlns="http://www.w3.org/2000/svg">
<g clip-path="url(#clip0_1350_9479)">
<path d="M20 40C31.0457 40 40 31.0457 40 20C40 8.9543 31.0457 0 20 0C8.9543 0 0 8.9543 0 20C0 31.0457 8.9543 40 20 40Z" fill="#F0F0F0"/>
<path d="M20 0C16.464 0 13.1431 0.918906 10.2609 2.52906V37.4709C13.1431 39.0811 16.464 40 20 40C31.0456 40 40 31.0456 40 20C40 8.95437 31.0456 0 20 0Z" fill="#6DA544"/>
<path d="M10.3196 2.49609C9.06139 3.19336 7.88655 4.02211 6.81319 4.9643C6.9217 4.86914 7.03131 4.77508 7.14178 4.68227L22.4594 19.9999L7.1417 35.3176C7.03116 35.2248 6.92163 35.1307 6.81311 35.0355C7.88647 35.9777 9.06139 36.8064 10.3195 37.5038L39.9999 19.9999L10.3196 2.49609Z" fill="#F0F0F0"/>
<path d="M8.63106 3.54541C8.02114 3.96775 7.43536 4.42221 6.87715 4.90791L20.0006 19.9999L6.87708 35.092C7.43528 35.5777 8.02106 36.0322 8.63098 36.4545L36.577 19.9999L8.63106 3.54541Z" fill="#FFDA44"/>
<path d="M7.14128 4.68262C6.69667 5.05621 6.26761 5.44785 5.8573 5.85809L18.2603 20.0003L5.8573 34.1425C6.26761 34.5528 6.6966 34.9445 7.14128 35.3179L22.4589 20.0003L7.14128 4.68262Z" fill="black"/>
<path d="M5.85834 5.85791C-1.95213 13.6684 -1.95213 26.3317 5.85834 34.1423C9.08592 30.9147 12.1901 27.8106 20.0005 20.0001L5.85834 5.85791Z" fill="#D80027"/>
</g>
<defs>
<clipPath id="clip0_1350_9479">
<rect width="40" height="40" fill="white"/>
</clipPath>
</defs>
</svg>
