<svg width="40" height="40" viewBox="0 0 40 40" fill="none" xmlns="http://www.w3.org/2000/svg">
<g clip-path="url(#clip0_1350_9495)">
<path d="M20 40C31.0457 40 40 31.0457 40 20C40 8.9543 31.0457 0 20 0C8.9543 0 0 8.9543 0 20C0 31.0457 8.9543 40 20 40Z" fill="#F0F0F0"/>
<path d="M19.9995 40C25.0711 40 29.701 38.1113 33.2265 35H6.77246C10.298 38.1113 14.9279 40 19.9995 40Z" fill="#D80027"/>
<path d="M0.629578 25.0002C1.08622 26.7741 1.78044 28.4526 2.67575 30.0002H37.3232C38.2185 28.4526 38.9127 26.7741 39.3693 25.0002L19.9995 23.4785L0.629578 25.0002Z" fill="#0052B4"/>
<path d="M39.3689 15C38.9122 13.2261 38.218 11.5477 37.3227 10L19.9989 9.56523C19.9989 6.07203 19.9989 2.7707 19.9989 0C18.5132 0 17.0653 0.162109 15.6719 0.469375C15.6452 0.475313 2.6076 10.7592 2.6076 20C2.94096 20.058 19.9989 21.7391 19.9989 21.7391C19.9989 21.7391 19.9989 17.9297 19.9989 15H39.3689Z" fill="#0052B4"/>
<path d="M20 12.4788V2.47877H13.666L15.6736 0.471191C7.43211 2.28885 1.09969 9.18916 0.130469 17.7179C0.0453125 18.4671 0 19.2285 0 20.0005H10.1305V16.0143L14.1561 20.0005H21.3112L13.6659 12.4788H20Z" fill="#F0F0F0"/>
<path d="M20.0091 20L12.4874 12.4783H10.1305V12.4784L17.6521 20H7.60867V10H37.3237C36.2348 8.11774 34.8475 6.42992 33.2271 5H7.60867V4.30273C5.59086 5.89781 3.88836 7.87344 2.60867 10.1214V20H0C0 21.7265 0.21875 23.402 0.630078 25H39.3699C39.7812 23.4019 40 21.7265 40 20H20.0091Z" fill="#D80027"/>
</g>
<defs>
<clipPath id="clip0_1350_9495">
<rect width="40" height="40" fill="white"/>
</clipPath>
</defs>
</svg>
