<svg width="40" height="40" viewBox="0 0 40 40" fill="none" xmlns="http://www.w3.org/2000/svg">
<g clip-path="url(#clip0_1350_9374)">
<path d="M38.756 26.9563C39.56 24.7898 40 22.4462 40 19.9998C40 17.5534 39.56 15.2101 38.756 13.0433L20 11.3042L1.24398 13.0433C0.440078 15.2101 0 17.5534 0 19.9998C0 22.4462 0.440078 24.7898 1.24398 26.9563L20 28.6955L38.756 26.9563Z" fill="#FFDA44"/>
<path d="M20.0001 40.0001C28.5993 40.0001 35.9302 34.5726 38.756 26.9565H1.24399C4.06993 34.5726 11.4007 40.0001 20.0001 40.0001Z" fill="#0052B4"/>
<path d="M20.0001 0C11.4007 0 4.06992 5.4275 1.24399 13.0435H38.7561C35.9302 5.4275 28.5993 0 20.0001 0Z" fill="#6DA544"/>
</g>
<defs>
<clipPath id="clip0_1350_9374">
<rect width="40" height="40" fill="white"/>
</clipPath>
</defs>
</svg>
