<svg width="40" height="40" viewBox="0 0 40 40" fill="none" xmlns="http://www.w3.org/2000/svg">
<g clip-path="url(#clip0_1350_18753)">
<mask id="mask0_1350_18753" style="mask-type:luminance" maskUnits="userSpaceOnUse" x="0" y="0" width="40" height="40">
<path d="M20.0025 39.9843C31.0443 39.9843 39.9954 31.0447 39.9954 20.0171C39.9954 8.98945 31.0443 0.0498047 20.0025 0.0498047C8.9608 0.0498047 0.00970459 8.98945 0.00970459 20.0171C0.00970459 31.0447 8.9608 39.9843 20.0025 39.9843Z" fill="white"/>
</mask>
<g mask="url(#mask0_1350_18753)">
<path d="M81.7351 -0.396193C81.7351 13.1417 81.7372 26.6797 81.7412 40.2176C81.7412 40.4335 81.6864 40.4611 81.4852 40.4611C54.3241 40.4556 27.1623 40.4539 -0.000110045 40.456C-0.0369858 40.3706 0.0342049 40.3307 0.0746659 40.278C0.100866 40.2534 0.130763 40.233 0.16327 40.2176C0.247872 40.1886 0.330069 40.153 0.409109 40.1112C0.512553 40.0658 0.612077 40.0119 0.706676 39.9501C0.829595 39.8575 0.987854 39.8345 1.11282 39.7455C1.41244 39.592 1.72435 39.4677 2.01269 39.2954C2.15206 39.2442 2.28718 39.1821 2.41679 39.1097C2.43651 39.098 2.45685 39.0874 2.47774 39.078C2.58272 39.0321 2.68529 38.9809 2.78504 38.9245C3.77864 38.4309 4.76916 37.9322 5.76173 37.4365C9.94202 35.3537 14.1216 33.2688 18.3005 31.1818C25.6371 27.5198 32.9744 23.8584 40.3123 20.1977C40.4025 20.1532 40.5033 20.124 40.5745 20.0442C40.5551 19.9501 40.4675 19.9419 40.404 19.9087C27.5835 13.51 14.762 7.11378 1.93945 0.719919C1.57735 0.499971 1.16762 0.378743 0.798353 0.173116C0.684141 0.0641649 0.535101 0.0171061 0.398866 -0.0524591C0.288957 -0.11483 0.17316 -0.16623 0.053155 -0.205912C-0.131736 -0.325605 -0.138906 -0.347088 -0.0190601 -0.421257C27.1236 -0.421257 54.2659 -0.421257 81.4078 -0.421257C81.5164 -0.419723 81.6291 -0.44581 81.7351 -0.396193Z" fill="#D9241D"/>
<path d="M0.159802 40.2543L0.117292 40.2978C0.038931 40.3413 -0.0240651 40.4057 -0.0978167 40.4553H-0.149033C-0.195128 40.3566 -0.172593 40.2543 -0.172593 40.152C-0.172593 26.7143 -0.172593 13.277 -0.172593 -0.160023C-0.17669 -0.266417 -0.180275 -0.347747 -0.0256016 -0.265906C0.11217 -0.190202 0.188483 -0.0490259 0.324718 0.0205393C0.406665 0.0624831 0.478368 0.127956 0.576703 0.132048C0.635518 0.14112 0.691932 0.161813 0.742644 0.192918C1.10116 0.462483 1.45455 0.731537 1.8146 0.994964C1.93189 1.08857 2.05122 1.18013 2.1767 1.26351C2.51115 1.52182 2.84866 1.77502 3.19232 2.0231C3.39719 2.18422 3.60206 2.34074 3.81512 2.48806C5.9954 4.12182 8.16851 5.76478 10.359 7.38422C11.2999 8.13051 12.2776 8.82872 13.2338 9.55455C13.451 9.71926 13.6671 9.88499 13.8914 10.0405C15.1104 10.9648 16.3396 11.8753 17.5621 12.7945C17.6835 12.8855 17.8238 12.9576 17.9017 13.0973C17.9298 13.1929 18.0041 13.2354 18.0927 13.2615C19.0919 13.8661 19.9775 14.6272 20.9209 15.3075C21.4443 15.686 21.9544 16.0829 22.4753 16.4645C22.5469 16.5267 22.6227 16.5838 22.7022 16.6354C23.5288 17.2676 24.3713 17.8783 25.1959 18.5126C25.3777 18.6642 25.5694 18.8036 25.7695 18.93C26.1675 19.2461 26.5803 19.5438 26.9808 19.8558C27.1985 20.0262 27.1974 20.0845 26.9767 20.2563C26.7959 20.397 26.6085 20.5285 26.4302 20.6717C25.537 21.3285 24.6566 21.996 23.7741 22.6609C23.5119 22.8415 23.262 23.0395 23.009 23.2308C22.6622 23.4809 22.3232 23.7423 21.9846 23.998C20.7713 24.8993 19.5631 25.8083 18.3483 26.709C17.4074 27.4088 16.4732 28.1172 15.5288 28.8124C15.2896 28.9883 15.0679 29.1842 14.8174 29.3479C14.4676 29.5945 14.1291 29.8569 13.789 30.1152C13.2441 30.5136 12.7012 30.9157 12.17 31.3331C12.1336 31.3648 12.0949 31.3939 12.0543 31.42C10.7104 32.3996 9.38746 33.4072 8.05942 34.4057C7.02946 35.1627 6.01076 35.9336 4.98643 36.7034C3.76544 37.5945 2.58131 38.5259 1.35929 39.4078C1.14725 39.551 0.949558 39.7111 0.744693 39.8681C0.621261 39.9453 0.511658 40.043 0.386178 40.1239C0.322158 40.1822 0.226895 40.1945 0.159802 40.2543Z" fill="black"/>
<path d="M-0.139809 -0.292896C-0.142882 0.140863 -0.148515 0.576669 -0.148515 1.00889C-0.148515 14.1577 -0.148515 27.3066 -0.148515 40.4554C-0.16388 40.4442 -0.199732 40.481 -0.199732 40.4299C-0.197171 40.3618 -0.199732 40.2938 -0.199732 40.2253C-0.199732 26.7439 -0.201268 13.2628 -0.204341 -0.218216C-0.204853 -0.410543 -0.161832 -0.451975 0.0302298 -0.451975C27.1889 -0.44686 54.3471 -0.444303 81.5047 -0.444303C81.58 -0.444303 81.6784 -0.503126 81.7352 -0.396221C54.5455 -0.396221 27.3549 -0.39588 0.163392 -0.395198C0.0788854 -0.395198 -0.00613379 -0.385479 -0.0926895 -0.380364C-0.143906 -0.373714 -0.1142 -0.316937 -0.139809 -0.292896Z" fill="#FEFEFE"/>
<path d="M14.7903 29.3081C15.7784 28.563 16.7662 27.8182 17.7537 27.0738C18.6923 26.3689 19.633 25.6663 20.5757 24.9659C21.0305 24.6272 21.4889 24.2932 21.9457 23.9572C22.253 23.7971 22.5091 23.5684 22.7857 23.3648C22.8349 23.3195 22.8913 23.2827 22.9526 23.2559C23.0622 23.1853 23.1524 23.0635 23.3147 23.1459C23.3578 23.1679 23.4397 23.1142 23.4356 23.0768C23.4018 22.7955 23.6697 22.7592 23.8003 22.6129C24.6131 22.0078 25.4187 21.393 26.2433 20.8032C26.3237 20.7419 26.4235 20.7114 26.5245 20.7173C26.6238 20.7203 26.6351 20.6692 26.5916 20.5919C26.631 20.441 26.7754 20.4042 26.8814 20.3275C26.9658 20.2719 27.0463 20.2106 27.1222 20.1439C27.2195 20.0523 27.1985 19.9965 27.094 19.9321C26.6126 19.6375 26.1936 19.2579 25.7357 18.9311C25.5391 18.8175 25.3716 18.66 25.1724 18.5526C24.3259 17.9452 23.4921 17.3208 22.6709 16.6794C22.6192 16.6015 22.543 16.5431 22.4543 16.5132C21.5324 15.8312 20.612 15.1479 19.6932 14.4635C19.1575 14.0646 18.6295 13.6564 18.0712 13.2871C18.0021 13.2359 17.9083 13.2093 17.8756 13.1157C16.8642 12.3532 15.8527 11.5907 14.841 10.8283C14.5158 10.5827 14.1946 10.3321 13.8715 10.084C13.283 9.58682 12.6535 9.14232 12.0364 8.68247C11.5001 8.2835 10.9793 7.86406 10.4333 7.47838C10.4013 7.45048 10.3624 7.43159 10.3206 7.42365C9.48136 6.80029 8.64175 6.17693 7.8018 5.55357C6.50637 4.58682 5.2123 3.61836 3.9196 2.6482C3.87248 2.61342 3.83151 2.56994 3.78746 2.53056C3.64611 2.32033 3.39002 2.24565 3.21794 2.06866C2.85942 1.80268 2.50552 1.52902 2.14547 1.26406C2.03586 1.21291 1.96057 1.12033 1.86326 1.05485C1.71422 0.892704 1.50987 0.80319 1.34547 0.661502C1.28605 0.610351 1.16518 0.587333 1.22613 0.47429C1.28708 0.361246 1.3849 0.43388 1.46992 0.463036C1.63894 0.520837 1.7849 0.631834 1.96109 0.671732C2.80155 1.08503 3.64611 1.49424 4.48196 1.91265C14.1578 6.73891 23.8332 11.5659 33.5083 16.3935L40.4615 19.8625C40.5516 19.9075 40.6402 19.9551 40.7314 20.0022C40.6879 20.1208 40.5844 20.1336 40.506 20.173C30.344 25.2438 20.1817 30.3133 10.019 35.3817C8.60846 36.0852 7.19745 36.7868 5.78593 37.4866C5.59591 37.4318 5.52114 37.2912 5.51499 37.1086C5.50261 36.8664 5.50432 36.6237 5.52011 36.3817C5.55648 36.1873 5.73932 36.1372 5.86787 36.0359C6.39694 35.6196 6.94342 35.2221 7.47812 34.816C7.67888 34.6625 7.88785 34.5208 8.08298 34.3623C8.75665 33.862 9.42929 33.3609 10.1009 32.8589C10.589 32.4948 11.0838 32.1393 11.5606 31.7602C11.7193 31.6339 11.9083 31.5449 12.0328 31.3766L12.127 31.2999C12.7278 30.9449 13.2425 30.4743 13.811 30.0753C14.124 29.8032 14.4963 29.6052 14.7903 29.3081Z" fill="#FDC525"/>
<path d="M5.58309 36.3196C5.58309 36.5129 5.59487 36.7073 5.58002 36.9001C5.56261 37.1303 5.60153 37.3313 5.78489 37.4868L2.779 38.9804C2.66216 39.0035 2.55329 39.0563 2.46299 39.1339C2.31079 39.1676 2.16868 39.2367 2.04814 39.3354C1.77003 39.54 1.4402 39.6423 1.13905 39.7994C1.06581 39.8316 1.00435 39.8203 0.97413 39.7416C0.950058 39.6797 1.00793 39.6531 1.04481 39.6229C1.14642 39.5484 1.24104 39.4649 1.32752 39.3733C1.75108 39.0408 2.19308 38.7411 2.61408 38.4132C3.34647 37.8454 4.09628 37.3012 4.83175 36.738C4.87311 36.7091 4.91602 36.6824 4.9603 36.6582C5.14468 36.5917 5.28296 36.4536 5.44686 36.3513C5.48988 36.3293 5.52675 36.2914 5.58309 36.3196Z" fill="#FDC727"/>
<path d="M1.95945 0.672C1.74564 0.679673 1.58911 0.521617 1.39321 0.475069C1.34512 0.463816 1.295 0.423918 1.26124 0.486834C1.22748 0.54975 1.28784 0.584021 1.32927 0.59732C1.51546 0.658701 1.59218 0.927243 1.85254 0.862282C1.90062 0.850517 1.84385 0.984021 1.89602 1.03517C1.88094 1.04858 1.86147 1.05599 1.84129 1.05599C1.82111 1.05599 1.80163 1.04858 1.78656 1.03517C1.41776 0.784532 1.05766 0.520082 0.715457 0.232103C0.697042 0.192205 0.636684 0.156399 0.68937 0.108317C0.729779 0.0709772 0.779395 0.086834 0.822362 0.115478C1.19372 0.31599 1.60702 0.432103 1.95945 0.672Z" fill="#F5C22F"/>
<path d="M1.32968 39.3716C1.31842 39.5215 1.17622 39.5629 1.08876 39.6422C0.95474 39.7639 1.03198 39.7772 1.13991 39.7956L0.730699 40.0002C0.690801 40.0181 0.640162 40.0294 0.622771 39.9849C0.590034 39.9041 0.689267 39.8826 0.712796 39.8253C0.904313 39.6558 1.11078 39.5039 1.32968 39.3716Z" fill="#EFBA2D"/>
<path d="M-0.139892 -0.292988C-0.139892 -0.332374 -0.171094 -0.389151 -0.0887413 -0.380456C-0.0600968 -0.292476 0.0437395 -0.300149 0.0928444 -0.238256C0.195146 -0.187105 0.286195 -0.12419 0.381335 -0.0648545C0.449366 0.00419918 0.575197 0.0246595 0.572128 0.156117C0.38645 0.203176 0.265223 0.078368 0.162921 -0.0280259C0.0707596 -0.1259 -0.0306501 -0.214634 -0.139892 -0.292988Z" fill="#0C0502"/>
<path d="M0.57282 0.156338L0.35901 -0.0318977C0.347756 -0.0866292 0.363613 -0.114762 0.424483 -0.0983939C0.565148 -0.0421279 0.711951 0.00390787 0.821925 0.115417C0.732411 0.104675 0.676657 0.125135 0.71502 0.232041L0.57282 0.156338Z" fill="#F3B33D"/>
<path d="M0.715052 39.8276C0.749323 39.8829 0.542674 39.9627 0.732955 40.0026C0.641472 40.073 0.537267 40.1251 0.42605 40.156C0.36518 40.1724 0.349323 40.1448 0.361088 40.0895L0.715052 39.8276Z" fill="#F0B03D"/>
<path d="M2.05121 39.3335C2.14328 39.1724 2.28497 39.1125 2.46553 39.132C2.34454 39.2298 2.20284 39.2987 2.05121 39.3335Z" fill="#FEB936"/>
<path d="M2.46405 39.1336C2.53003 39.0021 2.64564 38.9725 2.77965 38.9801C2.68766 39.0549 2.57966 39.1074 2.46405 39.1336Z" fill="#FEB936"/>
<path d="M3.58569 21.1053C5.02231 20.3703 6.38774 19.6664 7.75983 18.9754C7.94011 18.8843 7.99491 18.8086 7.95855 18.5938C7.70247 17.0956 7.47199 15.5933 7.23332 14.0925C7.22974 14.0705 7.23332 14.047 7.28454 13.98C7.77571 14.4848 8.26226 14.9933 8.75804 15.4935C9.35778 16.0981 9.96828 16.692 10.565 17.2992C10.6879 17.4235 10.777 17.4383 10.9342 17.357C12.2244 16.692 13.5196 16.0342 14.8144 15.3764C14.8866 15.3396 14.9501 15.2741 15.0454 15.2848C15.0966 15.3923 15.0126 15.4639 14.9737 15.5406C14.327 16.82 13.6772 18.0988 13.0244 19.3769C12.9358 19.5488 12.9276 19.6516 13.0827 19.803C14.1117 20.8091 15.1273 21.8291 16.1455 22.846C16.21 22.9099 16.295 22.959 16.335 23.0992C15.9283 23.0373 15.5416 22.9795 15.157 22.9191C14.0221 22.7416 12.8866 22.5657 11.7521 22.382C11.5749 22.3534 11.4874 22.3999 11.4034 22.5677C10.7504 23.8721 10.084 25.1698 9.4218 26.4695C9.3839 26.5442 9.34344 26.6178 9.27276 26.7518C9.19696 26.2915 9.12987 25.8874 9.06482 25.4843C8.87737 24.3273 8.68736 23.1713 8.50964 22.0132C8.48659 21.8639 8.39952 21.868 8.30119 21.8521L5.17391 21.3595L3.58569 21.1053Z" fill="#FEFEFE"/>
<path d="M12.0328 31.3765C11.9616 31.6404 11.6973 31.6967 11.5181 31.8368C10.906 32.3253 10.2632 32.7729 9.63278 33.2373C9.12061 33.6164 8.62125 34.0184 8.09116 34.3765C8.08656 34.3817 8.08072 34.3858 8.07417 34.3883C8.06761 34.3907 8.06055 34.3915 8.05361 34.3906C8.04667 34.3897 8.04006 34.3871 8.03437 34.383C8.02868 34.379 8.02408 34.3735 8.021 34.3673C8.96201 33.6576 9.90303 32.9485 10.844 32.2399C11.2364 31.9483 11.6358 31.665 12.0328 31.3765Z" fill="#F1C039"/>
<path d="M8.02102 34.3721L8.09118 34.3813C7.77006 34.7577 7.30962 34.9567 6.94291 35.278C6.70988 35.4826 6.43075 35.636 6.21667 35.8652C6.11014 35.9787 5.94573 36.037 5.81666 36.1322C5.73626 36.191 5.6287 36.2196 5.58312 36.3214C5.37825 36.4406 5.22153 36.6457 4.96033 36.6616C5.81393 36.0167 6.66891 35.3719 7.52524 34.7271C7.6876 34.6028 7.85559 34.4882 8.02102 34.3721Z" fill="#F3C332"/>
<path d="M26.6172 20.591L26.736 20.6765C26.6141 20.8749 26.3719 20.7476 26.2075 20.8836C25.8289 21.1985 25.4328 21.4919 25.0213 21.7624C24.6018 22.0355 24.2505 22.4023 23.8034 22.635C23.7981 22.6401 23.7917 22.6438 23.7847 22.646C23.7777 22.6482 23.7703 22.6488 23.7631 22.6476C23.7558 22.6465 23.7489 22.6437 23.743 22.6395C23.737 22.6352 23.7321 22.6297 23.7286 22.6233C24.6044 21.945 25.4921 21.2823 26.3918 20.635C26.4692 20.633 26.525 20.5194 26.6172 20.591Z" fill="#F8C232"/>
<path d="M10.3191 7.42578C10.696 7.53473 10.9721 7.80788 11.2615 8.03959C12.0451 8.67284 12.884 9.23243 13.6686 9.86363C13.748 9.92757 13.8377 9.97872 13.8699 10.0841C13.0703 9.49211 12.2709 8.89978 11.472 8.30711C11.0843 8.01964 10.7032 7.72246 10.3191 7.42578Z" fill="#E9BD3A"/>
<path d="M26.6172 20.5908L26.3913 20.6348L27.1345 20.0496L25.7383 18.9755C25.7327 18.9709 25.7283 18.9649 25.7255 18.9582C25.7228 18.9515 25.7217 18.9441 25.7226 18.9369C25.7234 18.9297 25.726 18.9228 25.7302 18.9168C25.7344 18.9109 25.74 18.9061 25.7465 18.9028C26.147 19.1484 26.4968 19.4614 26.8702 19.7427C26.9106 19.7729 26.9531 19.8 26.9941 19.8302C27.0878 19.8998 27.3014 19.864 27.2661 20.0348C27.2389 20.1693 27.1017 20.2742 26.9634 20.3417C26.8353 20.4077 26.7032 20.468 26.6172 20.5908Z" fill="#F5C331"/>
<path d="M13.8233 30.0898C13.579 30.374 13.2087 30.5052 12.9603 30.7756C12.7483 31.0061 12.4563 31.107 12.2259 31.3011C12.1931 31.3292 12.1603 31.3589 12.127 31.3011C12.6556 30.8763 13.1978 30.4698 13.7536 30.0816C13.7587 30.0774 13.7645 30.0742 13.7708 30.0723C13.7771 30.0705 13.7837 30.0699 13.7902 30.0706C13.7968 30.0714 13.8031 30.0735 13.8088 30.0768C13.8144 30.0801 13.8194 30.0845 13.8233 30.0898Z" fill="#EFBF37"/>
<path d="M23.7276 22.623L23.8022 22.6348C23.7219 22.7085 23.6416 22.7821 23.5624 22.8568C23.5281 22.889 23.4739 22.908 23.4831 22.9719C23.5102 23.1647 23.4109 23.2486 23.2375 23.1765C23.1025 23.1202 23.0785 23.2788 22.9818 23.2972C22.9686 23.2817 22.9613 23.2621 22.9613 23.2417C22.9613 23.2214 22.9686 23.2017 22.9818 23.1862C23.2167 22.981 23.4659 22.7928 23.7276 22.623Z" fill="#F8C331"/>
<path d="M2.15365 1.23877C2.53274 1.48148 2.89193 1.75395 3.22782 2.0536C3.22367 2.05893 3.21851 2.06339 3.21263 2.06672C3.20675 2.07004 3.20027 2.07217 3.19357 2.07298C3.18686 2.07379 3.18006 2.07326 3.17356 2.07143C3.16706 2.06959 3.16099 2.06649 3.1557 2.0623C2.80559 1.8288 2.46884 1.57589 2.147 1.30475C2.14127 1.30101 2.13667 1.29577 2.13372 1.28959C2.13077 1.28342 2.12957 1.27655 2.13025 1.26974C2.13094 1.26293 2.13349 1.25644 2.13761 1.25098C2.14174 1.24551 2.14729 1.24129 2.15365 1.23877Z" fill="#EEC234"/>
<path d="M22.979 23.186C22.979 23.2229 22.979 23.2597 22.979 23.297C22.6981 23.4423 22.4746 23.6684 22.2117 23.8397C22.1268 23.895 22.0511 23.9594 21.9437 23.9579C22.2741 23.6815 22.6197 23.4238 22.979 23.186Z" fill="#EEC242"/>
<path d="M13.8232 30.0897L13.7537 30.082C14.083 29.8036 14.4287 29.5452 14.789 29.3081C14.6007 29.6237 14.2503 29.747 13.99 29.9777C13.9371 30.0189 13.8814 30.0563 13.8232 30.0897Z" fill="#E5BB37"/>
<path d="M3.15851 2.06192L3.23063 2.05322C3.40301 2.22714 3.71094 2.24453 3.78511 2.53251C3.56179 2.39588 3.35197 2.2383 3.15851 2.06192Z" fill="#ECC138"/>
<path d="M25.7458 18.9062C25.7432 18.9307 25.7401 18.9548 25.7376 18.9788C25.5339 18.8578 25.3438 18.7151 25.1708 18.5532C25.4036 18.6049 25.5565 18.7849 25.7458 18.9062Z" fill="#E4BB3A"/>
<path d="M2.15322 1.23864C2.15322 1.26064 2.14913 1.28263 2.14657 1.30463C2.01308 1.23613 1.89205 1.1457 1.78851 1.03711H1.89798L2.15322 1.23864Z" fill="#E1BD37"/>
<path d="M17.874 13.1177C17.9517 13.1601 18.0418 13.1893 18.0694 13.289C17.9512 13.2926 17.8617 13.2629 17.874 13.1177Z" fill="#140901"/>
<path d="M22.4528 16.5139C22.5745 16.5053 22.6384 16.5712 22.6691 16.6802C22.583 16.646 22.508 16.5884 22.4528 16.5139Z" fill="#F0C353"/>
</g>
</g>
<defs>
<clipPath id="clip0_1350_18753">
<rect width="40" height="40" fill="white"/>
</clipPath>
</defs>
</svg>
