<svg width="40" height="40" viewBox="0 0 40 40" fill="none" xmlns="http://www.w3.org/2000/svg">
<g clip-path="url(#clip0_1350_10215)">
<path d="M28.6956 1.98453C26.0663 0.713125 23.1164 0 20 0C16.8836 0 13.9338 0.713125 11.3044 1.98453L9.56525 20L11.3044 38.0155C13.9338 39.2869 16.8836 40 20 40C23.1164 40 26.0663 39.2869 28.6956 38.0155L30.4348 20L28.6956 1.98453Z" fill="#FFDA44"/>
<path d="M19.9999 13.043L21.7264 18.357H27.3146L22.7939 21.6416L24.5206 26.9559L19.9999 23.6716L15.4792 26.9559L17.2061 21.6416L12.6855 18.357H18.2732L19.9999 13.043Z" fill="#496E2D"/>
<path d="M11.3044 1.98486C4.61453 5.21978 0 12.0705 0 19.9996C0 27.9288 4.61453 34.7795 11.3044 38.0144V1.98486Z" fill="#496E2D"/>
<path d="M28.6959 1.98486V38.0144C35.3858 34.7795 40.0003 27.9288 40.0003 19.9996C40.0003 12.0705 35.3858 5.21978 28.6959 1.98486Z" fill="#D80027"/>
</g>
<defs>
<clipPath id="clip0_1350_10215">
<rect width="40" height="40" fill="white"/>
</clipPath>
</defs>
</svg>
