<svg width="40" height="40" viewBox="0 0 40 40" fill="none" xmlns="http://www.w3.org/2000/svg">
<g clip-path="url(#clip0_1350_10433)">
<path d="M1.98453 11.3046C0.713125 13.9339 0 16.8838 0 20.0002C0 23.1166 0.713125 26.0664 1.98453 28.6958L20 30.435L38.0155 28.6958C39.2869 26.0664 40 23.1166 40 20.0002C40 16.8838 39.2869 13.9339 38.0155 11.3046L20 9.56543L1.98453 11.3046Z" fill="#F0F0F0"/>
<path d="M1.98521 28.6958C5.22014 35.3856 12.0708 40.0002 20 40.0002C27.9291 40.0002 34.7799 35.3856 38.0147 28.6958H1.98521Z" fill="#6DA544"/>
<path d="M1.98521 11.3044H38.0147C34.7799 4.61453 27.9291 0 20 0C12.0708 0 5.22014 4.61453 1.98521 11.3044Z" fill="#D80027"/>
<path d="M16.5218 25.218H23.4783V22.2614L22.087 22.9571L20.0001 20.8701L17.9131 22.9571L16.5218 22.2614V25.218Z" fill="#FFDA44"/>
<path d="M12.5416 21.7397L12.8655 22.7362H13.9131L13.0655 23.352L13.3893 24.3484L12.5416 23.7326L11.694 24.3484L12.0178 23.352L11.1702 22.7362H12.2178L12.5416 21.7397Z" fill="#FFDA44"/>
<path d="M13.5454 18.2617L13.8693 19.2581H14.9169L14.0693 19.874L14.393 20.8704L13.5454 20.2546L12.6978 20.8704L13.0216 19.874L12.174 19.2581H13.2216L13.5454 18.2617Z" fill="#FFDA44"/>
<path d="M16.415 15.6523L16.7389 16.6487H17.7865L16.939 17.2646L17.2626 18.261L16.415 17.6452L15.5675 18.261L15.8912 17.2646L15.0436 16.6487H16.0913L16.415 15.6523Z" fill="#FFDA44"/>
<path d="M27.4585 21.7397L27.1347 22.7362H26.087L26.9347 23.352L26.6109 24.3484L27.4585 23.7326L28.3061 24.3484L27.9824 23.352L28.83 22.7362H27.7824L27.4585 21.7397Z" fill="#FFDA44"/>
<path d="M26.4549 18.2617L26.131 19.2581H25.0834L25.931 19.874L25.6072 20.8704L26.4549 20.2546L27.3025 20.8704L26.9787 19.874L27.8263 19.2581H26.7787L26.4549 18.2617Z" fill="#FFDA44"/>
<path d="M23.5851 15.6523L23.2613 16.6487H22.2137L23.0612 17.2646L22.7375 18.261L23.5851 17.6452L24.4327 18.261L24.1089 17.2646L24.9565 16.6487H23.9089L23.5851 15.6523Z" fill="#FFDA44"/>
<path d="M20.0005 14.3481L20.3243 15.3446H21.372L20.5243 15.9604L20.8481 16.9568L20.0005 16.341L19.1528 16.9568L19.4766 15.9604L18.629 15.3446H19.6766L20.0005 14.3481Z" fill="#FFDA44"/>
</g>
<defs>
<clipPath id="clip0_1350_10433">
<rect width="40" height="40" fill="white"/>
</clipPath>
</defs>
</svg>
