<svg width="40" height="40" viewBox="0 0 40 40" fill="none" xmlns="http://www.w3.org/2000/svg">
<g clip-path="url(#clip0_1350_9704)">
<path d="M20 40C31.0457 40 40 31.0457 40 20C40 8.9543 31.0457 0 20 0C8.9543 0 0 8.9543 0 20C0 31.0457 8.9543 40 20 40Z" fill="#F0F0F0"/>
<path d="M19.9999 0C11.4006 0 4.06969 5.4275 1.24384 13.0435H38.7559C35.93 5.4275 28.5991 0 19.9999 0Z" fill="#D80027"/>
<path d="M19.9999 40.0006C28.5991 40.0006 35.93 34.5731 38.7559 26.957H1.24384C4.06969 34.5731 11.4006 40.0006 19.9999 40.0006Z" fill="#338AF3"/>
</g>
<defs>
<clipPath id="clip0_1350_9704">
<rect width="40" height="40" fill="white"/>
</clipPath>
</defs>
</svg>
