<svg width="40" height="40" viewBox="0 0 40 40" fill="none" xmlns="http://www.w3.org/2000/svg">
<g clip-path="url(#clip0_1350_9656)">
<path d="M20 40C31.0457 40 40 31.0457 40 20C40 8.9543 31.0457 0 20 0C8.9543 0 0 8.9543 0 20C0 31.0457 8.9543 40 20 40Z" fill="#F0F0F0"/>
<path d="M19.9995 0C10.7589 0 2.98348 6.26727 0.688477 14.7826H39.3106C37.0155 6.26727 29.24 0 19.9995 0Z" fill="#A2001D"/>
<path d="M19.9995 39.9998C29.24 39.9998 37.0155 33.7326 39.3105 25.2173H0.688477C2.98348 33.7325 10.7589 39.9998 19.9995 39.9998Z" fill="#A2001D"/>
</g>
<defs>
<clipPath id="clip0_1350_9656">
<rect width="40" height="40" fill="white"/>
</clipPath>
</defs>
</svg>
