<svg width="40" height="40" viewBox="0 0 40 40" fill="none" xmlns="http://www.w3.org/2000/svg">
<g clip-path="url(#clip0_1350_8683)">
<path d="M0 20.0006C0 21.3706 0.138125 22.7082 0.400547 24.0006L20 25.2181L39.5995 24.0006C39.862 22.7082 40 21.3706 40 20.0006C40 18.6307 39.8619 17.2931 39.5995 16.0006L20 14.7832L0.400547 16.0006C0.138125 17.2931 0 18.6307 0 20.0006H0Z" fill="#0052B4"/>
<path d="M39.5995 24H0.400529C2.25358 33.1289 10.3243 40 20 40C29.6757 40 37.7464 33.1289 39.5995 24Z" fill="#F0F0F0"/>
<path d="M0.400529 16H39.5996C37.7464 6.87109 29.6758 0 20 0C10.3241 0 2.25358 6.87109 0.400529 16Z" fill="black"/>
<path d="M28.6961 15.9997H11.3048L14.8579 14.3283L12.9658 10.8872L16.824 11.6251L17.3131 7.72754L20.0005 10.5943L22.688 7.72754L23.1767 11.6251L27.0351 10.8872L25.1431 14.3284L28.6961 15.9997Z" fill="#FFDA44"/>
<path d="M0 19.9997C0 31.0454 8.95437 39.9997 20 39.9997L3.99969 7.99902C1.48844 11.3419 0 15.4968 0 19.9997Z" fill="#A2001D"/>
<path d="M20 39.9997C31.0456 39.9997 40 31.0454 40 19.9997C40 15.4968 38.5116 11.3419 36.0003 7.99902L20 39.9997Z" fill="#A2001D"/>
</g>
<defs>
<clipPath id="clip0_1350_8683">
<rect width="40" height="40" fill="white"/>
</clipPath>
</defs>
</svg>
