<svg width="40" height="40" viewBox="0 0 40 40" fill="none" xmlns="http://www.w3.org/2000/svg">
<g clip-path="url(#clip0_1350_9056)">
<path d="M20 40C31.0457 40 40 31.0457 40 20C40 8.9543 31.0457 0 20 0C8.9543 0 0 8.9543 0 20C0 31.0457 8.9543 40 20 40Z" fill="#F0F0F0"/>
<path d="M19.9995 0C14.4766 0 9.47657 2.23859 5.85727 5.85781L19.9995 20V0Z" fill="black"/>
<path d="M0 20C0 25.5229 2.23859 30.5229 5.85781 34.1422L20 20H0Z" fill="black"/>
<path d="M20 40C25.5229 40 30.5229 37.7614 34.1422 34.1422L20 20V40Z" fill="black"/>
<path d="M40 19.9996C40 14.4767 37.7614 9.47672 34.1422 5.85742L20 19.9996H40Z" fill="black"/>
<path d="M13.0434 13.9136L19.9999 14.7834L26.9564 13.9136V9.73969L24.1738 11.131L19.9999 6.95703L15.826 11.131L13.0434 9.73969V13.9136Z" fill="#FFDA44"/>
<path d="M19.9999 30.4346C16.164 30.4346 13.0434 27.3139 13.0434 23.4781V16.522L15.6521 13.9131H24.3477L26.9564 16.522V23.4781C26.9564 27.3139 23.8357 30.4346 19.9999 30.4346Z" fill="#D80027"/>
<path d="M20.0006 27.8257C17.6032 27.8257 15.6528 25.8752 15.6528 23.4779V16.5215H24.3484V23.4778C24.3484 25.8752 22.398 27.8257 20.0006 27.8257Z" fill="#F0F0F0"/>
<path d="M13.0434 13.9131H15.6521V16.5218H13.0434V13.9131Z" fill="#FFDA44"/>
<path d="M24.3472 13.9131H26.9558V16.5218H24.3472V13.9131Z" fill="#FFDA44"/>
<path d="M24.3472 19.5654H26.9558V22.1741H24.3472V19.5654Z" fill="#FFDA44"/>
<path d="M13.0434 19.5654H15.6521V22.1741H13.0434V19.5654Z" fill="#FFDA44"/>
<path d="M20.0005 27.8261C19.5461 27.8261 19.108 27.7558 18.6961 27.626V30.3104C19.1189 30.3911 19.5545 30.4349 20.0005 30.4349C20.4464 30.4349 20.882 30.3911 21.3048 30.3104V27.626C20.8929 27.7557 20.4548 27.8261 20.0005 27.8261Z" fill="#FFDA44"/>
<path d="M15.7097 24.1846L13.6278 26.2664C13.9888 27.0882 14.5038 27.8272 15.1368 28.4468L16.9805 26.603C16.3225 25.9673 15.8642 25.1267 15.7097 24.1846Z" fill="#FFDA44"/>
<path d="M26.3719 26.2664L24.2901 24.1846C24.1355 25.1266 23.6772 25.9671 23.0194 26.6031L24.8631 28.4468C25.4959 27.8272 26.011 27.0882 26.3719 26.2664Z" fill="#FFDA44"/>
<path d="M19.1318 17.9707V19.4199C19.1318 19.9001 19.5211 20.2895 20.0013 20.2895C20.4815 20.2895 20.8708 19.9001 20.8708 19.4199V17.9707H19.1318Z" fill="#0052B4"/>
<path d="M19.1318 23.7676V25.2168C19.1318 25.6969 19.5211 26.0863 20.0013 26.0863C20.4815 26.0863 20.8708 25.6969 20.8708 25.2168V23.7676H19.1318Z" fill="#0052B4"/>
<path d="M21.7392 20.8691V22.3185C21.7392 22.7987 22.1285 23.188 22.6088 23.188C23.089 23.188 23.4783 22.7987 23.4783 22.3185V20.8691H21.7392Z" fill="#0052B4"/>
<path d="M19.1318 20.8691V22.3185C19.1318 22.7987 19.5211 23.188 20.0013 23.188C20.4815 23.188 20.8708 22.7987 20.8708 22.3185V20.8691H19.1318Z" fill="#0052B4"/>
<path d="M16.5223 20.8691V22.3185C16.5223 22.7987 16.9116 23.188 17.3919 23.188C17.8721 23.188 18.2614 22.7987 18.2614 22.3185V20.8691H16.5223Z" fill="#0052B4"/>
</g>
<defs>
<clipPath id="clip0_1350_9056">
<rect width="40" height="40" fill="white"/>
</clipPath>
</defs>
</svg>
