<svg width="40" height="40" viewBox="0 0 40 40" fill="none" xmlns="http://www.w3.org/2000/svg">
<g clip-path="url(#clip0_1350_9602)">
<path d="M20 40C31.0457 40 40 31.0457 40 20C40 8.9543 31.0457 0 20 0C8.9543 0 0 8.9543 0 20C0 31.0457 8.9543 40 20 40Z" fill="#F0F0F0"/>
<path d="M19.9994 0C12.0702 0 5.21895 4.61445 1.98395 11.3044H38.0148C34.7799 4.61445 27.9286 0 19.9994 0Z" fill="black"/>
<path d="M19.9994 39.9996C12.0702 39.9996 5.21895 35.3852 1.98395 28.6953H38.0148C34.7799 35.3852 27.9286 39.9996 19.9994 39.9996Z" fill="#496E2D"/>
<path d="M39.0555 13.9131H0.944453C0.331797 15.8325 0 17.8775 0 20C0 22.1226 0.331797 24.1675 0.944453 26.087H39.0555C39.6682 24.1675 40 22.1226 40 20C40 17.8775 39.6682 15.8325 39.0555 13.9131Z" fill="#A2001D"/>
<path d="M26.2277 9.24213L23.8592 8.14893L20 16.8873L16.1408 8.14893L13.7723 9.24213L18.5635 19.9999L13.7723 30.7576L16.1408 31.8508L20 23.1124L23.8592 31.8508L26.2277 30.7576L21.4365 19.9999L26.2277 9.24213Z" fill="#F0F0F0"/>
<path d="M21.6087 10.2723C20.6918 9.27094 20 8.69531 20 8.69531C20 8.69531 19.3082 9.27086 18.3914 10.2723V29.7269C19.3082 30.7284 20 31.3041 20 31.3041C20 31.3041 20.6918 30.7285 21.6087 29.727V10.2723Z" fill="#F0F0F0"/>
<path d="M15.6528 14.0037V25.9968C16.6217 27.7136 17.8075 29.1208 18.6963 30.0537V9.94678C17.8075 10.8797 16.6216 12.2869 15.6528 14.0037Z" fill="#A2001D"/>
<path d="M24.349 14.0037C23.38 12.2869 22.1942 10.8797 21.3055 9.94678V30.0537C22.1942 29.1208 23.38 27.7136 24.349 25.9968V14.0037Z" fill="#A2001D"/>
<path d="M24.3472 14.0029V25.996C25.3281 24.2578 26.0864 22.2024 26.0864 19.9996C26.0864 17.7967 25.3281 15.7412 24.3472 14.0029Z" fill="black"/>
<path d="M15.6524 14.0029V25.996C14.6715 24.2578 13.9132 22.2024 13.9132 19.9996C13.9132 17.7967 14.6715 15.7412 15.6524 14.0029Z" fill="black"/>
</g>
<defs>
<clipPath id="clip0_1350_9602">
<rect width="40" height="40" fill="white"/>
</clipPath>
</defs>
</svg>
