<svg width="40" height="40" viewBox="0 0 40 40" fill="none" xmlns="http://www.w3.org/2000/svg">
<g clip-path="url(#clip0_1350_10580)">
<path d="M34.9057 33.3331C38.0731 29.7947 40 25.1227 40 19.9999C40 14.8771 38.073 10.2049 34.9056 6.6665L20 5.21729L5.09438 6.6665C1.92695 10.2049 0 14.8771 0 19.9999C0 25.1227 1.92688 29.7947 5.0943 33.3331L20 34.7824L34.9057 33.3331Z" fill="#FFDA44"/>
<path d="M5.0943 6.66664H34.9056C31.2435 2.57547 25.9228 0 19.9999 0C14.077 0 8.75633 2.57547 5.0943 6.66664Z" fill="black"/>
<path d="M0 19.9997L20 21.7389L40 19.9997C40 17.6619 39.5976 15.4183 38.8603 13.333H1.13969C0.402422 15.4183 0 17.6619 0 19.9997H0Z" fill="#D80027"/>
<path d="M1.13969 26.6666H38.8605C39.5976 24.5813 40 22.3378 40 20H0C0 22.3378 0.402422 24.5813 1.13969 26.6666Z" fill="black"/>
<path d="M34.9056 33.333H5.09418C8.75621 37.4243 14.0769 39.9998 19.9999 39.9998C25.9228 39.9998 31.2436 37.4243 34.9056 33.333Z" fill="#D80027"/>
<path d="M26.6741 20.0001C26.6741 23.6863 23.6864 26.674 20.0002 26.674C16.314 26.674 13.3263 23.6863 13.3263 20.0001C13.3263 16.3139 16.314 13.3262 20.0002 13.3262C23.6864 13.3262 26.6741 16.3139 26.6741 20.0001Z" fill="#F0F0F0"/>
<path d="M22.4449 20.3402L20 19.2808C20 19.2808 20.572 17.3821 20.6025 17.2522C20.6247 17.1572 20.6366 17.0583 20.6366 16.9565C20.6366 16.5963 20.4906 16.2702 20.2545 16.0343L20.8693 15.4194C20.476 15.0261 19.9325 14.7827 19.3321 14.7827C18.7318 14.7827 18.1883 15.026 17.795 15.4194L18.4098 16.0343C18.1737 16.2703 18.0278 16.5964 18.0278 16.9565C18.0278 17.0883 18.0477 17.2152 18.084 17.3351L17.1583 18.2608H18.8408C18.8408 18.2608 18.1452 19.3056 17.7654 20.1637C17.3857 21.0216 17.7707 22.069 18.6483 22.4592L19.1558 22.6847L20 23.4782V24.3477L19.1304 25.2172H20.8696V23.4781L21.6631 22.6846H23.3043C23.3122 22.6683 23.3205 22.6523 23.328 22.6356C23.7179 21.758 23.3226 20.7302 22.4449 20.3402Z" fill="black"/>
</g>
<defs>
<clipPath id="clip0_1350_10580">
<rect width="40" height="40" fill="white"/>
</clipPath>
</defs>
</svg>
