<svg width="40" height="40" viewBox="0 0 40 40" fill="none" xmlns="http://www.w3.org/2000/svg">
<g clip-path="url(#clip0_1350_9486)">
<path d="M40 20C40 31.0456 31.0456 40 20 40C8.95437 40 0 31.0456 0 20C0 8.95437 20 0 20 0C20 0 40 8.95437 40 20Z" fill="#A2001D"/>
<path d="M0 20C0 8.95437 8.95437 0 20 0C31.0456 0 40 8.95437 40 20" fill="#0052B4"/>
<path d="M26.9564 25.2176L19.9999 24.348L13.0434 25.2176V14.7827H26.9564V25.2176Z" fill="#F0F0F0"/>
<path d="M20.0006 24.3482C21.9216 24.3482 23.4789 22.7909 23.4789 20.8699C23.4789 18.9489 21.9216 17.3916 20.0006 17.3916C18.0796 17.3916 16.5223 18.9489 16.5223 20.8699C16.5223 22.7909 18.0796 24.3482 20.0006 24.3482Z" fill="#0052B4"/>
<path d="M19.9996 22.6092C20.9601 22.6092 21.7387 21.8305 21.7387 20.87C21.7387 19.9095 20.9601 19.1309 19.9996 19.1309C19.0391 19.1309 18.2604 19.9095 18.2604 20.87C18.2604 21.8305 19.0391 22.6092 19.9996 22.6092Z" fill="#A2001D"/>
<path d="M17.3909 16.5215H22.6082L19.9995 19.1302L17.3909 16.5215Z" fill="#6DA544"/>
<path d="M19.1305 18.2607H20.8696V23.4781H19.1305V18.2607Z" fill="#FFDA44"/>
<path d="M22.7825 22.9565H17.2171L13.0434 25.2175H26.9564L22.7825 22.9565Z" fill="#6DA544"/>
</g>
<defs>
<clipPath id="clip0_1350_9486">
<rect width="40" height="40" fill="white"/>
</clipPath>
</defs>
</svg>
