<svg width="40" height="40" viewBox="0 0 40 40" fill="none" xmlns="http://www.w3.org/2000/svg">
<g clip-path="url(#clip0_1350_9941)">
<path d="M1.98453 11.3046C0.713125 13.9339 0 16.8837 0 20.0002C0 23.1167 0.713125 26.0664 1.98453 28.6958L20 30.435L38.0155 28.6958C39.2869 26.0664 40 23.1167 40 20.0002C40 16.8837 39.2869 13.9339 38.0155 11.3046L20 9.56543L1.98453 11.3046Z" fill="#F0F0F0"/>
<path d="M1.9856 28.6953C5.22044 35.3852 12.0711 39.9997 20.0004 39.9997C27.9296 39.9997 34.7803 35.3852 38.0151 28.6953H1.9856Z" fill="#6DA544"/>
<path d="M1.9856 11.3044H38.0151C34.7803 4.61445 27.9295 0 20.0004 0C12.0712 0 5.22044 4.61445 1.9856 11.3044Z" fill="#FF9811"/>
<path d="M20.0004 26.9559C23.8423 26.9559 26.9569 23.8414 26.9569 19.9995C26.9569 16.1575 23.8423 13.043 20.0004 13.043C16.1584 13.043 13.0439 16.1575 13.0439 19.9995C13.0439 23.8414 16.1584 26.9559 20.0004 26.9559Z" fill="#FF9811"/>
</g>
<defs>
<clipPath id="clip0_1350_9941">
<rect width="40" height="40" fill="white"/>
</clipPath>
</defs>
</svg>
