<svg width="40" height="40" viewBox="0 0 40 40" fill="none" xmlns="http://www.w3.org/2000/svg">
<g clip-path="url(#clip0_1350_9041)">
<path d="M20 40C31.0457 40 40 31.0457 40 20C40 8.9543 31.0457 0 20 0C8.9543 0 0 8.9543 0 20C0 31.0457 8.9543 40 20 40Z" fill="#F0F0F0"/>
<path d="M37.5676 10.4344C34.9832 5.69773 30.5392 2.12203 25.2168 0.6875L24.3472 10.4344H37.5676Z" fill="#0052B4"/>
<path d="M2.43179 10.4344H15.6521L14.7826 0.6875C9.46015 2.12203 5.01625 5.69781 2.43179 10.4344Z" fill="#0052B4"/>
<path d="M24.3472 20V29.5652H37.5675C39.1179 26.7237 39.9994 23.4648 39.9994 20H24.3472Z" fill="#6DA544"/>
<path d="M15.6522 20H0C0 23.4648 0.881484 26.7237 2.4318 29.5652H15.6521V20H15.6522Z" fill="#6DA544"/>
<path d="M2.43179 29.5654C5.01625 34.3021 9.46015 37.8778 14.7826 39.3123L15.6521 30.7882L2.43179 29.5654Z" fill="#FFDA44"/>
<path d="M25.2168 39.3123C30.5392 37.8778 34.9832 34.3021 37.5676 29.5654L24.3472 30.788L25.2168 39.3123Z" fill="#FFDA44"/>
<path d="M24.3472 30.788L37.5676 29.5654H24.3472V30.788Z" fill="#FFDA44"/>
<path d="M15.6522 29.5654H2.43179L15.6522 30.788V29.5654Z" fill="#FFDA44"/>
<path d="M20.0005 0C18.1953 0 16.4467 0.240625 14.7831 0.688984V39.3111C16.4467 39.7594 18.1953 40 20.0005 40C21.8058 40 23.5543 39.7594 25.2179 39.311V0.688984C23.5543 0.240625 21.8058 0 20.0005 0V0Z" fill="#D80027"/>
<path d="M10.7572 4.34766L11.2967 6.00836H13.043L11.6304 7.03476L12.17 8.69547L10.7572 7.66914L9.34442 8.69547L9.88418 7.03476L8.47153 6.00836H10.2177L10.7572 4.34766Z" fill="#FFDA44"/>
</g>
<defs>
<clipPath id="clip0_1350_9041">
<rect width="40" height="40" fill="white"/>
</clipPath>
</defs>
</svg>
