<svg width="40" height="40" viewBox="0 0 40 40" fill="none" xmlns="http://www.w3.org/2000/svg">
<g clip-path="url(#clip0_1350_10251)">
<path d="M8.72766 36.5219C11.9375 38.716 15.8185 40.0001 20.0001 40.0001C24.1816 40.0001 28.0627 38.716 31.2725 36.5219L20.0001 34.7827L8.72766 36.5219Z" fill="#D80027"/>
<path d="M31.2725 3.47828C28.0627 1.28414 24.1816 0 20.0001 0C15.8185 0 11.9373 1.28414 8.72766 3.47828L20.0001 5.21742L31.2725 3.47828Z" fill="#D80027"/>
<path d="M8.72766 36.5219C11.9375 38.716 15.8185 40.0001 20.0001 40.0001C24.1816 40.0001 28.0627 38.716 31.2725 36.5219L20.0001 34.7827L8.72766 36.5219Z" fill="#D80027"/>
<path d="M31.2725 3.47828C28.0627 1.28414 24.1816 0 20.0001 0C15.8185 0 11.9373 1.28414 8.72766 3.47828L20.0001 5.21742L31.2725 3.47828Z" fill="#D80027"/>
<path d="M39.9493 18.6955C39.4754 12.5228 35.7249 6.52154 31.2726 3.47803H8.72778C3.79528 6.84998 0.449424 12.3725 0.0422363 18.6955L20.0002 19.9998L39.9493 18.6955Z" fill="#0052B4"/>
<path d="M0.0422363 21.3044C0.449424 27.6274 3.79521 33.1498 8.72771 36.5218H31.2726C36.2053 33.1499 39.5509 27.6274 39.9581 21.3044L20.0002 20L0.0422363 21.3044Z" fill="#0052B4"/>
<path d="M39.9491 18.6958H21.3044V2.60889H18.6957V18.6958H0.0421094C0.014375 19.127 0 19.5619 0 20.0002C0 20.4384 0.0142969 20.8733 0.0420313 21.3045H18.6957V37.3916H21.3044V21.3045H39.958C39.9857 20.8733 40 20.4384 40 20.0002C40 19.5651 39.9824 19.1301 39.9491 18.6958Z" fill="#D80027"/>
<path d="M7.82605 20.0004L19.9999 12.3486L32.1739 20.0004L19.9999 27.6521L7.82605 20.0004Z" fill="#F0F0F0"/>
<path d="M13.0433 23.4782H28.6954L25.2172 18.2607L23.4781 19.9999L21.739 19.1304L19.9998 21.739H16.5215L14.7824 19.9999L13.0433 23.4782Z" fill="#6DA544"/>
<path d="M20.0003 14.7827L20.432 16.1112H21.8288L20.6987 16.9324L21.1304 18.261L20.0003 17.4399L18.8701 18.261L19.3018 16.9324L18.1718 16.1112H19.5685L20.0003 14.7827Z" fill="#FFDA44"/>
<path d="M19.9999 10.1621L4.34778 20.0001L19.9999 29.838L35.6522 20.0001L19.9999 10.1621ZM9.24997 20.0001L19.9999 13.2433L30.75 20.0001L19.9999 26.7569L9.24997 20.0001Z" fill="#D80027"/>
</g>
<defs>
<clipPath id="clip0_1350_10251">
<rect width="40" height="40" fill="white"/>
</clipPath>
</defs>
</svg>
