<svg width="40" height="40" viewBox="0 0 40 40" fill="none" xmlns="http://www.w3.org/2000/svg">
<g clip-path="url(#clip0_1350_10688)">
<path d="M38.0155 28.6953C39.287 26.066 40 23.1162 40 19.9997C40 16.8832 39.287 13.9335 38.0155 11.3041L20 9.56494L1.98453 11.3041C0.713047 13.9335 0 16.8832 0 19.9997C0 23.1162 0.713047 26.066 1.98453 28.6953L20 30.4345L38.0155 28.6953Z" fill="#0052B4"/>
<path d="M19.9999 39.9996C27.929 39.9996 34.7804 35.3852 38.0154 28.6953H1.98444C5.21944 35.3852 12.0707 39.9996 19.9999 39.9996Z" fill="#D80027"/>
<path d="M34.6376 23.9259L33.5813 24.7513L34.0397 26.0108L32.9282 25.2613L31.8718 26.0866L32.2412 24.798L31.1299 24.0483L32.4696 24.0016L32.8393 22.7129L33.2979 23.9726L34.6376 23.9259Z" fill="#F0F0F0"/>
<path d="M31.9326 19.2407L31.2224 20.3777L32.0842 21.4044L30.7833 21.0805L30.0728 22.2171L29.9792 20.8799L28.6785 20.5554L29.9216 20.0532L29.8281 18.7158L30.6898 19.7429L31.9326 19.2407Z" fill="#F0F0F0"/>
<path d="M27.7881 15.7632L27.5095 17.0745L28.6704 17.7448L27.3372 17.8854L27.0585 19.1963L26.5132 17.9718L25.1798 18.1117L26.1762 17.2147L25.631 15.9901L26.7919 16.6603L27.7881 15.7632Z" fill="#F0F0F0"/>
<path d="M22.7046 13.9131L22.8914 15.2407L24.2115 15.4733L23.0066 16.0613L23.1933 17.3888L22.262 16.4244L21.0569 17.0121L21.6864 15.8282L20.7551 14.864L22.0754 15.0968L22.7046 13.9131Z" fill="#F0F0F0"/>
<path d="M17.2946 13.9131L17.9241 15.0968L19.2441 14.8639L18.3131 15.8285L18.9422 17.0122L17.7374 16.4244L16.806 17.3886L16.9928 16.0613L15.7878 15.4736L17.1081 15.2407L17.2946 13.9131Z" fill="#F0F0F0"/>
<path d="M12.2107 15.7632L13.2071 16.6603L14.3678 15.9901L13.8228 17.2151L14.8189 18.112L13.4857 17.9718L12.9403 19.1963L12.6619 17.8851L11.3286 17.7451L12.4895 17.0747L12.2107 15.7632Z" fill="#F0F0F0"/>
<path d="M8.0667 19.241L9.3099 19.7432L10.1713 18.7163L10.0781 20.0539L11.3209 20.5561L10.0202 20.8803L9.92654 22.2174L9.21639 21.0807L7.91553 21.4049L8.77725 20.3779L8.0667 19.241Z" fill="#F0F0F0"/>
<path d="M5.36169 23.9257L6.70169 23.9724L7.15998 22.7129L7.5299 24.0016L8.86951 24.0484L7.7581 24.7981L8.12748 26.0867L7.07123 25.2614L5.95974 26.0109L6.41826 24.7512L5.36169 23.9257Z" fill="#F0F0F0"/>
<path d="M38.0154 11.3044C34.7804 4.61445 27.929 0 19.9999 0C12.0707 0 5.21944 4.61445 1.98444 11.3044H38.0154Z" fill="#FFDA44"/>
</g>
<defs>
<clipPath id="clip0_1350_10688">
<rect width="40" height="40" fill="white"/>
</clipPath>
</defs>
</svg>
