<svg width="40" height="40" viewBox="0 0 40 40" fill="none" xmlns="http://www.w3.org/2000/svg">
<g clip-path="url(#clip0_1350_10067)">
<path d="M20 40C31.0457 40 40 31.0457 40 20C40 8.9543 31.0457 0 20 0C8.9543 0 0 8.9543 0 20C0 31.0457 8.9543 40 20 40Z" fill="#F0F0F0"/>
<path d="M20 0V20L5.85785 34.1422C9.47715 37.7614 14.4771 40 20 40C31.0457 40 40 31.0456 40 20C40 8.95437 20 0 20 0Z" fill="#D80027"/>
<path d="M20 0C14.4771 0 9.47715 2.23859 5.85785 5.85781C10.7649 10.7648 12.5068 12.5069 20 20H40C40 8.95437 31.0457 0 20 0Z" fill="#0052B4"/>
<path d="M13.6948 20L11.2523 18.8511L12.553 16.4855L9.90065 16.9929L9.56455 14.3135L7.71705 16.2841L5.86963 14.3135L5.53346 16.9929L2.88119 16.4854L4.1819 18.8511L1.73932 20L4.1819 21.1489L2.88119 23.5144L5.53369 23.0071L5.86955 25.6865L7.71705 23.7158L9.56455 25.6865L9.90065 23.0071L12.5528 23.5145L11.2522 21.149L13.6948 20Z" fill="#FFDA44"/>
<path d="M5.33389 7.82617L6.1467 8.96234L7.47835 8.54054L6.64881 9.6646L7.46163 10.8008L6.13616 10.3593L5.3067 11.4833L5.31709 10.0864L3.9917 9.64483L5.32358 9.22304L5.33389 7.82617Z" fill="#FFDA44"/>
<path d="M5.33389 28.5166L6.1467 29.6528L7.47835 29.2309L6.64881 30.355L7.46163 31.4912L6.13616 31.0497L5.3067 32.1737L5.31709 30.7768L3.9917 30.3353L5.32358 29.9135L5.33389 28.5166Z" fill="#FFDA44"/>
<path d="M16.9271 18.1719L16.1144 19.308L14.7827 18.8861L15.6122 20.0102L14.7994 21.1465L16.1248 20.7049L16.9544 21.8289L16.9439 20.4321L18.2693 19.9905L16.9375 19.5688L16.9271 18.1719Z" fill="#FFDA44"/>
</g>
<defs>
<clipPath id="clip0_1350_10067">
<rect width="40" height="40" fill="white"/>
</clipPath>
</defs>
</svg>
