<svg width="40" height="40" viewBox="0 0 40 40" fill="none" xmlns="http://www.w3.org/2000/svg">
<g clip-path="url(#clip0_1350_9819)">
<path d="M28.6956 1.98453C26.0663 0.713125 23.1164 0 20 0C16.8836 0 13.9338 0.713125 11.3044 1.98453L9.56525 20L11.3044 38.0155C13.9338 39.2869 16.8836 40 20 40C23.1164 40 26.0663 39.2869 28.6956 38.0155L30.4348 20L28.6956 1.98453Z" fill="#FFDA44"/>
<path d="M11.3044 1.98535C4.61453 5.22027 0 12.071 0 20.0001C0 27.9293 4.61453 34.78 11.3044 38.0149V1.98535Z" fill="#0052B4"/>
<path d="M28.6952 1.98535V38.0149C35.385 34.78 39.9995 27.9293 39.9995 20.0001C39.9995 12.071 35.385 5.22027 28.6952 1.98535Z" fill="#D80027"/>
<path d="M26.9564 15.7364H22.1738C22.1738 14.5358 21.2005 13.5625 19.9999 13.5625C18.7993 13.5625 17.826 14.5358 17.826 15.7364H13.0434C13.0434 16.9185 14.0732 17.8767 15.2551 17.8767H15.1839C15.1839 19.0589 16.1421 20.0173 17.3243 20.0173C17.3243 21.0639 18.0761 21.9336 19.0689 22.1195L17.3821 25.9275C18.1903 26.256 19.0736 26.4386 19.9999 26.4386C20.9261 26.4386 21.8094 26.256 22.6175 25.9275L20.9309 22.1195C21.9237 21.9336 22.6754 21.0639 22.6754 20.0173C23.8576 20.0173 24.8159 19.0589 24.8159 17.8767H24.7446C25.9267 17.8767 26.9564 16.9184 26.9564 15.7364Z" fill="#FF9811"/>
<path d="M19.9994 18.6953L17.1733 19.9997V22.6083L19.9994 24.3475L22.8255 22.6083V19.9997L19.9994 18.6953Z" fill="#0052B4"/>
<path d="M17.1733 17.3916H22.8255V20.0003H17.1733V17.3916Z" fill="#D80027"/>
</g>
<defs>
<clipPath id="clip0_1350_9819">
<rect width="40" height="40" fill="white"/>
</clipPath>
</defs>
</svg>
