<svg width="40" height="40" viewBox="0 0 40 40" fill="none" xmlns="http://www.w3.org/2000/svg">
<g clip-path="url(#clip0_1350_10683)">
<path d="M20.0001 0C31.0457 0 40.0001 8.95437 40.0001 20C40.0001 31.0456 31.0457 40 20.0001 40C20.0001 39.1305 17.3914 20 17.3914 20L20.0001 0Z" fill="#F0F0F0"/>
<path d="M20 40C8.95437 40 0 31.0456 0 20C0 8.95437 8.95437 0 20 0" fill="#FFDA44"/>
<path d="M27.6585 17.4038L31.4172 22.3762C30.825 23.2729 30.8282 24.481 31.5131 25.387C32.3818 26.5363 34.0178 26.7638 35.1672 25.895C36.3165 25.0262 36.544 23.3902 35.6751 22.2409C34.9903 21.3349 33.8288 21.0024 32.8046 21.3276L26.9467 13.5781L25.5593 14.6269L23.4781 16.1998L25.5756 18.9745L27.6585 17.4038ZM33.0697 23.1202C33.4528 22.8305 33.9982 22.9065 34.2878 23.2895C34.5774 23.6726 34.5017 24.218 34.1185 24.5077C33.7355 24.7971 33.1901 24.7215 32.9006 24.3383C32.6108 23.9552 32.6867 23.4098 33.0697 23.1202Z" fill="#ACABB1"/>
<path d="M34.1054 18.9741L36.2029 16.1995L34.1218 14.6264L32.7344 13.5776L26.8766 21.3271C25.8525 21.0019 24.6909 21.3345 24.006 22.2405C23.1371 23.3898 23.3646 25.0258 24.5139 25.8945C25.6633 26.7633 27.2992 26.5359 28.168 25.3866C28.8528 24.4805 28.8559 23.2724 28.2638 22.3757L32.0225 17.4033L34.1054 18.9741ZM26.7806 24.338C26.4911 24.7212 25.9458 24.7969 25.5627 24.5073C25.1795 24.2176 25.1038 23.6723 25.3934 23.2891C25.6829 22.9062 26.2283 22.8302 26.6115 23.1199C26.9945 23.4095 27.0702 23.9549 26.7806 24.338Z" fill="#FFDA44"/>
</g>
<defs>
<clipPath id="clip0_1350_10683">
<rect width="40" height="40" fill="white"/>
</clipPath>
</defs>
</svg>
