<svg width="40" height="40" viewBox="0 0 40 40" fill="none" xmlns="http://www.w3.org/2000/svg">
<g clip-path="url(#clip0_1350_9112)">
<path d="M20 40C31.0457 40 40 31.0457 40 20C40 8.9543 31.0457 0 20 0C8.9543 0 0 8.9543 0 20C0 31.0457 8.9543 40 20 40Z" fill="#F0F0F0"/>
<path d="M39.9994 19.9424H18.3189C14.0145 24.2469 11.4115 27.5701 8.75369 30.2279L20.0581 31.2467L37.5998 29.5075C39.1306 26.6798 40.0001 23.4416 40.0001 20.0003C40.0001 19.9809 39.9994 19.9618 39.9994 19.9424Z" fill="#D80027"/>
<path d="M8.75325 10.3769H37.5354C34.134 4.19188 27.5567 0 19.9996 0C14.4914 0 9.50419 2.22742 5.88739 5.83L8.75325 10.3769Z" fill="#FFDA44"/>
<path d="M9.62326 29.5078C7.82529 31.3058 7.13045 32.8122 5.82959 34.113C9.45107 37.7494 14.4624 40.0005 20.0001 40.0005C27.6044 40.0005 34.2172 35.7564 37.5998 29.5078H9.62326Z" fill="#0052B4"/>
<path d="M5.85828 5.7998C-1.95219 13.6103 -1.95219 26.2736 5.85828 34.0842C9.08586 30.8566 12.19 27.7525 20.0005 19.942L5.85828 5.7998Z" fill="#6DA544"/>
<path d="M5.27583 19.9424C5.27583 17.0285 7.32372 14.5942 10.0584 13.997C9.6381 13.9052 9.202 13.8555 8.75404 13.8555C5.39224 13.8555 2.66708 16.5806 2.66708 19.9424C2.66708 23.3042 5.39224 26.0294 8.75404 26.0294C9.20193 26.0294 9.63802 25.9796 10.0584 25.8878C7.32372 25.2906 5.27583 22.8563 5.27583 19.9424Z" fill="#F0F0F0"/>
<path d="M9.99078 14.7246L10.3146 15.721H11.3623L10.5146 16.3369L10.8384 17.3333L9.99078 16.7175L9.14312 17.3333L9.46695 16.3369L8.61929 15.721H9.66695L9.99078 14.7246Z" fill="#F0F0F0"/>
<path d="M9.99078 17.334L10.3146 18.3305H11.3623L10.5146 18.9463L10.8384 19.9427L9.99078 19.3269L9.14312 19.9427L9.46695 18.9463L8.61929 18.3305H9.66695L9.99078 17.334Z" fill="#F0F0F0"/>
<path d="M9.99078 19.9424L10.3146 20.9388H11.3623L10.5146 21.5546L10.8384 22.5511L9.99078 21.9352L9.14312 22.5511L9.46695 21.5546L8.61929 20.9388H9.66695L9.99078 19.9424Z" fill="#F0F0F0"/>
<path d="M9.99078 22.5508L10.3146 23.5472H11.3623L10.5146 24.163L10.8384 25.1595L9.99078 24.5437L9.14312 25.1595L9.46695 24.163L8.61929 23.5472H9.66695L9.99078 22.5508Z" fill="#F0F0F0"/>
</g>
<defs>
<clipPath id="clip0_1350_9112">
<rect width="40" height="40" fill="white"/>
</clipPath>
</defs>
</svg>
