<svg width="40" height="40" viewBox="0 0 40 40" fill="none" xmlns="http://www.w3.org/2000/svg">
<g clip-path="url(#clip0_1350_9525)">
<path d="M20 40C31.0457 40 40 31.0457 40 20C40 8.9543 31.0457 0 20 0C8.9543 0 0 8.9543 0 20C0 31.0457 8.9543 40 20 40Z" fill="#F0F0F0"/>
<path d="M0.688477 25.2173C1.84566 29.511 4.39605 33.2324 7.82559 35.8674V25.2173H0.688477Z" fill="#0052B4"/>
<path d="M18.2605 39.9238C18.8337 39.9731 19.4135 39.9999 19.9996 39.9999C29.2402 39.9999 37.0156 33.7326 39.3106 25.2173H18.2605V39.9238Z" fill="#0052B4"/>
<path d="M39.3106 14.7826C37.0156 6.26727 29.2402 0 19.9996 0C19.4135 0 18.8337 0.0267187 18.2605 0.0760937V14.7826H39.3106Z" fill="#0052B4"/>
<path d="M7.82559 4.13232C4.39605 6.76748 1.84566 10.4888 0.688477 14.7825H7.82559V4.13232Z" fill="#0052B4"/>
<path d="M39.8307 17.3915H15.6523H15.6522V0.475586C13.8039 0.88543 12.0516 1.54973 10.4348 2.43199V17.3914H0.169297C0.0579688 18.2454 0 19.1161 0 20.0002C0 20.8843 0.0579688 21.755 0.169297 22.6089H10.4347H10.4348V37.5683C12.0516 38.4505 13.8039 39.115 15.6522 39.5247V22.6091V22.6089H39.8307C39.9419 21.755 40 20.8843 40 20.0002C40 19.1161 39.9419 18.2454 39.8307 17.3915Z" fill="#D80027"/>
</g>
<defs>
<clipPath id="clip0_1350_9525">
<rect width="40" height="40" fill="white"/>
</clipPath>
</defs>
</svg>
