<svg width="40" height="40" viewBox="0 0 40 40" fill="none" xmlns="http://www.w3.org/2000/svg">
<g clip-path="url(#clip0_1350_9573)">
<path d="M19.9994 40C22.4458 40 24.7893 39.56 26.9559 38.756L27.8255 20L26.956 1.24398C24.7893 0.440078 22.4458 0 19.9994 0C17.553 0 15.2095 0.440078 13.0429 1.24398L12.1733 20L13.0429 38.756C15.2095 39.56 17.553 40 19.9994 40Z" fill="#F0F0F0"/>
<path d="M0 19.9997C0 28.599 5.4275 35.9298 13.0435 38.7557V1.24365C5.4275 4.06951 0 11.4004 0 19.9997Z" fill="#FF9811"/>
<path d="M26.9566 1.24365V38.7558C34.5726 35.9298 40.0001 28.599 40.0001 19.9997C40.0001 11.4004 34.5726 4.06951 26.9566 1.24365Z" fill="#6DA544"/>
</g>
<defs>
<clipPath id="clip0_1350_9573">
<rect width="40" height="40" fill="white"/>
</clipPath>
</defs>
</svg>
