<svg width="40" height="40" viewBox="0 0 40 40" fill="none" xmlns="http://www.w3.org/2000/svg">
<g clip-path="url(#clip0_1350_10395)">
<path d="M38.0155 28.6954C39.2869 26.0661 40 23.1162 40 19.9998C40 16.8834 39.2869 13.9335 38.0155 11.3042L20 10.4346L1.98453 11.3041C0.713125 13.9335 0 16.8834 0 19.9998C0 23.1162 0.713125 26.0661 1.98453 28.6954L20 29.565L38.0155 28.6954Z" fill="#FFDA44"/>
<path d="M20 0C12.0708 0 5.21956 4.61445 1.98456 11.3044H38.0154C34.7805 4.61445 27.9292 0 20 0Z" fill="black"/>
<path d="M20 40.0002C12.0708 40.0002 5.21956 35.3857 1.98456 28.6958H38.0154C34.7805 35.3857 27.9292 40.0002 20 40.0002Z" fill="#0052B4"/>
<path d="M39.0555 13.9131H0.944453C0.331797 15.8325 0 17.8775 0 20C0 22.1226 0.331797 24.1675 0.944453 26.087H39.0555C39.6682 24.1675 40 22.1226 40 20C40 17.8775 39.6682 15.8325 39.0555 13.9131Z" fill="#A2001D"/>
<path d="M6.9566 19.1299H33.0436V20.869H6.9566V19.1299Z" fill="#FFDA44"/>
<path d="M10.4348 15.6519H29.5653V17.391H10.4348V15.6519Z" fill="#FFDA44"/>
<path d="M29.6893 20.0001C29.6893 20.0001 25.2171 25.2176 19.9998 25.2176C14.7824 25.2176 14.7823 20.0001 14.7823 20.0001C14.7823 20.0001 14.7823 14.7827 19.9998 14.7827C25.2172 14.7827 29.6893 20.0001 29.6893 20.0001Z" fill="#F0F0F0"/>
<path d="M20 25.2176C14.7826 25.2176 10.3105 20.0001 10.3105 20.0001C10.3105 20.0001 14.7826 14.7827 20 14.7827" fill="black"/>
<path d="M16.5218 18.2607H18.2609V21.739H16.5218V18.2607Z" fill="#F0F0F0"/>
<path d="M21.7393 18.2607H23.4785V21.739H21.7393V18.2607Z" fill="black"/>
<path d="M6.95673 21.739C7.91723 21.739 8.69587 20.9604 8.69587 19.9999C8.69587 19.0394 7.91723 18.2607 6.95673 18.2607C5.99623 18.2607 5.21759 19.0394 5.21759 19.9999C5.21759 20.9604 5.99623 21.739 6.95673 21.739Z" fill="#0052B4"/>
<path d="M33.0439 21.739C34.0044 21.739 34.783 20.9604 34.783 19.9999C34.783 19.0394 34.0044 18.2607 33.0439 18.2607C32.0834 18.2607 31.3047 19.0394 31.3047 19.9999C31.3047 20.9604 32.0834 21.739 33.0439 21.739Z" fill="#0052B4"/>
</g>
<defs>
<clipPath id="clip0_1350_10395">
<rect width="40" height="40" fill="white"/>
</clipPath>
</defs>
</svg>
