<svg width="40" height="40" viewBox="0 0 40 40" fill="none" xmlns="http://www.w3.org/2000/svg">
<g clip-path="url(#clip0_1350_10342)">
<path d="M20 40C31.0457 40 40 31.0457 40 20C40 8.9543 31.0457 0 20 0C8.9543 0 0 8.9543 0 20C0 31.0457 8.9543 40 20 40Z" fill="#F0F0F0"/>
<path d="M38.4395 12.2463C35.4107 5.05172 28.2957 0 19.9998 0C14.4768 0 9.47734 2.23898 5.85828 5.85852L10.8669 12.2463H38.4395Z" fill="black"/>
<path d="M10.9237 27.6812L5.85828 34.1414C9.47734 37.7609 14.4768 39.9999 19.9998 39.9999C28.3237 39.9999 35.459 34.9144 38.4704 27.6812H10.9237Z" fill="#496E2D"/>
<path d="M4.34778 14.71V25.2172H39.3111C39.7597 23.5538 40 21.8051 40 19.9998C40 18.1684 39.7533 16.395 39.2921 14.71H4.34778Z" fill="#A2001D"/>
<path d="M5.85785 5.85791C-1.95262 13.6684 -1.95262 26.3317 5.85785 34.1423C9.08543 30.9147 12.1896 27.8106 20 20.0001L5.85785 5.85791Z" fill="#0052B4"/>
<path d="M6.51449 15.0273L8.95551 18.4337L12.9499 17.1645L10.4646 20.539L12.9057 23.9454L8.92848 22.6246L6.44316 25.999L6.47051 21.8081L2.49316 20.4871L6.48723 19.218L6.51449 15.0273Z" fill="#FFDA44"/>
</g>
<defs>
<clipPath id="clip0_1350_10342">
<rect width="40" height="40" fill="white"/>
</clipPath>
</defs>
</svg>
