<svg width="40" height="40" viewBox="0 0 40 40" fill="none" xmlns="http://www.w3.org/2000/svg">
<g clip-path="url(#clip0_1350_8806)">
<path d="M40 19.9997C40 13.1356 36.5415 7.07988 31.2724 3.47801L20 2.6084L8.72758 3.47793C3.45859 7.07988 0 13.1357 0 19.9997C0 26.864 3.45859 32.9196 8.72758 36.5215L20 37.3911L31.2724 36.5215C36.5415 32.9196 40 26.864 40 19.9997Z" fill="#0052B4"/>
<path d="M31.2726 3.47828C28.0628 1.28406 24.1817 0 20.0001 0C15.8187 0 11.9375 1.28406 8.72772 3.47828H31.2726Z" fill="#A2001D"/>
<path d="M8.72772 36.5215C11.9374 38.7157 15.8187 39.9998 20.0001 39.9998C24.1817 39.9998 28.0628 38.7157 31.2726 36.5215H8.72772Z" fill="#A2001D"/>
<path d="M19.9995 29.565C25.2822 29.565 29.5647 25.2825 29.5647 19.9998C29.5647 14.7171 25.2822 10.4346 19.9995 10.4346C14.7168 10.4346 10.4343 14.7171 10.4343 19.9998C10.4343 25.2825 14.7168 29.565 19.9995 29.565Z" fill="#F0F0F0"/>
<path d="M19.9994 27.826C24.3216 27.826 27.8255 24.3221 27.8255 19.9999C27.8255 15.6777 24.3216 12.1738 19.9994 12.1738C15.6772 12.1738 12.1733 15.6777 12.1733 19.9999C12.1733 24.3221 15.6772 27.826 19.9994 27.826Z" fill="#6DA544"/>
<path d="M20.0005 25.2181C22.882 25.2181 25.2179 22.8821 25.2179 20.0006C25.2179 17.1191 22.882 14.7832 20.0005 14.7832C17.119 14.7832 14.7831 17.1191 14.7831 20.0006C14.7831 22.8821 17.119 25.2181 20.0005 25.2181Z" fill="#F0F0F0"/>
<path d="M19.9994 18.6953L17.1733 19.9997V22.1736L19.9994 23.9127L22.8255 22.1736V19.9997L19.9994 18.6953Z" fill="#0052B4"/>
<path d="M17.1733 17.3916H22.8255V20.0003H17.1733V17.3916Z" fill="#FFDA44"/>
</g>
<defs>
<clipPath id="clip0_1350_8806">
<rect width="40" height="40" fill="white"/>
</clipPath>
</defs>
</svg>
