<svg width="40" height="40" viewBox="0 0 40 40" fill="none" xmlns="http://www.w3.org/2000/svg">
<g clip-path="url(#clip0_1350_18621)">
<mask id="mask0_1350_18621" style="mask-type:luminance" maskUnits="userSpaceOnUse" x="0" y="0" width="40" height="40">
<path d="M20.0029 39.9763C31.0403 39.9763 39.9878 31.0287 39.9878 19.9913C39.9878 8.95392 31.0403 0.00634766 20.0029 0.00634766C8.96548 0.00634766 0.0179138 8.95392 0.0179138 19.9913C0.0179138 31.0287 8.96548 39.9763 20.0029 39.9763Z" fill="white"/>
</mask>
<g mask="url(#mask0_1350_18621)">
<path d="M60.764 39.9762H-0.308044V15.7293C-0.236403 15.6548 -0.147089 15.6338 -0.0479848 15.6323C0.0793784 15.6311 0.206742 15.6305 0.334105 15.6307H23.7763C24.2606 15.6307 24.2608 15.6307 24.2608 15.1485C24.2608 10.0115 24.2615 4.87437 24.2629 -0.262826C24.2629 -0.424737 24.2152 -0.600498 24.3482 -0.740438C24.4323 -0.777931 24.5209 -0.759782 24.6071 -0.759782C36.5722 -0.760737 48.5373 -0.760737 60.5025 -0.759782C60.5884 -0.759782 60.6775 -0.779602 60.7608 -0.739244C60.8115 -0.658289 60.7864 -0.568259 60.7866 -0.483005C60.7878 12.9178 60.7878 26.3186 60.7866 39.7193C60.7866 39.8043 60.8086 39.8936 60.764 39.9762Z" fill="#CD1126"/>
<path d="M24.3651 -0.730719C24.3635 -0.635197 24.3604 -0.539674 24.3604 -0.444152C24.3604 4.85097 24.36 10.1461 24.3592 15.4412C24.3592 15.7818 24.411 15.7459 24.0573 15.7459C16.0221 15.7459 7.98704 15.7459 -0.0479847 15.7459C-0.134671 15.7459 -0.22303 15.7603 -0.308044 15.7299V15.3478C-0.187447 15.2208 -0.0291191 15.2504 0.118941 15.2504C2.49506 15.2487 4.87126 15.2483 7.24754 15.2492C7.75213 15.2492 7.75237 15.2492 7.75237 14.7401C7.75237 9.73949 7.75285 4.73897 7.75381 -0.261465C7.75381 -0.410719 7.72634 -0.564271 7.79416 -0.708271C7.81028 -0.735967 7.82925 -0.7619 7.85076 -0.785645H16.0098C16.0311 -0.762127 16.0498 -0.736433 16.0657 -0.708988C16.134 -0.565704 16.1065 -0.411436 16.1065 -0.262182C16.1081 4.74033 16.1086 9.74267 16.108 14.7449C16.108 15.2487 16.108 15.2487 16.6185 15.2487H23.3445C23.4319 15.2487 23.5193 15.2473 23.6072 15.2487C23.7536 15.2487 23.8278 15.1809 23.8297 15.0324C23.8312 14.9291 23.8319 14.8256 23.8319 14.7219C23.8319 9.72755 23.8324 4.73316 23.8333 -0.261227C23.8333 -0.41048 23.8059 -0.564033 23.8739 -0.708033C23.89 -0.7355 23.909 -0.761194 23.9305 -0.784689H24.3604C24.3893 -0.770122 24.3912 -0.751973 24.3651 -0.730719Z" fill="white"/>
<path d="M7.85194 -0.739518C7.88107 -0.654265 7.86698 -0.566145 7.86698 -0.479459C7.86794 4.69579 7.86794 9.87087 7.86698 15.0458C7.86698 15.3985 7.90328 15.3426 7.55868 15.3426C5.02384 15.3442 2.48891 15.3442 -0.0460903 15.3426C-0.133493 15.3426 -0.220896 15.3448 -0.308777 15.3462V-0.737847C-0.242628 -0.778444 -0.169314 -0.761727 -0.099344 -0.761727C2.48087 -0.762683 5.06101 -0.762683 7.64107 -0.761727C7.712 -0.760772 7.78507 -0.777011 7.85194 -0.739518Z" fill="#002654"/>
<path d="M35.9656 24.4639V14.8069C35.9732 14.8017 35.9812 14.7972 35.9895 14.7935C35.9963 14.7908 36.0039 14.7908 36.0107 14.7935C36.0425 14.8166 36.0728 14.8417 36.1015 14.8685C37.68 16.4475 39.2577 18.0261 40.8346 19.6045C40.6739 19.8127 36.139 24.3405 35.9656 24.4639Z" fill="white"/>
<path d="M37.6523 13.1108H47.2888C47.3127 13.1901 47.249 13.215 47.2139 13.2501C45.6807 14.7862 44.1469 16.3217 42.6125 17.8566C42.4654 18.0037 42.4783 17.9896 42.3565 17.8676C40.8111 16.3211 39.2658 14.7746 37.7206 13.2281C37.6939 13.2011 37.659 13.1787 37.6523 13.1108Z" fill="white"/>
<path d="M42.4927 21.3345L47.2776 26.1201H37.7048L42.4927 21.3345Z" fill="white"/>
<path d="M16.0179 -0.729499C16.1211 -0.732126 16.2245 -0.737379 16.3284 -0.737379C18.7683 -0.737379 21.2081 -0.737379 23.6478 -0.737379C23.7433 -0.737379 23.8388 -0.739529 23.9343 -0.740723C23.9692 -0.656424 23.9532 -0.567827 23.9532 -0.481379C23.9542 4.6953 23.9542 9.87197 23.9532 15.0487C23.9532 15.3909 23.9771 15.3433 23.6626 15.3436C21.2065 15.3445 18.7503 15.3445 16.294 15.3436H16.2462C15.9988 15.3436 16.0143 15.3589 16.0143 15.1105V7.33355C16.0143 4.74139 16.0143 2.14907 16.0143 -0.443409C16.0127 -0.538693 16.0153 -0.633976 16.0179 -0.729499Z" fill="#CE1126"/>
</g>
</g>
<defs>
<clipPath id="clip0_1350_18621">
<rect width="40" height="40" fill="white"/>
</clipPath>
</defs>
</svg>
