<svg width="40" height="40" viewBox="0 0 40 40" fill="none" xmlns="http://www.w3.org/2000/svg">
<g clip-path="url(#clip0_1350_9342)">
<path d="M40 20C40 31.0456 31.0456 40 20 40C8.95437 40 0 31.0456 0 20C0 20.0048 20 0.0021875 20 0C31.0456 0 40 8.95437 40 20Z" fill="#338AF3"/>
<path d="M19.9999 9.56543V16.311L13.0434 9.56543H19.9999Z" fill="#0052B4"/>
<path d="M10.4353 20.0004H16.3112L10.4353 12.1743L9.56573 18.2613L10.4353 20.0004Z" fill="#0052B4"/>
<path d="M19.946 19.9998H19.9995C19.9995 19.9818 19.9995 19.9643 19.9995 19.9463C19.9817 19.9642 19.9639 19.982 19.946 19.9998Z" fill="#F0F0F0"/>
<path d="M20 10.4348C20 6.91563 20 4.60977 20 0H19.9966C8.9525 0.001875 0 8.95539 0 20H10.4348V14.1241L16.3107 20H19.9466C19.9645 19.9822 19.9823 19.9644 20.0002 19.9465C20.0002 18.5991 20.0002 17.3968 20.0002 16.3108L14.1241 10.4348H20Z" fill="#F0F0F0"/>
<path d="M10.1188 2.60889C6.99077 4.39006 4.3903 6.99053 2.60913 10.1186V20.0002H7.82655V7.82647V7.82631H20.0005C20.0005 6.18076 20.0005 4.61311 20.0005 2.60889H10.1188Z" fill="#D80027"/>
<path d="M20.001 17.5407L12.8953 10.4351H10.4359V10.4352L20.0009 20.0002H20.001C20.001 20.0002 20.001 18.3043 20.001 17.5407Z" fill="#D80027"/>
<path d="M22.6091 13.0433V19.9998C22.6091 24.6591 28.6961 26.0868 28.6961 26.0868C28.6961 26.0868 34.783 24.6591 34.783 19.9998V13.0433L28.6961 11.3042L22.6091 13.0433Z" fill="#F3F3F3"/>
<path d="M34.783 13.0432V10.4346H22.6091V13.0432H27.8264V18.2607H22.6091V19.9997V19.9999L27.8264 19.9999V25.82C28.3512 26.0056 28.6961 26.0867 28.6961 26.0867C28.6961 26.0867 29.0408 26.0058 29.5655 25.82V19.9999H34.783V19.9997V18.2607H29.5655V13.0432H34.783V13.0432Z" fill="#D80027"/>
</g>
<defs>
<clipPath id="clip0_1350_9342">
<rect width="40" height="40" fill="white"/>
</clipPath>
</defs>
</svg>
