<svg width="40" height="40" viewBox="0 0 40 40" fill="none" xmlns="http://www.w3.org/2000/svg">
<g clip-path="url(#clip0_1350_10704)">
<path d="M20 40C31.0457 40 40 31.0457 40 20C40 8.9543 31.0457 0 20 0C8.9543 0 0 8.9543 0 20C0 31.0457 8.9543 40 20 40Z" fill="#FCFCFC"/>
<path d="M23.3969 13.9719C23.3969 12.096 21.8762 10.5752 20.0001 10.5752C18.1241 10.5752 16.6033 12.096 16.6033 13.9719H9.13062C9.13062 15.8189 10.7395 17.3163 12.5865 17.3163H12.4752C12.4752 19.1634 13.9724 20.6609 15.8197 20.6609C15.8197 22.2963 16.9942 23.6552 18.5454 23.9456L18.5367 23.9652H21.4637L21.455 23.9456C23.0062 23.655 24.1807 22.2962 24.1807 20.6609C26.0279 20.6609 27.5251 19.1634 27.5251 17.3163H27.4137C29.2607 17.3163 30.8697 15.8189 30.8697 13.9719H23.3969Z" fill="#FFDA44"/>
<path d="M18.507 23.6187L16.4009 28.3736C17.5122 28.8253 18.7268 29.0764 20.0003 29.0764C21.2738 29.0764 22.4885 28.8254 23.5996 28.3736L21.4936 23.6187H18.507Z" fill="#FFDA44"/>
<path d="M15.6522 15.6426V21.4935C15.6522 24.8214 20 25.8413 20 25.8413C20 25.8413 24.3478 24.8214 24.3478 21.4935V15.6426H15.6522Z" fill="#F0F0F0"/>
<path d="M4.84996 20.1411L7.20145 26.718L9.52848 20.1411H11.3044L7.91176 28.8367H6.49106L3.0741 20.1411H4.84996Z" fill="#338AF3"/>
<path d="M32.174 28.8367V20.1411H33.8641V28.8367H32.174Z" fill="#338AF3"/>
<path d="M17.3913 17.5317V24.6219C17.989 25.0618 18.6322 25.3644 19.1304 25.5582V17.5317H17.3913Z" fill="#D80027"/>
<path d="M22.6086 17.5317V24.6219C22.0109 25.0618 21.3677 25.3644 20.8694 25.5582V17.5317H22.6086Z" fill="#D80027"/>
<path d="M15.6522 15.6426H24.3478V18.4016H15.6522V15.6426Z" fill="#0052B4"/>
</g>
<defs>
<clipPath id="clip0_1350_10704">
<rect width="40" height="40" fill="white"/>
</clipPath>
</defs>
</svg>
