<svg width="40" height="40" viewBox="0 0 40 40" fill="none" xmlns="http://www.w3.org/2000/svg">
<g clip-path="url(#clip0_1350_9209)">
<path d="M20 40C31.0457 40 40 31.0457 40 20C40 8.9543 31.0457 0 20 0C8.9543 0 0 8.9543 0 20C0 31.0457 8.9543 40 20 40Z" fill="#F0F0F0"/>
<path d="M15.6528 17.3913H39.8313C38.5529 7.57828 30.1621 0 20.0006 0C18.5072 0 17.0528 0.165078 15.6528 0.475391V17.3913H15.6528Z" fill="#D80027"/>
<path d="M10.4348 17.3911V2.43164C4.94317 5.42805 1.01176 10.9242 0.169342 17.3912H10.4348V17.3911Z" fill="#D80027"/>
<path d="M10.4347 22.6089H0.169342C1.01176 29.0758 4.94317 34.572 10.4348 37.5683L10.4347 22.6089Z" fill="#D80027"/>
<path d="M15.6528 22.609V39.5248C17.0528 39.8351 18.5072 40.0002 20.0006 40.0002C30.1621 40.0002 38.5529 32.4219 39.8313 22.6089H15.6528V22.609Z" fill="#D80027"/>
</g>
<defs>
<clipPath id="clip0_1350_9209">
<rect width="40" height="40" fill="white"/>
</clipPath>
</defs>
</svg>
