<svg width="40" height="40" viewBox="0 0 40 40" fill="none" xmlns="http://www.w3.org/2000/svg">
<g clip-path="url(#clip0_1350_8967)">
<path d="M0 20C0 8.95437 8.95437 0 20 0C31.0456 0 40 8.95437 40 20C39.1305 20 20 22.6087 20 22.6087L0 20Z" fill="#D80027"/>
<path d="M40 20C40 31.0456 31.0456 40 20 40C8.95437 40 0 31.0456 0 20" fill="#6DA544"/>
<path d="M19.9994 13.043L21.5101 17.6928H26.3997L22.444 20.5667L23.9548 25.2169L19.9994 22.343L16.0438 25.2169L17.5548 20.5667L13.5991 17.6928H18.4885L19.9994 13.043Z" fill="#FFDA44"/>
</g>
<defs>
<clipPath id="clip0_1350_8967">
<rect width="40" height="40" fill="white"/>
</clipPath>
</defs>
</svg>
