<svg width="40" height="40" viewBox="0 0 40 40" fill="none" xmlns="http://www.w3.org/2000/svg">
<g clip-path="url(#clip0_1350_10544)">
<path d="M40 20C40 31.0456 31.0456 40 20 40C8.95437 40 0 31.0456 0 20C0 20.0048 20 0.0021875 20 0C31.0456 0 40 8.95437 40 20Z" fill="#0052B4"/>
<path d="M19.9465 20.0003H20C20 19.9823 20 19.9648 20 19.9468C19.9822 19.9647 19.9644 19.9825 19.9465 20.0003Z" fill="#F0F0F0"/>
<path d="M20 10.4348C20 6.91563 20 4.60977 20 0H19.9966C8.95242 0.001875 0 8.95539 0 20H10.4348V14.1241L16.3106 20H19.9466C19.9644 19.9822 19.9822 19.9644 20.0001 19.9465C20.0001 18.5991 20.0001 17.3968 20.0001 16.3108L14.1241 10.4348H20Z" fill="#F0F0F0"/>
<path d="M10.1183 2.6084C6.99022 4.38957 4.38968 6.99004 2.60858 10.1181V19.9997H7.826V7.82598V7.82582H19.9999C19.9999 6.18027 19.9999 4.61262 19.9999 2.6084H10.1183Z" fill="#D80027"/>
<path d="M19.9997 17.5403L12.8939 10.4346H10.4345V10.4347L19.9996 19.9997H19.9997C19.9997 19.9997 19.9997 18.3038 19.9997 17.5403Z" fill="#D80027"/>
<path d="M22.6086 10.4351V20.0002C22.6086 24.6596 28.6955 26.0872 28.6955 26.0872C28.6955 26.0872 34.7825 24.6596 34.7825 20.0002V10.4351H22.6086Z" fill="#FFDA44"/>
<path d="M27.826 13.913C27.826 14.8735 27.0474 17.3913 26.0869 17.3913C25.1263 17.3913 24.3477 14.8735 24.3477 13.913C24.3477 12.9524 26.0869 12.1738 26.0869 12.1738C26.0869 12.1738 27.826 12.9524 27.826 13.913Z" fill="#FF9811"/>
<path d="M32.4408 15.8071C32.7214 15.1223 32.9397 14.1214 32.9397 13.6231C32.9397 12.8227 31.8962 12.1738 31.8962 12.1738C31.8962 12.1738 30.8527 12.8227 30.8527 13.6231C30.8527 14.1214 31.0709 15.1223 31.3516 15.8071L30.7491 17.1673C31.1032 17.3112 31.4902 17.3912 31.8961 17.3912C32.302 17.3912 32.689 17.3112 33.0431 17.1673L32.4408 15.8071Z" fill="#A2001D"/>
<path d="M27.3914 19.9999C27.3914 19.9999 26.5219 21.739 26.5219 23.4782H30.8697C30.8696 21.739 30.0001 19.9999 30.0001 19.9999L28.6957 19.1304L27.3914 19.9999Z" fill="#6DA544"/>
<path d="M30.0001 19.9999V19.5651C30.0001 18.8448 29.4161 18.2607 28.6957 18.2607C27.9754 18.2607 27.3913 18.8447 27.3913 19.5651V19.9999H30.0001Z" fill="#D80027"/>
</g>
<defs>
<clipPath id="clip0_1350_10544">
<rect width="40" height="40" fill="white"/>
</clipPath>
</defs>
</svg>
