<svg width="40" height="40" viewBox="0 0 40 40" fill="none" xmlns="http://www.w3.org/2000/svg">
<g clip-path="url(#clip0_1350_10289)">
<path d="M34.1428 34.1424C41.6436 26.6416 41.9398 14.6662 35.0344 6.81006L20.0001 19.9996L6.81039 35.0341C14.6666 41.9394 26.6418 41.6433 34.1428 34.1424Z" fill="#496E2D"/>
<path d="M5.85778 5.85733C13.3586 -1.64351 25.334 -1.93968 33.1902 4.9657L20.0004 20.0002L4.96622 33.1897C-1.93923 25.3335 -1.64298 13.3582 5.85778 5.85733Z" fill="#0052B4"/>
<path d="M33.1896 4.96582L4.96564 33.1898C5.25095 33.5144 5.5472 33.8329 5.85728 34.1428C6.16728 34.4528 6.48579 34.749 6.81048 35.0345L35.0342 6.8105C34.7489 6.48582 34.4526 6.16738 34.1425 5.8573C33.8327 5.54746 33.5142 5.25113 33.1896 4.96582Z" fill="#FFDA44"/>
<path d="M8.42654 6.95557L8.85834 8.28423H10.2553L9.12514 9.10524L9.55678 10.4339L8.42654 9.61274L7.29631 10.4339L7.7281 9.10524L6.59787 8.28423H7.9949L8.42654 6.95557Z" fill="#F0F0F0"/>
<path d="M15.5621 6.95557L15.9939 8.28423H17.3907L16.2606 9.10524L16.6923 10.4339L15.5621 9.61274L14.4318 10.4339L14.8636 9.10524L13.7334 8.28423H15.1303L15.5621 6.95557Z" fill="#F0F0F0"/>
<path d="M8.42654 13.9121L8.85834 15.2408H10.2553L9.12514 16.0619L9.55678 17.3905L8.42654 16.5694L7.29631 17.3905L7.7281 16.0619L6.59787 15.2408H7.9949L8.42654 13.9121Z" fill="#F0F0F0"/>
<path d="M15.5621 13.9121L15.9939 15.2408H17.3907L16.2606 16.0619L16.6923 17.3905L15.5621 16.5694L14.4318 17.3905L14.8636 16.0619L13.7334 15.2408H15.1303L15.5621 13.9121Z" fill="#F0F0F0"/>
<path d="M11.9946 10.4341L12.4264 11.7628H13.8233L12.6931 12.5838L13.1248 13.9125L11.9946 13.0913L10.8644 13.9125L11.2961 12.5838L10.1659 11.7628H11.5629L11.9946 10.4341Z" fill="#F0F0F0"/>
</g>
<defs>
<clipPath id="clip0_1350_10289">
<rect width="40" height="40" fill="white"/>
</clipPath>
</defs>
</svg>
