<svg width="40" height="40" viewBox="0 0 40 40" fill="none" xmlns="http://www.w3.org/2000/svg">
<g clip-path="url(#clip0_1350_10731)">
<path d="M20 40C31.0457 40 40 31.0457 40 20C40 8.9543 31.0457 0 20 0C8.9543 0 0 8.9543 0 20C0 31.0457 8.9543 40 20 40Z" fill="#F0F0F0"/>
<path d="M38.0856 11.4532C37.0695 9.3068 35.6827 7.37063 34.0077 5.72649L19.9999 4.34766L5.99212 5.72656C5.94743 5.77039 5.90384 5.81524 5.85962 5.85953L11.4534 11.4533L19.9999 11.7143L38.0856 11.4532Z" fill="#FFDA44"/>
<path d="M5.85944 34.1406C5.93303 34.2142 6.00647 34.2879 6.08115 34.3604L20 35.6523L33.9187 34.3604C35.6109 32.7198 37.0147 30.7834 38.0451 28.6337L12.1738 27.8262C9.9478 30.0523 7.3803 32.6196 5.85944 34.1406Z" fill="#FFDA44"/>
<path d="M39.8017 17.1798L16.5223 16.5215L20.0006 19.9998C18.9704 21.03 17.4324 22.568 16.5223 23.478L39.7895 22.9066C39.9278 21.9575 40.0006 20.9872 40.0006 19.9998C40.0006 19.0424 39.9319 18.1013 39.8017 17.1798Z" fill="black"/>
<path d="M19.9994 0C14.5441 0 9.59986 2.18516 5.99158 5.72672H34.0072C30.3989 2.18516 25.4547 0 19.9994 0Z" fill="#6DA544"/>
<path d="M17.1792 17.1798H39.8002C39.5149 15.158 38.9277 13.2335 38.0849 11.4531H11.4525L17.1792 17.1798Z" fill="#D80027"/>
<path d="M11.366 28.633H38.0447C38.8974 26.8539 39.4939 24.9291 39.7885 22.9062H17.0927C14.875 25.124 12.9954 27.0035 11.366 28.633Z" fill="#D80027"/>
<path d="M20.0005 40.0002C25.4111 40.0002 30.3189 37.8508 33.9192 34.3604H6.08185C9.68216 37.8508 14.59 40.0002 20.0005 40.0002Z" fill="#6DA544"/>
<path d="M7.14128 4.68262C6.69667 5.05621 6.26769 5.44785 5.8573 5.85809L19.9995 20.0003L5.8573 34.1425C6.26761 34.5528 6.69667 34.9443 7.14128 35.3179L22.4589 20.0003L7.14128 4.68262Z" fill="black"/>
<path d="M8.0409 14.7822L9.33582 18.7679H13.5268L10.1364 21.2313L11.4314 25.2171L8.0409 22.7537L4.65035 25.2171L5.94551 21.2313L2.55511 18.7679H6.7459L8.0409 14.7822Z" fill="#D80027"/>
<path d="M11.603 20.3262L8.22812 19.1306C8.22812 19.1306 7.97875 16.7913 7.96367 16.712C7.84914 16.1087 7.3189 15.6523 6.68219 15.6523C5.96187 15.6523 5.37781 16.2363 5.37781 16.9567C5.37781 17.0762 5.39524 17.1912 5.42531 17.3012L4.47906 18.2538H6.16156C6.16156 20.0001 4.85844 20.0001 4.85844 21.7393L5.58133 23.4784H9.92913L10.6538 21.7393H10.6535C10.7261 21.5724 10.7701 21.4003 10.7884 21.2283C11.413 20.9757 11.603 20.3262 11.603 20.3262Z" fill="#FFDA44"/>
</g>
<defs>
<clipPath id="clip0_1350_10731">
<rect width="40" height="40" fill="white"/>
</clipPath>
</defs>
</svg>
