<svg width="40" height="40" viewBox="0 0 40 40" fill="none" xmlns="http://www.w3.org/2000/svg">
<g clip-path="url(#clip0_1350_9731)">
<path d="M0 19.9999C0 22.4463 0.440078 24.7897 1.24398 26.9564L20 27.826L38.756 26.9565C39.56 24.7897 40 22.4463 40 19.9999C40 17.5535 39.56 15.2101 38.756 13.0434L20 12.1738L1.24398 13.0434C0.440078 15.2101 0 17.5535 0 19.9999H0Z" fill="#D80027"/>
<path d="M19.9999 0C11.4006 0 4.06976 5.4275 1.2439 13.0435H38.756C35.9301 5.4275 28.5992 0 19.9999 0Z" fill="black"/>
<path d="M38.7559 26.957H1.2439C4.06976 34.573 11.4006 40.0006 19.9999 40.0006C28.5992 40.0006 35.9301 34.573 38.7559 26.957Z" fill="#496E2D"/>
<path d="M25.9777 9.56547L23.5352 8.41656L24.8359 6.05102L22.1835 6.55844L21.8474 3.87891L19.9999 5.84961L18.1525 3.87891L17.8164 6.55844L15.1641 6.05102L16.4648 8.41656L14.0222 9.56547H25.9777Z" fill="#D80027"/>
</g>
<defs>
<clipPath id="clip0_1350_9731">
<rect width="40" height="40" fill="white"/>
</clipPath>
</defs>
</svg>
