<svg width="40" height="40" viewBox="0 0 40 40" fill="none" xmlns="http://www.w3.org/2000/svg">
<g clip-path="url(#clip0_1350_9865)">
<path d="M20 40C31.0457 40 40 31.0457 40 20C40 8.9543 31.0457 0 20 0C8.9543 0 0 8.9543 0 20C0 31.0457 8.9543 40 20 40Z" fill="#F0F0F0"/>
<path d="M10.8101 27.8262L5.85834 34.1416C9.4774 37.7611 14.4769 40.0001 19.9998 40.0001C28.2678 40.0001 35.3626 34.9822 38.4085 27.8262H10.8101Z" fill="#FFDA44"/>
<path d="M38.4396 12.2463C35.4108 5.05172 28.2958 0 19.9998 0C14.4769 0 9.4774 2.23898 5.85834 5.85852L10.8669 12.2463H38.4396Z" fill="#496E2D"/>
<path d="M4.34784 14.71V25.2172H39.3111C39.7597 23.5538 40 21.8051 40 19.9998C40 18.1684 39.7533 16.395 39.2921 14.71H4.34784Z" fill="black"/>
<path d="M5.85785 5.85742C-1.95262 13.6679 -1.95262 26.3313 5.85785 34.1418C9.08543 30.9142 12.1896 27.8101 20 19.9996L5.85785 5.85742Z" fill="#A2001D"/>
<path d="M8.09456 14.7832L9.38948 18.7688H13.5806L10.1901 21.2323L11.485 25.2181L8.09456 22.7547L4.70402 25.2181L5.99917 21.2323L2.6087 18.7688H6.79948L8.09456 14.7832Z" fill="#FFDA44"/>
<path d="M4.30518 20H11.8852V23.4783H4.30518V20Z" fill="#F0F0F0"/>
<path d="M13.3204 16.013L12.0907 14.7832L8.09472 18.7791L4.09878 14.7832L2.86902 16.013L6.86847 20.0054L2.86902 24.0049L4.09878 25.2181L8.09472 21.2293L12.0907 25.2181L13.3204 24.0049L9.32097 20.0054L13.3204 16.013Z" fill="black"/>
</g>
<defs>
<clipPath id="clip0_1350_9865">
<rect width="40" height="40" fill="white"/>
</clipPath>
</defs>
</svg>
