<svg width="40" height="40" viewBox="0 0 40 40" fill="none" xmlns="http://www.w3.org/2000/svg">
<g clip-path="url(#clip0_1350_8653)">
<path d="M11.3049 38.0155C13.9343 39.2869 16.884 40 20.0005 40C23.117 40 26.0668 39.2869 28.6961 38.0155L30.4353 20L28.6961 1.98453C26.0668 0.713125 23.117 0 20.0005 0C16.884 0 13.9343 0.713125 11.3049 1.98453L9.56573 20L11.3049 38.0155Z" fill="#FFDA44"/>
<path d="M28.6962 38.0149C35.3861 34.78 40.0005 27.9293 40.0005 20.0001C40.0005 12.071 35.3861 5.2202 28.6962 1.98535V38.0149Z" fill="#D80027"/>
<path d="M11.3044 38.0149V1.98535C4.61445 5.2202 0 12.0709 0 20.0001C0 27.9293 4.61445 34.78 11.3044 38.0149Z" fill="#0052B4"/>
<path d="M20 26.9565C20 23.765 20 20 20 20H25.2174V22.6087C25.2174 23.0619 24.3479 24.7225 22.2016 26.087C21.3887 26.6038 20.5472 26.7701 20 26.9565Z" fill="#D80027"/>
<path d="M14.7831 14.7832H20.0005V20.0006H14.7831V14.7832Z" fill="#D80027"/>
<path d="M22.6086 13.0438C22.6086 12.0833 21.8299 11.3047 20.8694 11.3047C20.5522 11.3047 20.2558 11.3909 19.9999 11.5392C19.7439 11.3909 19.4475 11.3047 19.1303 11.3047C18.1699 11.3047 17.3912 12.0833 17.3912 13.0438H13.0434V21.7394C13.0434 24.9766 15.6142 26.8487 17.6302 27.8192C17.4793 28.0768 17.3912 28.3758 17.3912 28.696C17.3912 29.6566 18.1699 30.4352 19.1303 30.4352C19.4475 30.4352 19.7439 30.3489 19.9999 30.2006C20.2559 30.3489 20.5522 30.4352 20.8694 30.4352C21.8299 30.4352 22.6086 29.6566 22.6086 28.696C22.6086 28.3758 22.5204 28.0768 22.3695 27.8192C24.3855 26.8487 26.9564 24.9767 26.9564 21.7394V13.0438H22.6086ZM24.3477 21.7394C24.3477 22.1926 24.3477 23.5716 22.2014 24.9361C21.3885 25.453 20.5471 25.7881 19.9999 25.9745C19.4527 25.7881 18.6113 25.453 17.7983 24.9361C15.6521 23.5716 15.6521 22.1926 15.6521 21.7394V15.6525H24.3477V21.7394Z" fill="#FF9811"/>
</g>
<defs>
<clipPath id="clip0_1350_8653">
<rect width="40" height="40" fill="white"/>
</clipPath>
</defs>
</svg>
