<svg width="40" height="40" viewBox="0 0 40 40" fill="none" xmlns="http://www.w3.org/2000/svg">
<g clip-path="url(#clip0_1350_10717)">
<path d="M20 40C31.0457 40 40 31.0457 40 20C40 8.9543 31.0457 0 20 0C8.9543 0 0 8.9543 0 20C0 31.0457 8.9543 40 20 40Z" fill="#F0F0F0"/>
<path d="M40 20C40 31.0456 31.0456 40 20 40C8.95437 40 0 31.0456 0 20" fill="#496E2D"/>
<path d="M34.6105 13.9176C33.8953 11.8893 31.9627 10.4351 29.6897 10.4351H25.2175C22.336 10.4351 20.0001 12.771 20.0001 15.6525C20.0001 16.5939 20.2507 17.4987 20.6869 18.2612C19.0262 18.2476 17.4892 18.2726 16.5218 18.2612C16.5218 16.249 16.5218 13.6857 16.5218 13.1494L16.7273 12.9439C17.6496 12.0215 17.342 10.4844 17.342 10.4844C17.342 10.4844 15.805 10.1769 14.8826 11.0993L13.8077 12.1742H12.6087C9.96733 12.1742 7.82615 14.3155 7.82615 16.9568H11.3044V20.8698C11.3044 21.4422 11.4198 21.9874 11.6283 22.484L10.4348 23.4785H8.69568V21.7394H6.95654V25.2176H14.7826V28.6959H13.0435V30.4351H16.5218V26.9568L18.1159 25.0437H21.8841L23.4783 26.9568V28.6959H21.7391V30.4351H28.6956V20.8697C28.6956 19.429 29.8636 18.2611 31.3043 18.2611C31.3413 18.2611 31.378 18.2624 31.4148 18.2639C31.3427 17.9851 31.3043 17.6929 31.3043 17.3915C31.3044 15.5283 32.7695 14.0074 34.6105 13.9176ZM25.2175 28.6958V25.0437H25.3624L26.9566 26.9567V28.6958H25.2175Z" fill="#D80027"/>
</g>
<defs>
<clipPath id="clip0_1350_10717">
<rect width="40" height="40" fill="white"/>
</clipPath>
</defs>
</svg>
