<svg width="40" height="40" viewBox="0 0 40 40" fill="none" xmlns="http://www.w3.org/2000/svg">
<g clip-path="url(#clip0_1350_9776)">
<path d="M20 40C31.0457 40 40 31.0457 40 20C40 8.9543 31.0457 0 20 0C8.9543 0 0 8.9543 0 20C0 31.0457 8.9543 40 20 40Z" fill="#496E2D"/>
<path d="M19.9999 23.1056C16.6697 23.1056 13.8877 20.7651 13.2051 17.6397C13.1003 18.1202 13.0434 18.6184 13.0434 19.1304C13.0434 22.9725 16.1578 26.0869 19.9999 26.0869C23.8419 26.0869 26.9564 22.9724 26.9564 19.1304C26.9564 18.6184 26.8995 18.1202 26.7946 17.6396C26.1121 20.7652 23.33 23.1056 19.9999 23.1056Z" fill="#FFDA44"/>
<path d="M20 13.9131L20.6475 15.906H22.743L21.0478 17.1376L21.6953 19.1305L20 17.8988L18.3047 19.1305L18.9523 17.1376L17.2571 15.906H19.3525L20 13.9131Z" fill="#FFDA44"/>
</g>
<defs>
<clipPath id="clip0_1350_9776">
<rect width="40" height="40" fill="white"/>
</clipPath>
</defs>
</svg>
