<svg width="40" height="40" viewBox="0 0 40 40" fill="none" xmlns="http://www.w3.org/2000/svg">
<g clip-path="url(#clip0_1350_8870)">
<path d="M0 20C0 8.95437 8.95437 0 20 0C31.0456 0 40 8.95437 40 20H0Z" fill="#F0F0F0"/>
<path d="M14.7832 18.9072L13.6898 20.0006H14.7832V18.9072Z" fill="#0052B4"/>
<path d="M25.2169 18.9072V20.0005H26.3102L25.2169 18.9072Z" fill="#0052B4"/>
<path d="M0.577031 15.2178C0.200859 16.7503 0 18.3518 0 20.0003H6.3107L11.0932 15.2178H0.577031Z" fill="#0052B4"/>
<path d="M28.9066 15.2178L33.6891 20.0003H40C40 18.3518 39.799 16.7503 39.4229 15.2178H28.9066Z" fill="#0052B4"/>
<path d="M27.6764 15.2178H25.2169L29.9994 20.0003H32.4589L27.6764 15.2178Z" fill="#D80027"/>
<path d="M14.7826 17.6771V15.2178H14.7825L9.99994 20.0003H12.4595L14.7826 17.6771Z" fill="#D80027"/>
<path d="M9.3683 3.05762C8.54392 3.57605 7.7601 4.15277 7.02252 4.78223H11.0928L9.3683 3.05762Z" fill="#0052B4"/>
<path d="M32.9759 4.78223C32.2383 4.1527 31.4545 3.57598 30.6302 3.05762L28.9057 4.78223H32.9759Z" fill="#0052B4"/>
<path d="M22.6092 12.6087H38.5897C37.8336 10.7088 36.7944 8.95266 35.5246 7.39125H22.6093H22.6092V0.169297C21.7553 0.058125 20.8847 0 20.0005 0C19.1162 0 18.2458 0.058125 17.3918 0.169297V7.39117V7.39125H4.47646C3.20669 8.95266 2.16747 10.7088 1.41138 12.6087H17.3917H17.3918V20H22.6092V12.6087V12.6087Z" fill="#D80027"/>
<path d="M14.7831 4.78273V4.78266L11.768 1.76758C11.2106 2.01969 10.6673 2.29742 10.1386 2.59766L12.3237 4.78273H14.7831Z" fill="#D80027"/>
<path d="M25.2186 4.78258L28.2337 1.7675C27.6602 1.5082 27.0722 1.2757 26.4714 1.07031L25.2186 2.3232V4.78258Z" fill="#D80027"/>
<path d="M40 20C40 31.0456 31.0456 40 20 40C8.95437 40 0 31.0456 0 20H40Z" fill="#F0F0F0"/>
<path d="M36.6663 22.5503C34.9997 22.5503 34.9997 21.0264 33.333 21.0264C31.6663 21.0264 31.6663 22.5503 29.9998 22.5503C28.3332 22.5503 28.3331 21.0264 26.6666 21.0264C24.9999 21.0264 24.9999 22.5503 23.3332 22.5503C21.6665 22.5503 21.6664 21.0264 19.9996 21.0264C18.333 21.0264 18.333 22.5503 16.6664 22.5503C15 22.5503 15 21.0264 13.3334 21.0264C11.6666 21.0264 11.6666 22.5503 9.99977 22.5503C8.33297 22.5503 8.33297 21.0264 6.66617 21.0264C4.99977 21.0264 4.99977 22.5503 3.33313 22.5503C1.67547 22.5503 1.66586 21.0432 0.0259399 21.0271C0.0721118 21.9419 0.181331 22.84 0.346487 23.7183C1.67492 23.9136 1.79125 25.2169 3.33321 25.2169C4.99985 25.2169 4.99985 23.6932 6.66625 23.6932C8.33305 23.6932 8.33305 25.2169 9.99985 25.2169C11.6666 25.2169 11.6666 23.6932 13.3334 23.6932C15.0001 23.6932 15.0001 25.2169 16.6665 25.2169C18.3331 25.2169 18.3331 23.6932 19.9997 23.6932C21.6665 23.6932 21.6665 25.2169 23.3333 25.2169C25.0001 25.2169 25.0001 23.6932 26.6666 23.6932C28.3333 23.6932 28.3333 25.2169 29.9998 25.2169C31.6664 25.2169 31.6665 23.6932 33.333 23.6932C34.9998 23.6932 34.9998 25.2169 36.6664 25.2169C38.2085 25.2169 38.3248 23.9136 39.6534 23.7184C39.8186 22.84 39.9277 21.942 39.9741 21.0271C38.3338 21.0433 38.3241 22.5503 36.6663 22.5503Z" fill="#0052B4"/>
<path d="M33.3329 26.2441C31.6663 26.2441 31.6663 27.768 29.9997 27.768C28.3332 27.768 28.3331 26.2441 26.6665 26.2441C24.9999 26.2441 24.9999 27.768 23.3332 27.768C21.6664 27.768 21.6664 26.2441 19.9996 26.2441C18.3329 26.2441 18.3329 27.768 16.6664 27.768C15 27.768 15 26.2441 13.3333 26.2441C11.6665 26.2441 11.6665 27.768 9.99972 27.768C8.33292 27.768 8.33292 26.2441 6.66613 26.2441C4.99972 26.2441 4.99972 27.768 3.33308 27.768C2.14222 27.768 1.80206 26.9902 1.09698 26.5459C1.56636 27.902 2.17698 29.1921 2.91238 30.398C3.04027 30.4216 3.17948 30.4347 3.33308 30.4347C4.99972 30.4347 4.99972 28.9109 6.66613 28.9109C8.33292 28.9109 8.33292 30.4347 9.99972 30.4347C11.6665 30.4347 11.6665 28.9109 13.3333 28.9109C15 28.9109 15 30.4347 16.6664 30.4347C18.333 30.4347 18.333 28.9109 19.9996 28.9109C21.6664 28.9109 21.6664 30.4347 23.3332 30.4347C25 30.4347 25 28.9109 26.6665 28.9109C28.3332 28.9109 28.3332 30.4347 29.9997 30.4347C31.6663 30.4347 31.6664 28.9109 33.3329 28.9109C34.9997 28.9109 34.9997 30.4347 36.6663 30.4347C36.82 30.4347 36.9592 30.4216 37.0871 30.398C37.8225 29.1921 38.4332 27.902 38.9027 26.5459C38.1975 26.9901 37.8574 27.768 36.6663 27.768C34.9997 27.768 34.9997 26.2441 33.3329 26.2441Z" fill="#0052B4"/>
<path d="M39.9887 19.3711C39.9904 19.4266 39.9924 19.4822 39.9936 19.538C39.9924 19.4823 39.9903 19.4266 39.9887 19.3711Z" fill="#F0F0F0"/>
<path d="M0.00335693 19.538C0.00468506 19.4823 0.00656006 19.4267 0.00827881 19.3711C0.00663818 19.4267 0.00460693 19.4823 0.00335693 19.538Z" fill="#F0F0F0"/>
<path d="M0 19.9996C0 19.8453 0.00234375 19.6917 0.00585938 19.5381C0.00226563 19.6917 0 19.8453 0 19.9996Z" fill="#F0F0F0"/>
<path d="M0 20C0 20.3643 0.0103125 20.7263 0.0297656 21.0857C1.66594 21.1041 1.6768 22.6087 3.33328 22.6087C4.99992 22.6087 4.99992 21.0849 6.66633 21.0849C8.33313 21.0849 8.33313 22.6087 9.99992 22.6087C11.6667 22.6087 11.6667 21.0849 13.3335 21.0849C15.0002 21.0849 15.0002 22.6087 16.6666 22.6087C18.3332 22.6087 18.3332 21.0849 19.9998 21.0849C21.6666 21.0849 21.6666 22.6087 23.3334 22.6087C25.0002 22.6087 25.0002 21.0849 26.6667 21.0849C28.3334 21.0849 28.3334 22.6087 29.9999 22.6087C31.6665 22.6087 31.6666 21.0849 33.3331 21.0849C34.9999 21.0849 34.9999 22.6087 36.6665 22.6087C38.3231 22.6087 38.334 21.1041 39.9705 21.0857C39.9897 20.7262 40 20.3643 40 20H0Z" fill="#F0F0F0"/>
<path d="M39.9947 19.5381C39.9982 19.6915 40.0005 19.8453 40.0005 19.9996C40.0005 19.8453 39.9983 19.6917 39.9947 19.5381Z" fill="#F0F0F0"/>
<path d="M33.3334 31.4619C31.6668 31.4619 31.6668 32.9858 30.0002 32.9858C28.3337 32.9858 28.3336 31.4619 26.667 31.4619C25.0004 31.4619 25.0004 32.9858 23.3337 32.9858C21.6669 32.9858 21.6669 31.4619 20.0001 31.4619C18.3334 31.4619 18.3334 32.9858 16.6669 32.9858C15.0005 32.9858 15.0005 31.4619 13.3338 31.4619C11.667 31.4619 11.667 32.9858 10.0002 32.9858C8.33344 32.9858 8.33344 31.4619 6.66664 31.4619C5.51555 31.4619 5.15937 32.1888 4.5 32.6386C6.24914 34.7812 8.4343 36.5534 10.9191 37.8223L20.0004 37.3648L29.0816 37.8222C31.5663 36.5532 33.7515 34.7813 35.5006 32.6386C34.8409 32.1889 34.4848 31.4619 33.3334 31.4619Z" fill="#0052B4"/>
<path d="M31.093 31.9391L25.009 33.1028L24.2382 26.9571L20.0005 31.477L15.763 26.957L14.9919 33.1027L8.90826 31.9391L11.8918 37.365L10.9174 37.8233C13.643 39.2153 16.73 40.0006 20.0005 40.0006C23.2711 40.0006 26.358 39.2153 29.0837 37.8234L28.1097 37.3652L31.093 31.9391Z" fill="#FFDA44"/>
</g>
<defs>
<clipPath id="clip0_1350_8870">
<rect width="40" height="40" fill="white"/>
</clipPath>
</defs>
</svg>
