<svg width="40" height="40" viewBox="0 0 40 40" fill="none" xmlns="http://www.w3.org/2000/svg">
<g clip-path="url(#clip0_1350_9324)">
<path d="M40 20C40 31.0456 31.0456 40 20 40C8.95437 40 0 31.0456 0 20C0 20.0048 20 0.0021875 20 0C31.0456 0 40 8.95437 40 20Z" fill="#0052B4"/>
<path d="M19.9465 19.9998H20C20 19.9818 20 19.9643 20 19.9463C19.9822 19.9642 19.9644 19.982 19.9465 19.9998Z" fill="#F0F0F0"/>
<path d="M20 10.4348C20 6.91563 20 4.60977 20 0H19.9966C8.9525 0.001875 0 8.95539 0 20H10.4348V14.1241L16.3107 20H19.9466L20.0001 19.9465C20.0001 18.5991 20.0001 17.3968 20.0001 16.3108L14.1241 10.4348H20Z" fill="#F0F0F0"/>
<path d="M10.1183 2.60889C6.99022 4.39006 4.38976 6.99053 2.60858 10.1186V20.0002H7.82601V7.82647V7.82631H19.9999C19.9999 6.18076 19.9999 4.61311 19.9999 2.60889H10.1183Z" fill="#D80027"/>
<path d="M20.0005 17.5408L12.8948 10.4351H10.4353V10.4352L20.0003 20.0002H20.0005C20.0005 20.0002 20.0005 18.3044 20.0005 17.5408Z" fill="#D80027"/>
<path d="M32.1738 23.4785V24.348H25.2173V23.4785H22.6086V26.9567H24.3477V27.8263H33.0434V26.9567H34.7825V23.4785H32.1738Z" fill="#FFDA44"/>
<path d="M22.6086 10.4346V19.9998C22.6086 24.6591 28.6955 26.0868 28.6955 26.0868C28.6955 26.0868 34.7825 24.6591 34.7825 19.9998V10.4346H22.6086Z" fill="#338AF3"/>
<path d="M28.6952 17.5693C27.1736 17.5693 27.1736 18.9607 25.6519 18.9607C24.1303 18.9607 24.1303 17.5693 22.6087 17.5693V20.0041C24.1303 20.0041 24.1303 21.3954 25.6519 21.3954C27.1736 21.3954 27.1736 20.0041 28.6952 20.0041C30.217 20.0041 30.217 21.3954 31.7389 21.3954C33.2608 21.3954 33.2607 20.0041 34.7826 20.0041V17.5693C33.2608 17.5693 33.2608 18.9607 31.7389 18.9607C30.217 18.9607 30.217 17.5693 28.6952 17.5693Z" fill="#F3F3F3"/>
<path d="M28.6952 12.6953C27.1736 12.6953 27.1736 14.0866 25.6519 14.0866C24.1303 14.0866 24.1303 12.6953 22.6087 12.6953V15.1301C24.1303 15.1301 24.1303 16.5214 25.6519 16.5214C27.1736 16.5214 27.1736 15.1301 28.6952 15.1301C30.217 15.1301 30.217 16.5214 31.7389 16.5214C33.2608 16.5214 33.2607 15.1301 34.7826 15.1301V12.6953C33.2608 12.6953 33.2608 14.0866 31.7389 14.0866C30.217 14.0866 30.217 12.6953 28.6952 12.6953Z" fill="#F3F3F3"/>
</g>
<defs>
<clipPath id="clip0_1350_9324">
<rect width="40" height="40" fill="white"/>
</clipPath>
</defs>
</svg>
