<svg width="40" height="40" viewBox="0 0 40 40" fill="none" xmlns="http://www.w3.org/2000/svg">
<g clip-path="url(#clip0_1350_9468)">
<path d="M19.9999 0C18.1947 0 16.446 0.240625 14.7825 0.688984L13.0434 20L14.7825 39.311C16.446 39.7594 18.1947 40 19.9999 40C31.0455 40 39.9999 31.0456 39.9999 20C39.9999 8.95437 31.0455 0 19.9999 0Z" fill="#FFDA44"/>
<path d="M13.0434 20L14.7825 39.311C16.446 39.7594 18.1947 40 19.9999 40C31.0455 40 39.9999 31.0456 39.9999 20H13.0434Z" fill="#6DA544"/>
<path d="M0 20.0003C0 27.5812 4.21797 34.1765 10.4348 37.5685V2.43213C4.21797 5.82416 0 12.4195 0 20.0003Z" fill="#D80027"/>
<path d="M0 20C0 29.2405 6.26727 37.016 14.7826 39.311V0.688965C6.26727 2.98396 0 10.7594 0 20Z" fill="#D80027"/>
<path d="M7.55819 14.7827L8.85311 18.7683H13.0442L9.65373 21.2318L10.9486 25.2176L7.55819 22.7542L4.16764 25.2176L5.4628 21.2318L2.07233 18.7683H6.26319L7.55819 14.7827Z" fill="black"/>
</g>
<defs>
<clipPath id="clip0_1350_9468">
<rect width="40" height="40" fill="white"/>
</clipPath>
</defs>
</svg>
