<svg width="40" height="40" viewBox="0 0 40 40" fill="none" xmlns="http://www.w3.org/2000/svg">
<g clip-path="url(#clip0_1350_8836)">
<path d="M34.1426 34.1421C26.3321 41.9526 13.6688 41.9526 5.85828 34.1421C-1.95219 26.3317 -1.95219 13.6683 5.85828 5.85775C5.86109 5.85775 23.8316 0.547832 31.6421 8.3583C39.4527 16.1688 34.148 34.1367 34.1426 34.1421Z" fill="#FFDA44"/>
<path d="M34.1416 34.1423C41.952 26.3318 41.952 13.6684 34.1416 5.85788C26.3311 -1.95267 13.6678 -1.95259 5.85727 5.85788L34.1416 34.1423Z" fill="#D80027"/>
<path d="M25.2272 25.23C24.4057 25.5526 23.4511 25.5184 22.6229 25.0537C21.1596 24.2324 20.6373 22.3735 21.4587 20.91L21.2094 20.7701C23.7149 20.166 25.5686 17.8918 25.5361 15.208C25.5159 13.5395 24.7704 12.0468 23.6042 11.0254L21.7782 12.8962C22.4685 13.4463 22.9161 14.2902 22.9276 15.2397C22.9479 16.9178 21.5993 18.2996 19.9212 18.3198L19.9248 18.6055C18.1487 16.7379 15.2525 16.2697 12.9446 17.6397C11.5098 18.4916 10.5899 19.8834 10.2883 21.4041L12.8214 22.0502C12.9527 21.1773 13.4597 20.3677 14.2762 19.883C15.7192 19.0263 17.5901 19.5035 18.4468 20.9465L18.6927 20.8006C17.9632 23.2723 19.0058 26.0147 21.3463 27.3285C22.8015 28.1452 24.4668 28.2459 25.9346 27.7468L25.2272 25.23ZM19.9423 20.0586L19.9421 20.0587L19.9423 20.0586Z" fill="#FF9811"/>
<path d="M27.4046 13.545L25.991 18.5896L21.7496 17.8064L19.0194 12.1787L11.6439 14.796L11.0622 13.1569L9.13253 12.9192L10.5865 17.0168L15.6622 15.7186L17.1046 19.7834L13.5959 24.9616L19.5503 30.0402L18.4217 31.3634L19.1807 33.1536L22.0024 29.8455L18.3403 26.0989L21.1393 22.8174L27.3782 23.2669L28.7993 15.5708L30.5095 15.8867L31.6805 14.3343L27.4046 13.545ZM19.9979 20.1357V20.1359V20.1357Z" fill="#FFEACF"/>
</g>
<defs>
<clipPath id="clip0_1350_8836">
<rect width="40" height="40" fill="white"/>
</clipPath>
</defs>
</svg>
