<svg width="40" height="40" viewBox="0 0 40 40" fill="none" xmlns="http://www.w3.org/2000/svg">
<g clip-path="url(#clip0_1350_9689)">
<path d="M1.98453 11.3046C0.713125 13.9339 0 16.8837 0 20.0002C0 23.1167 0.713125 26.0664 1.98453 28.6958L20 30.435L38.0155 28.6958C39.2869 26.0664 40 23.1167 40 20.0002C40 16.8837 39.2869 13.9339 38.0155 11.3046L20 9.56543L1.98453 11.3046Z" fill="black"/>
<path d="M1.98521 28.6953C5.22006 35.3852 12.0708 39.9996 20 39.9996C27.9291 39.9996 34.7799 35.3852 38.0147 28.6953H1.98521Z" fill="#496E2D"/>
<path d="M1.98521 11.3044H38.0147C34.7799 4.61445 27.9291 0 20 0C12.0708 0 5.22006 4.61445 1.98521 11.3044Z" fill="#D80027"/>
<path d="M24.6556 16.3418L26.2965 18.6031L28.9541 17.7414L27.3105 20.0008L28.9513 22.262L26.2947 21.397L24.6511 23.6564L24.6528 20.8626L21.9961 19.9976L24.6538 19.1359L24.6556 16.3418Z" fill="#F0F0F0"/>
<path d="M20.1765 25.6517C17.055 25.6517 14.5243 23.1211 14.5243 19.9995C14.5243 16.878 17.055 14.3473 20.1765 14.3473C21.1498 14.3473 22.0657 14.5934 22.8652 15.0267C21.6108 13.8001 19.8955 13.043 18.0026 13.043C14.1606 13.043 11.0461 16.1575 11.0461 19.9995C11.0461 23.8414 14.1607 26.9559 18.0026 26.9559C19.8956 26.9559 21.6109 26.1988 22.8652 24.9722C22.0656 25.4056 21.1499 25.6517 20.1765 25.6517Z" fill="#F0F0F0"/>
</g>
<defs>
<clipPath id="clip0_1350_9689">
<rect width="40" height="40" fill="white"/>
</clipPath>
</defs>
</svg>
