<svg width="40" height="40" viewBox="0 0 40 40" fill="none" xmlns="http://www.w3.org/2000/svg">
<g clip-path="url(#clip0_1350_10410)">
<path d="M20 40C31.0457 40 40 31.0457 40 20C40 8.9543 31.0457 0 20 0C8.9543 0 0 8.9543 0 20C0 31.0457 8.9543 40 20 40Z" fill="#FFDA44"/>
<path d="M15.6525 17.3913H39.831C38.5526 7.57828 30.1618 0 20.0003 0C18.507 0 17.0524 0.165078 15.6525 0.475391V17.3913H15.6525Z" fill="#0052B4"/>
<path d="M10.4348 17.3911V2.43164C4.94312 5.42805 1.01179 10.9242 0.169373 17.3912H10.4348V17.3911Z" fill="#0052B4"/>
<path d="M10.4348 22.6084H0.169373C1.01179 29.0754 4.94312 34.5715 10.4348 37.5679L10.4348 22.6084Z" fill="#0052B4"/>
<path d="M15.6525 22.6085V39.5243C17.0524 39.8346 18.507 39.9997 20.0003 39.9997C30.1618 39.9997 38.5526 32.4214 39.831 22.6084H15.6525V22.6085Z" fill="#0052B4"/>
</g>
<defs>
<clipPath id="clip0_1350_10410">
<rect width="40" height="40" fill="white"/>
</clipPath>
</defs>
</svg>
