<svg width="40" height="40" viewBox="0 0 40 40" fill="none" xmlns="http://www.w3.org/2000/svg">
<g clip-path="url(#clip0_1350_9905)">
<path d="M20 40C31.0457 40 40 31.0457 40 20C40 8.9543 31.0457 0 20 0C8.9543 0 0 8.9543 0 20C0 31.0457 8.9543 40 20 40Z" fill="#F0F0F0"/>
<path d="M39.882 22.1734C39.882 22.1733 39.8821 22.1731 39.8821 22.1728L17.9489 0.103516C16.9595 0.204375 15.9913 0.377344 15.0498 0.617109C6.39828 2.81984 0 19.9995 0 19.9995C0 19.9995 27.9998 38.7366 31.1941 36.5748C31.8333 36.1423 32.4461 35.6738 33.0295 35.1723L20.0309 22.1734H39.882Z" fill="#0052B4"/>
<path d="M34.7826 19.9997L15.3316 0.548828C6.53812 2.65172 0 10.5616 0 19.9997C0 31.0453 8.95437 39.9997 20 39.9997C24.1898 39.9997 28.0779 38.7105 31.2913 36.5084L14.7826 19.9997H34.7826Z" fill="#D80027"/>
<path d="M19.0212 29.5313L16.5786 28.3824L17.8793 26.0168L15.227 26.5243L14.8909 23.8447L13.0435 25.8154L11.1961 23.8447L10.8599 26.5243L8.20763 26.0168L9.50833 28.3824L7.06567 29.5313L9.50833 30.6801L8.20763 33.0457L10.86 32.5384L11.196 35.2178L13.0435 33.2471L14.8909 35.2178L15.227 32.5384L17.8793 33.0458L16.5786 30.6803L19.0212 29.5313Z" fill="#F0F0F0"/>
<path d="M17.3919 11.093L15.6153 10.2574L16.5613 8.53688L14.6322 8.90594L14.3877 6.95703L13.0441 8.39039L11.7004 6.95703L11.4559 8.90594L9.52671 8.53688L10.4728 10.2574L8.69617 11.093L13.0441 11.9627L17.3919 11.093Z" fill="#F0F0F0"/>
<path d="M18.2609 11.0928C18.2609 13.9743 15.925 16.3102 13.0435 16.3102C10.162 16.3102 7.82608 13.9743 7.82608 11.0928" fill="#F0F0F0"/>
</g>
<defs>
<clipPath id="clip0_1350_9905">
<rect width="40" height="40" fill="white"/>
</clipPath>
</defs>
</svg>
