<svg width="40" height="40" viewBox="0 0 40 40" fill="none" xmlns="http://www.w3.org/2000/svg">
<g clip-path="url(#clip0_1350_9885)">
<path d="M20 40C31.0457 40 40 31.0457 40 20C40 8.9543 31.0457 0 20 0C8.9543 0 0 8.9543 0 20C0 31.0457 8.9543 40 20 40Z" fill="#0052B4"/>
<path d="M28.5832 21.3954C28.6567 20.9409 28.6956 20.4749 28.6956 20.0001C28.6956 20.4749 28.6567 20.9409 28.5832 21.3954L32.1739 20.0001L28.5832 18.6048L26.6109 17.8385L23.4066 16.5934L22.1615 13.3891C24.261 14.0773 25.9225 15.7388 26.6108 17.8384L28.5831 18.6048C27.9871 14.9254 25.0745 12.0127 21.3952 11.4168L20 7.82617L18.6046 11.4169C14.9253 12.013 12.0128 14.9255 11.4168 18.6048L7.82605 20.0001L11.4168 21.3954C12.0128 25.0748 14.9253 27.9873 18.6047 28.5833L20 32.174L21.3953 28.5833C25.0746 27.9873 27.9871 25.0747 28.5832 21.3954ZM22.0631 17.937L20 20.0001H27.3722L22.063 22.0632L20 20.0001V27.3724L17.9368 22.0631L20 20.0001H12.6277L17.9368 17.937L20 20.0001V12.6278L22.0631 17.937ZM17.8383 13.3892L16.5932 16.5935L13.389 17.8386C14.0772 15.7388 15.7387 14.0775 17.8383 13.3892ZM13.3891 22.1617L16.5932 23.4068L17.8383 26.6109C15.7387 25.9227 14.0774 24.2613 13.3891 22.1617ZM22.1616 26.6109L23.4067 23.4068L26.6108 22.1617C25.9225 24.2613 24.2612 25.9227 22.1616 26.6109Z" fill="#F0F0F0"/>
<path d="M27.3723 20H20L22.0631 22.0631L27.3723 20Z" fill="#0052B4"/>
<path d="M12.6274 20.0005H19.9997L17.9366 17.9375L12.6274 20.0005Z" fill="#0052B4"/>
<path d="M19.9995 27.3723V20L17.9364 22.0631L19.9995 27.3723Z" fill="#0052B4"/>
<path d="M20 20.0002L22.0631 17.9371L20 12.6279V20.0002Z" fill="#0052B4"/>
<path d="M19.1305 2.6084H20.8696V6.08668H19.1305V2.6084Z" fill="#F0F0F0"/>
<path d="M2.60864 19.1299H6.08693V20.869H2.60864V19.1299Z" fill="#F0F0F0"/>
<path d="M19.1305 33.9131H20.8696V37.3914H19.1305V33.9131Z" fill="#F0F0F0"/>
<path d="M33.9127 19.1299H37.391V20.869H33.9127V19.1299Z" fill="#F0F0F0"/>
</g>
<defs>
<clipPath id="clip0_1350_9885">
<rect width="40" height="40" fill="white"/>
</clipPath>
</defs>
</svg>
