<svg width="40" height="40" viewBox="0 0 40 40" fill="none" xmlns="http://www.w3.org/2000/svg">
<g clip-path="url(#clip0_1350_9305)">
<path d="M0 19.9998C0 22.4464 0.440078 24.7898 1.24406 26.9565L20 28.6954L38.7559 26.9565C39.56 24.7898 40 22.4463 40 19.9998C40 17.5869 39.5726 15.2739 38.7895 13.1322L20 11.3042L1.21047 13.1323C0.427422 15.2739 0 17.5869 0 19.9998H0Z" fill="#FFDA44"/>
<path d="M20.0001 40.0001C28.5994 40.0001 35.9302 34.5726 38.7561 26.9565H1.24405C4.06991 34.5726 11.4008 40.0001 20.0001 40.0001Z" fill="#D80027"/>
<path d="M20.0001 0C11.4008 0 4.06991 5.4275 1.24405 13.0435H38.7562C35.9302 5.4275 28.5994 0 20.0001 0Z" fill="#6DA544"/>
<path d="M19.9995 29.565C25.2822 29.565 29.5647 25.2825 29.5647 19.9998C29.5647 14.7171 25.2822 10.4346 19.9995 10.4346C14.7168 10.4346 10.4343 14.7171 10.4343 19.9998C10.4343 25.2825 14.7168 29.565 19.9995 29.565Z" fill="#0052B4"/>
<path d="M19.9978 12.5928L21.7245 17.907H27.3212L22.7916 21.1914L24.5319 26.5214L19.9978 23.2214L15.4706 26.5153L17.2039 21.1914L12.6785 17.907H18.2711L19.9978 12.5928Z" fill="#FFDA44"/>
<path d="M26.8846 21.3226L21.4067 19.5426L24.7921 14.8832L23.3853 13.8608L19.9997 18.5205L16.6145 13.8609L15.2075 14.8831L18.5928 19.5429L13.1152 21.3225L13.6525 22.9766L19.1303 21.1969V26.9564H20.8694V21.1968L26.347 22.9766L26.8846 21.3226Z" fill="#FFDA44"/>
</g>
<defs>
<clipPath id="clip0_1350_9305">
<rect width="40" height="40" fill="white"/>
</clipPath>
</defs>
</svg>
