<svg width="40" height="40" viewBox="0 0 40 40" fill="none" xmlns="http://www.w3.org/2000/svg">
<g clip-path="url(#clip0_1350_10420)">
<path d="M20 40C31.0457 40 40 31.0457 40 20C40 8.9543 31.0457 0 20 0C8.9543 0 0 8.9543 0 20C0 31.0457 8.9543 40 20 40Z" fill="#F0F0F0"/>
<path d="M19.9999 0C11.4006 0 4.06976 5.4275 1.2439 13.0435H38.756C35.9301 5.4275 28.5992 0 19.9999 0Z" fill="#D80027"/>
<path d="M19.9999 40.0001C28.5992 40.0001 35.9301 34.5726 38.7559 26.9565H1.2439C4.06976 34.5726 11.4006 40.0001 19.9999 40.0001Z" fill="black"/>
<path d="M11.9499 15.2173L13.029 18.5385H16.5214L13.696 20.5915L14.7753 23.9129L11.9499 21.8602L9.12447 23.9129L10.2037 20.5915L7.3783 18.5385H10.8707L11.9499 15.2173Z" fill="#6DA544"/>
<path d="M28.0496 15.2173L29.1287 18.5385H32.6212L29.7958 20.5915L30.875 23.9129L28.0496 21.8602L25.2242 23.9129L26.3034 20.5915L23.478 18.5385H26.9705L28.0496 15.2173Z" fill="#6DA544"/>
</g>
<defs>
<clipPath id="clip0_1350_10420">
<rect width="40" height="40" fill="white"/>
</clipPath>
</defs>
</svg>
