<svg width="40" height="40" viewBox="0 0 40 40" fill="none" xmlns="http://www.w3.org/2000/svg">
<g clip-path="url(#clip0_1350_9296)">
<path d="M18.2603 18.2607C18.2603 18.2607 5.86899 34.1449 5.85727 34.142C9.47648 37.7613 14.4766 39.9999 19.9994 39.9999C31.045 39.9999 39.9994 31.0455 39.9994 19.9999L18.2603 18.2607Z" fill="#338AF3"/>
<path d="M18.2603 20C18.2603 20 5.86899 5.85508 5.85727 5.85789C9.47648 2.23859 14.4766 0 19.9994 0C31.045 0 39.9994 8.95437 39.9994 20H18.2603Z" fill="#6DA544"/>
<path d="M5.85828 5.85791C-1.95219 13.6684 -1.95219 26.3317 5.85828 34.1423C5.85773 34.1455 40.0005 20.0001 40.0005 20.0001L5.85828 5.85791Z" fill="#D80027"/>
<path d="M10.4341 11.7393C6.59829 11.7393 3.47766 14.86 3.47766 18.6957V21.3044C3.47766 25.1403 6.59836 28.2609 10.4341 28.2609C14.2699 28.2609 17.3906 25.1402 17.3906 21.3044V18.6957C17.3907 14.86 14.27 11.7393 10.4341 11.7393ZM14.782 21.3045C14.782 23.2476 13.5006 24.8968 11.7384 25.4521V22.6089L13.5841 20.7632L11.7395 18.9186L11.7384 18.2621V17.3915H9.12985V20.0001L7.28547 21.8444L9.12985 23.6887V25.4522C7.36774 24.8968 6.08633 23.2477 6.08633 21.3046V18.6959C6.08633 16.2985 8.0368 14.3481 10.4341 14.3481C12.8315 14.3481 14.782 16.2986 14.782 18.6959V21.3045Z" fill="#FFDA44"/>
</g>
<defs>
<clipPath id="clip0_1350_9296">
<rect width="40" height="40" fill="white"/>
</clipPath>
</defs>
</svg>
