<svg width="40" height="40" viewBox="0 0 40 40" fill="none" xmlns="http://www.w3.org/2000/svg">
<g clip-path="url(#clip0_1350_9615)">
<path d="M0 20C0 8.95437 8.95437 0 20 0C31.0456 0 40 8.95437 40 20" fill="#D80027"/>
<path d="M26.9564 18.5995L24.1138 19.9365L25.6275 22.6895L22.5409 22.099L22.1498 25.2171L19.9999 22.9237L17.8499 25.2171L17.4589 22.099L14.3722 22.6894L15.8859 19.9365L13.0434 18.5995L15.8859 17.2623L14.3722 14.5096L17.4588 15.0999L17.85 11.9819L19.9999 14.2751L22.1499 11.9819L22.5409 15.0999L25.6276 14.5096L24.114 17.2626L26.9564 18.5995Z" fill="#FFDA44"/>
<path d="M25.2178 6.52117H21.3047C21.3047 5.80094 20.7206 5.2168 20.0003 5.2168C19.28 5.2168 18.696 5.80086 18.696 6.52117H14.7829C14.7829 7.24149 15.4104 7.82555 16.1307 7.82555H16.0872C16.0872 8.54586 16.6711 9.12992 17.3916 9.12992C17.3916 9.85024 17.9755 10.4343 18.696 10.4343H21.3046C22.0249 10.4343 22.609 9.85031 22.609 9.12992C23.3292 9.12992 23.9134 8.54594 23.9134 7.82555H23.8699C24.5903 7.82555 25.2178 7.24156 25.2178 6.52117Z" fill="#FFDA44"/>
<path d="M40 20C40 31.0456 31.0456 40 20 40C8.95437 40 0 31.0456 0 20H40Z" fill="#F0F0F0"/>
<path d="M20.0003 40.0003C26.2521 40.0003 31.8328 37.1312 35.5005 32.6387C34.8408 32.1889 34.4846 31.4619 33.3334 31.4619C31.6667 31.4619 31.6667 32.9858 30.0002 32.9858C28.3336 32.9858 28.3335 31.4619 26.667 31.4619C25.0003 31.4619 25.0003 32.9858 23.3336 32.9858C21.6669 32.9858 21.6668 31.4619 20 31.4619C18.3334 31.4619 18.3334 32.9858 16.6668 32.9858C15.0004 32.9858 15.0004 31.4619 13.3338 31.4619C11.667 31.4619 11.667 32.9858 10.0002 32.9858C8.33338 32.9858 8.33338 31.4619 6.66658 31.4619C5.51549 31.4619 5.15931 32.1888 4.49994 32.6386C8.16744 37.1312 13.7485 40.0003 20.0003 40.0003Z" fill="#0052B4"/>
<path d="M36.6663 22.5508C34.9997 22.5508 34.9997 21.0269 33.333 21.0269C31.6663 21.0269 31.6663 22.5508 29.9998 22.5508C28.3332 22.5508 28.3331 21.0269 26.6666 21.0269C24.9999 21.0269 24.9999 22.5508 23.3332 22.5508C21.6665 22.5508 21.6664 21.0269 19.9996 21.0269C18.333 21.0269 18.333 22.5508 16.6664 22.5508C15 22.5508 15 21.0269 13.3334 21.0269C11.6666 21.0269 11.6666 22.5508 9.99977 22.5508C8.33297 22.5508 8.33297 21.0269 6.66617 21.0269C4.99977 21.0269 4.99977 22.5508 3.33313 22.5508C1.67547 22.5508 1.66586 21.0437 0.0259399 21.0276C0.0721118 21.9424 0.181331 22.8405 0.346487 23.7188C1.67492 23.914 1.79125 25.2174 3.33321 25.2174C4.99985 25.2174 4.99985 23.6936 6.66625 23.6936C8.33305 23.6936 8.33305 25.2174 9.99985 25.2174C11.6666 25.2174 11.6666 23.6936 13.3334 23.6936C15.0001 23.6936 15.0001 25.2174 16.6665 25.2174C18.3331 25.2174 18.3331 23.6936 19.9997 23.6936C21.6665 23.6936 21.6665 25.2174 23.3333 25.2174C25.0001 25.2174 25.0001 23.6936 26.6666 23.6936C28.3333 23.6936 28.3333 25.2174 29.9998 25.2174C31.6664 25.2174 31.6665 23.6936 33.333 23.6936C34.9998 23.6936 34.9998 25.2174 36.6664 25.2174C38.2085 25.2174 38.3248 23.9141 39.6534 23.7189C39.8186 22.8405 39.9277 21.9425 39.9741 21.0276C38.3338 21.0438 38.3241 22.5508 36.6663 22.5508Z" fill="#0052B4"/>
<path d="M33.3329 26.2441C31.6663 26.2441 31.6663 27.768 29.9997 27.768C28.3332 27.768 28.3331 26.2441 26.6665 26.2441C24.9999 26.2441 24.9999 27.768 23.3332 27.768C21.6664 27.768 21.6664 26.2441 19.9996 26.2441C18.3329 26.2441 18.3329 27.768 16.6664 27.768C15 27.768 15 26.2441 13.3333 26.2441C11.6665 26.2441 11.6665 27.768 9.99972 27.768C8.33292 27.768 8.33292 26.2441 6.66613 26.2441C4.99972 26.2441 4.99972 27.768 3.33308 27.768C2.14222 27.768 1.80206 26.9902 1.09698 26.5459C1.56636 27.902 2.17698 29.1921 2.91238 30.398C3.04027 30.4216 3.17948 30.4347 3.33308 30.4347C4.99972 30.4347 4.99972 28.9109 6.66613 28.9109C8.33292 28.9109 8.33292 30.4347 9.99972 30.4347C11.6665 30.4347 11.6665 28.9109 13.3333 28.9109C15 28.9109 15 30.4347 16.6664 30.4347C18.333 30.4347 18.333 28.9109 19.9996 28.9109C21.6664 28.9109 21.6664 30.4347 23.3332 30.4347C25 30.4347 25 28.9109 26.6665 28.9109C28.3332 28.9109 28.3332 30.4347 29.9997 30.4347C31.6663 30.4347 31.6664 28.9109 33.3329 28.9109C34.9997 28.9109 34.9997 30.4347 36.6663 30.4347C36.82 30.4347 36.9592 30.4216 37.0871 30.398C37.8225 29.1921 38.4331 27.902 38.9027 26.5459C38.1975 26.9901 37.8573 27.768 36.6663 27.768C34.9997 27.768 34.9997 26.2441 33.3329 26.2441Z" fill="#0052B4"/>
<path d="M39.938 18.4202C38.3341 18.4581 38.312 19.9424 36.6664 19.9424C34.9998 19.9424 34.9998 18.4185 33.333 18.4185C31.6664 18.4185 31.6664 19.9424 29.9998 19.9424C28.3333 19.9424 28.3332 18.4185 26.6666 18.4185C25 18.4185 25 19.9424 23.3333 19.9424C21.6666 19.9424 21.6665 18.4185 19.9997 18.4185C18.333 18.4185 18.333 19.9424 16.6665 19.9424C15.0001 19.9424 15.0001 18.4185 13.3334 18.4185C11.6666 18.4185 11.6666 19.9424 9.99984 19.9424C8.33305 19.9424 8.33305 18.4185 6.66625 18.4185C4.99984 18.4185 4.99984 19.9424 3.3332 19.9424C1.68797 19.9424 1.6657 18.4582 0.0619531 18.4202C0.02125 18.9416 0 19.4684 0 20.0002C0 20.3645 0.0103125 20.7265 0.0297656 21.0859C1.66594 21.1043 1.6768 22.6089 3.33328 22.6089C4.99992 22.6089 4.99992 21.0852 6.66633 21.0852C8.33313 21.0852 8.33313 22.6089 9.99992 22.6089C11.6667 22.6089 11.6667 21.0852 13.3335 21.0852C15.0002 21.0852 15.0002 22.6089 16.6666 22.6089C18.3332 22.6089 18.3332 21.0852 19.9998 21.0852C21.6666 21.0852 21.6666 22.6089 23.3334 22.6089C25.0002 22.6089 25.0002 21.0852 26.6667 21.0852C28.3334 21.0852 28.3334 22.6089 29.9999 22.6089C31.6665 22.6089 31.6666 21.0852 33.3331 21.0852C34.9999 21.0852 34.9999 22.6089 36.6665 22.6089C38.3231 22.6089 38.334 21.1043 39.9705 21.0859C39.9897 20.7264 40 20.3645 40 20.0002C40 19.4684 39.9787 18.9416 39.938 18.4202Z" fill="#F0F0F0"/>
</g>
<defs>
<clipPath id="clip0_1350_9615">
<rect width="40" height="40" fill="white"/>
</clipPath>
</defs>
</svg>
