<svg width="40" height="40" viewBox="0 0 40 40" fill="none" xmlns="http://www.w3.org/2000/svg">
<g clip-path="url(#clip0_1350_8928)">
<path d="M40 20C40 31.0456 31.0456 40 20 40C8.95437 40 0 31.0456 0 20C0 20.0048 20 0.0021875 20 0C31.0456 0 40 8.95437 40 20Z" fill="#0052B4"/>
<path d="M19.946 19.9998H19.9995C19.9995 19.9818 19.9995 19.9643 19.9995 19.9463C19.9817 19.9642 19.9639 19.982 19.946 19.9998Z" fill="#F0F0F0"/>
<path d="M20 10.4348C20 6.91563 20 4.60977 20 0H19.9966C8.95242 0.001875 0 8.95539 0 20H10.4348V14.1241L16.3106 20H19.9466C19.9644 19.9822 19.9822 19.9644 20.0001 19.9465C20.0001 18.5991 20.0001 17.3968 20.0001 16.3108L14.1241 10.4348H20Z" fill="#F0F0F0"/>
<path d="M10.1188 2.6084C6.99077 4.38957 4.39022 6.99004 2.60913 10.1181V19.9997H7.82655V7.82598V7.82582H20.0005C20.0005 6.18027 20.0005 4.61262 20.0005 2.6084H10.1188Z" fill="#D80027"/>
<path d="M28.6951 20L23.2894 25.4057C24.3026 27.3597 26.3422 28.6956 28.6951 28.6956C31.048 28.6956 33.0877 27.3597 34.1008 25.4057L28.6951 20Z" fill="#FFDA44"/>
<path d="M19.9995 17.5403L12.8936 10.4346H10.4343V10.4347L19.9993 19.9997H19.9995C19.9995 19.9997 19.9995 18.3039 19.9995 17.5403Z" fill="#D80027"/>
<path d="M22.6091 10.4346V19.9997V19.9998C22.6092 24.6591 28.6961 26.0868 28.6961 26.0868C28.6961 26.0868 34.783 24.6591 34.783 19.9998V19.9997V10.4346H22.6091Z" fill="#6DA544"/>
<path d="M27.3909 14.7822H29.9995V21.7387H27.3909V14.7822Z" fill="#F0F0F0"/>
<path d="M28.6949 16.0873C29.4153 16.0873 29.9993 15.5033 29.9993 14.7829C29.9993 14.0625 29.4153 13.4785 28.6949 13.4785C27.9746 13.4785 27.3906 14.0625 27.3906 14.7829C27.3906 15.5033 27.9746 16.0873 28.6949 16.0873Z" fill="#A2001D"/>
<path d="M24.3473 12.1738H26.0864V13.913H24.3473V12.1738Z" fill="#FFDA44"/>
<path d="M24.3473 16.0869H26.0864V17.8261H24.3473V16.0869Z" fill="#FFDA44"/>
<path d="M24.3473 20H26.0864V21.7391H24.3473V20Z" fill="#FFDA44"/>
<path d="M31.3039 12.1738H33.0431V13.913H31.3039V12.1738Z" fill="#FFDA44"/>
<path d="M31.3039 16.0869H33.0431V17.8261H31.3039V16.0869Z" fill="#FFDA44"/>
<path d="M31.3039 20H33.0431V21.7391H31.3039V20Z" fill="#FFDA44"/>
</g>
<defs>
<clipPath id="clip0_1350_8928">
<rect width="40" height="40" fill="white"/>
</clipPath>
</defs>
</svg>
