<svg width="40" height="40" viewBox="0 0 40 40" fill="none" xmlns="http://www.w3.org/2000/svg">
<g clip-path="url(#clip0_1350_9022)">
<path d="M40 20C40 31.0456 31.0456 40 20 40C8.95437 40 0 31.0456 0 20C0 20.0048 20 0.0021875 20 0C31.0456 0 40 8.95437 40 20Z" fill="#0052B4"/>
<path d="M19.946 19.9998H19.9995C19.9995 19.9818 19.9995 19.9643 19.9995 19.9463C19.9817 19.9642 19.9639 19.982 19.946 19.9998Z" fill="#F0F0F0"/>
<path d="M20 10.4348C20 6.91563 20 4.60977 20 0H19.9966C8.95242 0.001875 0 8.95539 0 20H10.4348V14.1241L16.3106 20H19.9466C19.9644 19.9822 19.9822 19.9644 20.0001 19.9465C20.0001 18.5991 20.0001 17.3968 20.0001 16.3108L14.1241 10.4348H20Z" fill="#F0F0F0"/>
<path d="M28.6953 14.7827C30.6163 14.7827 32.1735 13.2254 32.1735 11.3044C32.1735 9.38345 30.6163 7.82617 28.6953 7.82617C26.7743 7.82617 25.217 9.38345 25.217 11.3044C25.217 13.2254 26.7743 14.7827 28.6953 14.7827Z" fill="#6DA544"/>
<path d="M10.1188 2.6084C6.99077 4.38957 4.39022 6.99004 2.60913 10.1181V19.9997H7.82655V7.82598V7.82582H20.0005C20.0005 6.18027 20.0005 4.61262 20.0005 2.6084H10.1188Z" fill="#D80027"/>
<path d="M20.0011 17.5403L12.8952 10.4346H10.4358V10.4347L20.0009 19.9997H20.0011C20.0011 19.9997 20.0011 18.3038 20.0011 17.5403Z" fill="#D80027"/>
<path d="M22.6091 10.4346H34.783V15.652H22.6091V10.4346Z" fill="#D80027"/>
<path d="M22.6091 23.4785V26.9568H24.4391C25.5364 28.0321 27.0383 28.6959 28.6961 28.6959C30.3538 28.6959 31.8558 28.0321 32.953 26.9568H33.0439H34.783V23.4785H22.6091Z" fill="#FFDA44"/>
<path d="M22.6091 14.7822V19.9997C22.6091 24.659 28.6961 26.0866 28.6961 26.0866C28.6961 26.0866 34.783 24.659 34.783 19.9997V14.7822H22.6091Z" fill="#338AF3"/>
<path d="M28.696 17.5703C27.1744 17.5703 27.1744 18.9616 25.6527 18.9616C24.1311 18.9616 24.1311 17.5703 22.6094 17.5703V20.0051C24.1311 20.0051 24.1311 21.3964 25.6527 21.3964C27.1744 21.3964 27.1744 20.0051 28.696 20.0051C30.2178 20.0051 30.2178 21.3964 31.7397 21.3964C33.2615 21.3964 33.2615 20.0051 34.7833 20.0051V17.5703C33.2615 17.5703 33.2615 18.9616 31.7397 18.9616C30.2178 18.9616 30.2178 17.5703 28.696 17.5703Z" fill="#F3F3F3"/>
<path d="M28.696 12.6963C27.1744 12.6963 27.1744 14.0876 25.6527 14.0876C24.1311 14.0876 24.1311 12.6963 22.6094 12.6963V15.1311C24.1311 15.1311 24.1311 16.5224 25.6527 16.5224C27.1744 16.5224 27.1744 15.1311 28.696 15.1311C30.2178 15.1311 30.2178 16.5224 31.7397 16.5224C33.2615 16.5224 33.2615 15.1311 34.7833 15.1311V12.6963C33.2615 12.6963 33.2615 14.0876 31.7397 14.0876C30.2178 14.0876 30.2178 12.6963 28.696 12.6963Z" fill="#F3F3F3"/>
</g>
<defs>
<clipPath id="clip0_1350_9022">
<rect width="40" height="40" fill="white"/>
</clipPath>
</defs>
</svg>
