<svg width="40" height="40" viewBox="0 0 40 40" fill="none" xmlns="http://www.w3.org/2000/svg">
<g clip-path="url(#clip0_1350_10109)">
<path d="M20 40C31.0457 40 40 31.0457 40 20C40 8.9543 31.0457 0 20 0C8.9543 0 0 8.9543 0 20C0 31.0457 8.9543 40 20 40Z" fill="#FCFCFC"/>
<path d="M26.0869 16.5215V18.2606H28.4738C27.4777 19.645 26.1509 20.7752 24.6093 21.5362C24.2139 21.1253 23.6586 20.8693 23.0434 20.8693C22.0063 20.8693 21.1394 21.5958 20.9223 22.5676C20.6184 22.5943 20.3108 22.6084 20 22.6084C19.6891 22.6084 19.3815 22.5941 19.0776 22.5676C18.8605 21.5959 17.9936 20.8693 16.9565 20.8693C16.3413 20.8693 15.7862 21.1253 15.3906 21.5362C13.849 20.7752 12.5223 19.6449 11.5262 18.2606H13.913V16.5215H7.82605C7.82605 23.2448 13.2766 28.6954 20 28.6954C26.7235 28.6954 32.1739 23.2448 32.1739 16.5215H26.0869Z" fill="#D80027"/>
</g>
<defs>
<clipPath id="clip0_1350_10109">
<rect width="40" height="40" fill="white"/>
</clipPath>
</defs>
</svg>
