<svg width="40" height="40" viewBox="0 0 40 40" fill="none" xmlns="http://www.w3.org/2000/svg">
<g clip-path="url(#clip0_1350_10098)">
<path d="M20 40C31.0457 40 40 31.0457 40 20C40 8.9543 31.0457 0 20 0C8.9543 0 0 8.9543 0 20C0 31.0457 8.9543 40 20 40Z" fill="#F0F0F0"/>
<path d="M19.9999 0C13.4568 0 7.64783 3.14242 3.99908 8H36.0008C32.3521 3.14242 26.5431 0 19.9999 0Z" fill="#D80027"/>
<path d="M19.9999 40C26.5431 40 32.3521 36.8576 36.0008 32H3.99908C7.64783 36.8576 13.4568 40 19.9999 40Z" fill="#D80027"/>
<path d="M0 20C0 21.3699 0.138125 22.7076 0.400547 24H39.5996C39.862 22.7076 40 21.3699 40 20C40 18.6301 39.8619 17.2924 39.5995 16H0.400547C0.138125 17.2924 0 18.6301 0 20H0Z" fill="#D80027"/>
<path d="M5.85785 5.85742C-1.95262 13.6679 -1.95262 26.3313 5.85785 34.1418C9.08543 30.9142 12.1896 27.8101 20 19.9996L5.85785 5.85742Z" fill="#0052B4"/>
<path d="M8.09456 14.7822L9.38948 18.7679H13.5806L10.1901 21.2313L11.485 25.2171L8.09456 22.7537L4.70402 25.2171L5.99917 21.2313L2.6087 18.7679H6.79948L8.09456 14.7822Z" fill="#F0F0F0"/>
</g>
<defs>
<clipPath id="clip0_1350_10098">
<rect width="40" height="40" fill="white"/>
</clipPath>
</defs>
</svg>
