<svg width="40" height="40" viewBox="0 0 40 40" fill="none" xmlns="http://www.w3.org/2000/svg">
<mask id="mask0_1350_11492" style="mask-type:luminance" maskUnits="userSpaceOnUse" x="0" y="0" width="40" height="39">
<path d="M19.9967 38.4026C31.0402 38.4026 39.9927 29.8082 39.9927 19.2064C39.9927 8.60466 31.0402 0.0102539 19.9967 0.0102539C8.95326 0.0102539 0.000747681 8.60466 0.000747681 19.2064C0.000747681 29.8082 8.95326 38.4026 19.9967 38.4026Z" fill="white"/>
</mask>
<g mask="url(#mask0_1350_11492)">
<path d="M39.8147 -0.70459H51.0577C51.1054 -0.618508 51.0817 -0.525574 51.0817 -0.436247C51.0832 1.8409 51.0837 4.11761 51.0832 6.39388C51.0963 6.48778 51.0465 6.54909 50.9689 6.59826C50.8757 6.65805 50.7824 6.71789 50.689 6.77776C33.9651 17.4729 17.2417 28.1685 0.518973 38.8648C0.36268 38.9647 0.21841 39.0933 0.0086422 39.0833C-3.59812 39.0828 -7.20455 39.0823 -10.8106 39.0818C-10.9122 39.0818 -11.0175 39.1059 -11.116 39.059V31.8519C-11.0391 31.7598 -10.937 31.6977 -10.8363 31.6333C5.91885 20.9186 22.6731 10.2025 39.4264 -0.514994C39.5472 -0.593303 39.6776 -0.656984 39.8147 -0.70459Z" fill="black"/>
<path d="M-11.116 29.0186C-11.116 19.1853 -11.1176 9.35211 -11.1208 -0.481044C-11.1208 -0.667394 -11.0771 -0.709473 -10.8829 -0.709473C4.5138 -0.704423 19.9105 -0.7029 35.3071 -0.704904C35.3354 -0.621468 35.2683 -0.58564 35.2167 -0.545245C35.1498 -0.492826 35.0751 -0.450387 35.0038 -0.404461C19.7651 9.34013 4.5267 19.085 -10.7115 28.83C-10.8349 28.909 -10.9391 29.0398 -11.116 29.0186Z" fill="#009639"/>
<path d="M-11.116 29.0187C-7.41177 26.6509 -3.70728 24.283 -0.00250435 21.915C11.6842 14.4419 23.3702 6.96784 35.0557 -0.507052C35.1448 -0.563919 35.2612 -0.594336 35.3071 -0.704102H39.8147C39.6622 -0.555743 39.4689 -0.462328 39.291 -0.348595C22.5713 10.3461 5.85064 21.0397 -10.8709 31.7324C-10.946 31.7804 -11.0079 31.8626 -11.116 31.8519V29.0187Z" fill="#FECC00"/>
<path d="M-11.116 39.0591C-7.46996 39.0591 -3.82396 39.0591 -0.177958 39.0591C-0.0747652 39.0591 0.028554 39.0539 0.131748 39.0513C0.25548 39.0175 0.376707 38.9782 0.508955 38.9784C1.88478 38.9814 3.26049 38.9727 4.63632 38.9827C4.82617 38.9935 5.01578 38.9768 5.20564 38.9768C20.2781 38.978 35.3504 38.9782 50.4227 38.9774C51.0213 38.9774 50.9722 39.0176 50.9722 38.4577C50.973 29.3729 50.9734 20.2882 50.9732 11.2034C50.9732 10.5824 50.9668 9.96139 50.9782 9.33995C50.9677 8.49043 50.9753 7.64104 50.9739 6.79117C50.9739 6.68236 50.9865 6.57705 51.0491 6.48255C51.052 5.29296 51.0548 4.10337 51.0575 2.91378C51.0588 1.70744 51.0588 0.501174 51.0575 -0.705008C51.0735 -0.694187 51.1116 -0.730135 51.1098 -0.680121C51.1077 -0.613877 51.1098 -0.547873 51.1098 -0.481268C51.1098 12.6406 51.1115 25.7626 51.1147 38.8846C51.1147 39.071 51.0709 39.1131 50.8768 39.1131C30.2904 39.1081 9.70399 39.1055 -10.8825 39.1054C-10.9587 39.1056 -11.0586 39.1629 -11.116 39.0591Z" fill="#FEFEFE"/>
<path d="M51.0491 6.48291V9.34428C50.991 9.47652 50.8612 9.53447 50.7477 9.60721C43.1751 14.4505 35.6026 19.2934 28.0301 24.136C20.364 29.0388 12.6984 33.942 5.03306 38.8457C4.90332 38.9286 4.77408 39.01 4.62242 39.0515H0.132126C1.3697 38.2542 2.60748 37.4574 3.84546 36.6611C19.5061 26.6436 35.1671 16.6269 50.8286 6.61071C50.8999 6.56502 50.9755 6.52595 51.0491 6.48291Z" fill="#FECC00"/>
<path d="M37.6589 13.9013C36.2954 13.8505 34.9929 13.8061 33.6909 13.7493C33.5123 13.7415 33.4412 13.7914 33.3807 13.9511C32.9355 15.1272 32.4781 16.2992 32.0054 17.5217C31.9403 17.3105 31.8874 17.1466 31.8391 16.9816C31.5364 15.9476 31.2293 14.9157 30.9374 13.8798C30.8859 13.6968 30.8071 13.6303 30.6083 13.6245C29.4263 13.5898 28.2446 13.5423 27.063 13.4982C26.9522 13.4941 26.8417 13.4835 26.718 13.4751C26.7735 13.3701 26.8671 13.3411 26.9419 13.2932C27.9518 12.6446 28.9612 11.9947 29.9762 11.3542C30.114 11.2668 30.1492 11.193 30.1014 11.035C29.7403 9.82973 29.3912 8.62122 29.0342 7.39949C29.1241 7.39708 29.1636 7.45311 29.2114 7.4893C30.1936 8.23229 31.1776 8.97324 32.1544 9.72297C32.2847 9.82299 32.3658 9.82828 32.5051 9.73751C33.5041 9.0883 34.5096 8.44846 35.5153 7.80886C35.5884 7.76233 35.6506 7.67805 35.7889 7.70847C35.5863 8.23746 35.3881 8.76116 35.1858 9.28342C34.9379 9.92566 34.6919 10.5688 34.4344 11.207C34.3747 11.3556 34.4054 11.4303 34.5374 11.5289C35.5112 12.2555 36.4761 12.993 37.4436 13.7274C37.5027 13.7724 37.5587 13.8202 37.6589 13.9013Z" fill="#FEFEFE"/>
<path d="M11.8934 22.9623C11.6035 23.7147 11.3188 24.4542 11.0338 25.1936C10.8698 25.619 10.7132 26.0472 10.537 26.4679C10.4681 26.6323 10.4912 26.7235 10.6422 26.8363C11.6292 27.5727 12.607 28.3205 13.587 29.0657C13.6245 29.0939 13.6823 29.1068 13.6862 29.1603C13.3621 29.1603 13.0389 29.1698 12.7168 29.1585C11.7252 29.1237 10.7336 29.0863 9.74289 29.036C9.56882 29.0271 9.52411 29.0976 9.47477 29.2271C9.05523 30.3272 8.63194 31.4259 8.20488 32.5233C8.17282 32.6059 8.16494 32.703 8.07289 32.7735C7.72035 31.5713 7.36531 30.377 7.0238 29.1788C6.97032 28.9914 6.89856 28.9209 6.68266 28.9143C5.42354 28.8782 4.16544 28.8228 2.90633 28.7735C2.87514 28.7723 2.84371 28.7679 2.75842 28.7596C3.02643 28.5868 3.25085 28.4412 3.47614 28.2969C4.34344 27.7417 5.21085 27.1869 6.0784 26.6324C6.17132 26.573 6.25085 26.5379 6.20476 26.3857C5.84984 25.2126 5.51046 24.0351 5.16531 22.859C5.15191 22.8136 5.13162 22.7698 5.11309 22.7214C5.21741 22.6562 5.26487 22.7583 5.32298 22.802C6.29981 23.5377 7.27664 24.2731 8.24496 25.0186C8.37996 25.1226 8.46224 25.1148 8.59562 25.028C9.60251 24.3759 10.6127 23.7286 11.6263 23.086C11.7013 23.0398 11.7647 22.966 11.8934 22.9623Z" fill="#FEFEFE"/>
<path d="M4.62192 39.051C5.42893 38.5276 6.23294 38.0001 7.04346 37.4817C21.639 28.146 36.2351 18.8112 50.8318 9.4772C50.9033 9.43139 50.9766 9.38811 51.0491 9.34375C51.052 9.43476 51.0575 9.52565 51.0575 9.61654C51.0575 19.3308 51.0597 29.045 51.0642 38.7592C51.0642 39.0091 51.0036 39.0654 50.7444 39.0653C35.4651 39.0585 20.1858 39.0564 4.90645 39.0589C4.81165 39.0588 4.71685 39.0535 4.62192 39.051Z" fill="#C7102E"/>
</g>
</svg>
