<svg width="40" height="40" viewBox="0 0 40 40" fill="none" xmlns="http://www.w3.org/2000/svg">
<g clip-path="url(#clip0_1350_10354)">
<path d="M4.68751e-05 3.47852H0V36.5219H4.68751e-05V20.0003V3.47852Z" fill="#FF9811"/>
<path d="M20 39.9999C31.0456 39.9999 39.9999 31.0456 39.9999 20C39.9999 8.95429 31.0456 0 20 0C8.95429 0 0 8.95429 0 20C0 31.0456 8.95429 39.9999 20 39.9999Z" fill="#FFDA44"/>
<path d="M15.6521 3.47852H8.72751C8.42063 3.68828 8.12032 3.90664 7.82602 4.13266L6.08688 20.0002L7.82602 35.8677C8.12032 36.0938 8.42063 36.3122 8.72751 36.5219H15.6521V3.47852Z" fill="#FF9811"/>
<path d="M6.86646e-05 19.9999C6.86646e-05 26.4644 3.06789 32.2114 7.82618 35.8675V4.13232C3.06789 7.78843 6.86646e-05 13.5355 6.86646e-05 19.9999Z" fill="#6DA544"/>
<path d="M32.1739 12.1924V12.6928L32.1925 12.6956L32.1739 12.1924Z" fill="#FFDA44"/>
<path d="M38.4055 25.2176H34.6373L33.0431 26.9568V30.4351H29.5648V28.6959H31.304V25.2176H23.4779V27.3915H21.7387V23.2485C21.2051 22.7708 20.8692 22.077 20.8692 21.3046V10.0002C20.8692 8.55954 22.0372 7.39157 23.4779 7.39157V23.4786H26.9562L28.1496 22.4839C27.9412 21.9875 27.8257 21.4422 27.8257 20.8699V18.2612H25.217V13.0438H30.4344C30.4344 12.1743 31.7388 11.3047 31.7388 11.3047C31.7388 11.3047 33.0431 12.1742 33.0431 13.0438V14.3482V18.2613C34.0106 18.2728 35.5476 18.2477 37.2081 18.2613C36.7719 17.4988 36.5213 16.594 36.5213 15.6526C36.5213 14.1181 37.1838 12.7386 38.2384 11.7839C36.7184 8.41556 34.2929 5.54352 31.272 3.47852H18.2605V36.522H31.2721C34.9455 34.011 37.7384 30.307 39.0934 25.9681L38.4055 25.2176Z" fill="#A2001D"/>
</g>
<defs>
<clipPath id="clip0_1350_10354">
<rect width="40" height="40" fill="white"/>
</clipPath>
</defs>
</svg>
