<svg width="40" height="40" viewBox="0 0 40 40" fill="none" xmlns="http://www.w3.org/2000/svg">
<g clip-path="url(#clip0_1350_10427)">
<path d="M40 20C40 31.0456 31.0456 40 20 40C8.95437 40 0 31.0456 0 20C6.86953 13.1305 12.6956 7.30438 20 0C31.0456 0 40 8.95437 40 20Z" fill="#D80027"/>
<path d="M20 20C20 8.95437 20 7.65219 20 0C8.95437 0 0 8.95437 0 20H20Z" fill="#0052B4"/>
<path d="M17.3912 11.705L14.9487 12.854L16.2493 15.2196L13.597 14.7121L13.2608 17.3915L11.4135 15.4209L9.566 17.3915L9.22999 14.7121L6.57764 15.2194L7.87827 12.8539L5.43577 11.705L7.87835 10.5561L6.57764 8.19051L9.22991 8.69793L9.56608 6.01855L11.4135 7.98918L13.2609 6.01855L13.597 8.69793L16.2494 8.19051L14.9487 10.5562L17.3912 11.705Z" fill="#F0F0F0"/>
<path d="M11.4144 15.4267C13.4705 15.4267 15.1373 13.7599 15.1373 11.7038C15.1373 9.64775 13.4705 7.98096 11.4144 7.98096C9.35826 7.98096 7.69147 9.64775 7.69147 11.7038C7.69147 13.7599 9.35826 15.4267 11.4144 15.4267Z" fill="#0052B4"/>
<path d="M11.4135 13.6887C10.3197 13.6887 9.42984 12.7988 9.42984 11.7049C9.42984 10.6111 10.3198 9.72119 11.4135 9.72119C12.5073 9.72119 13.3973 10.6111 13.3973 11.7049C13.3972 12.7988 12.5072 13.6887 11.4135 13.6887Z" fill="#F0F0F0"/>
</g>
<defs>
<clipPath id="clip0_1350_10427">
<rect width="40" height="40" fill="white"/>
</clipPath>
</defs>
</svg>
