<svg width="40" height="40" viewBox="0 0 40 40" fill="none" xmlns="http://www.w3.org/2000/svg">
<g clip-path="url(#clip0_1350_10591)">
<path d="M20 40C31.0457 40 40 31.0457 40 20C40 8.9543 31.0457 0 20 0C8.9543 0 0 8.9543 0 20C0 31.0457 8.9543 40 20 40Z" fill="#F0F0F0"/>
<path d="M11.3041 26.9565L13.0433 38.7562C15.2098 39.5602 17.5534 40.0001 19.9998 40.0001C28.599 40.0001 35.9299 34.5726 38.7557 26.9565H11.3041Z" fill="black"/>
<path d="M11.3041 13.0435L13.0433 1.24383C15.2098 0.439844 17.5534 0 19.9998 0C28.599 0 35.9299 5.4275 38.7557 13.0435H11.3041Z" fill="#6DA544"/>
<path d="M0 19.9997C0 28.599 5.42758 35.9298 13.0435 38.7557V1.24365C5.42758 4.06951 0 11.4004 0 19.9997Z" fill="#A2001D"/>
</g>
<defs>
<clipPath id="clip0_1350_10591">
<rect width="40" height="40" fill="white"/>
</clipPath>
</defs>
</svg>
