<svg width="40" height="40" viewBox="0 0 40 40" fill="none" xmlns="http://www.w3.org/2000/svg">
<g clip-path="url(#clip0_1350_9265)">
<path d="M0 20C0 8.95437 8.95437 0 20 0C31.0456 0 40 8.95437 40 20L20 21.7391L0 20Z" fill="#FFDA44"/>
<path d="M2.67615 30.0002C6.13435 35.978 12.5972 40.0002 19.9999 40.0002C27.4026 40.0002 33.8654 35.978 37.3236 30.0002L19.9999 28.6958L2.67615 30.0002Z" fill="#D80027"/>
<path d="M37.3237 30C39.0255 27.0583 40 23.643 40 20H0C0 23.643 0.974531 27.0583 2.67625 30H37.3237Z" fill="#0052B4"/>
<path d="M19.9998 26.9564C23.8418 26.9564 26.9563 23.8419 26.9563 19.9999C26.9563 16.158 23.8418 13.0435 19.9998 13.0435C16.1579 13.0435 13.0433 16.158 13.0433 19.9999C13.0433 23.8419 16.1579 26.9564 19.9998 26.9564Z" fill="#FFDA44"/>
<path d="M20.0006 24.3478C17.6032 24.3478 15.6528 22.3973 15.6528 19.9999V17.3913C15.6528 14.9938 17.6033 13.0435 20.0006 13.0435C22.398 13.0435 24.3484 14.9939 24.3484 17.3913V19.9999C24.3484 22.3974 22.398 24.3478 20.0006 24.3478Z" fill="#338AF3"/>
<path d="M26.9563 9.56531H21.7389C21.7389 8.60484 20.9602 7.82617 19.9998 7.82617C19.0393 7.82617 18.2606 8.60484 18.2606 9.56531H13.0432C13.0432 10.5259 13.8799 11.3045 14.8402 11.3045H14.7824C14.7824 12.265 15.5609 13.0436 16.5215 13.0436C16.5215 14.0041 17.3001 14.7827 18.2606 14.7827H21.7389C22.6994 14.7827 23.478 14.0041 23.478 13.0436C24.4386 13.0436 25.2172 12.265 25.2172 11.3045H25.1593C26.1198 11.3045 26.9563 10.5258 26.9563 9.56531Z" fill="black"/>
</g>
<defs>
<clipPath id="clip0_1350_9265">
<rect width="40" height="40" fill="white"/>
</clipPath>
</defs>
</svg>
