<svg width="40" height="40" viewBox="0 0 40 40" fill="none" xmlns="http://www.w3.org/2000/svg">
<g clip-path="url(#clip0_1350_10199)">
<path d="M20 40C31.0457 40 40 31.0457 40 20C40 8.9543 31.0457 0 20 0C8.9543 0 0 8.9543 0 20C0 31.0457 8.9543 40 20 40Z" fill="#6DA544"/>
<path d="M11.3049 23.9131C11.3049 25.3538 12.4728 26.5218 13.9135 26.5218H21.7397C21.7397 27.7224 22.7129 28.6957 23.9136 28.6957H26.5222C27.7229 28.6957 28.6961 27.7224 28.6961 26.5218V23.9131H11.3049Z" fill="#F0F0F0"/>
<path d="M28.9125 11.3042V17.3911C28.9125 18.3501 28.1324 19.1303 27.1734 19.1303V21.739C29.5708 21.739 31.5212 19.7885 31.5212 17.3911V11.3042H28.9125Z" fill="#F0F0F0"/>
<path d="M10.2174 17.3921C10.2174 18.3511 9.43719 19.1313 8.47821 19.1313V21.7399C10.8756 21.7399 12.826 19.7895 12.826 17.3921V11.3052H10.2174V17.3921Z" fill="#F0F0F0"/>
<path d="M25 11.3042H27.6087V17.3911H25V11.3042Z" fill="#F0F0F0"/>
<path d="M21.0869 14.7825C21.0869 15.0222 20.8918 15.2172 20.6521 15.2172C20.4124 15.2172 20.2173 15.0222 20.2173 14.7825V11.3042H17.6087V14.7825C17.6087 15.0222 17.4136 15.2172 17.1739 15.2172C16.9342 15.2172 16.7391 15.0222 16.7391 14.7825V11.3042H14.1304V14.7825C14.1304 16.4607 15.4957 17.826 17.1739 17.826C17.8202 17.826 18.4196 17.6229 18.913 17.2779C19.4064 17.6228 20.0058 17.826 20.6522 17.826C20.7823 17.826 20.9103 17.8169 21.0362 17.8008C20.8513 18.5625 20.1654 19.1303 19.3478 19.1303V21.739C21.7452 21.739 23.6956 19.7885 23.6956 17.3911V14.7825V11.3042H21.0869V14.7825H21.0869Z" fill="#F0F0F0"/>
<path d="M14.1304 19.1304H18.0434V21.739H14.1304V19.1304Z" fill="#F0F0F0"/>
</g>
<defs>
<clipPath id="clip0_1350_10199">
<rect width="40" height="40" fill="white"/>
</clipPath>
</defs>
</svg>
