<svg width="40" height="40" viewBox="0 0 40 40" fill="none" xmlns="http://www.w3.org/2000/svg">
<g clip-path="url(#clip0_1350_9708)">
<path d="M20 40C31.0457 40 40 31.0457 40 20C40 8.9543 31.0457 0 20 0C8.9543 0 0 8.9543 0 20C0 31.0457 8.9543 40 20 40Z" fill="#496E2D"/>
<path d="M23.4783 19.1665C22.9874 19.1665 22.5213 19.2644 22.0884 19.4202C22.3256 18.8918 22.4845 18.3038 22.4845 17.6759C22.4845 15.1915 20.0001 13.3281 20.0001 13.3281C20.0001 13.3281 17.5156 15.1915 17.5156 17.6759C17.5156 18.3037 17.6746 18.8918 17.9117 19.4202C17.4788 19.2646 17.0127 19.1665 16.5219 19.1665C14.0374 19.1665 12.1741 21.651 12.1741 21.651C12.1741 21.651 14.0374 24.1355 16.5219 24.1355C17.9785 24.1355 19.2209 23.2818 20.0002 22.5751C20.7795 23.2817 22.0218 24.1355 23.4784 24.1355C25.9629 24.1355 27.8263 21.651 27.8263 21.651C27.8263 21.651 25.9627 19.1665 23.4783 19.1665Z" fill="#F0F0F0"/>
<path d="M20.0006 7.82617L20.5138 9.40554H22.1745L20.8311 10.3818L21.3439 11.9612L20.0006 10.9849L18.6572 11.9612L19.17 10.3818L17.8267 9.40554H19.4874L20.0006 7.82617Z" fill="#FFDA44"/>
<path d="M13.6853 10.5889L14.6727 11.4778L15.8232 10.8136L15.2829 12.0272L16.2702 12.9163L14.9489 12.7774L14.4086 13.9911L14.1322 12.6916L12.811 12.5527L13.9615 11.8883L13.6853 10.5889Z" fill="#FFDA44"/>
<path d="M9.06232 15.2123L10.3618 15.4884L11.0261 14.3379L11.1651 15.6591L12.4644 15.9355L11.2508 16.4759L11.3897 17.797L10.5006 16.8098L9.287 17.3502L9.9513 16.1995L9.06232 15.2123Z" fill="#FFDA44"/>
<path d="M26.3152 10.5889L25.3279 11.4778L24.1774 10.8136L24.7176 12.0272L23.7304 12.9163L25.0517 12.7774L25.592 13.9911L25.8684 12.6916L27.1895 12.5527L26.0391 11.8883L26.3152 10.5889Z" fill="#FFDA44"/>
<path d="M30.9382 15.2123L29.6387 15.4884L28.9744 14.3379L28.8354 15.6591L27.5361 15.9355L28.7497 16.4759L28.6108 17.797L29.4999 16.8098L30.7135 17.3502L30.0492 16.1995L30.9382 15.2123Z" fill="#FFDA44"/>
<path d="M19.9998 31.0915C21.9733 31.0915 23.7923 30.4331 25.2515 29.3252H14.748C16.2073 30.433 18.0262 31.0915 19.9998 31.0915Z" fill="#F0F0F0"/>
<path d="M12.0284 25.874C12.3045 26.5057 12.6545 27.0974 13.0656 27.6404H26.9342C27.3453 27.0975 27.6953 26.5057 27.9713 25.874H12.0284Z" fill="#F0F0F0"/>
</g>
<defs>
<clipPath id="clip0_1350_9708">
<rect width="40" height="40" fill="white"/>
</clipPath>
</defs>
</svg>
