<svg width="40" height="40" viewBox="0 0 40 40" fill="none" xmlns="http://www.w3.org/2000/svg">
<g clip-path="url(#clip0_1350_9667)">
<path d="M0 20.0003C0 23.1167 0.713047 26.0665 1.98453 28.6959L20 29.5655L38.0155 28.696C39.287 26.0665 40 23.1167 40 20.0003C40 16.8839 39.287 13.934 38.0155 11.3047L20 10.4351L1.98453 11.3046C0.713047 13.934 0 16.8839 0 20.0003H0Z" fill="#F0F0F0"/>
<path d="M20 39.9996C27.9291 39.9996 34.7805 35.3852 38.0155 28.6953H1.98454C5.21954 35.3852 12.0708 39.9996 20 39.9996Z" fill="#6DA544"/>
<path d="M20 0C12.0708 0 5.21954 4.61445 1.98454 11.3044H38.0154C34.7805 4.61445 27.9291 0 20 0Z" fill="#0052B4"/>
<path d="M21.3042 19.5658V14.7832H18.6956V19.5658L15.5448 22.7166C16.4611 24.2166 18.1135 25.2179 19.9999 25.2179C21.8863 25.2179 23.5387 24.2166 24.4551 22.7166L21.3042 19.5658Z" fill="black"/>
</g>
<defs>
<clipPath id="clip0_1350_9667">
<rect width="40" height="40" fill="white"/>
</clipPath>
</defs>
</svg>
