<svg width="40" height="40" viewBox="0 0 40 40" fill="none" xmlns="http://www.w3.org/2000/svg">
<g clip-path="url(#clip0_1350_10176)">
<path d="M20 40C31.0457 40 40 31.0457 40 20C40 8.9543 31.0457 0 20 0C8.9543 0 0 8.9543 0 20C0 31.0457 8.9543 40 20 40Z" fill="#FFDA44"/>
<path d="M12.1745 13.0435H38.7565C35.9307 5.4275 28.5998 0 20.0006 0C14.4776 0 9.47814 2.23898 5.85908 5.85852L12.1745 13.0435Z" fill="#6DA544"/>
<path d="M12.1745 26.9565H38.7565C35.9307 34.5726 28.5998 40.0001 20.0006 40.0001C14.4776 40.0001 9.47814 37.7611 5.85908 34.1415L12.1745 26.9565Z" fill="#6DA544"/>
<path d="M5.85782 5.85791C-1.95265 13.6684 -1.95265 26.3317 5.85782 34.1423C9.0854 30.9147 12.1895 27.8106 20 20.0001L5.85782 5.85791Z" fill="#D80027"/>
<path d="M25.3968 16.5215L26.2602 19.1787H29.0541L26.7938 20.8209L27.6571 23.478L25.3968 21.8358L23.1365 23.478L23.9998 20.8209L21.7396 19.1787H24.5335L25.3968 16.5215Z" fill="black"/>
<path d="M34.0921 16.5215L34.9554 19.1787H37.7493L35.4891 20.8209L36.3523 23.478L34.0921 21.8358L31.8317 23.478L32.6951 20.8209L30.4348 19.1787H33.2287L34.0921 16.5215Z" fill="black"/>
</g>
<defs>
<clipPath id="clip0_1350_10176">
<rect width="40" height="40" fill="white"/>
</clipPath>
</defs>
</svg>
