<svg width="40" height="40" viewBox="0 0 40 40" fill="none" xmlns="http://www.w3.org/2000/svg">
<g clip-path="url(#clip0_1350_8899)">
<path d="M20 40C31.0457 40 40 31.0457 40 20C40 8.9543 31.0457 0 20 0C8.9543 0 0 8.9543 0 20C0 31.0457 8.9543 40 20 40Z" fill="#F0F0F0"/>
<path d="M36.6664 22.393C34.9997 22.393 34.9997 20.8691 33.333 20.8691C31.6664 20.8691 31.6664 22.393 29.9998 22.393C28.3332 22.393 28.3332 20.8691 26.6666 20.8691C25 20.8691 25 22.393 23.3332 22.393C21.6665 22.393 21.6664 20.8691 19.9996 20.8691C18.333 20.8691 18.333 22.393 16.6664 22.393C15 22.393 15 20.8691 13.3334 20.8691C11.6666 20.8691 11.6666 22.393 9.9998 22.393C8.333 22.393 8.333 20.8691 6.6662 20.8691C4.9998 20.8691 4.9998 22.393 3.33316 22.393C1.6755 22.393 1.66589 20.8859 0.0259705 20.8698C0.0721423 21.7846 0.181361 22.6828 0.346517 23.5612C1.67495 23.7562 1.79128 25.0596 3.33331 25.0596C4.99995 25.0596 4.99995 23.5359 6.66636 23.5359C8.33316 23.5359 8.33316 25.0596 9.99995 25.0596C11.6668 25.0596 11.6668 23.5359 13.3335 23.5359C15.0002 23.5359 15.0002 25.0596 16.6666 25.0596C18.3332 25.0596 18.3332 23.5359 19.9998 23.5359C21.6666 23.5359 21.6666 25.0596 23.3334 25.0596C25.0002 25.0596 25.0002 23.5359 26.6667 23.5359C28.3334 23.5359 28.3334 25.0596 30 25.0596C31.6666 25.0596 31.6666 23.5359 33.3332 23.5359C35 23.5359 35 25.0596 36.6665 25.0596C38.2086 25.0596 38.325 23.7563 39.6535 23.5612C39.8187 22.6827 39.9278 21.7847 39.9742 20.8698C38.3339 20.886 38.3241 22.393 36.6664 22.393Z" fill="#0052B4"/>
<path d="M33.3334 26.0869C31.6667 26.0869 31.6667 27.6108 30.0002 27.6108C28.3336 27.6108 28.3335 26.0869 26.667 26.0869C25.0003 26.0869 25.0003 27.6108 23.3336 27.6108C21.6668 27.6108 21.6668 26.0869 20 26.0869C18.3334 26.0869 18.3334 27.6108 16.6668 27.6108C15.0004 27.6108 15.0004 26.0869 13.3338 26.0869C11.667 26.0869 11.667 27.6108 10.0002 27.6108C8.33336 27.6108 8.33336 26.0869 6.66657 26.0869C5.00016 26.0869 5.00016 27.6108 3.33352 27.6108C2.10578 27.6108 1.78164 26.7844 1.02985 26.3491C1.48516 27.71 2.08321 29.0052 2.80547 30.218C2.96188 30.2557 3.13578 30.2775 3.33344 30.2775C5.00008 30.2775 5.00008 28.7537 6.66649 28.7537C8.33328 28.7537 8.33328 30.2775 10.0001 30.2775C11.6669 30.2775 11.6669 28.7537 13.3337 28.7537C15.0003 28.7537 15.0003 30.2775 16.6667 30.2775C18.3334 30.2775 18.3334 28.7537 19.9999 28.7537C21.6667 28.7537 21.6667 30.2775 23.3335 30.2775C25.0003 30.2775 25.0003 28.7537 26.6669 28.7537C28.3335 28.7537 28.3335 30.2775 30.0001 30.2775C31.6666 30.2775 31.6667 28.7537 33.3333 28.7537C35.0001 28.7537 35.0001 30.2775 36.6666 30.2775C36.8645 30.2775 37.0385 30.2557 37.195 30.2179C37.9174 29.0052 38.5153 27.71 38.9706 26.3492C38.2188 26.7845 37.8945 27.6109 36.6666 27.6109C35.0002 27.6108 35.0002 26.0869 33.3334 26.0869Z" fill="#0052B4"/>
<path d="M39.5346 15.6987C38.3164 15.9516 38.161 17.1762 36.6663 17.1762C34.9997 17.1762 34.9997 15.6523 33.333 15.6523C31.6663 15.6523 31.6663 17.1762 29.9998 17.1762C28.3332 17.1762 28.3331 15.6523 26.6666 15.6523C24.9999 15.6523 24.9999 17.1762 23.3332 17.1762C21.6665 17.1762 21.6664 15.6523 19.9996 15.6523C19.0991 15.6523 18.685 16.0972 18.2318 16.5062V19.1729C18.685 18.7639 19.099 18.3191 19.9996 18.3191C21.6664 18.3191 21.6664 19.8429 23.3332 19.8429C25 19.8429 25 18.3191 26.6666 18.3191C28.3332 18.3191 28.3332 19.8429 29.9998 19.8429C31.6663 19.8429 31.6664 18.3191 33.333 18.3191C34.9998 18.3191 34.9998 19.8429 36.6663 19.8429C38.2085 19.8429 38.3248 18.5396 39.6533 18.3445C39.7385 18.3445 39.8336 18.3436 39.931 18.3424C39.8572 17.443 39.7236 16.5605 39.5346 15.6987Z" fill="#0052B4"/>
<path d="M38.0737 11.4275C37.7283 11.7175 37.3291 11.9585 36.6664 11.9585C34.9998 11.9585 34.9998 10.4346 33.3331 10.4346C31.6664 10.4346 31.6664 11.9585 29.9999 11.9585C28.3333 11.9585 28.3332 10.4346 26.6667 10.4346C25 10.4346 25 11.9585 23.3333 11.9585C21.6666 11.9585 21.6665 10.4346 19.9997 10.4346C19.0992 10.4346 18.6851 10.8794 18.2319 11.2885V13.9551C18.6851 13.5461 19.0991 13.1014 19.9997 13.1014C21.6665 13.1014 21.6665 14.6251 23.3333 14.6251C25 14.6251 25 13.1014 26.6666 13.1014C28.3332 13.1014 28.3332 14.6251 29.9998 14.6251C31.6664 14.6251 31.6664 13.1014 33.333 13.1014C34.9998 13.1014 34.9998 14.6251 36.6664 14.6251C37.8489 14.6251 38.1934 13.8591 38.8887 13.4136C38.6518 12.7342 38.3796 12.0713 38.0737 11.4275Z" fill="#0052B4"/>
<path d="M33.4749 5.22184C33.4286 5.21934 33.3815 5.21777 33.3325 5.21777C31.6659 5.21777 31.6659 6.74168 29.9993 6.74168C28.3327 6.74168 28.3327 5.21777 26.6661 5.21777C24.9995 5.21777 24.9995 6.74168 23.3327 6.74168C21.6659 6.74168 21.6659 5.21777 19.9991 5.21777C19.0985 5.21777 18.6845 5.66262 18.2313 6.07168V8.73832C18.6845 8.32934 19.0984 7.88457 19.9991 7.88457C21.6659 7.88457 21.6659 9.40832 23.3327 9.40832C24.9995 9.40832 24.9995 7.88457 26.666 7.88457C28.3327 7.88457 28.3327 9.40832 29.9992 9.40832C31.6658 9.40832 31.6659 7.88457 33.3324 7.88457C34.9992 7.88457 34.9992 9.40832 36.6658 9.40832C36.7684 9.40832 36.8643 9.40223 36.9551 9.39137C35.987 7.84731 34.8149 6.44441 33.4749 5.22184Z" fill="#0052B4"/>
<path d="M25.1113 0.660313C24.6538 1.07188 24.2403 1.52391 23.3326 1.52391C21.6658 1.52391 21.6658 0.00015625 19.9991 0H19.9988C19.1369 7.8125e-05 18.7208 0.407656 18.2892 0.801328V3.46805C18.7207 3.07438 19.137 2.66672 19.9991 2.66672C21.6659 2.66672 21.6659 4.19047 23.3327 4.19047C24.9994 4.19047 24.9994 2.66672 26.666 2.66672C28.3327 2.66672 28.3327 4.19047 29.9993 4.19047C30.6986 4.19047 31.1042 3.92203 31.4629 3.61063C29.5617 2.2782 27.4181 1.26836 25.1113 0.660313Z" fill="#0052B4"/>
<path d="M23.3337 38.0455C21.6669 38.0455 21.6669 36.5216 20.0001 36.5216C18.3334 36.5216 18.3334 38.0455 16.6669 38.0455C15.0005 38.0455 15.0005 36.5216 13.3338 36.5216C12.0572 36.5216 11.7577 37.4148 10.939 37.8334C13.1968 38.983 15.702 39.7157 18.3536 39.9319C18.7637 39.5572 19.1802 39.1883 20.0001 39.1883C20.8202 39.1883 21.2367 39.5572 21.6469 39.9319C24.2985 39.7159 26.8039 38.983 29.0618 37.8335C28.2429 37.415 27.9435 36.5215 26.667 36.5215C25.0005 36.5216 25.0005 38.0455 23.3337 38.0455Z" fill="#0052B4"/>
<path d="M29.9992 32.8286C28.3326 32.8286 28.3326 31.3047 26.666 31.3047C24.9994 31.3047 24.9994 32.8286 23.3326 32.8286C21.6658 32.8286 21.6658 31.3047 19.999 31.3047C18.3324 31.3047 18.3324 32.8286 16.6658 32.8286C14.9994 32.8286 14.9994 31.3047 13.3328 31.3047C11.666 31.3047 11.666 32.8286 9.9992 32.8286C8.3324 32.8286 8.3324 31.3047 6.66561 31.3047C5.46709 31.3047 5.13053 32.093 4.41608 32.5355C4.86389 33.0916 5.33998 33.624 5.84381 34.1287C6.06951 34.0323 6.33436 33.9714 6.66553 33.9714C8.33233 33.9714 8.33233 35.4952 9.99912 35.4952C11.6659 35.4952 11.6659 33.9714 13.3327 33.9714C14.9994 33.9714 14.9994 35.4952 16.6658 35.4952C18.3324 35.4952 18.3324 33.9714 19.999 33.9714C21.6658 33.9714 21.6658 35.4952 23.3326 35.4952C24.9994 35.4952 24.9994 33.9714 26.6659 33.9714C28.3325 33.9714 28.3326 35.4952 29.9991 35.4952C31.6657 35.4952 31.6658 33.9714 33.3323 33.9714C33.6639 33.9714 33.9287 34.0323 34.1546 34.1288C34.6585 33.6241 35.1346 33.0917 35.5824 32.5356C34.8679 32.0931 34.5313 31.3048 33.3324 31.3048C31.6658 31.3047 31.6658 32.8286 29.9992 32.8286Z" fill="#0052B4"/>
<path d="M19.946 19.9998H19.9995C19.9995 19.9818 19.9995 19.9643 19.9995 19.9463C19.9817 19.9642 19.9639 19.982 19.946 19.9998Z" fill="#F0F0F0"/>
<path d="M19.9999 10.435V16.311L13.0434 9.56543L19.9999 10.435Z" fill="#0052B4"/>
<path d="M10.4353 19.9999H16.3111L10.4353 12.1738L9.56573 18.2608L10.4353 19.9999Z" fill="#0052B4"/>
<path d="M20 10.4348C20 6.91563 20 4.60977 20 0H19.9966C8.9525 0.001875 0 8.95539 0 20H10.4348V14.1241L16.3106 20H19.9466C19.9644 19.9822 19.9822 19.9644 20.0001 19.9465C20.0001 18.5991 20.0001 17.3968 20.0001 16.3108L14.1241 10.4348H20Z" fill="#F0F0F0"/>
<path d="M10.1188 2.6084C6.99077 4.38957 4.3903 6.99004 2.60913 10.1181V19.9997H7.82655V7.82598V7.82582H20.0005C20.0005 6.18027 20.0005 4.61262 20.0005 2.6084H10.1188Z" fill="#D80027"/>
<path d="M20.0011 17.5403L12.8952 10.4346H10.4358V10.4347L20.0009 19.9997H20.0011C20.0011 19.9997 20.0011 18.3038 20.0011 17.5403Z" fill="#D80027"/>
<path d="M26.0868 10.4346H33.9129L29.9998 14.3476L26.0868 10.4346Z" fill="#6DA544"/>
<path d="M29.1305 13.4785H30.8696V18.2611H29.1305V13.4785Z" fill="#A2001D"/>
<path d="M29.1305 26.0869H30.8696V30.8695H29.1305V26.0869Z" fill="#A2001D"/>
<path d="M35.2178 23.4786C35.2178 22.0379 34.0498 20.8699 32.6091 20.8699C31.9408 20.8699 31.3316 21.1215 30.87 21.5347V20.0003H31.7395V18.2611H30.87V17.3916H29.1308V18.2611H28.2613V20.0003H29.1308V21.5347C28.6692 21.1215 28.06 20.8699 27.3917 20.8699C25.951 20.8699 24.783 22.0379 24.783 23.4786C24.783 24.251 25.119 24.9447 25.6526 25.4225V26.9569H34.3482V25.4225C34.8818 24.9447 35.2178 24.251 35.2178 23.4786Z" fill="#FFDA44"/>
<path d="M32.6093 22.6084C32.335 22.6084 32.1429 22.7289 32.0301 22.8298L30.8701 23.8682H29.1311L27.9712 22.8298C27.8583 22.7289 27.6662 22.6084 27.3919 22.6084C26.9125 22.6084 26.5224 22.9985 26.5224 23.4779C26.5224 23.8157 26.7045 24.029 26.813 24.1263L27.392 24.6447V25.2171H32.6094V24.6447L33.1884 24.1263C33.2969 24.0291 33.479 23.8157 33.479 23.4779C33.4789 22.9985 33.0888 22.6084 32.6093 22.6084Z" fill="#D80027"/>
</g>
<defs>
<clipPath id="clip0_1350_8899">
<rect width="40" height="40" fill="white"/>
</clipPath>
</defs>
</svg>
