<svg width="40" height="40" viewBox="0 0 40 40" fill="none" xmlns="http://www.w3.org/2000/svg">
<g clip-path="url(#clip0_1350_9260)">
<path d="M20 40C31.0457 40 40 31.0457 40 20C40 8.9543 31.0457 0 20 0C8.9543 0 0 8.9543 0 20C0 31.0457 8.9543 40 20 40Z" fill="#FFDA44"/>
<path d="M20.0001 0C15.1034 0 10.6186 1.7607 7.14187 4.68234L28.6957 20L7.14187 35.3177C10.6186 38.2393 15.1034 40 20.0001 40C31.0457 40 40.0001 31.0456 40.0001 20C40.0001 8.95437 31.0457 0 20.0001 0Z" fill="#D80027"/>
<path d="M5.85782 5.85791C-1.95265 13.6684 -1.95265 26.3317 5.85782 34.1423C9.0854 30.9147 12.1895 27.8106 20 20.0001L5.85782 5.85791Z" fill="black"/>
<path d="M5.54473 15.4185L8.58848 18.2991L12.2688 16.2941L10.47 20.0792L13.5138 22.96L9.35801 22.4187L7.55895 26.2038L6.78965 22.0841L2.63387 21.5427L6.31403 19.5379L5.54473 15.4185Z" fill="#F0F0F0"/>
</g>
<defs>
<clipPath id="clip0_1350_9260">
<rect width="40" height="40" fill="white"/>
</clipPath>
</defs>
</svg>
