<svg width="40" height="40" viewBox="0 0 40 40" fill="none" xmlns="http://www.w3.org/2000/svg">
<g clip-path="url(#clip0_1350_9952)">
<path d="M40 20C40 31.0456 31.0456 40 20 40C8.95437 40 0 31.0456 0 20C0 20.0048 20 0.0021875 20 0C31.0456 0 40 8.95437 40 20Z" fill="#FFDA44"/>
<path d="M20 9.56543V16.311L13.0435 9.56543H20Z" fill="#0052B4"/>
<path d="M10.4348 19.9999H16.3107L10.4348 12.1738L9.56531 18.2608L10.4348 19.9999Z" fill="#0052B4"/>
<path d="M19.9464 19.9998H19.9999C19.9999 19.9818 19.9999 19.9643 19.9999 19.9463C19.9821 19.9642 19.9643 19.982 19.9464 19.9998Z" fill="#F0F0F0"/>
<path d="M20 10.4348C20 6.91563 20 4.60977 20 0H19.9966C8.95242 0.001875 0 8.95539 0 20H10.4348V14.1241L16.3106 20H19.9466C19.9644 19.9822 19.9822 19.9644 20.0001 19.9465C20.0001 18.5991 20.0001 17.3968 20.0001 16.3108L14.1241 10.4348H20Z" fill="#F0F0F0"/>
<path d="M19.9999 17.5403L12.8941 10.4346H10.4347V10.4347L19.9998 19.9997H19.9999C19.9999 19.9997 19.9999 18.3038 19.9999 17.5403Z" fill="#D80027"/>
<path d="M10.1184 2.6084C9.34738 3.04746 8.6087 3.53676 7.9062 4.0709H8.72683L6.55792 5.64699L7.3862 8.19676L5.2173 6.62098L4.98652 6.78871C4.08597 7.81137 3.28753 8.92605 2.6087 10.1181V19.9997H7.82613V7.82598V7.82582H20C20 6.18027 20 4.61262 20 2.6084H10.1184Z" fill="#D80027"/>
<path d="M8.5438 3.60547C8.32809 3.75648 8.11544 3.91172 7.90598 4.07102L6.55794 5.64711L5.21731 6.62102L4.98458 6.79008C4.49348 7.34789 4.03293 7.9332 3.60559 8.54359C4.0927 8.78 4.6395 8.91289 5.21731 8.91289C7.2584 8.91289 8.91294 7.25836 8.91294 5.21727C8.91309 4.6393 8.78028 4.09266 8.5438 3.60547Z" fill="#0052B4"/>
<path d="M4.98438 6.79035L5.21711 6.62129L7.38602 8.19715L6.55766 5.64738L8.72641 4.07129H7.90563C6.84359 4.87902 5.86492 5.79027 4.98438 6.79035Z" fill="#FFDA44"/>
<path d="M13.8238 3.47852L14.2555 4.80703H15.6524L14.5223 5.62821L14.9538 6.95673L13.8238 6.13563L12.6937 6.95673L13.1251 5.62821L11.9951 4.80703H13.392L13.8238 3.47852Z" fill="#FFDA44"/>
<path d="M5.2174 12.1738L5.64912 13.5023H7.046L5.916 14.3236L6.34748 15.6521L5.2174 14.8309L4.08725 15.6521L4.51873 14.3236L3.38873 13.5023H4.78561L5.2174 12.1738Z" fill="#FFDA44"/>
</g>
<defs>
<clipPath id="clip0_1350_9952">
<rect width="40" height="40" fill="white"/>
</clipPath>
</defs>
</svg>
