<svg width="40" height="40" viewBox="0 0 40 40" fill="none" xmlns="http://www.w3.org/2000/svg">
<g clip-path="url(#clip0_1350_10596)">
<path d="M20 40C31.0457 40 40 31.0457 40 20C40 8.9543 31.0457 0 20 0C8.9543 0 0 8.9543 0 20C0 31.0457 8.9543 40 20 40Z" fill="#F0F0F0"/>
<path d="M4.13423 7.82373C2.56322 9.86771 1.37861 12.2236 0.688843 14.7829H11.0934L4.13423 7.82373Z" fill="#0052B4"/>
<path d="M39.3109 14.7828C38.6211 12.2236 37.4364 9.86772 35.8655 7.82373L28.9065 14.7828H39.3109Z" fill="#0052B4"/>
<path d="M0.688843 25.2173C1.37869 27.7765 2.5633 30.1324 4.13423 32.1763L11.0931 25.2173H0.688843Z" fill="#0052B4"/>
<path d="M32.1763 4.13443C30.1324 2.56342 27.7766 1.37881 25.2173 0.688965V11.0934L32.1763 4.13443Z" fill="#0052B4"/>
<path d="M7.82361 35.8656C9.86759 37.4367 12.2235 38.6213 14.7827 39.3111V28.9067L7.82361 35.8656Z" fill="#0052B4"/>
<path d="M14.7826 0.688965C12.2234 1.37881 9.86751 2.56342 7.82361 4.13436L14.7826 11.0933V0.688965Z" fill="#0052B4"/>
<path d="M25.2173 39.3111C27.7765 38.6213 30.1324 37.4367 32.1763 35.8657L25.2173 28.9067V39.3111Z" fill="#0052B4"/>
<path d="M28.9065 25.2173L35.8655 32.1763C37.4364 30.1324 38.6211 27.7765 39.3109 25.2173H28.9065Z" fill="#0052B4"/>
<path d="M39.8307 17.3913H22.6088H22.6087V0.169297C21.7548 0.058125 20.8841 0 20 0C19.1157 0 18.2452 0.058125 17.3913 0.169297V17.3912V17.3913H0.169297C0.058125 18.2452 0 19.1159 0 20C0 20.8843 0.058125 21.7548 0.169297 22.6087H17.3912H17.3913V39.8307C18.2452 39.9419 19.1157 40 20 40C20.8841 40 21.7548 39.942 22.6087 39.8307V22.6088V22.6087H39.8307C39.9419 21.7548 40 20.8843 40 20C40 19.1159 39.9419 18.2452 39.8307 17.3913Z" fill="#D80027"/>
<path d="M25.2177 25.2174L34.1423 34.142C34.5528 33.7317 34.9444 33.3028 35.318 32.8581L27.6772 25.2173H25.2177V25.2174Z" fill="#D80027"/>
<path d="M14.7827 25.2178H14.7825L5.85791 34.1424C6.26822 34.5529 6.69721 34.9444 7.14189 35.318L14.7827 27.6771V25.2178Z" fill="#D80027"/>
<path d="M14.7827 14.7828V14.7827L5.858 5.85791C5.44753 6.26822 5.05597 6.69721 4.68237 7.1419L12.3232 14.7828H14.7827V14.7828Z" fill="#D80027"/>
<path d="M25.2177 14.7825L34.1424 5.85768C33.7321 5.44721 33.3031 5.05564 32.8584 4.68213L25.2177 12.323V14.7825Z" fill="#D80027"/>
</g>
<defs>
<clipPath id="clip0_1350_10596">
<rect width="40" height="40" fill="white"/>
</clipPath>
</defs>
</svg>
