<svg width="96" height="96" viewBox="0 0 96 96" fill="none" xmlns="http://www.w3.org/2000/svg">
<g clip-path="url(#clip0_1307_20200)">
<path opacity="0.1" d="M48 94C22.6394 94 2 73.3641 2 48C2 22.6395 22.6395 2 48 2C73.3641 2 94 22.6394 94 48C94 73.3642 73.3642 94 48 94Z" stroke="#D95D39" stroke-width="4"/>
<path fill-rule="evenodd" clip-rule="evenodd" d="M33.1965 28.8916C32.0077 27.7028 30.0803 27.7028 28.8916 28.8916C27.7028 30.0803 27.7028 32.0077 28.8916 33.1965L43.6951 48L28.8916 62.8035C27.7028 63.9923 27.7028 65.9197 28.8916 67.1084L30.26 65.74L28.8916 67.1084C30.0803 68.2972 32.0077 68.2972 33.1965 67.1084L48 52.3049L62.8035 67.1084C63.9923 68.2972 65.9197 68.2972 67.1084 67.1084C68.2972 65.9197 68.2972 63.9923 67.1084 62.8035L52.3049 48L67.1084 33.1965C68.2972 32.0077 68.2972 30.0803 67.1084 28.8916C65.9197 27.7028 63.9923 27.7028 62.8035 28.8916L48 43.6951L33.1965 28.8916Z" fill="#D95D39"/>
</g>
<defs>
<clipPath id="clip0_1307_20200">
<rect width="96" height="96" fill="white"/>
</clipPath>
</defs>
</svg>
