<svg width="96" height="96" viewBox="0 0 96 96" fill="none" xmlns="http://www.w3.org/2000/svg">
<g clip-path="url(#clip0_1446_9882)">
<path opacity="0.8" d="M48 94C22.6394 94 2 73.3641 2 48C2 22.6395 22.6395 2 48 2C73.3641 2 94 22.6394 94 48C94 73.3642 73.3642 94 48 94Z" stroke="#2F976A" stroke-width="4"/>
<path d="M43.2587 63.9968C42.3582 63.9968 41.4979 63.6363 40.8628 62.9896L28.4641 50.3583C27.1637 49.0312 27.1805 46.9024 28.5044 45.5955C29.8283 44.2953 31.9552 44.3088 33.2556 45.6359L43.1613 55.7274L63.6547 33.1023C64.9079 31.7247 67.0316 31.627 68.3991 32.8733C69.7733 34.123 69.8741 36.2517 68.6275 37.6327L45.7452 62.8952C45.1237 63.5823 44.25 63.9798 43.326 64C43.3024 63.9968 43.2822 63.9968 43.2587 63.9968Z" fill="#2F976A"/>
</g>
<defs>
<clipPath id="clip0_1446_9882">
<rect width="96" height="96" fill="white"/>
</clipPath>
</defs>
</svg>
