<svg width="96" height="96" viewBox="0 0 96 96" fill="none" xmlns="http://www.w3.org/2000/svg">
<g clip-path="url(#clip0_1446_9883)">
<path opacity="0.8" d="M48 94C22.6394 94 2 73.3641 2 48C2 22.6395 22.6395 2 48 2C73.3641 2 94 22.6394 94 48C94 73.3642 73.3642 94 48 94Z" stroke="#FFC700" stroke-width="4"/>
<path fill-rule="evenodd" clip-rule="evenodd" d="M50.5311 30.5104C50.1292 30.1701 49.5837 30 48.8947 30H45.1053C44.4163 30 43.8708 30.1701 43.4689 30.5104C43.067 30.8507 42.9234 31.2639 43.0383 31.75L44.244 56.3958C44.244 56.7847 44.445 57.1493 44.8469 57.4896C45.2488 57.8299 45.7368 58 46.311 58H47.689C48.2632 58 48.7512 57.8299 49.1531 57.4896C49.555 57.1493 49.756 56.7361 49.756 56.25L50.9617 31.75C51.0766 31.2639 50.933 30.8507 50.5311 30.5104ZM50.8571 62.1429C50.0952 61.381 49.1429 61 48 61C46.8571 61 45.9048 61.381 45.1429 62.1429C44.381 62.9048 44 63.8571 44 65C44 66.1429 44.381 67.0952 45.1429 67.8571C45.9048 68.619 46.8571 69 48 69C49.1429 69 50.0952 68.619 50.8571 67.8571C51.619 67.0952 52 66.1429 52 65C52 63.8571 51.619 62.9048 50.8571 62.1429Z" fill="#FFC700"/>
</g>
<defs>
<clipPath id="clip0_1446_9883">
<rect width="96" height="96" fill="white"/>
</clipPath>
</defs>
</svg>
