<svg width="14" height="14" viewBox="0 0 14 14" fill="none" xmlns="http://www.w3.org/2000/svg">
<path fill-rule="evenodd" clip-rule="evenodd" d="M7.0001 0.600098C6.55827 0.600098 6.2001 0.958271 6.2001 1.4001V6.2001H1.4001C0.95827 6.2001 0.600098 6.55827 0.600098 7.0001C0.600098 7.44193 0.958271 7.8001 1.4001 7.8001H6.2001V12.6001C6.2001 13.0419 6.55827 13.4001 7.0001 13.4001C7.44193 13.4001 7.8001 13.0419 7.8001 12.6001V7.8001H12.6001C13.0419 7.8001 13.4001 7.44193 13.4001 7.0001C13.4001 6.55827 13.0419 6.2001 12.6001 6.2001H7.8001V1.4001C7.8001 0.95827 7.44193 0.600098 7.0001 0.600098Z" fill="white"/>
</svg>
