<svg width="20" height="20" viewBox="0 0 20 20" fill="none" xmlns="http://www.w3.org/2000/svg">
<path d="M17.2619 8.78469H6.5476L10.0726 5.35514C10.173 5.25823 10.2527 5.14294 10.3071 5.01591C10.3615 4.88888 10.3895 4.75263 10.3895 4.61502C10.3895 4.47741 10.3615 4.34116 10.3071 4.21413C10.2527 4.0871 10.173 3.97181 10.0726 3.8749C9.87185 3.68075 9.6003 3.57178 9.31724 3.57178C9.03419 3.57178 8.76263 3.68075 8.56188 3.8749L3.96546 8.3573C3.56304 8.74649 3.33571 9.27507 3.33331 9.82711C3.33853 10.3755 3.56565 10.8999 3.96546 11.2865L8.56188 15.7689C8.66178 15.8654 8.78024 15.9418 8.9105 15.9938C9.04075 16.0458 9.18025 16.0723 9.32103 16.0718C9.46181 16.0713 9.60111 16.0438 9.73099 15.991C9.86086 15.9381 9.97876 15.8609 10.078 15.7637C10.1772 15.6665 10.2557 15.5512 10.3091 15.4245C10.3625 15.2978 10.3898 15.1621 10.3893 15.0251C10.3888 14.8881 10.3605 14.7526 10.3062 14.6262C10.2519 14.4999 10.1725 14.3852 10.0726 14.2887L6.5476 10.8695H17.2619C17.546 10.8695 17.8186 10.7597 18.0195 10.5642C18.2204 10.3687 18.3333 10.1036 18.3333 9.82711C18.3333 9.55064 18.2204 9.2855 18.0195 9.09001C17.8186 8.89452 17.546 8.78469 17.2619 8.78469Z" fill="black"/>
</svg>
