<svg width="12" height="7" viewBox="0 0 12 7" fill="none" xmlns="http://www.w3.org/2000/svg">
<path d="M11.5917 0.675209C11.5142 0.597102 11.422 0.535107 11.3205 0.4928C11.2189 0.450493 11.11 0.428711 11 0.428711C10.89 0.428711 10.7811 0.450493 10.6795 0.4928C10.578 0.535107 10.4858 0.597102 10.4083 0.675209L6.59168 4.49187C6.51421 4.56997 6.42204 4.63197 6.32049 4.67428C6.21894 4.71658 6.11002 4.73837 6.00001 4.73837C5.89 4.73837 5.78108 4.71658 5.67953 4.67428C5.57798 4.63197 5.48581 4.56997 5.40834 4.49187L1.59168 0.675209C1.51421 0.597102 1.42204 0.535107 1.32049 0.4928C1.21894 0.450493 1.11002 0.428711 1.00001 0.428711C0.89 0.428711 0.781078 0.450493 0.679529 0.4928C0.577979 0.535107 0.485812 0.597102 0.408343 0.675209C0.253134 0.831344 0.166016 1.04255 0.166016 1.26271C0.166016 1.48286 0.253134 1.69407 0.408343 1.85021L4.23334 5.6752C4.70209 6.14337 5.33751 6.40633 6.00001 6.40633C6.66251 6.40633 7.29793 6.14337 7.76668 5.6752L11.5917 1.85021C11.7469 1.69407 11.834 1.48286 11.834 1.26271C11.834 1.04255 11.7469 0.831344 11.5917 0.675209Z" fill="black"/>
</svg>
