<svg width="24" height="24" viewBox="0 0 24 24" fill="none" xmlns="http://www.w3.org/2000/svg">
<g clip-path="url(#clip0_1408_8830)">
<path opacity="0.4" d="M0 12C0 18.6172 5.38373 24 12 24C18.6172 24 24 18.6172 24 12C24 5.38373 18.6172 0 12 0C5.38373 0 0 5.38373 0 12Z" fill="#D9D9D9"/>
<path fill-rule="evenodd" clip-rule="evenodd" d="M8.29912 7.22289C8.00192 6.9257 7.52008 6.9257 7.22289 7.22289C6.9257 7.52008 6.9257 8.00193 7.22289 8.29912L10.9238 12L7.22289 15.7009C6.9257 15.9981 6.9257 16.4799 7.2229 16.7771C7.52009 17.0743 8.00193 17.0743 8.29912 16.7771L12 13.0762L15.7009 16.7771C15.9981 17.0743 16.4799 17.0743 16.7771 16.7771C17.0743 16.4799 17.0743 15.9981 16.7771 15.7009L13.0762 12L16.7771 8.29912C17.0743 8.00193 17.0743 7.52008 16.7771 7.22289C16.4799 6.9257 15.9981 6.9257 15.7009 7.22289L12 10.9238L8.29912 7.22289Z" fill="white"/>
</g>
<defs>
<clipPath id="clip0_1408_8830">
<rect width="24" height="24" fill="white"/>
</clipPath>
</defs>
</svg>
