<svg width="24" height="24" viewBox="0 0 24 24" fill="none" xmlns="http://www.w3.org/2000/svg">
<g clip-path="url(#clip0_1408_8844)">
<path opacity="0.4" d="M0 12C0 18.6172 5.38373 24 12 24C18.6172 24 24 18.6172 24 12C24 5.38373 18.6172 0 12 0C5.38373 0 0 5.38373 0 12Z" fill="white"/>
<path fill-rule="evenodd" clip-rule="evenodd" d="M12.6328 7.6276C12.5323 7.54254 12.3959 7.5 12.2237 7.5H11.2763C11.1041 7.5 10.9677 7.54254 10.8672 7.6276C10.7667 7.71267 10.7309 7.81597 10.7596 7.9375L11.061 14.099C11.061 14.1962 11.1112 14.2873 11.2117 14.3724C11.3122 14.4575 11.4342 14.5 11.5778 14.5H11.9222C12.0658 14.5 12.1878 14.4575 12.2883 14.3724C12.3888 14.2873 12.439 14.184 12.439 14.0625L12.7404 7.9375C12.7691 7.81597 12.7333 7.71267 12.6328 7.6276ZM12.7143 15.5357C12.5238 15.3452 12.2857 15.25 12 15.25C11.7143 15.25 11.4762 15.3452 11.2857 15.5357C11.0952 15.7262 11 15.9643 11 16.25C11 16.5357 11.0952 16.7738 11.2857 16.9643C11.4762 17.1548 11.7143 17.25 12 17.25C12.2857 17.25 12.5238 17.1548 12.7143 16.9643C12.9048 16.7738 13 16.5357 13 16.25C13 15.9643 12.9048 15.7262 12.7143 15.5357Z" fill="white"/>
</g>
<defs>
<clipPath id="clip0_1408_8844">
<rect width="24" height="24" fill="white"/>
</clipPath>
</defs>
</svg>
